<?xml version="1.0" encoding="UTF-8"?>
<svg id="ART" xmlns="http://www.w3.org/2000/svg" version="1.1" viewBox="0 0 142.2 136.5">
  <!-- Generator: Adobe Illustrator 29.0.0, SVG Export Plug-In . SVG Version: 2.1.0 Build 186)  -->
  <defs>
    <style>
      .st0 {
        fill: #1d1d1b;
      }
    </style>
  </defs>
  <path class="st0" d="M70.4,74.8c9.8,0,18.6,4,24.9,10.5l1-1c-6.6-6.7-15.8-10.9-25.9-10.9s-19.4,4.2-25.9,10.9l1,1c6.3-6.5,15.2-10.5,24.9-10.5M70.4,89.6c6,0,11.4,2.6,15,6.8l1.1-.9c-3.9-4.5-9.7-7.3-16.1-7.3s-12.2,2.8-16.1,7.3l1.1.9c3.7-4.2,9-6.8,15-6.8M90,83.4c-.4-.3-.7-.2-1,0l-7.9,5.1,1.7.9,5.7-3.7-.9,3.1-.7-.6-1.5,1,1.7,1.3-.5,1.7,1.5,1.4,2.6-9.1c.1-.3.1-.7-.3-1l-.4-.3ZM55.4,89.6c.5-.4.8-.9.9-1.5,0-.6-.1-1.1-.7-1.9l-3.1-3.9,1.4-1.1,3.4,4.2c.7.9,1,1.8.9,2.7-.1,1.1-.6,2-1.6,2.7-1,.8-1.9,1.1-3,1-1,0-1.8-.6-2.5-1.4l-3.4-4.2,1.4-1.1,3.1,3.9c.6.8,1,1,1.7,1.1.5,0,1.1-.1,1.6-.5M62.9,79.6l.4,2,4.1-.8.3,1.6-4.1.8.2.9c.2.9.6,1.1,1.4.9l3.3-.7.3,1.7-3.4.7c-1.6.3-3-.1-3.4-2.1l-1.2-5.7c0-.4.1-.7.5-.8l5.6-1.1.3,1.7-4.5.9ZM75,86.6l-1.1-.3c-.4-.1-.6-.4-.5-.8l1.5-5.6c.5-1.9,1.9-2.3,3.5-1.9l3.3.9-.4,1.6-3.2-.9c-.8-.2-1.2,0-1.5.9l-.2.8,4,1.1-.4,1.6-4-1.1-1,3.7ZM108.9,134.3h.4c.3,0,.6,0,.6-.4s-.3-.3-.5-.3h-.5v.7ZM108.9,134.6h0v1h-.3v-2.3h.9c.5,0,.8.2.8.7s-.3.6-.6.6l.7,1h-.4l-.6-1h-.4ZM107.7,134.5h0c0,1,.7,1.7,1.6,1.7s1.6-.7,1.6-1.7-.7-1.7-1.6-1.7-1.6.7-1.6,1.7M109.3,136.5h0c-1.1,0-2-.9-2-2s.9-2,2-2,2,.9,2,2-.9,2-2,2M98.3,122.1h0v8.7c0,.5-.2.7-.8.7v.5h8.9c0-.9,0-1.8.2-3.2h-.6c-.3,1.4-.6,1.7-1.5,1.7h-3.8v-3.6h2.2c.8,0,.9.3,1,.9h.5c0-.4,0-1.1,0-1.6s0-1.2,0-1.6h-.5c-.1.6-.2.9-1,.9h-2.2v-3.2h3.6c.9,0,1.1.3,1.3,1.2h.5c0-.9-.1-1.7-.1-2.6h-8.5v.5c.6,0,.8.2.8.7M84.7,122h0v6.3c0,2.9,1.6,3.9,4.7,3.9s4.7-1,4.7-4.1v-6.1c0-.5.2-.7.8-.7v-.5c-.5,0-1.2.1-1.9.1s-1.6,0-2.2-.1v.5c.7,0,.9.2.9.8v6.3c0,1.9-.8,2.3-2.2,2.3s-2.2-.4-2.2-2.3v-6.3c0-.7.2-.8.9-.8v-.5c-.7,0-1.4.1-2.2.1s-1.4,0-1.9-.1v.5c.6,0,.8.2.8.7M78,128h0v1.2c0,.8-.7,1.3-1.9,1.3-2,0-3.1-2.4-3.1-4.5s1.1-4,3.5-4,2.8.7,3,2.2h.5c0-1.2-.1-2.1-.1-2.9-.9-.6-2.2-.8-3.3-.8-3.6,0-6.1,2.2-6.1,5.9s2,5.7,5.2,5.7,2.3-.4,3.3-1.3l.4,1.1h1v-3.8c0-.8.3-.9.9-.9v-.5c-.8,0-1.5.1-2.3.1s-1.4,0-2.1-.1v.6c.8,0,1.1,0,1.1.7M64.4,127.1h-2.4c.4-1.2,1-2.5,1.4-3.9h0c.3,1.7.6,2.8,1,3.9M57.9,131.5h0v.5c.6,0,1.2-.1,1.8-.1s1.2,0,1.7.1v-.5c-.6,0-.8-.2-.8-.5s0-.4.1-.6l.7-2h3.3l.5,1.6c0,.2.2.6.2.8,0,.4-.2.5-.8.6v.5c.7,0,1.5-.1,2.2-.1s1.4,0,2.1.1v-.5c-.5-.1-.8-.4-1-1.1l-3.1-9.6c-.5,0-1.1.1-1.6.1s-1,0-1.6-.1v.5c.5,0,.6.3.6.4s-.1.4-.2.7l-3.3,8.4c-.2.4-.4.7-.9.8M47.6,122.1h0v8.7c0,.5-.2.7-.8.7v.5h8.9c0-.9,0-1.8.2-3.2h-.6c-.3,1.4-.6,1.7-1.5,1.7h-3.8v-3.5h2.2c.8,0,.9.3,1,.9h.5c0-.4,0-1.2,0-1.6s0-1.2,0-1.6h-.5c0,.6-.2.9-1,.9h-2.2v-3.3h3.6c.9,0,1.1.3,1.3,1.2h.5c0-.9-.1-1.7-.1-2.6h-8.5v.5c.6,0,.8.2.8.7M36.8,122h0v8.8c0,.5-.2.7-.8.7v.5h8.4c0-1.1.2-2.2.4-3.3h-.5c-.3,1.3-.7,1.8-1.9,1.8h-3.1v-8.3c0-.5.1-.9,1-.9v-.5c-.5,0-1.5.1-2.2.1s-1.3,0-2-.1v.5c.6,0,.8.2.8.7M13.2,113.3h0l.3-2.7c-1.3,1.1-3.2,1.8-4.6,1.8-3.2,0-5.5-3.1-5.5-5.9s2.1-5.8,4.9-5.8,3.4,1.1,3.8,3.1h.6c-.1-1.6-.2-3.2-.2-4.8-.6-.2-2-.6-4-.6-5.6,0-8.6,4.1-8.6,8.3s2.9,8.2,8.2,8.2,3.5-.5,5-1.6M51.8,103.2h0l-.5,9.1c0,.9-.4,1.1-1.2,1.2v.5c.7,0,1.5-.1,2.3-.1s1.6,0,2.5.1v-.5c-1.3-.2-1.4-.4-1.4-1.5s0-1.2,0-2.3l.2-6.4h0l4.2,10.9h1.8l3.6-10.7h0l.5,6.5c0,.7.1,1.7.1,2.2,0,1-.3,1.2-1.4,1.3v.5c.9,0,1.8-.1,2.8-.1s1.9,0,2.8.1v-.5c-.4,0-1.1-.2-1.1-.7l-.7-9.3c0-.7-.2-1.7-.2-2.3s.1-.8.9-.9v-.6c-.7,0-1.5.1-2.3.1s-1.5,0-2.3-.1l-3.4,10.1-3.8-10.1c-.8,0-1.6.1-2.4.1s-1.6,0-2.2-.1v.6c.8.1,1,.2,1,.9s0,1.5,0,2.1M33,114.1h0v-.5c.6,0,.9-.4,1.1-1l4.3-10.9c.1-.3.3-.6.3-.8s-.2-.6-.8-.6v-.6c.7,0,1.4.1,2.1.1s1.4,0,2.1-.1l4,12.4c.3,1,.7,1.2,1.3,1.4v.5c-.9,0-1.9-.1-2.8-.1s-1.9,0-2.8.1v-.5c.8-.2,1.1-.3,1.1-.8s-.1-.8-.2-1.1l-.7-2.1h-4.3l-1,2.6c-.1.3-.2.5-.2.8,0,.4.3.7,1,.7v.5c-.7,0-1.5-.1-2.2-.1s-1.5,0-2.3.1M38.3,107.8h3.1c-.5-1.4-.8-2.8-1.3-5h0c-.5,1.7-1.2,3.5-1.8,5M17.5,101.2h0v11.4c0,.6-.3.9-1,.9v.6c1,0,1.8-.1,2.6-.1s1.7,0,2.6.1v-.6c-.7,0-1-.3-1-.9v-5h5.3v5c0,.6-.3.9-1,.9v.6c1,0,1.8-.1,2.6-.1s1.7,0,2.6.1v-.6c-.7,0-1-.3-1-.9v-11.4c0-.6.3-.9,1-.9v-.6c-1,0-1.8.1-2.6.1s-1.7,0-2.6-.1v.6c.7,0,1,.3,1,.9v4.3h-5.3v-4.3c0-.6.3-.9,1-.9v-.6c-1,0-1.8.1-2.6.1-.8,0-1.7,0-2.6-.1v.6c.7,0,1,.3,1,.9M131.1,109.1h-.6c.1,1.3.2,2.9.2,4.6,1.5.5,3.2.8,4.9.8,3.7,0,6.7-1.6,6.7-4.5s-2.1-3.8-4.4-4.4l-2.4-.7c-.9-.3-2-.6-2-1.9s1.9-1.9,3-1.9c2,0,3.7,1,4.2,3h.6c0-1.2-.2-2.5-.2-4.2-1.3-.5-2.8-.7-4.2-.7-3.4,0-6.7,1.1-6.7,4.5s2.3,3.6,4.6,4.3l1.6.5c1,.3,2.4.7,2.4,2s-1.9,2.1-3.2,2.1c-2.4,0-4-1.1-4.5-3.6M114.1,101.2h0v11.4c0,.6-.3.9-1,.9v.5c.7,0,1.4-.1,2.1-.1s1.4,0,2.1.1v-.5c-.6,0-1.3,0-1.3-1.2v-9.5h0l7.3,11.3h2.3v-12.9c0-.6.3-.9,1-.9v-.6c-.7,0-1.4.1-2.1.1s-1.4,0-2.1-.1v.6c.6,0,1.3,0,1.3,1.2v8h0l-6-9.8c-.7.1-1.3.1-1.9.1s-1.7,0-2.6-.1v.6c.7,0,1,.3,1,.9M87.8,101.2h0v11.4c0,.6-.3.9-1,.9v.5c1,0,1.8-.1,2.6-.1.8,0,1.7,0,2.6.1v-.5c-.7,0-1-.3-1-.9v-11.4c0-.6.3-.9,1-.9v-.6c-1,0-1.8.1-2.6.1s-1.7,0-2.6-.1v.6c.7,0,1,.3,1,.9M75.8,112.2h0v-10.4h1.4c1.9-.1,3.1.6,3.1,2.5s-.9,3.1-3.2,3.1-.6,0-.8,0-.3,0-.3.2c0,.5,1.6,1,2.6,1,2.8,0,4.9-1.7,4.9-4.4,0-2.5-1.5-4.5-5.5-4.5h-6.5v.6c.7,0,1,.3,1,.9v10.7c0,1-.2,1.4-1,1.6v.5c1,0,1.8-.1,2.6-.1s1.7,0,3,.1v-.5c-1.3-.2-1.4-.5-1.4-1.3M102.2,101.6h0c3.3,0,4.3,3.7,4.3,6.2s-1.3,4.4-3.5,4.4-4.3-3.7-4.3-6.3.8-4.3,3.5-4.3M102.4,114.3h0c3.9,0,7.3-2.8,7.3-7.4s-2.7-7.4-7.1-7.4-7.1,3-7.1,7.2,2.6,7.6,7,7.6M85.6,59.1c.7-3.1.2-6,.2-6-2,2.9-4,5.1-5.8,6.7-4.9.3-8.7-.4-8.7-.4,0,0,2.2,2.2,4.7,3.4-3.3,2.1-5.5,2.2-5.5,2.2,14.5.3,23.3-9.2,23.3-9.2-2.5,1.6-5.3,2.6-8.1,3.2M71.3,59.4s-3-1.2-7.2-3.6c.1-2.5.5-5.8,1.3-9.9,0,0-3.4,3.3-7.7,5.9-2.5-1.7-5.2-3.8-7.8-6.2,0,0,1.3,3.9,3.7,8.2-2.3.9-4.7,1.3-6.8.7,0,0,2.6,3.2,10.5,4.6,2.2,2.6,4.9,4.7,8,5.5,0,0-.9-1-1.1-4.9,2.2,0,4.6,0,7.2-.3M53.8,30.5c-3.5.1-6.3.4-8.5.8-.6-3.8-.7-6.5-.7-6.5-1.7,2.7-2.9,5.2-3.6,7.6-2.5.9-3.1,1.8-3.1,1.8.4,1.3,1.2,2.6,2.1,3.8-.3,5.7,1.5,9.4,1.5,9.4.4-2,1.2-3.9,2.3-5.7,3,2.4,6,4,6,4-1.4-2.5-2.4-5.3-3.2-8.1,3.4-4.2,7.1-7.1,7.1-7.1M45.6,16.9c1.7-1.6,3.7-3.4,6.2-5.2,0,0-2.3,0-4.7.6,1.6-3.9,3.4-6,3.4-6,0,0-10.2,7.2-12.1,20.2,0,0,.9-2.3,3.8-5.9,1.1,2.6,2.5,4.2,2.5,4.2,0-3,.4-5.6,1-8M79.5,6.2c-2.7-1.4-5.3-2.3-7.7-3C74.9.7,77.7,0,77.7,0c-4.9-.2-9.1.7-12.6,2-5.3-.4-8.6.5-8.6.5.8.6,1.5,1.7,2.1,2.9-4.4,3-6.7,6.2-6.7,6.2,2.7-1.3,5.5-2.3,8.3-3.1.3.6.6,1.1,1,1.7,1.9,2.9,3.9,4.9,3.9,4.9.7-3.5,2-6.2,3.4-8.3,6.3-.9,11-.7,11-.7M101.9,21.3c-1.7-3.7-4.1-6.6-6.7-8.7-2.2-4.7-4.8-6.8-4.8-6.8.2,1.1,0,2.3-.3,3.6-5.6-2.8-10.6-3.1-10.6-3.1,3.2,2.1,6.1,4.7,8.6,7.4-2.3,3.7-5.2,6.8-5.2,6.8,3.9-.9,7.1-1.3,9.7-1.3,3.9,5.4,6,9.9,6,9.9,0-3.6-.3-6.8-.9-9.5,3.3.6,4.4,1.9,4.4,1.9M103.6,34.8c-1,1.5-2.5,2.6-4.2,3.4-.2-4.9-1-9.2-1-9.2-1.5,4-3.1,7.5-4.6,10.6-5.2.7-10.4,0-10.4,0,2.8,3.4,5,5.4,6.8,6.7-2.6,4.5-4.6,6.8-4.6,6.8,3.7-.8,6.6-2.2,9-3.9,1,.7,1.8,1.4,2.6,2.6,0,0,1.5-2.1,2-7.1,3.7-4.9,4.3-9.9,4.3-9.9M71.1,36.6h0c-1.9,3-3.9,6.1-5.7,9.3,0,0-1.4-4.8-1.9-11.7-3.2-1.1-6.5-2.3-9.7-3.8,0,0,3.7-1.9,9.6-4.2.2-3.6.7-7.4,1.7-11.2,0,0,1.9,3.6,5.5,8.6,3.7-1.2,7.9-2.4,12.2-3.4,0,0-3.3,4-7.4,9.9,2.4,3,5.1,6.1,8.2,9.2,0,0-5.3-.9-12.4-2.9"/>
</svg>