<?xml version="1.0" encoding="UTF-8"?>
<svg id="Artwork" xmlns="http://www.w3.org/2000/svg" version="1.1" viewBox="0 0 62.73 31.8">
  <!-- Generator: Adobe Illustrator 30.3.0, SVG Export Plug-In . SVG Version: 2.1.3 Build 182)  -->
  <defs>
    <style>
      .st0 {
        fill: #fff;
      }
    </style>
  </defs>
  <path class="st0" d="M35.83,3.9v5.3h4.3v3.5h-4.3v12.4c0,1.9.8,2.8,2.7,2.8s1.2,0,1.5-.1v3.5c-.5.1-1.5.2-2.5.2-4.4,0-6.1-1.7-6.1-6v-12.9h-3.3v-3.5h3.3V3.9h4.4Z"/>
  <path class="st0" d="M54.93,31.4h-4.7l-7.9-22.2h4.7l5.5,17.8h.1l5.5-17.8h4.6s-7.8,22.2-7.8,22.2Z"/>
  <g>
    <path class="st0" d="M19.23,7.7c-2.6-.2-4.8,1.5-6.1,1.5s-3.2-1.4-5.2-1.4c-2.7,0-5.2,1.6-6.6,4-2.8,4.8-.7,12,2,16,1.3,1.9,2.9,4.1,5,4,2,0,2.8-1.3,5.2-1.3s3.1,1.3,5.2,1.3,3.5-2,4.8-3.9c1.5-2.2,2.2-4.4,2.2-4.5,0,0-4.2-1.6-4.2-6.4,0-4,3.3-5.9,3.4-6-1.9-2.8-4.8-3.1-5.8-3.1,0,0,.1-.2.1-.2Z"/>
    <path class="st0" d="M17.53,5.1c1.1-1.3,1.9-3.2,1.6-5.1-1.6,0-3.5,1.1-4.7,2.4-1,1.2-1.9,3.1-1.7,4.9,1.8.1,3.6-.9,4.7-2.2,0,0,.1,0,.1,0Z"/>
  </g>
</svg>