<?xml version="1.0" encoding="UTF-8"?>
<svg id="ATM_VERT" xmlns="http://www.w3.org/2000/svg" version="1.1" viewBox="0 0 204.9 175.9">
  <!-- Generator: Adobe Illustrator 29.0.0, SVG Export Plug-In . SVG Version: 2.1.0 Build 186)  -->
  <g>
    <g>
      <path d="M27.9,158.4h-6.8v-4h18.4v4h-6.8v17.1h-4.9v-17.1Z"/>
      <path d="M55.9,175.5l-4.1-5.9h-4.5v5.9h-4.9v-21.1h9.1c5.6,0,9.2,2.9,9.2,7.7s-1.6,5.5-4.3,6.7l4.7,6.8h-5.2ZM51.3,158.4h-4v7.4h4c3,0,4.5-1.4,4.5-3.7s-1.5-3.7-4.5-3.7Z"/>
      <path d="M80.4,171.6v3.9h-16.3v-21.1h15.9v3.9h-11.1v4.6h9.8v3.8h-9.8v4.9h11.5Z"/>
      <path d="M82.8,173.4l1.7-3.7c1.8,1.3,4.4,2.2,7,2.2s4.1-1,4.1-2.3c0-3.9-12.3-1.2-12.3-9.1s2.9-6.6,8.9-6.6,5.4.6,7.3,1.9l-1.5,3.7c-2-1.1-4-1.7-5.8-1.7-2.9,0-4,1.1-4,2.4,0,3.9,12.3,1.2,12.3,9s-2.9,6.5-9,6.5-6.7-1-8.6-2.4Z"/>
      <path d="M146.4,171.6v3.9h-16.3v-21.1h15.9v3.9h-11.1v4.6h9.8v3.8h-9.8v4.9h11.5Z"/>
      <path d="M150.4,154.4h8.4c6.9,0,11.6,4.2,11.6,10.5s-4.7,10.5-11.6,10.5h-8.4v-21.1ZM158.4,171.5c4.2,0,6.9-2.5,6.9-6.5s-2.7-6.5-6.9-6.5h-3.1v13.1h3.1Z"/>
      <path d="M174.2,154.4h4.9v21.1h-4.9v-21.1Z"/>
      <path d="M198.2,171h-9.4l-1.8,4.5h-4.8l9-21.1h4.6l9,21.1h-4.9l-1.8-4.5ZM196.7,167.3l-3.2-8.1-3.2,8.1h6.4Z"/>
      <path d="M15.9,171H6.6l-1.8,4.5H0l9-21.1h4.6l9,21.1h-4.9l-1.8-4.5ZM14.5,167.3l-3.2-8.1-3.2,8.1h6.4Z"/>
    </g>
    <polygon points="126 154.3 121.9 154.3 114.6 166.1 107.3 154.3 103.2 154.3 103.2 175.5 107.8 175.5 107.8 162.5 114 172.3 115.2 172.3 121.4 162.5 121.4 175.5 126 175.5 126 154.3"/>
  </g>
  <path d="M160.8,47.5L103,0l-46.3,26.3,29.3,21.6-29.3,19.1,29.4,19.2-29.4,21.7,46.3,26.1,57.8-47.5-26.4-19.5,26.4-19.5ZM133.7,65V27.8l23.8,19.6-23.8,17.6ZM157.5,86.6l-23.8,19.6v-37.2l23.8,17.6ZM131.7,27.6v37.4l-26.9-19.9,26.9-17.6ZM104,43.2V3.4l27,22.2-27,17.6ZM131.7,69v37.4l-26.9-17.6,26.9-19.9ZM104,86.9v-39.8l27,19.9-27,19.9ZM131,108.4l-27,22.2v-39.8l27,17.6ZM101.9,47v40.1l-30.7-20,30.7-20.1ZM100.3,89.6l-31.1,23-8.7-4.9,27.7-20.4,12.2,2.4ZM88.1,46.8l-27.6-20.4,8.8-5,31.3,23.1-12.5,2.2ZM88.2,48.9l9.7-1.7-28.9,18.9h-7s26.2-17.1,26.2-17.1ZM88.3,85.2l-26.3-17.1h7s29.2,19.1,29.2,19.1l-9.9-1.9ZM101.9,91v40.1l-30.8-17.4,30.8-22.7ZM101.9,3v40.1l-30.7-22.7L101.9,3Z"/>
</svg>