<?xml version="1.0" encoding="UTF-8"?>
<svg id="LOGO_TRAZO" xmlns="http://www.w3.org/2000/svg" version="1.1" viewBox="0 0 266.9 114.1">
  <!-- Generator: Adobe Illustrator 29.0.0, SVG Export Plug-In . SVG Version: 2.1.0 Build 186)  -->
  <path d="M266.9,40.5L217.6,0l-39.4,22.4,25,18.4-25,16.3,25,16.3-25,18.5,39.4,22.3,49.2-40.5-22.5-16.6,22.5-16.6ZM243.7,55.3v-31.6l20.3,16.7-20.3,15ZM264,73.7l-20.3,16.7v-31.6l20.3,15ZM242,23.5v31.9l-22.9-16.9,22.9-15ZM218.4,36.8V2.9l23,18.9-23,15ZM242,58.8v31.9l-22.9-15,22.9-16.9ZM218.4,74v-33.9l23,16.9-23,17ZM241.4,92.3l-23,18.9v-33.9l23,15ZM216.7,40v34.1l-26.2-17.1,26.2-17.1ZM215.3,76.3l-26.5,19.6-7.4-4.2,23.6-17.4,10.4,2ZM204.9,39.9l-23.5-17.3,7.5-4.2,26.7,19.7-10.6,1.9ZM205,41.6l8.2-1.5-24.6,16.1h-5.9s22.3-14.6,22.3-14.6ZM205.1,72.5l-22.4-14.6h5.9s24.9,16.2,24.9,16.2l-8.5-1.7ZM216.7,77.5v34.1l-26.2-14.8,26.2-19.3ZM216.7,2.5v34.1l-26.2-19.3,26.2-14.9Z"/>
  <g>
    <g>
      <path d="M22,51.9h-5.3v-3.1h14.5v3.1h-5.3v13.5h-3.9v-13.5Z"/>
      <path d="M44.1,65.4l-3.2-4.6h-3.5v4.6h-3.9v-16.6h7.2c4.4,0,7.2,2.3,7.2,6s-1.3,4.3-3.4,5.3l3.7,5.4h-4.1ZM40.5,51.9h-3.1v5.8h3.1c2.4,0,3.5-1.1,3.5-2.9s-1.2-2.9-3.5-2.9Z"/>
      <path d="M63.5,62.3v3.1h-12.9v-16.6h12.6v3.1h-8.7v3.6h7.7v3h-7.7v3.9h9.1Z"/>
      <path d="M65.3,63.8l1.3-2.9c1.4,1,3.5,1.7,5.5,1.7s3.2-.8,3.2-1.8c0-3.1-9.7-1-9.7-7.2s2.3-5.2,7-5.2,4.2.5,5.8,1.5l-1.2,2.9c-1.5-.9-3.1-1.3-4.6-1.3-2.3,0-3.2.9-3.2,1.9,0,3.1,9.7,1,9.7,7.1s-2.3,5.2-7.1,5.2-5.3-.8-6.8-1.9Z"/>
      <path d="M115.5,62.3v3.1h-12.9v-16.6h12.6v3.1h-8.7v3.6h7.7v3h-7.7v3.9h9.1Z"/>
      <path d="M118.6,48.8h6.7c5.4,0,9.2,3.3,9.2,8.3s-3.7,8.3-9.2,8.3h-6.7v-16.6ZM125,62.2c3.3,0,5.5-2,5.5-5.2s-2.2-5.2-5.5-5.2h-2.5v10.3h2.5Z"/>
      <path d="M137.4,48.8h3.9v16.6h-3.9v-16.6Z"/>
      <path d="M156.3,61.8h-7.4l-1.4,3.6h-3.8l7.1-16.6h3.6l7.1,16.6h-3.9l-1.4-3.6ZM155.2,58.9l-2.5-6.4-2.5,6.4h5.1Z"/>
      <path d="M12.6,61.8h-7.4l-1.4,3.6H0l7.1-16.6h3.6l7.1,16.6h-3.9l-1.4-3.6ZM11.4,58.9l-2.5-6.4-2.5,6.4h5.1Z"/>
    </g>
    <polygon points="99.4 48.7 96.2 48.7 90.4 58 84.6 48.7 81.4 48.7 81.4 65.4 85.1 65.4 85.1 55.2 89.9 62.9 90.9 62.9 95.8 55.2 95.8 65.4 99.4 65.4 99.4 48.7"/>
  </g>
</svg>