<?xml version="1.0" encoding="UTF-8"?>
<svg id="ATM_VERT" xmlns="http://www.w3.org/2000/svg" version="1.1" viewBox="0 0 204.9 175.9">
  <!-- Generator: Adobe Illustrator 29.0.0, SVG Export Plug-In . SVG Version: 2.1.0 Build 186)  -->
  <defs>
    <style>
      .st0 {
        fill: #fff;
      }

      .st1 {
        fill: #e9ab3e;
      }

      .st2 {
        fill: #dd5b15;
      }

      .st3 {
        fill: #e07615;
      }

      .st4 {
        fill: #b22304;
      }

      .st5 {
        fill: #ba0000;
      }

      .st6 {
        fill: #e48f15;
      }

      .st7 {
        fill: #ca2c07;
      }

      .st8 {
        fill: #ecba5a;
      }
    </style>
  </defs>
  <g>
    <g>
      <path class="st0" d="M27.9,158.4h-6.8v-4h18.4v4h-6.8v17.1h-4.9v-17.1Z"/>
      <path class="st0" d="M55.9,175.5l-4.1-5.9h-4.5v5.9h-4.9v-21.1h9.1c5.6,0,9.2,2.9,9.2,7.7s-1.6,5.5-4.3,6.7l4.7,6.8h-5.2ZM51.3,158.4h-4v7.4h4c3,0,4.5-1.4,4.5-3.7s-1.5-3.7-4.5-3.7Z"/>
      <path class="st0" d="M80.4,171.6v3.9h-16.3v-21.1h15.9v3.9h-11.1v4.6h9.8v3.8h-9.8v4.9h11.5Z"/>
      <path class="st0" d="M82.8,173.4l1.7-3.7c1.8,1.3,4.4,2.2,7,2.2s4.1-1,4.1-2.3c0-3.9-12.3-1.2-12.3-9.1s2.9-6.6,8.9-6.6,5.4.6,7.3,1.9l-1.5,3.7c-2-1.1-4-1.7-5.8-1.7-2.9,0-4,1.1-4,2.4,0,3.9,12.3,1.2,12.3,9s-2.9,6.5-9,6.5-6.7-1-8.6-2.4Z"/>
      <path class="st0" d="M146.4,171.6v3.9h-16.3v-21.1h15.9v3.9h-11.1v4.6h9.8v3.8h-9.8v4.9h11.5Z"/>
      <path class="st0" d="M150.4,154.4h8.4c6.9,0,11.6,4.2,11.6,10.5s-4.7,10.5-11.6,10.5h-8.4v-21.1ZM158.4,171.5c4.2,0,6.9-2.5,6.9-6.5s-2.7-6.5-6.9-6.5h-3.1v13.1h3.1Z"/>
      <path class="st0" d="M174.2,154.4h4.9v21.1h-4.9v-21.1Z"/>
      <path class="st0" d="M198.2,171h-9.4l-1.8,4.5h-4.8l9-21.1h4.6l9,21.1h-4.9l-1.8-4.5ZM196.7,167.3l-3.2-8.1-3.2,8.1h6.4Z"/>
      <path class="st0" d="M15.9,171H6.6l-1.8,4.5H0l9-21.1h4.6l9,21.1h-4.9l-1.8-4.5ZM14.5,167.3l-3.2-8.1-3.2,8.1h6.4Z"/>
    </g>
    <polygon class="st0" points="126 154.3 121.9 154.3 114.6 166.1 107.3 154.3 103.2 154.3 103.2 175.5 107.8 175.5 107.8 162.5 114 172.3 115.2 172.3 121.4 162.5 121.4 175.5 126 175.5 126 154.3"/>
  </g>
  <g id="logo_grupo">
    <polygon class="st5" points="103.1 89.4 133.4 109.2 103.1 134.1 103.1 89.4"/>
    <polygon class="st2" points="103.1 0 133.4 24.9 103.1 44.7 103.1 0"/>
    <polygon class="st2" points="103.1 44.7 133.4 67.1 103.1 89.4 103.1 44.7"/>
    <polygon class="st2" points="133.4 67.1 160.4 87 133.4 109.2 133.4 67.1"/>
    <polygon class="st7" points="133.4 24.9 160.4 47.1 133.4 67.1 133.4 24.9"/>
    <polygon class="st4" points="68.8 19.5 57.9 25.6 87.7 47.6 103.1 44.7 68.8 19.5"/>
    <polygon class="st8" points="87.7 47.6 57.9 67.1 68.8 67.1 103.1 44.7 87.7 47.6"/>
    <polygon class="st4" points="87.7 86.6 57.9 67.1 68.8 67.1 103.1 89.4 87.7 86.6"/>
    <polygon class="st1" points="87.7 86.6 57.9 108.6 68.8 114.7 103.1 89.4 87.7 86.6"/>
    <polygon class="st6" points="103.1 0 68.8 19.5 103.1 44.7 103.1 0"/>
    <polygon class="st3" points="133.4 24.9 103.1 44.7 133.4 67.1 133.4 24.9"/>
    <polygon class="st7" points="133.4 67.1 103.1 89.4 133.4 109.2 133.4 67.1"/>
    <polygon class="st3" points="103.1 44.7 68.8 67.1 103.1 89.4 103.1 44.7"/>
    <polygon class="st2" points="103.1 89.4 68.8 114.7 103.1 134.1 103.1 89.4"/>
  </g>
</svg>