<?xml version="1.0" encoding="UTF-8"?>
<svg id="LOGO_COLOR_ATM" xmlns="http://www.w3.org/2000/svg" version="1.1" viewBox="0 0 266.1 113.9">
  <!-- Generator: Adobe Illustrator 29.0.0, SVG Export Plug-In . SVG Version: 2.1.0 Build 186)  -->
  <defs>
    <style>
      .st0 {
        fill: #e9ab3e;
      }

      .st1 {
        fill: #dd5b15;
      }

      .st2 {
        fill: #e07615;
      }

      .st3 {
        fill: #b22304;
      }

      .st4 {
        fill: #ba0000;
      }

      .st5 {
        fill: #e48f15;
      }

      .st6 {
        fill: #ca2c07;
      }

      .st7 {
        fill: #ecba5a;
      }
    </style>
  </defs>
  <g id="logo_grupo">
    <polygon class="st4" points="217.5 75.9 243.2 92.7 217.5 113.9 217.5 75.9"/>
    <polygon class="st1" points="217.5 0 243.2 21.2 217.5 38 217.5 0"/>
    <polygon class="st1" points="217.5 38 243.2 56.9 217.5 75.9 217.5 38"/>
    <polygon class="st1" points="243.2 56.9 266.1 73.9 243.2 92.7 243.2 56.9"/>
    <polygon class="st6" points="243.2 21.2 266.1 40 243.2 56.9 243.2 21.2"/>
    <polygon class="st3" points="188.4 16.5 179.1 21.8 204.4 40.4 217.5 38 188.4 16.5"/>
    <polygon class="st7" points="204.4 40.4 179.1 57 188.4 57 217.5 38 204.4 40.4"/>
    <polygon class="st3" points="204.5 73.5 179.1 57 188.4 57 217.5 75.9 204.5 73.5"/>
    <polygon class="st0" points="204.5 73.5 179.1 92.2 188.4 97.4 217.5 75.9 204.5 73.5"/>
    <polygon class="st5" points="217.5 0 188.4 16.5 217.5 38 217.5 0"/>
    <polygon class="st2" points="243.2 21.2 217.5 38 243.2 56.9 243.2 21.2"/>
    <polygon class="st6" points="243.2 56.9 217.5 75.9 243.2 92.7 243.2 56.9"/>
    <polygon class="st2" points="217.5 38 188.4 57 217.5 75.9 217.5 38"/>
    <polygon class="st1" points="217.5 75.9 188.4 97.4 217.5 113.9 217.5 75.9"/>
  </g>
  <g>
    <g>
      <path d="M22,51.8h-5.3v-3.1h14.5v3.1h-5.3v13.5h-3.9v-13.5Z"/>
      <path d="M44.1,65.3l-3.2-4.6h-3.5v4.6h-3.9v-16.6h7.2c4.4,0,7.2,2.3,7.2,6s-1.3,4.3-3.4,5.3l3.7,5.4h-4.1ZM40.5,51.8h-3.1v5.8h3.1c2.4,0,3.5-1.1,3.5-2.9s-1.2-2.9-3.5-2.9Z"/>
      <path d="M63.5,62.2v3.1h-12.9v-16.6h12.6v3.1h-8.7v3.6h7.7v3h-7.7v3.9h9.1Z"/>
      <path d="M65.3,63.7l1.3-2.9c1.4,1,3.5,1.7,5.5,1.7s3.2-.8,3.2-1.8c0-3.1-9.7-1-9.7-7.2s2.3-5.2,7-5.2,4.2.5,5.8,1.5l-1.2,2.9c-1.5-.9-3.1-1.3-4.6-1.3-2.3,0-3.2.9-3.2,1.9,0,3.1,9.7,1,9.7,7.1s-2.3,5.2-7.1,5.2-5.3-.8-6.8-1.9Z"/>
      <path d="M115.5,62.2v3.1h-12.9v-16.6h12.6v3.1h-8.7v3.6h7.7v3h-7.7v3.9h9.1Z"/>
      <path d="M118.6,48.7h6.7c5.4,0,9.2,3.3,9.2,8.3s-3.7,8.3-9.2,8.3h-6.7v-16.6ZM125,62.1c3.3,0,5.5-2,5.5-5.2s-2.2-5.2-5.5-5.2h-2.5v10.3h2.5Z"/>
      <path d="M137.4,48.7h3.9v16.6h-3.9v-16.6Z"/>
      <path d="M156.3,61.7h-7.4l-1.4,3.6h-3.8l7.1-16.6h3.6l7.1,16.6h-3.9l-1.4-3.6ZM155.2,58.8l-2.5-6.4-2.5,6.4h5.1Z"/>
      <path d="M12.6,61.7h-7.4l-1.4,3.6H0l7.1-16.6h3.6l7.1,16.6h-3.9l-1.4-3.6ZM11.4,58.8l-2.5-6.4-2.5,6.4h5.1Z"/>
    </g>
    <polygon points="99.4 48.6 96.2 48.6 90.4 57.9 84.6 48.6 81.4 48.6 81.4 65.3 85.1 65.3 85.1 55.1 89.9 62.8 90.9 62.8 95.8 55.1 95.8 65.3 99.4 65.3 99.4 48.6"/>
  </g>
</svg>