<?xml version="1.0" encoding="UTF-8"?>
<svg id="Layer_1" xmlns="http://www.w3.org/2000/svg" version="1.1" viewBox="0 0 154.76 76.24">
  <!-- Generator: Adobe Illustrator 30.3.0, SVG Export Plug-In . SVG Version: 2.1.3 Build 182)  -->
  <defs>
    <style>
      .st0 {
        fill: #ff4c98;
      }
    </style>
  </defs>
  <g id="g3449">
    <g id="g3436">
      <g id="g4187">
        <g id="g1963">
          <path id="path4" class="st0" d="M32.16,46.59h-6.26v29.65h20.04v-5.56h-13.78v-24.09Z"/>
          <path id="path6" class="st0" d="M111.73,63.63h12.2v-5.31h-12.2v-6.43h13.74v-5.31h-20v29.65h20.78v-5.31h-14.51v-7.3Z"/>
          <path id="path10" class="st0" d="M19.07,49.12c-2.01-1.69-4.88-2.53-8.62-2.53H0v29.65h6.18v-10.12h4.23c2.49,0,4.61-.38,6.34-1.14,1.74-.76,3.06-1.86,3.96-3.32.91-1.45,1.36-3.21,1.36-5.29,0-3.15-1-5.57-3.01-7.25h0ZM14.29,59.96c-.96.76-2.36,1.14-4.21,1.14h-3.9v-9.49h3.94c1.82,0,3.2.39,4.17,1.16.96.77,1.44,1.98,1.44,3.61s-.48,2.83-1.44,3.59Z"/>
          <path id="path12" class="st0" d="M32.16,46.59h-6.26v29.65h20.04v-5.56h-13.78v-24.09Z"/>
          <path id="path14" class="st0" d="M88.69,61.12c-1.19-2.13-5.88-12.35-6.99-14.53h-7.12l10.9,20.07v9.58h6.26v-9.58l10.94-20.07h-6.95c-1.14,2.18-5.81,12.38-7.03,14.53h0Z"/>
          <path id="path16" class="st0" d="M67.07,46.59h-6.75c-1.95,4.67-3.88,9.48-5.79,14.43-1.91,4.95-3.79,10.02-5.63,15.22h6.71c.71-2.16,1.41-4.3,2.12-6.43h11.79c.71,2.1,1.41,4.24,2.12,6.43h6.87c-1.79-4.92-3.64-9.86-5.55-14.82-1.91-4.96-3.87-9.9-5.88-14.83h0ZM59.51,64.5c1.33-3.84,2.7-7.66,4.11-11.45.68,1.85,1.36,3.74,2.05,5.66.69,1.92,1.36,3.85,2.01,5.79h-8.17Z"/>
          <path id="path18" class="st0" d="M151.18,70.16c-1.19-1.98-2.4-3.95-3.62-5.91,1.68-.75,2.97-1.81,3.88-3.19.91-1.38,1.36-3.05,1.36-5.02,0-3.04-1.02-5.38-3.07-7.01-2.05-1.63-4.98-2.45-8.8-2.45h-10.61v29.65h6.18v-10.78h5c2.09,3.54,4.11,7.13,6.06,10.78h7.2c-1.19-2.07-2.38-4.1-3.58-6.07ZM144.96,59.38c-1,.71-2.47,1.06-4.39,1.06h-4.07v-8.83h4.11c1.92,0,3.38.36,4.37,1.08.99.72,1.48,1.84,1.48,3.36s-.5,2.63-1.5,3.34h0Z"/>
          <path id="path20" class="st0" d="M32.16,46.59h-6.26v29.65h20.04v-5.56h-13.78v-24.09Z"/>
        </g>
        <path id="path24" d="M17.41,0v33.88h34.05V0H17.41ZM41.16,23.91c-.58.82-1.41,1.45-2.49,1.89s-2.37.67-3.88.67h-7.63V7.41h7.19c2.12,0,3.76.42,4.92,1.27,1.16.84,1.75,2.06,1.75,3.64,0,.9-.21,1.69-.63,2.36-.42.67-1.03,1.2-1.85,1.59,1.13.37,1.99.96,2.59,1.77.6.81.9,1.79.9,2.94,0,1.14-.29,2.12-.87,2.93ZM36.29,14.6c.53-.44.79-1.04.79-1.83,0-1.51-1.03-2.27-3.1-2.27h-2.94v4.75h2.94c1.01,0,1.78-.22,2.31-.65h0ZM34.48,18.24h-3.44v5.14h3.39c1.16,0,2.06-.22,2.68-.65.62-.43.94-1.06.94-1.88,0-1.74-1.19-2.61-3.57-2.61ZM59.97,0v33.88h34.05V0h-34.05ZM83.72,23.91c-.58.82-1.41,1.45-2.49,1.89-1.08.45-2.37.67-3.88.67h-7.63V7.41h7.19c2.12,0,3.76.42,4.92,1.27,1.16.84,1.74,2.06,1.74,3.64,0,.9-.21,1.69-.62,2.36-.42.67-1.03,1.2-1.85,1.59,1.13.37,1.99.96,2.59,1.77.6.81.9,1.79.9,2.94s-.29,2.12-.87,2.93h0ZM78.85,14.6c.53-.44.8-1.04.8-1.83,0-1.51-1.03-2.27-3.1-2.27h-2.94v4.75h2.94c1.01,0,1.77-.22,2.3-.65h0ZM77.04,18.24h-3.44v5.14h3.39c1.16,0,2.06-.22,2.68-.65.62-.43.94-1.06.94-1.88,0-1.74-1.19-2.61-3.57-2.61h0ZM102.53,33.88h34.05V0h-34.05v33.88ZM126.98,25.26c-.79.43-1.71.78-2.76,1.03-1.05.25-2.14.38-3.3.38-1.53,0-2.91-.22-4.14-.67-1.23-.44-2.26-1.08-3.11-1.92-.85-.84-1.5-1.86-1.95-3.07-.45-1.21-.68-2.57-.68-4.09s.23-2.82.7-4.01c.47-1.19,1.14-2.22,2.03-3.07.88-.85,1.94-1.51,3.18-1.96,1.23-.45,2.62-.68,4.15-.68,1.06,0,2.07.11,3.01.33.95.22,1.83.54,2.64.95v3.71c-.74-.49-1.54-.86-2.41-1.11-.86-.25-1.77-.38-2.73-.38-1.31,0-2.44.24-3.36.73-.93.49-1.64,1.19-2.13,2.12-.5.92-.74,2.05-.74,3.37s.24,2.45.72,3.38c.48.93,1.17,1.64,2.08,2.13.91.49,2.01.73,3.31.73,1.98,0,3.81-.51,5.49-1.54v3.63Z"/>
      </g>
    </g>
  </g>
</svg>