<?xml version="1.0" encoding="UTF-8"?>
<svg id="Layer_1" xmlns="http://www.w3.org/2000/svg" version="1.1" viewBox="0 0 286.11 38.45">
  <!-- Generator: Adobe Illustrator 30.3.0, SVG Export Plug-In . SVG Version: 2.1.3 Build 182)  -->
  <defs>
    <style>
      .st0 {
        fill: none;
        stroke: #fff;
        stroke-miterlimit: 10;
      }

      .st1 {
        fill: #fff;
      }
    </style>
  </defs>
  <g id="g3449">
    <g id="g3436">
      <g id="g4187">
        <g id="g1963">
          <path id="path4" class="st1" d="M16.08,23.29h-3.13v14.82h10.02v-2.78h-6.89v-12.05Z"/>
          <path id="path6" class="st1" d="M55.86,31.82h6.1v-2.65h-6.1v-3.21h6.87v-2.65h-10v14.82h10.39v-2.65h-7.26v-3.65Z"/>
          <path id="path10" class="st1" d="M9.53,24.56c-1-.84-2.44-1.27-4.31-1.27H0v14.82h3.09v-5.06h2.11c1.25,0,2.3-.19,3.17-.57.87-.38,1.53-.93,1.98-1.66.45-.73.68-1.61.68-2.64,0-1.58-.5-2.78-1.5-3.63h0ZM7.15,29.98c-.48.38-1.18.57-2.1.57h-1.95v-4.75h1.97c.91,0,1.6.19,2.08.58.48.39.72.99.72,1.8s-.24,1.41-.72,1.79Z"/>
          <path id="path12" class="st1" d="M16.08,23.29h-3.13v14.82h10.02v-2.78h-6.89v-12.05Z"/>
          <path id="path14" class="st1" d="M44.35,30.56c-.6-1.06-2.94-6.17-3.5-7.27h-3.56l5.45,10.04v4.79h3.13v-4.79l5.47-10.04h-3.48c-.57,1.09-2.91,6.19-3.52,7.27h0Z"/>
          <path id="path16" class="st1" d="M33.54,23.29h-3.37c-.98,2.34-1.94,4.74-2.9,7.21-.96,2.47-1.89,5.01-2.82,7.61h3.35c.35-1.08.7-2.15,1.06-3.21h5.9c.35,1.05.7,2.12,1.06,3.21h3.44c-.89-2.46-1.82-4.93-2.77-7.41-.96-2.48-1.94-4.95-2.94-7.41h0ZM29.76,32.25c.66-1.92,1.35-3.83,2.05-5.72.34.93.68,1.87,1.03,2.83.35.96.68,1.93,1.01,2.89h-4.09Z"/>
          <path id="path18" class="st1" d="M75.59,35.08c-.6-.99-1.2-1.97-1.81-2.95.84-.37,1.49-.91,1.94-1.6.45-.69.68-1.53.68-2.51,0-1.52-.51-2.69-1.53-3.5-1.02-.81-2.49-1.22-4.4-1.22h-5.31v14.82h3.09v-5.39h2.5c1.04,1.77,2.05,3.57,3.03,5.39h3.6c-.6-1.04-1.19-2.05-1.79-3.04ZM72.48,29.69c-.5.35-1.23.53-2.2.53h-2.03v-4.42h2.05c.96,0,1.69.18,2.19.54.49.36.74.92.74,1.68s-.25,1.32-.75,1.67h0Z"/>
          <path id="path20" class="st1" d="M16.08,23.29h-3.13v14.82h10.02v-2.78h-6.89v-12.05Z"/>
        </g>
        <path id="path24" class="st1" d="M8.71,0v16.94h17.02V0H8.71ZM20.58,11.96c-.29.41-.71.72-1.24.95s-1.18.33-1.94.33h-3.81V3.71h3.59c1.06,0,1.88.21,2.46.63.58.42.87,1.03.87,1.82,0,.45-.1.85-.31,1.18-.21.33-.52.6-.92.79.56.19,1,.48,1.3.89.3.4.45.9.45,1.47,0,.57-.15,1.06-.44,1.47ZM18.14,7.3c.26-.22.4-.52.4-.91,0-.76-.52-1.13-1.55-1.13h-1.47v2.37h1.47c.5,0,.89-.11,1.15-.33h0ZM17.24,9.12h-1.72v2.57h1.69c.58,0,1.03-.11,1.34-.33.31-.22.47-.53.47-.94,0-.87-.59-1.31-1.78-1.31ZM29.99,0v16.94h17.02V0h-17.02ZM41.86,11.96c-.29.41-.71.72-1.24.95-.54.22-1.18.33-1.94.33h-3.81V3.71h3.59c1.06,0,1.88.21,2.46.63.58.42.87,1.03.87,1.82,0,.45-.1.85-.31,1.18-.21.33-.52.6-.92.79.56.19,1,.48,1.3.89.3.4.45.9.45,1.47s-.15,1.06-.44,1.47h0ZM39.42,7.3c.26-.22.4-.52.4-.91,0-.76-.52-1.13-1.55-1.13h-1.47v2.37h1.47c.5,0,.89-.11,1.15-.33h0ZM38.52,9.12h-1.72v2.57h1.69c.58,0,1.03-.11,1.34-.33.31-.22.47-.53.47-.94,0-.87-.6-1.31-1.78-1.31h0ZM51.27,16.94h17.02V0h-17.02v16.94ZM63.49,12.63c-.4.22-.86.39-1.38.52-.52.13-1.07.19-1.65.19-.77,0-1.45-.11-2.07-.33-.61-.22-1.13-.54-1.55-.96-.42-.42-.75-.93-.97-1.54-.23-.6-.34-1.29-.34-2.04s.12-1.41.35-2.01c.23-.6.57-1.11,1.01-1.54.44-.43.97-.75,1.59-.98.62-.23,1.31-.34,2.07-.34.53,0,1.03.05,1.51.16.47.11.91.27,1.32.48v1.85c-.37-.24-.77-.43-1.2-.55-.43-.13-.89-.19-1.37-.19-.66,0-1.22.12-1.68.37-.46.24-.82.6-1.07,1.06-.25.46-.37,1.02-.37,1.69s.12,1.22.36,1.69c.24.47.59.82,1.04,1.06.45.24,1.01.37,1.66.37.99,0,1.91-.26,2.74-.77v1.82Z"/>
      </g>
    </g>
  </g>
  <line class="st0" x1="91.08" y1=".42" x2="91.08" y2="38.45"/>
  <g>
    <polygon class="st1" points="285.65 30.94 278.64 30.94 278.64 38.28 277.41 38.28 277.41 30.94 270.44 30.94 270.44 29.71 277.41 29.71 277.41 22.28 278.64 22.28 278.64 29.71 285.65 29.71 285.65 30.94"/>
    <g>
      <path class="st1" d="M110.24.52c2.71,0,4.29,1.47,4.29,3.96,0,1.43-.95,2.57-1.94,3.01,1.5.53,2.73,1.78,2.73,3.98,0,2.71-1.83,4.44-4.73,4.44h-5.3V.52h4.95ZM106.74,1.89v5.15h3.5c1.78,0,2.79-.84,2.79-2.58s-1.01-2.57-2.79-2.57h-3.5ZM106.74,14.56h3.56c2.22,0,3.5-.81,3.5-3.08s-1.28-3.08-3.5-3.08h-3.56v6.16Z"/>
      <path class="st1" d="M122.8.52c2.71,0,4.29,1.47,4.29,3.96,0,1.43-.95,2.57-1.94,3.01,1.5.53,2.73,1.78,2.73,3.98,0,2.71-1.83,4.44-4.73,4.44h-5.3V.52h4.95ZM119.3,1.89v5.15h3.5c1.78,0,2.79-.84,2.79-2.58s-1.01-2.57-2.79-2.57h-3.5ZM119.3,14.56h3.56c2.22,0,3.5-.81,3.5-3.08s-1.28-3.08-3.5-3.08h-3.56v6.16Z"/>
      <path class="st1" d="M142.6,11.7c-.77,2.68-2.86,4.4-5.81,4.4-3.48,0-6.8-2.53-6.8-7.88s3.34-7.88,6.8-7.88c2.95,0,5.04,1.72,5.81,4.4l-1.43.42c-.57-2.13-2.02-3.45-4.38-3.45-3.08,0-5.28,2.31-5.28,6.51s2.2,6.51,5.28,6.51c2.35,0,3.81-1.32,4.38-3.46l1.43.42Z"/>
      <path class="st1" d="M152.39,9.02v6.91h-1.45V.52h5.24c2.75,0,4.44,1.58,4.44,4.25s-1.69,4.25-4.44,4.25h-3.78ZM159.1,4.77c0-1.63-.79-2.88-2.9-2.88h-3.81v5.76h3.81c2.11,0,2.9-1.25,2.9-2.88Z"/>
      <path class="st1" d="M164.31.52v14.04h7.22v1.36h-8.67V.52h1.45Z"/>
      <path class="st1" d="M179.61.52l5.57,15.4h-1.5l-1.54-4.38h-6.34l-1.54,4.38h-1.5l5.57-15.4h1.28ZM176.26,10.18h5.41l-2.71-7.68-2.71,7.68Z"/>
      <path class="st1" d="M184.11.52h1.69l3.67,7.28,3.67-7.28h1.69l-4.64,8.71v6.69h-1.45v-6.69l-4.64-8.71Z"/>
      <path class="st1" d="M205.19.52v1.36h-7.24v5.15h5.92v1.36h-5.92v6.16h7.46v1.36h-8.91V.52h8.69Z"/>
      <path class="st1" d="M212.16,8.31h-2.88v7.61h-1.45V.52h4.95c2.73,0,4.4,1.28,4.4,3.89,0,2.27-1.25,3.54-3.37,3.83l4.8,7.68h-1.63l-4.82-7.61ZM209.28,1.89v5.06h3.41c1.98,0,3.01-.77,3.01-2.53s-1.03-2.53-3.01-2.53h-3.41Z"/>
      <path class="st1" d="M228.36.52v14.04h7.22v1.36h-8.67V.52h1.45Z"/>
      <path class="st1" d="M239.14.52v14.04h7.22v1.36h-8.67V.52h1.45Z"/>
      <path class="st1" d="M257.16.52v1.36h-7.24v5.15h5.92v1.36h-5.92v6.16h7.46v1.36h-8.91V.52h8.69Z"/>
      <path class="st1" d="M270.49,13.55c-.81,1.56-2.53,2.55-4.58,2.55-3.48,0-6.75-2.62-6.75-7.88s3.28-7.88,6.75-7.88c3.08,0,5.19,1.74,5.94,4.49l-1.43.4c-.68-2.22-2.24-3.52-4.51-3.52-3.04,0-5.24,2.29-5.24,6.51s2.2,6.51,5.24,6.51,4.53-1.8,4.58-5.21h-3.56v-1.36h5.02v7.77h-1.28l-.18-2.38Z"/>
      <path class="st1" d="M280.54.52l5.57,15.4h-1.5l-1.54-4.38h-6.34l-1.54,4.38h-1.5l5.57-15.4h1.28ZM277.19,10.18h5.41l-2.71-7.68-2.71,7.68Z"/>
    </g>
    <g>
      <path class="st1" d="M110.44,22.48l5.57,15.4h-1.5l-1.54-4.38h-6.34l-1.54,4.38h-1.5l5.57-15.4h1.28ZM107.09,32.14h5.41l-2.71-7.68-2.71,7.68Z"/>
      <path class="st1" d="M125.44,22.48l4.58,11.6,4.58-11.6h1.8v15.4h-1.45v-12.59l-4.47,11.18h-.92l-4.47-11.18v12.59h-1.45v-15.4h1.8Z"/>
      <path class="st1" d="M152.61,30.18c0,4.88-3.15,7.88-6.75,7.88s-6.75-2.99-6.75-7.88,3.15-7.88,6.75-7.88,6.75,2.99,6.75,7.88ZM140.62,30.18c0,4.31,2.35,6.51,5.24,6.51s5.24-2.2,5.24-6.51-2.35-6.51-5.24-6.51-5.24,2.2-5.24,6.51Z"/>
      <path class="st1" d="M165.53,22.48l-5.39,15.4h-1.54l-5.39-15.4h1.5l4.67,13.33,4.67-13.33h1.5Z"/>
      <path class="st1" d="M168.91,37.88h-1.45v-15.4h1.45v15.4Z"/>
      <path class="st1" d="M178.46,25.43c-.73-1.39-1.61-1.76-2.55-1.76-1.43,0-2.13,1.17-2.13,2.24,0,3.76,6.71,2.55,6.71,7.63,0,2.77-1.91,4.51-4.4,4.51s-4.2-1.76-4.71-4.16l1.25-.75c.51,1.83,1.32,3.54,3.46,3.54,1.65,0,2.88-1.03,2.88-3.1,0-3.83-6.64-2.86-6.64-7.5,0-2.29,1.65-3.78,3.59-3.78,2.24,0,3.01,1.06,3.74,2.38l-1.19.75Z"/>
      <path class="st1" d="M181.58,22.48h10.65v1.36h-4.6v14.04h-1.45v-14.04h-4.6v-1.36Z"/>
      <path class="st1" d="M198.11,22.48l5.57,15.4h-1.5l-1.54-4.38h-6.34l-1.54,4.38h-1.5l5.57-15.4h1.28ZM194.76,32.14h5.41l-2.71-7.68-2.71,7.68Z"/>
      <path class="st1" d="M209.81,30.27h-2.88v7.61h-1.45v-15.4h4.95c2.73,0,4.4,1.28,4.4,3.89,0,2.27-1.25,3.54-3.37,3.83l4.8,7.68h-1.63l-4.82-7.61ZM206.93,23.84v5.06h3.41c1.98,0,3.01-.77,3.01-2.53s-1.03-2.53-3.01-2.53h-3.41Z"/>
      <path class="st1" d="M226,30.97v6.91h-1.45v-15.4h5.24c2.75,0,4.44,1.58,4.44,4.25s-1.69,4.25-4.44,4.25h-3.78ZM232.71,26.73c0-1.63-.79-2.88-2.9-2.88h-3.81v5.76h3.81c2.11,0,2.9-1.25,2.9-2.88Z"/>
      <path class="st1" d="M237.93,22.48v14.04h7.22v1.36h-8.67v-15.4h1.45Z"/>
      <path class="st1" d="M246.44,22.48h1.45v10.61c0,1.91,1.25,3.61,3.83,3.61s3.83-1.69,3.83-3.61v-10.61h1.45v10.47c0,3.39-2.49,5.1-5.28,5.1s-5.28-1.72-5.28-5.1v-10.47Z"/>
      <path class="st1" d="M266.13,25.43c-.73-1.39-1.61-1.76-2.55-1.76-1.43,0-2.13,1.17-2.13,2.24,0,3.76,6.71,2.55,6.71,7.63,0,2.77-1.91,4.51-4.4,4.51s-4.2-1.76-4.71-4.16l1.25-.75c.51,1.83,1.32,3.54,3.46,3.54,1.65,0,2.88-1.03,2.88-3.1,0-3.83-6.64-2.86-6.64-7.5,0-2.29,1.65-3.78,3.59-3.78,2.24,0,3.01,1.06,3.74,2.38l-1.19.75Z"/>
    </g>
  </g>
</svg>