<?xml version="1.0" encoding="UTF-8"?>
<svg id="Layer_1" xmlns="http://www.w3.org/2000/svg" version="1.1" viewBox="0 0 294.5 130.8">
  <!-- Generator: Adobe Illustrator 29.0.0, SVG Export Plug-In . SVG Version: 2.1.0 Build 186)  -->
  <defs>
    <style>
      .st0 {
        fill: #fff;
      }
    </style>
  </defs>
  <path class="st0" d="M58.8,29.7c-1.2-2.5-2.9-4.3-5-5.5-2.1-1.2-4.8-1.8-8-1.8h-10.8c-.9,0-1.5.1-1.8.4-.3.3-.4.8-.4,1.6v33.4c0,.8.1,1.3.4,1.6.3.3.9.4,1.8.4h12.1c5.7,0,9.6-2.4,11.7-7.3.5-1.1.8-2.3,1-3.4.2-1.1.3-2.6.3-4.3v-7.1c0-2,0-3.6-.3-4.7-.2-1.2-.5-2.2-1-3.3ZM51.3,44.9c0,1.4,0,2.6-.3,3.6-.2,1-.5,1.7-.9,2.3-.4.6-1,1-1.7,1.3-.7.2-1.6.4-2.7.4h-4.3v-22.7h4.3c2,0,3.4.6,4.3,1.8.9,1.2,1.3,3.1,1.3,5.8v7.6ZM58.1,100.6h-14.8l15.6-21.9c.2-.4.4-.6.5-.8,0-.2.1-.5.1-.7v-4.2c0-.8-.2-1.3-.4-1.6-.3-.3-.9-.4-1.8-.4h-22.5c-.8,0-1.3.1-1.6.4-.2.3-.4.9-.4,1.9v3.2c0,.9.1,1.6.4,1.9.2.3.8.4,1.6.4h13.9l-15.3,21.9c-.4.5-.6,1-.6,1.5v4.3c0,.8.2,1.3.4,1.6.3.3.9.4,1.8.4h23.2c.8,0,1.3-.1,1.6-.4.2-.3.4-.9.4-1.9v-3.2c0-.9-.1-1.6-.4-1.9-.2-.3-.8-.4-1.6-.4ZM130.8,0H0s0,57.8,0,57.8l7.6,7.6-7.6,7.6v57.8h130.8v-57.8l-7.6-7.6,7.6-7.6V0ZM113.5,67.8l9.1,9.1v45.7H8.2v-45.7l9.1-9.1c1.3-1.3,1.3-3.5,0-4.9l-9.1-9.1V8.2s114.4,0,114.4,0v45.7s-9.1,9.1-9.1,9.1c-1.3,1.3-1.3,3.5,0,4.9ZM96,71h-3.5c-.9,0-1.5.1-1.8.4-.3.3-.4.8-.4,1.6v19.8l-10.4-19.9c-.4-.8-.8-1.4-1.2-1.6-.4-.2-1.1-.3-2.1-.3h-3.3c-.9,0-1.5.1-1.8.4-.3.3-.4.8-.4,1.6v33.4c0,.8.1,1.3.4,1.6.3.3.9.4,1.8.4h3.6c.9,0,1.5-.1,1.8-.4.3-.3.4-.8.4-1.6v-19.9l10.4,19.9c.4.8.8,1.4,1.2,1.6.4.2,1.1.3,2.1.3h3.3c.9,0,1.5-.1,1.8-.4.3-.3.4-.8.4-1.6v-33.4c0-.8-.1-1.3-.4-1.6-.3-.3-.9-.4-1.8-.4ZM101.5,57.5l-11-33.4c-.2-.7-.5-1.2-.8-1.4-.3-.2-.8-.3-1.5-.3h-6.1c-.7,0-1.2.1-1.5.4-.3.2-.6.7-.8,1.4l-11.1,33.4c-.1.2-.2.5-.2,1,0,.8.5,1.2,1.5,1.2h4.6c.4,0,.8,0,1,0,.3,0,.5-.1.6-.3.2-.1.3-.4.4-.6.1-.3.3-.7.4-1.1l1.7-5.8h12.6l1.8,5.7c.1.5.3.9.4,1.2.1.3.3.5.5.7.2.2.4.3.6.3.2,0,.6,0,.9,0h4.9c1,0,1.5-.4,1.5-1.2s0-.4,0-.5c0,0,0-.3-.2-.6ZM80.5,45.2l4.2-14.1,4.3,14.1h-8.5Z"/>
  <path class="st0" d="M158.1,51.2L193.6,0h34.3l-44.2,62.8h28.7l-44.6,22.7-9-11.4c-3.2-4.2-4.6-7.4-4.6-11.7s1.4-7.7,3.9-11.1M187.2,104.2c0-3.6,1.4-7.5,4.1-11.3L256.6,0h37.8l-73.3,104.2h33l-51.3,26-11-14c-3-3.9-4.6-7.8-4.6-12"/>
</svg>