<?xml version="1.0" encoding="UTF-8"?>
<svg id="Layer_1" xmlns="http://www.w3.org/2000/svg" version="1.1" viewBox="0 0 25.6 25.6">
  <!-- Generator: Adobe Illustrator 29.0.0, SVG Export Plug-In . SVG Version: 2.1.0 Build 186)  -->
  <defs>
    <style>
      .st0 {
        fill: #f9fafa;
      }
    </style>
  </defs>
  <path class="st0" d="M11.5,5.8c-.2-.5-.6-.8-1-1.1-.4-.2-.9-.4-1.6-.4h-2.1c-.2,0-.3,0-.4,0,0,0,0,.2,0,.3v6.5c0,.2,0,.3,0,.3,0,0,.2,0,.4,0h2.4c1.1,0,1.9-.5,2.3-1.4,0-.2.2-.4.2-.7,0-.2,0-.5,0-.8v-1.4c0-.4,0-.7,0-.9,0-.2-.1-.4-.2-.6ZM10,8.8c0,.3,0,.5,0,.7,0,.2,0,.3-.2.5,0,.1-.2.2-.3.2-.1,0-.3,0-.5,0h-.8v-4.4h.8c.4,0,.7.1.8.3.2.2.3.6.3,1.1v1.5ZM11.4,19.7h-2.9l3-4.3c0,0,0-.1,0-.2,0,0,0,0,0-.1v-.8c0-.2,0-.3,0-.3,0,0-.2,0-.4,0h-4.4c-.2,0-.3,0-.3,0,0,0,0,.2,0,.4v.6c0,.2,0,.3,0,.4,0,0,.2,0,.3,0h2.7l-3,4.3c0,0-.1.2-.1.3v.8c0,.2,0,.3,0,.3,0,0,.2,0,.4,0h4.5c.2,0,.3,0,.3,0,0,0,0-.2,0-.4v-.6c0-.2,0-.3,0-.4,0,0-.2,0-.3,0ZM25.6,0H0s0,11.3,0,11.3l1.5,1.5-1.5,1.5v11.3h25.6v-11.3l-1.5-1.5,1.5-1.5V0ZM22.2,13.3l1.8,1.8v8.9H1.6v-8.9l1.8-1.8c.3-.3.3-.7,0-.9l-1.8-1.8V1.6s22.4,0,22.4,0v8.9s-1.8,1.8-1.8,1.8c-.3.3-.3.7,0,.9ZM18.8,13.9h-.7c-.2,0-.3,0-.4,0,0,0,0,.2,0,.3v3.9l-2-3.9c0-.2-.2-.3-.2-.3,0,0-.2,0-.4,0h-.6c-.2,0-.3,0-.4,0,0,0,0,.2,0,.3v6.5c0,.2,0,.3,0,.3,0,0,.2,0,.3,0h.7c.2,0,.3,0,.4,0,0,0,0-.2,0-.3v-3.9l2,3.9c0,.2.2.3.2.3,0,0,.2,0,.4,0h.6c.2,0,.3,0,.4,0,0,0,0-.2,0-.3v-6.5c0-.2,0-.3,0-.3,0,0-.2,0-.4,0ZM19.9,11.3l-2.2-6.5c0-.1-.1-.2-.2-.3,0,0-.2,0-.3,0h-1.2c-.1,0-.2,0-.3,0,0,0-.1.1-.2.3l-2.2,6.5s0,.1,0,.2c0,.2,0,.2.3.2h.9c0,0,.1,0,.2,0,0,0,0,0,.1,0,0,0,0,0,0-.1,0,0,0-.1,0-.2l.3-1.1h2.5l.3,1.1c0,0,0,.2,0,.2,0,0,0,0,0,.1,0,0,0,0,.1,0,0,0,.1,0,.2,0h1c.2,0,.3,0,.3-.2s0,0,0,0c0,0,0,0,0-.1ZM15.8,8.8l.8-2.8.8,2.8h-1.7Z"/>
</svg>