<?xml version="1.0" encoding="UTF-8"?>
<svg id="Layer_1" xmlns="http://www.w3.org/2000/svg" version="1.1" xmlns:xlink="http://www.w3.org/1999/xlink" viewBox="0 0 294.6 160">
  <!-- Generator: Adobe Illustrator 29.0.0, SVG Export Plug-In . SVG Version: 2.1.0 Build 186)  -->
  <defs>
    <style>
      .st0 {
        fill: #fff;
      }

      .st1 {
        fill: url(#radial-gradient);
      }
    </style>
    <radialGradient id="radial-gradient" cx="342.3" cy="233.2" fx="342.3" fy="233.2" r="223" gradientTransform="translate(-53.6 -138.9) scale(.9)" gradientUnits="userSpaceOnUse">
      <stop offset="0" stop-color="#fff"/>
      <stop offset="0" stop-color="#c5ffff"/>
      <stop offset="0" stop-color="#80ffff"/>
      <stop offset=".1" stop-color="#49ffff"/>
      <stop offset=".2" stop-color="#21ffff"/>
      <stop offset=".2" stop-color="#08ffff"/>
      <stop offset=".2" stop-color="aqua"/>
      <stop offset=".3" stop-color="#00f6ff" stop-opacity="1"/>
      <stop offset=".4" stop-color="#03ddff" stop-opacity=".9"/>
      <stop offset=".5" stop-color="#08b5ff" stop-opacity=".7"/>
      <stop offset=".7" stop-color="#0e7eff" stop-opacity=".5"/>
      <stop offset=".9" stop-color="#1539ff" stop-opacity=".2"/>
      <stop offset="1" stop-color="#1c00ff" stop-opacity="0"/>
    </radialGradient>
  </defs>
  <path class="st0" d="M133.7,108.4c.2,0,.2,0,.4,0,2.7.4,5.3.8,7.3,1.7,1.9.8,2.9,1.9,3.9,3.7,1.5,2.8,1.6,6.7.2,9.7-1,2.2-3.2,4.1-5.3,5-2.1,1-4.2,1.5-6.6,1.8-4.2.5-8.7-.4-12.5-2.2-2.2-1.1-4.9-3-6.3-5.4-1-1.8-1-4.1.3-5.7,2-2.7,6.1-3.3,9.3-3.2,2.4,0,6.7.8,9,1.6.6.2,3,1.1,3.4,1.6.3.3.5.7.3,1.1-.5,1.6-4.4,2.4-5.5,2.6-3,.5-4.6-.7-8-2-.8-.3-2-.7-2.8-.8-1.5-.1-3.4.3-3.7,2-.1.9.9,1.7,1.7,2,1.8.8,3.3,1.1,5.1,1.1,5.3,0,11.3-.8,15.6-3.9.6-.4,1.2-1,1.2-1.8,0-1.6-2.8-2.5-2.8-2.5-2.9-1.2-8.3-1.8-11.1-2-2.9-.3-7.5-.6-8.6-.8-1.1-.2-2.4-.4-3.4-.8-1-.4-2-1.4-2.2-2.6-.5-2,.1-4.4,1.2-6,2.9-4.2,9.7-5.8,14.8-6.4,4.9-.6,12.9-.6,17.7,2,.7.4,1.1.8,1,1.6-.3,1.5-1.4,2.5-2.8,2.9-1.4.5-4.4.6-5.7.7-5.8.3-12.9.2-18.4,1.7-.4.1-1.2.3-1.4.6-.9.9,1.6,1.2,2.1,1.3.2,0,.2,0,.4,0l12.3,1.4M99.1,82.4s.9-1.4,1.7-2.5c1.4-2,4.1-4.7,6-6.4.6-.5,1.3-1.1,1.3-1.1,0,0-1.1.1-1.7.2-1.5.3-3.7,1.7-4.8,2.7-1.8,1.5-3.8,4.1-2.9,6.3.1.3.3.7.3.7M109.1,85.1c2.9-.2,5.5-1,8-2.4,2.4-1.4,6-4,5.7-7.2-.1-1-.8-1.8-1.6-2.1-1.1-.5-1.7-.4-3,0-1,.3-1.5.5-2.4,1-2.8,1.6-6.8,5.1-8.9,7.9-.5.7-1,1.4-1.4,1.9-.3.3-.4.6-.4.7,0,.3,3,.3,4.1.2M101.9,90.5c-.3.3-.6,1.1-.9,1.6-.2.3-.5.7-.7.8-.7.5-1.4.6-2.1,0-1-.9-1.6-2.3-1.6-3.6,0-.6,0-1.2,0-1.7-.2-.8-1-1.7-1.5-2.5-.5-.9-1-2.6-1-3.6-.2-3.3,1.5-6.3,3.8-8.7,2.3-2.4,5.2-4.4,8.5-5.8,3-1.3,7.5-2.2,10.9-1,1.1.4,2.6,1.3,3.4,2.3.2.2.3.4.5.5.1,0,.5.1.8.2,1.1.2,2.6,1,3.2,1.5,1.3,1.1,2,2.1,2.3,3.6.6,3-1.1,6.4-3.1,8.4-3.4,3.5-6.8,5.9-11.1,7.7-1.9.7-4.9,1.4-7.1,1.3-.7,0-1.4-.2-2-.3-.3,0-1.6-.3-1.7-.4-.2-.1-.4-.2-.4-.2M105.8,97.2c.1,0,.3,0,.5.1,1.5.6,2.2,2,2.5,3.6.9,3.6,1.2,11.6,1.4,14.7.1,2.3.2,4.7.3,7,0,2,.2,4.6-.2,6.4-.1.7-.6,1.4-1.2,1.8-.7.5-2.4.5-3.3.3-2.2-.5-3-1.9-3.3-4.1-.8-5.3-.4-15.7,0-20,.1-1.4.7-6.1,1.4-8,.3-.7.8-2,1.8-1.8M37.6,106s-3.3.2-5.6.5c-2.9.3-8.4,1.3-11.6,2.4-.9.3-2.9,1.1-3,2.1-.2,1,.5,1.8,1.2,2.6.4.5,2.7,2.7,3.3,3.2,2.7,2.2,8.1,5.7,12.1,7.4,1.4.6,3.7,1.4,3.7,1.4,0,0-.2-6.5-.1-12.9,0-3.4,0-6.7,0-6.7M98.8,108.6c.2,1.7-.3,5-.3,5.5-.1,1-.9,3.3-1,3.6-.6,1.4-1.2,2.6-1.8,3.7-1.1,2-3.7,5.1-5.2,6.4-5.7,5-14.6,7.8-22.2,8.7-5.2.6-11.1.5-16.6-.5-1.9-.3-4.7-1-4.7-1,0,0,0,1.1,0,1.9,0,.4-.3,1.3-.5,1.6-.4.8-1.1,1.2-2,1.4-1.1.2-2.4.3-3.4-.2-1.7-.7-2.4-2.4-2.7-4.2-.2-1.5-.5-4.1-.5-4.1,0,0-1.3-.6-2.4-1.2-3.3-1.6-6.5-3.6-9.3-5.7-.8-.6-4.1-3.3-4.8-4-2-1.9-3.9-3.9-5.3-6.3-1.1-1.9-1.4-3.6-.6-5.7,1.1-2.9,5.2-5,8-6.2,2.1-.9,8.5-3,11.1-3.4,1.3-.2,3.2-.5,3.3-.6,0,0,0,0,.1-.1,0,0,.2-2.9.1-3.9,0-1,.8-7.7,1-9.1.1-.8.7-3.7,1.3-4.5.4-.5,1.1-.5,1.6-.1,3,1.9,4,8.5,4.2,11.8.1,2,.2,5.1.2,5.1,0,0,3.5-.1,5.6,0,2.1,0,4.4.4,6.6.7,2.8.4,8.2,1.6,11.3,3.2,2.6,1.3,4.9,3.5,5.7,5.8.7,2.1.6,3.6-.5,5.5-1.2,2.2-3.6,3.8-5.9,3.9-.7,0-3.4-.3-4.2-.9-.3-.3-.3-.7,0-1,0-.1,1.3-.8,2.1-1.2.4-.2.7-.4,1-.7.6-.5,1.2-1.1,1.1-1.8,0-.9-1-1.4-1.9-1.8-4.2-1.7-12.7-3.1-16.8-3.3-1.6,0-3.9-.2-3.9-.2l.5,22.6s1.9.4,3.4.6c.9.1,4.5.5,5.4.5,7.3.2,15.4-.5,22.1-3.6,2.9-1.4,5.6-3.1,7.7-5.4,2.7-3.1,4.1-7.3,3.7-11.7-.4-4.8-3.8-10.5-6.5-14-7.2-9.2-19.4-16.8-30.2-21.2-11-4.5-21.9-7.1-33.6-7.6-3-.1-9.6,0-12.9,1-.5.1-1,.3-1.4.4-.3,0-.9.3-1,.4,0,0-.2.2-.2.2,0,0,.2.1.4.2.4.2,1.8.2,2.6.4.7.1,1.4.5,1.7,1,.3.5.3.9,0,1.3-.8.9-3.6.8-4.8.6-1.3-.2-2.9-.6-3.2-1.7-.3-1.3.3-2.6,1-3.8,1.4-2.4,3.3-3.7,6.2-4.4,4.1-1.1,9.2-1.9,13.1-2.1,8.7-.3,17,1.2,25.4,3.8,4.8,1.5,11.2,3.9,15.8,6.2,3.3,1.6,8.6,4.6,11.5,6.5.9.6,6.4,4.6,7.2,5.3,1.8,1.4,4.1,3.5,5.7,5.2,3.2,3.2,7.2,8.1,9.2,12,.5.9.8,1.8,1.4,2.9.2.4,1.1,2.6,1.2,3.2.1.6.4,1.6.4,1.6,0,.3.5,2.2.4,3ZM208.4,103.6c-4.1.9-14.8,1.5-14.8,1.5l-1.4,4.2s5.4-.5,9.3,0c0,0,1.3-.1,1.4,1.4,0,1.5-.1,3.1-.1,3.1,0,0,0,1-1.4,1.2-1.5.2-11.6.6-11.6.6l-1.6,5.5s-.6,1.3.8.9c1.3-.3,11.8-2.3,13.2-2,1.5.4,3.1,2.3,2.6,4.1-.6,2.2-11.1,9-17.6,8.5,0,0-3.4.2-6.2-4.3-2.7-4.3,1-12.6,1-12.6,0,0-1.7-3.8-.5-5.1,0,0,.7-.7,2.8-.8l2.6-5.4s-2.9.2-4.7-2c-1.6-2.1-1.8-3-.5-3.6,1.3-.7,13.6-2.9,22.1-2.6,0,0,2.9-.3,5.5,4.8,0,0,1.2,2.1-.9,2.6h0ZM176.7,124.2c-1.1,2.5-3.9,5.3-7.5,3.6-3.5-1.7-9.1-13.1-9.1-13.1,0,0-2.1-4.3-2.5-4.2,0,0-.5-.8-.7,3.8-.3,4.6,0,13.7-1.8,15.1-1.8,1.4-3.9.9-5-.8-1-1.6-1.4-5.6-.9-12.4.6-6.9,2.2-14.2,4.3-16.5,2-2.3,3.7-.6,4.3,0,0,0,2.7,2.5,7.2,9.7l.8,1.3s4.1,6.9,4.5,6.8c0,0,.3.3.6,0,.4-.1.3-2.3.3-2.3,0,0-.8-7.5-4.6-20.1,0,0-.6-1.6-.2-3.1.4-1.5,1.9-.8,1.9-.8,0,0,5.8,2.9,8.6,12.3,2.8,9.4.9,17.9-.2,20.5h0ZM238.8,118.6c-2.6,4.6-10,14.2-19.9,11.9-3.3,7.9-6,15.9-7.6,27.8,0,0-.3,2.3-2.3,1.5-1.9-.7-5.1-3.9-5.7-8.3-.7-5.8,1.9-15.6,7.1-26.8-1.5-2.5-2.6-6.1-1.7-11.1,0,0,1.3-9.4,10.8-17.9,0,0,1.1-1,1.8-.7.7.3.4,3.4-.2,4.9-.6,1.5-4.8,8.8-4.8,8.8,0,0-2.6,4.9-1.9,8.8,5-7.6,16.2-23,23.2-18.2,2.3,1.7,3.4,5.3,3.4,9.3s-.8,7.1-2.4,9.9h0ZM236.8,106.5s-.4-3-3.4.3c-2.5,2.8-7.1,8.1-10.9,15.3,3.9-.4,7.6-2.5,8.8-3.6,1.8-1.6,6.1-6.1,5.4-12h0ZM293.1,105.8h-18.1c-.4-6.1-1.1-12.1-2.3-18.3-.1-.6-.7-1.1-1.3-1.1h-4.2c-.4,0-.7.2-.9.4-.2.3-.3.7-.3,1,1.2,6,1.9,11.8,2.3,17.9h-17.4c-.8,0-1.5.7-1.5,1.5v3.8c0,.8.7,1.5,1.5,1.5h17.6c0,.9,0,1.8,0,2.5,0,5.4-.2,9.9-.8,14.9,0,.4,0,.8.3,1.1.3.3.6.5,1,.5h3.9c.8,0,1.4-.6,1.5-1.3.5-5.1.8-9.6.8-15.1s0-1.6,0-2.5h17.8c.8,0,1.5-.7,1.5-1.5v-3.8c0-.8-.7-1.5-1.5-1.5Z"/>
  <path class="st1" d="M270.3,77.6c-9.2-22.7-24.8-42-45-55.8C204.6,7.5,180.3,0,155,0c-41.7,0-80.5,20.7-103.6,55.5-.3.4-.3.8-.2,1.3.2.4.5.8.9.9l3.2,1.1c.2,0,.4,0,.6,0,.6,0,1.2-.3,1.5-.8,10.6-15.6,25-28.6,41.5-37.5,17.1-9.3,36.5-14.1,56-14.1s46.4,7,65.9,20.1c19,12.9,33.8,30.8,42.7,51.9.3.6.9,1,1.6,1h3.9c.4,0,.9-.2,1.1-.6.3-.4.3-.8.1-1.3Z"/>
</svg>