<?xml version="1.0" encoding="UTF-8"?>
<svg id="Layer_1" xmlns="http://www.w3.org/2000/svg" version="1.1" viewBox="0 0 208.73 114.15">
  <!-- Generator: Adobe Illustrator 30.3.0, SVG Export Plug-In . SVG Version: 2.1.3 Build 182)  -->
  <defs>
    <style>
      .st0 {
        fill: #fff;
      }
    </style>
  </defs>
  <path class="st0" d="M190.93,61.5h0s-.96,0-.96,0c-.24,0-.46.07-.67.29-.27.27-.31.62-.24.96.78,4.16,1.18,8.23,1.31,12.06h-12.08c-.27,0-.5.1-.68.28-.19.19-.31.43-.31.82v3.47c0,.69.48,1.07,1.05,1.07h12.01c-.09,2.65-.3,5.14-.58,7.36-.22,1.71-.47,3.3-.75,4.76-.05.42.06.68.26.9.24.24.52.3.85.3h1.2s1.86,0,1.86,0c.48,0,.83-.22,1.04-.43.31-.32.36-.66.4-.86.24-1.42.48-2.98.67-4.63.26-2.24.45-4.74.54-7.39h11.83c.57,0,1.05-.39,1.05-1.07v-3.47c0-.39-.12-.63-.31-.82-.18-.18-.41-.28-.68-.28h-11.89c-.07-2.29-.23-4.66-.51-7.09-.19-1.64-.42-3.3-.71-4.97-.06-.34-.18-.68-.53-.95-.23-.18-.55-.29-.77-.29h-1.63s0,0,0,0h-.32s-.45,0-.45,0Z"/>
  <path class="st0" d="M111.1,0c-7.84,0-15.5.96-22.89,2.82-6.18,1.55-12.1,3.73-17.7,6.48-2.07,1.02-4.03,2.09-5.88,3.19-3.62,2.15-6.91,4.44-10,6.94-2.39,1.93-4.55,3.89-6.42,5.75-1.25,1.23-2.4,2.44-3.6,3.79-.11.12-.21.24-.32.36-.19.21-.42.54-.31.99.04.14.12.28.23.38.21.18.45.23.67.21.26-.02.55-.17.71-.29.11-.08.21-.18.31-.28.37-.38.71-.75,1.07-1.13.64-.66,1.3-1.32,1.97-1.97,2.55-2.47,5.73-5.16,9.21-7.63,1.88-1.33,3.86-2.63,6.01-3.89,1.77-1.04,5.09-2.9,9.29-4.71,3.72-1.6,7.34-2.85,10.73-3.81,2.45-.7,4.99-1.3,7.55-1.8,2.27-.44,4.57-.79,6.89-1.06,3.55-.41,7.1-.61,10.65-.61,8.23,0,16.63,1.11,24.7,3.37,2.92.82,5.76,1.77,8.53,2.86,3.59,1.42,6.9,2.97,10.43,4.95,6.5,3.65,12.3,8.08,17.52,13.35,2.54,2.56,4.73,5.14,6.62,7.66,2.36,3.15,4.26,6.2,5.78,8.99.97,1.78,1.77,3.45,2.43,4.92,1.38,3.09,2.21,5.62,2.21,5.62.09.24.15.34.26.5.25.34.65.53,1.06.53h3.36c.25,0,.37-.05.51-.13.13-.07.3-.24.38-.42.09-.21.12-.5.03-.76-1.21-3.62-2.86-7.41-4.82-11.06-3.05-5.69-7.67-12.64-14.42-19.26-5.95-5.84-11.95-9.96-16.96-12.83-6.23-3.57-12.84-6.36-19.84-8.36-8.44-2.42-17.2-3.63-25.93-3.63Z"/>
  <path class="st0" d="M95.67,77.25c.12.02.14.02.25.03,1.3.18,2.31.36,3.22.59,1.05.27,1.94.6,2.59.96.49.27.88.57,1.2.89.18.18.35.39.5.6.23.32.54.91.7,1.27.13.31.22.54.25.63.16.47.27.97.34,1.47.11.85.1,1.65-.02,2.4-.12.78-.39,1.92-1.29,3.12-.77,1.02-1.83,1.84-3.09,2.45-1.51.73-3.11,1.1-4.71,1.28-2.99.33-6.25-.26-8.93-1.59-.85-.43-1.6-.87-2.26-1.37-.65-.48-1.27-1.04-1.73-1.67-.73-1-1-1.88-1-2.75,0-.83.27-1.59.67-2.16.46-.69,1.2-1.19,2.05-1.54,1.43-.59,3.18-.76,4.6-.71,1.72.06,4.81.6,6.45,1.18.45.16,2.12.81,2.41,1.11.21.21.34.51.25.79-.38,1.15-3.15,1.75-3.94,1.86-2.14.33-3.27-.48-5.71-1.44-.61-.23-1.41-.5-2.03-.56-.62-.06-1.3.01-1.83.3-.54.29-.82.77-.81,1.28,0,.49.39.93,1.19,1.28.36.15.7.28,1.03.38.88.27,1.69.39,2.63.4,1.83.03,3.77-.1,5.63-.49,2.01-.42,3.94-1.14,5.55-2.28.42-.3.84-.74.84-1.31.02-1.13-1.97-1.82-1.97-1.82-1.75-.73-4.69-1.11-6.81-1.34-.42-.05-.8-.09-1.14-.13-.38-.03-.82-.07-1.25-.11-.33-.03-.63-.05-1-.08-.34-.03-.78-.06-1.11-.09-.73-.07-1.39-.13-1.9-.18-.26-.03-.94-.11-1.63-.23-.49-.09-.97-.18-1.44-.37-.43-.17-.88-.46-1.23-.83-.31-.33-.54-.72-.62-1.11-.36-1.42.1-3.18.89-4.32,2.08-2.98,6.94-4.11,10.58-4.56,3.51-.44,9.2-.44,12.66,1.4.53.28.81.55.7,1.12-.23,1.07-1.03,1.76-2.01,2.07-1.02.32-3.14.45-4.07.51-4.16.23-9.2.11-13.17,1.19-.31.09-.84.23-1.02.43-.33.36,0,.58.46.73.33.1.76.18,1.33.26l8.77,1.04Z"/>
  <path class="st0" d="M126.37,88.53c-.78,1.82-2.82,3.77-5.36,2.56-2.51-1.21-6.51-9.39-6.51-9.39,0,0-1.52-3.05-1.81-2.97,0,0-.33-.59-.53,2.74-.21,3.32.04,9.79-1.29,10.81-1.25,1.02-2.77.62-3.56-.58-.71-1.18-1.01-3.97-.62-8.88.46-4.92,1.6-10.15,3.06-11.78,1.45-1.61,2.62-.44,3.08-.02,0,0,1.95,1.77,5.17,6.95l.56.96s2.92,4.9,3.23,4.89c0,0,.24.22.45.06.31-.08.18-1.66.18-1.66,0,0-.61-5.34-3.27-14.38,0,0-.4-1.13-.13-2.18.27-1.07,1.34-.57,1.34-.57,0,0,4.13,2.08,6.14,8.8,1.99,6.73.65,12.79-.13,14.63"/>
  <path class="st0" d="M149.38,73.8c-2.92.67-10.6,1.05-10.6,1.05l-.97,3.04s3.84-.33,6.64-.04c0,0,.9-.11,1.01,1.03.04,1.06-.09,2.19-.09,2.19,0,0-.06.69-1.03.86-1.05.18-8.28.46-8.28.46l-1.17,3.96s-.44.92.54.65c.9-.24,8.47-1.66,9.46-1.45,1.06.26,2.23,1.67,1.89,2.95-.4,1.59-7.96,6.41-12.56,6.07,0,0-2.42.15-4.46-3.11-1.9-3.11.72-9,.72-9,0,0-1.2-2.75-.33-3.68,0,0,.52-.47,2.03-.57l1.85-3.83s-2.11.14-3.36-1.41c-1.17-1.47-1.27-2.15-.37-2.55.96-.47,9.74-2.08,15.78-1.87,0,0,2.1-.21,3.92,3.44,0,0,.88,1.47-.62,1.83"/>
  <path class="st0" d="M169.25,75.86s-.03-.22-.14-.45c-.23-.47-.82-.95-2.26.67-1.82,2.01-5.11,5.79-7.76,10.93,2.78-.31,5.46-1.82,6.27-2.59.78-.69,2.16-2.08,3.07-3.96.5-1.04.86-2.24.88-3.55,0-.34-.01-.69-.06-1.05M170.71,84.51c-1.88,3.28-7.19,10.14-14.24,8.53-.87,2.1-1.68,4.21-2.42,6.47-1.25,3.82-2.29,8.07-2.99,13.44,0,0-.24,1.66-1.62,1.08-1.08-.38-2.72-1.88-3.58-4.05-.23-.57-.39-1.17-.49-1.83-.12-1.03-.11-2.25.05-3.59.29-2.42,1.02-5.32,2.15-8.53.78-2.21,1.75-4.57,2.9-7.03-1.09-1.78-1.84-4.33-1.21-7.96,0,0,.31-2.21,1.85-5.25,1.15-2.26,2.97-4.97,5.86-7.56,0,0,.81-.7,1.28-.48.52.22.29,2.41-.13,3.47-.42,1.06-3.44,6.28-3.44,6.28,0,0-1.88,3.52-1.35,6.3,1.65-2.53,4.27-6.27,7.11-9.19,2.45-2.52,5.06-4.44,7.34-4.46,1.33-.01,2.64.63,3.54,2.28.73,1.34,1.07,3.14,1.07,5.02,0,2.47-.59,5.11-1.7,7.08"/>
  <path class="st0" d="M72.88,64.42s-.54.97-.66,1.15c-.06.1-.26.37-.5.57-.19.16-.39.27-.65.3-.27.03-.55-.08-.85-.33-.72-.64-1.13-1.61-1.16-2.56-.02-.42.05-.88-.03-1.23-.07-.31-.27-.63-.48-.95-.2-.29-.41-.56-.56-.83-.13-.24-.24-.48-.33-.7-.28-.7-.36-1.33-.39-1.9-.13-2.35,1.11-4.52,2.72-6.23,1.62-1.73,3.72-3.15,6.03-4.13,2.18-.92,5.39-1.54,7.79-.72.78.27,1.86.93,2.41,1.62.12.15.21.3.33.38.11.07.38.1.61.14.76.13,1.86.71,2.31,1.09.9.78,1.39,1.52,1.62,2.6.22,1.01.04,2.16-.37,3.18-.43,1.08-1.11,2.08-1.85,2.82-2.44,2.5-4.85,4.25-7.97,5.47-1,.39-2.33.71-3.37.83-.55.06-1.06.08-1.56.06-.55-.02-1.09-.09-1.56-.18,0,0-1.15-.23-1.52-.47h0ZM78.06,60.61c1.24-.12,2.33-.34,3.33-.66.54-.17,1.09-.39,1.61-.65,1.15-.56,2.33-1.37,3.08-2.05.4-.36.74-.73,1.01-1.09.54-.73.87-1.54.76-2.41-.08-.72-.56-1.27-1.16-1.52-1.33-.58-2.82.11-3.91.74-.78.45-1.96,1.32-3.06,2.26-1.3,1.11-2.54,2.37-3.32,3.37-.44.6-.89,1.2-1.3,1.82.06.17,1.51.25,2.31.2M70.89,58.66c.42-.67.92-1.33,1.39-1.95.53-.69,1.44-1.72,1.79-2.1.79-.84,1.64-1.66,2.37-2.28.44-.37.93-.79.93-.79,0,0-.35,0-.8.1-.22.04-.6.14-.92.26-.38.14-.69.27-.97.41-.86.44-1.61,1.02-1.96,1.32-.65.56-1.34,1.29-1.77,2.09-.25.46-.43.95-.46,1.43-.02.33.03.66.16.99.1.23.24.51.24.51"/>
  <path class="st0" d="M75.66,69.23c.1.02.24.06.37.11,1.09.41,1.54,1.43,1.82,2.54.62,2.58.89,8.29.99,10.53.07,1.68.12,3.33.19,4.99.06,1.4.18,3.27-.12,4.59-.11.47-.42,1.02-.88,1.31-.51.33-1.7.36-2.35.22-1.6-.33-2.12-1.36-2.35-2.94-.55-3.78-.28-11.2.04-14.33.11-1.04.49-4.35,1.04-5.73.19-.47.58-1.41,1.26-1.28"/>
  <path class="st0" d="M16.87,41.98c-1.28-.02-3.58,0-6.23.33-1.82.23-3.71.58-5.45,1.06-.96.26-1.76.58-2.46,1.03-.79.52-1.45,1.21-1.97,2.13-.49.86-.95,1.81-.7,2.76.21.81,1.31,1.07,2.3,1.24.89.14,2.91.24,3.45-.41.15-.16.22-.6.02-.9-.2-.36-.71-.61-1.2-.7-.41-.08-1.1-.14-1.54-.21-.3-.04-.45-.09-.53-.14-.02-.01-.04-.02-.05-.03-.02-.02-.02-.04-.02-.04,0,0,0-.02.03-.04.02-.02.06-.06.09-.08.34-.22,1.45-.53,1.73-.61,1.26-.35,3.2-.56,4.79-.64,1.57-.08,3.16-.08,4.45-.03,5.25.17,10.34,1.01,15.44,2.47,2.77.79,5.59,1.77,8.58,2.94,4.2,1.67,8.51,3.94,12.49,6.75,3.53,2.48,6.67,5.3,9.11,8.41,1.48,1.9,3.24,4.77,4.13,7.55.3.95.56,2.03.58,3.31.03,1.24-.16,2.67-.7,4.07-1.01,2.64-3.13,5.11-6.63,6.94-1.29.68-2.78,1.27-4.46,1.75-1.81.52-3.69.85-5.55,1.05-2.2.24-4.39.29-6.62.23-.31,0-.97-.05-1.73-.12-1.91-.17-3.65-.47-4.65-.66l-.34-16.16c2.51.04,5.26.33,7.86.79,1.45.25,3.9.74,6.92,1.72.61.21,1.33.64,1.39,1.29.02.27-.07.51-.25.74-.45.61-1.2,1.07-1.83,1.37-.38.18-.71.32-.86.49-.16.22-.18.54.05.72.31.25.8.42,1.3.53,2.51.57,4.17-.55,5.15-1.62,1.05-1.16,1.35-2.05,1.45-2.99.17-1.61-.56-2.87-.94-3.39-.92-1.3-2.34-2.17-3.48-2.72-2.59-1.24-5.54-1.88-7.04-2.14-1.91-.34-4.34-.61-7.14-.67-1.31-.03-2.62.04-2.62.04,0,0-.05-2.19-.15-3.65-.16-2.39-.82-7.09-3-8.45-.4-.24-.89-.27-1.16.1-.42.55-.84,2.65-.93,3.2-.09.52-.19,1.17-.27,1.86-.14,1.08-.26,2.29-.34,3.27-.04.54-.17,2.32-.19,4.2-.03.03-.06.07-.1.09,0,0-.98.15-2.23.4-4.11.82-6.97,1.96-8.09,2.45-2,.88-4.87,2.42-5.74,4.45-.2.5-.29.82-.31,1.33-.05,1.13.36,2.13.72,2.76.94,1.78,2.83,3.7,4.42,5.14,1.15,1.03,2.82,2.32,4.16,3.24,1.1.75,1.92,1.28,2.69,1.73.89.53,1.77.99,2.66,1.42.48.23,1.08.52,1.62.78,0,0,.08.77.19,1.64.11.94.2,1.89.58,2.77.14.32.31.6.53.86.63.7,1.33.85,1.63.9.6.11,1.17.05,1.77-.06.25-.05.5-.13.7-.24.33-.17.59-.43.76-.8.27-.53.36-1.38.37-1.49.03-.49,0-1.03,0-1.03,0,0,1.93.46,3.28.7,2.21.39,4.34.62,6.85.66,3.04.05,6.28-.34,9.76-1.18,2.1-.51,4.1-1.18,6.05-2.08,1.81-.84,3.43-1.84,4.83-3,1.05-.87,2.15-1.96,3.21-3.47.3-.43.57-.84.77-1.18.06-.1.23-.35.45-.73.62-1.05,1.39-2.66,1.79-4.72.11-.61.19-1.21.22-1.81.15-2.63-.39-5.28-1.41-7.69-.23-.57-1.05-2.58-2.82-5.13-1.54-2.22-3.34-4.29-5.22-6.16-1.25-1.25-2.2-2.12-3.8-3.47-2.28-1.89-4.45-3.31-5.12-3.75-2.21-1.45-4.77-2.87-7.01-3.95-3.62-1.75-7.15-3.09-10.67-4.18-1.22-.38-2.36-.7-3.37-.97-2.11-.56-5.31-1.33-8.69-1.77-2.05-.26-4.02-.4-5.68-.42h0ZM26.93,75.51s-.05,2.39-.06,4.81c-.01,2.49.02,5.01.05,6.79.02,1.48.05,2.45.05,2.45,0,0-1.72-.56-2.61-1.01-1.63-.7-3.19-1.52-4.68-2.45-1.88-1.17-3.46-2.37-4.93-3.69-.3-.27-.83-.78-1.1-1.05-.67-.67-1.35-1.35-1.19-2.26.12-.7,1.61-1.36,2.18-1.51,1.36-.39,2.73-.74,4.19-1.04,1.55-.32,3.04-.56,4.12-.68,1.48-.23,3.99-.35,3.99-.35h0Z"/>
</svg>