<?xml version="1.0" encoding="UTF-8"?>
<svg id="Layer_1" xmlns="http://www.w3.org/2000/svg" version="1.1" viewBox="0 0 365.57 57.07">
  <!-- Generator: Adobe Illustrator 30.3.0, SVG Export Plug-In . SVG Version: 2.1.3 Build 182)  -->
  <defs>
    <style>
      .st0 {
        fill: none;
        stroke: #fff;
        stroke-miterlimit: 10;
      }

      .st1 {
        fill: #fff;
      }
    </style>
  </defs>
  <line class="st0" x1="118.22" y1="9.32" x2="118.22" y2="47.35"/>
  <g>
    <path class="st1" d="M143.56,10.28l-5.26,15.03h-1.5l-5.26-15.03h1.46l4.55,13.01,4.55-13.01h1.46Z"/>
    <path class="st1" d="M153.57,10.28v1.33h-7.06v5.02h5.78v1.33h-5.78v6.01h7.28v1.33h-8.7v-15.03h8.48Z"/>
    <path class="st1" d="M160,17.88h-2.81v7.43h-1.42v-15.03h4.83c2.66,0,4.29,1.25,4.29,3.8,0,2.21-1.22,3.46-3.28,3.74l4.68,7.49h-1.59l-4.7-7.43ZM157.19,11.61v4.94h3.33c1.93,0,2.94-.75,2.94-2.47s-1.01-2.47-2.94-2.47h-3.33Z"/>
    <path class="st1" d="M178.68,10.28l5.43,15.03h-1.46l-1.5-4.27h-6.18l-1.5,4.27h-1.46l5.43-15.03h1.25ZM175.41,19.71h5.28l-2.64-7.49-2.64,7.49Z"/>
    <path class="st1" d="M195.98,10.28v15.03h-1.42v-7.32h-7.64v7.32h-1.42v-15.03h1.42v6.38h7.64v-6.38h1.42Z"/>
    <path class="st1" d="M211.48,17.8c0,4.77-3.07,7.69-6.59,7.69s-6.59-2.92-6.59-7.69,3.07-7.69,6.59-7.69,6.59,2.92,6.59,7.69ZM199.78,17.8c0,4.21,2.3,6.36,5.11,6.36s5.11-2.15,5.11-6.36-2.3-6.35-5.11-6.35-5.11,2.15-5.11,6.35Z"/>
    <path class="st1" d="M217.68,17.88h-2.81v7.43h-1.42v-15.03h4.83c2.66,0,4.29,1.25,4.29,3.8,0,2.21-1.22,3.46-3.29,3.74l4.68,7.49h-1.59l-4.7-7.43ZM214.87,11.61v4.94h3.33c1.93,0,2.94-.75,2.94-2.47s-1.01-2.47-2.94-2.47h-3.33Z"/>
    <path class="st1" d="M231.54,10.28l5.43,15.03h-1.46l-1.5-4.27h-6.18l-1.5,4.27h-1.46l5.43-15.03h1.25ZM228.28,19.71h5.28l-2.64-7.49-2.64,7.49Z"/>
    <path class="st1" d="M255.24,21.19c-.75,2.62-2.79,4.29-5.67,4.29-3.39,0-6.63-2.47-6.63-7.69s3.26-7.69,6.63-7.69c2.88,0,4.92,1.67,5.67,4.29l-1.4.41c-.56-2.08-1.97-3.37-4.27-3.37-3,0-5.15,2.25-5.15,6.35s2.15,6.36,5.15,6.36c2.3,0,3.71-1.29,4.27-3.37l1.4.41Z"/>
    <path class="st1" d="M269.95,17.8c0,4.77-3.07,7.69-6.59,7.69s-6.59-2.92-6.59-7.69,3.07-7.69,6.59-7.69,6.59,2.92,6.59,7.69ZM258.25,17.8c0,4.21,2.3,6.36,5.11,6.36s5.11-2.15,5.11-6.36-2.3-6.35-5.11-6.35-5.11,2.15-5.11,6.35Z"/>
    <path class="st1" d="M282.46,10.28v15.03h-1.67l-7.45-12.73v12.73h-1.42v-15.03h1.67l7.45,12.77v-12.77h1.42Z"/>
    <path class="st1" d="M294.78,10.28c3.86,0,6.83,2.81,6.83,7.51s-2.96,7.51-6.83,7.51h-3.95v-15.03h3.95ZM292.25,11.61v12.37h2.55c2.77,0,5.32-1.87,5.32-6.18s-2.55-6.18-5.32-6.18h-2.55Z"/>
    <path class="st1" d="M305,25.31h-1.42v-15.03h1.42v15.03Z"/>
    <path class="st1" d="M313.95,13.16c-.71-1.35-1.57-1.72-2.49-1.72-1.4,0-2.08,1.14-2.08,2.19,0,3.67,6.55,2.49,6.55,7.45,0,2.71-1.87,4.4-4.29,4.4s-4.1-1.72-4.59-4.06l1.22-.73c.49,1.78,1.29,3.46,3.37,3.46,1.61,0,2.81-1.01,2.81-3.03,0-3.74-6.48-2.79-6.48-7.32,0-2.23,1.61-3.69,3.5-3.69,2.19,0,2.94,1.03,3.65,2.32l-1.16.73Z"/>
    <path class="st1" d="M328.5,10.28v15.03h-1.67l-7.45-12.73v12.73h-1.42v-15.03h1.67l7.45,12.77v-12.77h1.42Z"/>
    <path class="st1" d="M339.6,10.28v1.33h-7.06v5.02h5.77v1.33h-5.77v6.01h7.28v1.33h-8.69v-15.03h8.48Z"/>
    <path class="st1" d="M340.8,10.28h1.65l3.58,7.11,3.58-7.11h1.65l-4.53,8.5v6.53h-1.42v-6.53l-4.53-8.5Z"/>
  </g>
  <g>
    <path class="st1" d="M141.74,31.84v1.33h-7.06v5.02h5.78v1.33h-5.78v6.01h7.28v1.33h-8.7v-15.03h8.48Z"/>
    <path class="st1" d="M154.45,31.84v15.03h-1.67l-7.45-12.73v12.73h-1.42v-15.03h1.67l7.45,12.77v-12.77h1.42Z"/>
    <path class="st1" d="M164.49,31.84l4.47,11.31,4.47-11.31h1.76v15.03h-1.42v-12.28l-4.36,10.91h-.9l-4.36-10.91v12.28h-1.42v-15.03h1.76Z"/>
    <path class="st1" d="M190.59,39.35c0,4.77-3.07,7.69-6.59,7.69s-6.59-2.92-6.59-7.69,3.07-7.69,6.59-7.69,6.59,2.92,6.59,7.69ZM178.89,39.35c0,4.21,2.3,6.36,5.11,6.36s5.11-2.15,5.11-6.36-2.3-6.35-5.11-6.35-5.11,2.15-5.11,6.35Z"/>
    <path class="st1" d="M202.78,31.84l-5.26,15.03h-1.5l-5.26-15.03h1.46l4.55,13.01,4.55-13.01h1.46Z"/>
    <path class="st1" d="M205.68,46.87h-1.42v-15.03h1.42v15.03Z"/>
    <path class="st1" d="M214.59,34.71c-.71-1.35-1.57-1.72-2.49-1.72-1.4,0-2.08,1.14-2.08,2.19,0,3.67,6.55,2.49,6.55,7.45,0,2.71-1.87,4.4-4.29,4.4s-4.1-1.72-4.59-4.06l1.22-.73c.49,1.78,1.29,3.46,3.37,3.46,1.61,0,2.81-1.01,2.81-3.03,0-3.74-6.48-2.79-6.48-7.32,0-2.23,1.61-3.69,3.5-3.69,2.19,0,2.94,1.03,3.65,2.32l-1.16.73Z"/>
    <path class="st1" d="M217.23,31.84h10.39v1.33h-4.49v13.7h-1.42v-13.7h-4.49v-1.33Z"/>
    <path class="st1" d="M232.94,31.84l5.43,15.03h-1.46l-1.5-4.27h-6.18l-1.5,4.27h-1.46l5.43-15.03h1.25ZM229.68,41.26h5.28l-2.64-7.49-2.64,7.49Z"/>
    <path class="st1" d="M243.95,39.44h-2.81v7.43h-1.42v-15.03h4.83c2.66,0,4.29,1.25,4.29,3.8,0,2.21-1.22,3.46-3.29,3.74l4.68,7.49h-1.59l-4.7-7.43ZM241.14,33.17v4.94h3.33c1.93,0,2.94-.75,2.94-2.47s-1.01-2.47-2.94-2.47h-3.33Z"/>
    <path class="st1" d="M258.93,40.12v6.74h-1.42v-15.03h5.11c2.68,0,4.34,1.55,4.34,4.14s-1.65,4.14-4.34,4.14h-3.69ZM265.48,35.98c0-1.59-.77-2.81-2.83-2.81h-3.71v5.62h3.71c2.06,0,2.83-1.22,2.83-2.81Z"/>
    <path class="st1" d="M270.16,31.84v13.7h7.04v1.33h-8.46v-15.03h1.42Z"/>
    <path class="st1" d="M278.06,31.84h1.42v10.35c0,1.87,1.22,3.52,3.74,3.52s3.74-1.65,3.74-3.52v-10.35h1.42v10.22c0,3.31-2.43,4.98-5.15,4.98s-5.15-1.67-5.15-4.98v-10.22Z"/>
    <path class="st1" d="M296.86,34.71c-.71-1.35-1.57-1.72-2.49-1.72-1.4,0-2.08,1.14-2.08,2.19,0,3.67,6.55,2.49,6.55,7.45,0,2.71-1.87,4.4-4.29,4.4s-4.1-1.72-4.59-4.06l1.22-.73c.49,1.78,1.29,3.46,3.37,3.46,1.61,0,2.81-1.01,2.81-3.03,0-3.74-6.48-2.79-6.48-7.32,0-2.23,1.61-3.69,3.5-3.69,2.19,0,2.94,1.03,3.65,2.32l-1.16.73Z"/>
  </g>
  <path class="st1" d="M365.57,18.35h-7.01v7.34h-1.23v-7.34h-6.97v-1.23h6.97v-7.43h1.23v7.43h7.01v1.23Z"/>
  <path class="st1" d="M315.64,40.27h-7.01v7.34h-1.23v-7.34h-6.97v-1.23h6.97v-7.43h1.23v7.43h7.01v1.23Z"/>
  <g>
    <path class="st1" d="M95.46,30.75h0s-.48,0-.48,0c-.12,0-.23.04-.34.15-.13.14-.15.31-.12.48.39,2.08.59,4.11.66,6.03h-6.04c-.14,0-.25.05-.34.14-.09.09-.15.21-.15.41v1.73c0,.34.24.54.52.54h6c-.04,1.32-.15,2.57-.29,3.68-.11.85-.24,1.65-.37,2.38-.03.21.03.34.13.45.12.12.26.15.42.15h.6s.93,0,.93,0c.24,0,.41-.11.52-.22.16-.16.18-.33.2-.43.12-.71.24-1.49.34-2.32.13-1.12.23-2.37.27-3.7h5.92c.29,0,.52-.19.52-.54v-1.73c0-.2-.06-.32-.15-.41-.09-.09-.2-.14-.34-.14h-5.95c-.04-1.15-.12-2.33-.25-3.55-.09-.82-.21-1.65-.36-2.49-.03-.17-.09-.34-.26-.48-.12-.09-.28-.15-.39-.15h-.81s0,0,0,0h-.16s-.22,0-.22,0Z"/>
    <path class="st1" d="M55.55,0c-3.92,0-7.75.48-11.44,1.41-3.09.78-6.05,1.86-8.85,3.24-1.04.51-2.01,1.04-2.94,1.6-1.81,1.07-3.46,2.22-5,3.47-1.2.97-2.28,1.95-3.21,2.87-.62.62-1.2,1.22-1.8,1.89-.05.06-.11.12-.16.18-.09.11-.21.27-.15.5.02.07.06.14.11.19.1.09.22.11.33.1.13,0,.27-.09.36-.15.05-.04.11-.09.16-.14.19-.19.36-.38.53-.56.32-.33.65-.66.99-.99,1.27-1.23,2.87-2.58,4.6-3.81.94-.67,1.93-1.31,3-1.95.88-.52,2.55-1.45,4.65-2.35,1.86-.8,3.67-1.42,5.37-1.9,1.23-.35,2.49-.65,3.78-.9,1.14-.22,2.29-.39,3.44-.53,1.78-.21,3.55-.3,5.32-.3,4.11,0,8.31.55,12.35,1.68,1.46.41,2.88.88,4.26,1.43,1.8.71,3.45,1.49,5.21,2.48,3.25,1.82,6.15,4.04,8.76,6.67,1.27,1.28,2.36,2.57,3.31,3.83,1.18,1.57,2.13,3.1,2.89,4.49.48.89.89,1.73,1.22,2.46.69,1.55,1.1,2.81,1.1,2.81.04.12.08.17.13.25.13.17.33.27.53.27h1.68c.13,0,.18-.03.25-.07.06-.04.15-.12.19-.21.05-.11.06-.25.02-.38-.6-1.81-1.43-3.71-2.41-5.53-1.52-2.84-3.84-6.32-7.21-9.63-2.98-2.92-5.98-4.98-8.48-6.42-3.11-1.79-6.42-3.18-9.92-4.18-4.22-1.21-8.6-1.81-12.97-1.81Z"/>
    <path class="st1" d="M47.83,38.63c.06,0,.07.01.13.02.65.09,1.15.18,1.61.3.52.13.97.3,1.3.48.25.14.44.28.6.45.09.09.17.2.25.3.11.16.27.45.35.64.07.15.11.27.12.31.08.24.13.48.17.74.05.42.05.82-.01,1.2-.06.39-.2.96-.64,1.56-.38.51-.92.92-1.55,1.22-.76.37-1.56.55-2.35.64-1.49.16-3.13-.13-4.46-.8-.43-.21-.8-.44-1.13-.68-.33-.24-.63-.52-.86-.83-.36-.5-.5-.94-.5-1.38,0-.42.14-.8.34-1.08.23-.35.6-.6,1.02-.77.71-.3,1.59-.38,2.3-.35.86.03,2.41.3,3.22.59.23.08,1.06.41,1.21.55.1.1.17.25.12.39-.19.57-1.57.87-1.97.93-1.07.16-1.64-.24-2.86-.72-.3-.12-.71-.25-1.01-.28-.31-.03-.65,0-.91.15-.27.14-.41.38-.41.64,0,.24.2.46.6.64.18.08.35.14.51.19.44.14.85.19,1.31.2.91.02,1.88-.05,2.82-.24,1.01-.21,1.97-.57,2.78-1.14.21-.15.42-.37.42-.65,0-.57-.98-.91-.98-.91-.87-.37-2.34-.56-3.41-.67-.21-.02-.4-.05-.57-.06-.19-.02-.41-.04-.62-.05-.16-.01-.31-.03-.5-.04-.17-.01-.39-.03-.56-.04-.37-.03-.7-.06-.95-.09-.13-.01-.47-.05-.81-.11-.24-.04-.49-.09-.72-.18-.22-.09-.44-.23-.61-.41-.15-.16-.27-.36-.31-.55-.18-.71.05-1.59.45-2.16,1.04-1.49,3.47-2.06,5.29-2.28,1.76-.22,4.6-.22,6.33.7.27.14.4.28.35.56-.11.54-.51.88-1,1.03-.51.16-1.57.22-2.03.25-2.08.12-4.6.05-6.58.6-.15.05-.42.12-.51.22-.17.18,0,.29.23.36.17.05.38.09.66.13l4.38.52Z"/>
    <path class="st1" d="M63.18,44.26c-.39.91-1.41,1.88-2.68,1.28-1.26-.61-3.26-4.7-3.26-4.7,0,0-.76-1.53-.9-1.49,0,0-.16-.3-.27,1.37-.1,1.66.02,4.89-.64,5.4-.63.51-1.39.31-1.78-.29-.36-.59-.5-1.99-.31-4.44.23-2.46.8-5.07,1.53-5.89.73-.81,1.31-.22,1.54,0,0,0,.97.88,2.58,3.48l.28.48s1.46,2.45,1.61,2.44c0,0,.12.11.23.03.15-.04.09-.83.09-.83,0,0-.3-2.67-1.63-7.19,0,0-.2-.56-.07-1.09.14-.53.67-.28.67-.28,0,0,2.07,1.04,3.07,4.4,1,3.36.33,6.4-.07,7.31"/>
    <path class="st1" d="M74.69,36.9c-1.46.34-5.3.52-5.3.52l-.49,1.52s1.92-.16,3.32-.02c0,0,.45-.05.5.52.02.53-.05,1.09-.05,1.09,0,0-.03.34-.51.43-.53.09-4.14.23-4.14.23l-.58,1.98s-.22.46.27.33c.45-.12,4.24-.83,4.73-.73.53.13,1.11.83.95,1.48-.2.8-3.98,3.2-6.28,3.04,0,0-1.21.08-2.23-1.55-.95-1.56.36-4.5.36-4.5,0,0-.6-1.37-.16-1.84,0,0,.26-.23,1.02-.29l.92-1.92s-1.05.07-1.68-.7c-.59-.74-.63-1.07-.19-1.28.48-.24,4.87-1.04,7.89-.94,0,0,1.05-.1,1.96,1.72,0,0,.44.74-.31.91"/>
    <path class="st1" d="M84.62,37.93s-.01-.11-.07-.22c-.12-.24-.41-.47-1.13.34-.91,1.01-2.56,2.9-3.88,5.46,1.39-.16,2.73-.91,3.14-1.3.39-.34,1.08-1.04,1.53-1.98.25-.52.43-1.12.44-1.77,0-.17,0-.34-.03-.52M85.35,42.25c-.94,1.64-3.59,5.07-7.12,4.26-.43,1.05-.84,2.1-1.21,3.24-.62,1.91-1.14,4.04-1.49,6.72,0,0-.12.83-.81.54-.54-.19-1.36-.94-1.79-2.03-.11-.29-.2-.59-.24-.91-.06-.51-.05-1.12.03-1.8.14-1.21.51-2.66,1.07-4.27.39-1.11.88-2.29,1.45-3.52-.55-.89-.92-2.17-.6-3.98,0,0,.15-1.11.92-2.62.57-1.13,1.49-2.49,2.93-3.78,0,0,.41-.35.64-.24.26.11.14,1.2-.06,1.74-.21.53-1.72,3.14-1.72,3.14,0,0-.94,1.76-.67,3.15.83-1.27,2.14-3.13,3.56-4.6,1.23-1.26,2.53-2.22,3.67-2.23.66,0,1.32.32,1.77,1.14.36.67.54,1.57.54,2.51,0,1.24-.3,2.56-.85,3.54"/>
    <path class="st1" d="M36.44,32.21s-.27.48-.33.57c-.03.05-.13.18-.25.29-.09.08-.19.14-.33.15-.14.01-.28-.04-.43-.16-.36-.32-.56-.8-.58-1.28,0-.21.03-.44-.01-.62-.03-.16-.13-.32-.24-.48-.1-.14-.2-.28-.28-.41-.07-.12-.12-.24-.17-.35-.14-.35-.18-.66-.19-.95-.06-1.17.55-2.26,1.36-3.11.81-.87,1.86-1.58,3.01-2.06,1.09-.46,2.7-.77,3.89-.36.39.14.93.47,1.21.81.06.07.11.15.16.19.05.03.19.05.3.07.38.07.93.36,1.16.55.45.39.7.76.81,1.3.11.51.02,1.08-.18,1.59-.22.54-.56,1.04-.92,1.41-1.22,1.25-2.42,2.13-3.98,2.74-.5.19-1.16.36-1.69.42-.27.03-.53.04-.78.03-.27-.01-.55-.05-.78-.09,0,0-.58-.12-.76-.23h0ZM39.03,30.31c.62-.06,1.16-.17,1.66-.33.27-.09.54-.2.81-.32.58-.28,1.17-.68,1.54-1.02.2-.18.37-.36.51-.55.27-.36.43-.77.38-1.2-.04-.36-.28-.63-.58-.76-.66-.29-1.41.05-1.95.37-.39.23-.98.66-1.53,1.13-.65.55-1.27,1.18-1.66,1.69-.22.3-.45.6-.65.91.03.09.76.13,1.16.1M35.44,29.33c.21-.34.46-.66.7-.97.26-.34.72-.86.9-1.05.4-.42.82-.83,1.18-1.14.22-.18.46-.39.46-.39,0,0-.17,0-.4.05-.11.02-.3.07-.46.13-.19.07-.35.14-.49.21-.43.22-.81.51-.98.66-.33.28-.67.65-.89,1.04-.13.23-.21.48-.23.72-.01.17.01.33.08.49.05.11.12.26.12.26"/>
    <path class="st1" d="M37.83,34.62s.12.03.18.05c.55.21.77.71.91,1.27.31,1.29.44,4.15.5,5.26.04.84.06,1.66.09,2.5.03.7.09,1.64-.06,2.29-.05.24-.21.51-.44.65-.26.17-.85.18-1.18.11-.8-.16-1.06-.68-1.17-1.47-.27-1.89-.14-5.6.02-7.16.05-.52.25-2.17.52-2.87.09-.24.29-.71.63-.64"/>
    <path class="st1" d="M8.44,20.99c-.64,0-1.79,0-3.11.16-.91.11-1.85.29-2.72.53-.48.13-.88.29-1.23.52-.4.26-.72.61-.99,1.07-.24.43-.47.9-.35,1.38.11.4.65.54,1.15.62.45.07,1.46.12,1.73-.2.08-.08.11-.3,0-.45-.1-.18-.36-.31-.6-.35-.21-.04-.55-.07-.77-.1-.15-.02-.23-.05-.27-.07-.01,0-.02-.01-.03-.02-.01,0-.01-.02-.01-.02,0,0,0-.01.01-.02.01-.01.03-.03.05-.04.17-.11.72-.27.86-.3.63-.17,1.6-.28,2.39-.32.78-.04,1.58-.04,2.23-.02,2.62.08,5.17.51,7.72,1.23,1.38.39,2.79.89,4.29,1.47,2.1.83,4.26,1.97,6.25,3.37,1.76,1.24,3.34,2.65,4.56,4.21.74.95,1.62,2.38,2.06,3.78.15.47.28,1.02.29,1.66.01.62-.08,1.33-.35,2.04-.5,1.32-1.57,2.55-3.31,3.47-.65.34-1.39.63-2.23.87-.91.26-1.84.42-2.77.52-1.1.12-2.2.14-3.31.11-.16,0-.49-.02-.86-.06-.96-.09-1.83-.24-2.33-.33l-.17-8.08c1.25.02,2.63.17,3.93.39.73.13,1.95.37,3.46.86.3.1.66.32.69.64.01.14-.04.26-.12.37-.23.31-.6.53-.92.69-.19.09-.36.16-.43.25-.08.11-.09.27.03.36.16.12.4.21.65.27,1.25.29,2.09-.28,2.57-.81.53-.58.68-1.03.73-1.49.09-.8-.28-1.43-.47-1.7-.46-.65-1.17-1.08-1.74-1.36-1.29-.62-2.77-.94-3.52-1.07-.95-.17-2.17-.31-3.57-.34-.65-.01-1.31.02-1.31.02,0,0-.03-1.1-.07-1.82-.08-1.2-.41-3.55-1.5-4.22-.2-.12-.44-.14-.58.05-.21.28-.42,1.33-.47,1.6-.05.26-.09.58-.14.93-.07.54-.13,1.15-.17,1.64-.02.27-.08,1.16-.09,2.1-.01.01-.03.03-.05.05,0,0-.49.07-1.11.2-2.06.41-3.49.98-4.05,1.22-1,.44-2.44,1.21-2.87,2.23-.1.25-.14.41-.16.66-.03.57.18,1.06.36,1.38.47.89,1.42,1.85,2.21,2.57.57.52,1.41,1.16,2.08,1.62.55.37.96.64,1.34.86.45.26.88.5,1.33.71.24.11.54.26.81.39,0,0,.04.38.09.82.05.47.1.95.29,1.38.07.16.15.3.27.43.31.35.67.42.81.45.3.05.58.02.88-.03.12-.02.25-.07.35-.12.17-.09.29-.21.38-.4.13-.27.18-.69.18-.74.02-.24,0-.52,0-.52,0,0,.97.23,1.64.35,1.11.19,2.17.31,3.43.33,1.52.02,3.14-.17,4.88-.59,1.05-.25,2.05-.59,3.02-1.04.9-.42,1.71-.92,2.42-1.5.53-.44,1.08-.98,1.61-1.73.15-.21.28-.42.38-.59.03-.05.11-.18.23-.36.31-.52.69-1.33.89-2.36.05-.31.09-.61.11-.91.07-1.31-.19-2.64-.71-3.85-.12-.28-.53-1.29-1.41-2.56-.77-1.11-1.67-2.14-2.61-3.08-.62-.62-1.1-1.06-1.9-1.73-1.14-.94-2.23-1.66-2.56-1.88-1.1-.72-2.38-1.43-3.5-1.98-1.81-.87-3.57-1.54-5.33-2.09-.61-.19-1.18-.35-1.69-.49-1.06-.28-2.65-.67-4.35-.88-1.02-.13-2.01-.2-2.84-.21h0ZM13.46,37.76s-.03,1.19-.03,2.4c0,1.25,0,2.51.02,3.4.01.74.02,1.22.02,1.22,0,0-.86-.28-1.31-.5-.82-.35-1.6-.76-2.34-1.23-.94-.59-1.73-1.19-2.46-1.85-.15-.14-.42-.39-.55-.53-.34-.33-.68-.67-.6-1.13.06-.35.81-.68,1.09-.76.68-.19,1.37-.37,2.09-.52.77-.16,1.52-.28,2.06-.34.74-.11,1.99-.18,1.99-.18h0Z"/>
  </g>
</svg>