<?xml version="1.0" encoding="UTF-8"?>
<svg id="Layer_1" xmlns="http://www.w3.org/2000/svg" version="1.1" viewBox="0 0 158.98 114.62">
  <!-- Generator: Adobe Illustrator 30.3.0, SVG Export Plug-In . SVG Version: 2.1.3 Build 182)  -->
  <defs>
    <style>
      .st0 {
        fill: #fff;
      }
    </style>
  </defs>
  <path class="st0" d="M126.33,0c-12.87,0-24.01,7.52-29.3,18.41,0-.15,0-.3-.03-.43-.85-7.55-7.06-16.92-18.01-16.92h-28.78v64.14h28.18c10.16,0,18.04-9.01,18.62-16.74.03-.46.06-.94.06-1.37,5.29,10.92,16.43,18.44,29.33,18.44s32.59-14.67,32.59-32.77S144.32,0,126.33,0ZM74.82,50.45h-8.22v-11.01h8.22c3.74,0,5.36,3.07,5.36,5.51s-2.16,5.51-5.36,5.51h0ZM74.82,26.29h-8.22v-11.01h8.22c3.19,0,5.36,2.59,5.36,5.51s-1.61,5.51-5.36,5.51h0ZM87.51,32.74c1.58-.49,4.35-1.73,6.51-4.17-.4,3.04-.37,6.12.09,9.16-2.13-2.89-4.93-4.47-6.6-4.99h0ZM126.37,48.99c-9.01,0-16.31-7.3-16.31-16.31s7.3-16.31,16.31-16.31,16.31,7.3,16.31,16.31h0c0,9.01-7.3,16.31-16.31,16.31h0Z"/>
  <circle class="st0" cx="126.37" cy="32.68" r="12.84"/>
  <polygon class="st0" points="28.91 1.06 28.91 25.04 17.83 25.04 17.83 1.06 0 1.06 0 65.21 17.83 65.21 17.83 40.41 28.91 40.41 28.91 65.21 46.74 65.21 46.74 1.06 28.91 1.06"/>
  <path class="st0" d="M108.11,73.94s6.3,9.95,16.4,19.53c-3.29,3.13-10.92,10.86-17.28,20.57h11.59c4.59-7.18,9.04-11.93,11.56-14.36,2.53,2.43,6.97,7.18,11.56,14.36h11.59c-6.36-9.71-14-17.43-17.28-20.57,10.1-9.55,16.4-19.53,16.4-19.53h-11.59s-2.77,5.11-10.68,13.6c-7.88-8.49-10.68-13.6-10.68-13.6h-11.59Z"/>
  <path class="st0" d="M34.2,114.04v-26.81c15.7-13.63,15.18.58,15.18.58v26.23h9.31v-27.93s0-13.18-10.77-13.18-5.81.82-8.61,2.34c0,0-3.13,1.67-6.42,4.87-.61-2.59-2.77-7.21-10.65-7.21s-10.13,3.83-12.72,6.15v-5.14H.21v40.1h9.28v-26.65c15.91-13.91,15.4.43,15.4.43v26.23h9.31Z"/>
  <path class="st0" d="M95.27,73.94v4.87c-3.01-3.71-7.45-5.99-13.39-5.99-10.95,0-19.84,9.37-19.84,20.9s8.88,20.9,19.84,20.9,10.38-2.37,13.39-6.06v5.48h9.31v-40.1h-9.31ZM83.13,105.67c-6.72,0-12.14-5.45-12.14-12.14s5.45-12.14,12.14-12.14,12.14,5.45,12.14,12.14-5.45,12.14-12.14,12.14h0Z"/>
</svg>