<?xml version="1.0" encoding="UTF-8"?>
<svg id="Layer_1" xmlns="http://www.w3.org/2000/svg" version="1.1" viewBox="0 0 359.75 43.9">
  <!-- Generator: Adobe Illustrator 30.3.0, SVG Export Plug-In . SVG Version: 2.1.3 Build 182)  -->
  <defs>
    <style>
      .st0 {
        fill: #fff;
      }
    </style>
  </defs>
  <path id="path863" class="st0" d="M184.49,18.5c-7.53,0-12.69,6.19-12.69,12.7s5.17,12.7,12.69,12.7,12.69-6.19,12.69-12.7-5.17-12.7-12.69-12.7ZM255.11,18.5c-7.53,0-12.69,5.88-12.69,12.7s5.17,12.7,12.69,12.7,11.58-6.24,11.58-11.53v-2.83h-11.25v4.64h5.87c-.53,2.58-2.79,4.55-6.2,4.55-4.05,0-7.2-2.99-7.2-7.53s3.09-7.53,7.2-7.53c2.25,0,4.2,1,5.49,2.59l3.81-3.7c-2.24-2.45-5.46-4.06-9.3-4.06ZM203.35,18.95v24.49h5.21v-8.76h2.28c1.12.99,2.49,2.39,3.54,4.05,2.13,3.37,2.28,4.71,2.28,4.71h5.5s-.55-2.3-2.79-5.7c-1.23-1.88-2.39-3.11-3.19-3.83,2.79-1.23,4.4-3.81,4.4-6.94,0-5.25-3.57-8.02-8.23-8.02h-9ZM229.09,18.95v24.49h5.21v-24.49h-5.21ZM272.58,18.95v24.49h5.21v-24.49h-5.21ZM330.4,18.95h-5.84s-2.42,5.12-4.94,12.76c-2.53,7.67-3.37,11.74-3.37,11.74h5.44s.24-1.37,1.1-4.47h9.23c.75,2.93,1,4.47,1,4.47h5.79s-.9-4.07-3.43-11.74c-2.52-7.63-5-12.76-5-12.76ZM344.24,18.95v24.49h15.52v-5.17h-9.78v-19.32h-5.73ZM287.73,18.95v24.49h5.21v-15.3l11.57,15.3h4.96v-24.49h-5.33v15.3l-11.57-15.3h-4.85ZM208.57,23.55h2.75c2.19,0,4.05.74,4.05,3.42s-1.86,3.59-4.06,3.59h-2.75v-7.01ZM184.49,23.66c4.11,0,7.2,3.3,7.2,7.53s-3.09,7.53-7.2,7.53-7.2-3.3-7.2-7.53,3.09-7.53,7.2-7.53ZM327.49,24.81c1.04,2.81,2.24,6.21,3.19,9.31h-6.43c.99-3.09,2.2-6.49,3.24-9.31Z"/>
  <path id="path847" class="st0" d="M25.29,0c-4.38,0-8.82,1.95-14.52,6.32V1.11H0v41.68h11.46v-25.91c5-3.96,7.29-5.21,9.17-5.21,2.22,0,3.68,1.39,3.68,4.86v26.26h11.46v-25.98c5-3.89,7.23-5.14,9.17-5.14,2.22,0,3.68,1.39,3.68,4.86v26.26h11.46V12.5c0-9.38-5.35-12.5-10.49-12.5-4.38,0-8.82,1.81-14.66,6.25-1.87-4.66-5.97-6.25-9.65-6.25ZM83.36,0c-11.39,0-20.84,9.79-20.84,21.95s9.45,21.95,20.84,21.95c5.63,0,10.49-2.08,14.24-6.6v5.49h10.91V1.11h-10.91v5.49c-3.75-4.52-8.62-6.6-14.24-6.6ZM110.52,1.11c4.72,7.36,10.07,13.96,16.32,20.56-6.25,6.88-11.6,14.03-16.32,21.12h13.82c3.26-5.28,6.94-10.07,11.18-14.59,4.17,4.51,7.64,9.31,10.91,14.59h13.96c-4.79-7.29-10-14.24-16.25-21.12,6.18-6.6,11.46-13.41,16.25-20.56h-13.68c-3.4,5.28-7.08,9.73-11.18,14.1-4.17-4.38-7.85-8.82-11.18-14.1h-13.82ZM85.09,9.65c6.81,0,12.29,5.48,12.29,12.29s-5.48,12.29-12.29,12.29-12.29-5.48-12.29-12.29,5.48-12.29,12.29-12.29ZM85.09,12.43c-5.27,0-9.52,4.24-9.52,9.52s4.24,9.52,9.52,9.52,9.52-4.24,9.52-9.52-4.24-9.52-9.52-9.52Z"/>
</svg>