<?xml version="1.0" encoding="UTF-8"?>
<svg id="Layer_1" xmlns="http://www.w3.org/2000/svg" version="1.1" viewBox="0 0 423.99 38.35">
  <!-- Generator: Adobe Illustrator 30.3.0, SVG Export Plug-In . SVG Version: 2.1.3 Build 182)  -->
  <defs>
    <style>
      .st0 {
        fill: none;
        stroke: #fff;
        stroke-miterlimit: 10;
      }

      .st1 {
        fill: #fff;
      }

      .st2 {
        fill: #e30912;
      }
    </style>
  </defs>
  <g>
    <path class="st2" d="M14.8,5.75h-4.54c0,6.18-.02,10.18-.03,16.36-1.95-6.03-3.91-10.02-5.87-16.36H0v28.97c1.47-.21,3.05-.41,4.52-.6,0-6.05,0-9.78.01-15.83,2.03,5.96,3.28,9.47,5.3,15.14,1.59-.18,3.33-.4,4.92-.57.02-9.03.03-18.07.05-27.11"/>
    <path class="st2" d="M31.77,5.75h-12.59c-.02,8.91-.03,17.82-.05,26.72,4.21-.38,8.43-.7,12.64-.94,0-1.3,0-3.17,0-4.48-2.74.17-5.37.34-8.1.53,0-2.39,0-4.38.01-6.77,2-.03,4.11,0,6.15-.04,0-1.31,0-3.19,0-4.5-2.02.04-4.16.04-6.15.08,0-2.4,0-3.71.01-6.1,1.25-.02,2.48-.02,3.7-.02.22,0,.43,0,.64,0h.64c1.02,0,2.05,0,3.09-.01,0-1.3-.03-3.17-.03-4.48"/>
    <path class="st2" d="M48.74,5.77c-4.62,0-9.4,0-14.02,0,0,1.29,0,3.16,0,4.45.2,0,.4,0,.6,0,.61,0,1.22,0,1.83.01.61,0,1.22.01,1.83.01.16,0,.31,0,.47,0,0,7.18-.02,13.74-.03,20.92,1.48-.06,3.07-.1,4.55-.14,0-7.14.01-13.66.02-20.8,1.57,0,3.19-.01,4.75-.01,0-1.27,0-3.17,0-4.44"/>
    <path class="st2" d="M64.33,5.75h-12.64c0,8.38,0,16.77,0,25.15.49,0,.98,0,1.48,0,1.01,0,2.03,0,3.02.01,0-3.56,0-6.81,0-10.36.25,0,.5,0,.75,0,.59,0,1.18,0,1.78,0,.6,0,1.2,0,1.8,0s1.22,0,1.82.01c0-1.28,0-3.17,0-4.45-.56,0-1.14,0-1.72,0-.62,0-1.25,0-1.88,0-.63,0-1.25,0-1.86,0-.23,0-.47,0-.7,0,0-2.29,0-3.58,0-5.87.49,0,.99,0,1.48,0s1,0,1.49,0c.5,0,1,0,1.5,0,1.22,0,2.44,0,3.68,0,0-1.28,0-3.21,0-4.49"/>
    <path class="st2" d="M67.28,5.77c.01,8.47-.03,16.93-.02,25.4,4.04.15,8.29.31,12.32.59,0-1.3,0-3.17,0-4.48-2.55-.15-5.21-.33-7.77-.44-.01-7.25.03-13.83.02-21.08-1.48,0-3.06,0-4.54,0"/>
    <path class="st2" d="M83.31,5.77c.02,8.75.03,17.51.05,26.26,1.48.11,3.01.24,4.49.37,0-8.87.02-17.75,0-26.63-1.48,0-3.06,0-4.54,0"/>
    <path class="st2" d="M91.75,5.77c1.82,4.43,3.48,8.87,5.32,13.57-1.92,4.52-3.87,9-5.79,13.33,1.59.16,3.23.39,4.81.56,1.14-2.79,2.17-4.94,3.31-7.8,1.14,3.05,2.17,5.41,3.3,8.56,1.58.21,3.64.5,5.22.72-1.92-5.12-4.01-10.46-5.94-15.3,1.92-4.55,3.88-8.89,5.87-13.64-1.64,0-3.33,0-4.96,0-1.23,2.94-2.08,4.83-3.26,7.62-1.1-2.91-1.84-4.79-2.94-7.62-1.64,0-3.33,0-4.96,0"/>
  </g>
  <g>
    <path class="st1" d="M133.13.44h1.69l3.67,7.28,3.67-7.28h1.69l-4.64,8.71v6.69h-1.45v-6.69l-4.64-8.71Z"/>
    <path class="st1" d="M149.81.44l5.57,15.4h-1.5l-1.54-4.38h-6.34l-1.54,4.38h-1.5l5.57-15.4h1.28ZM146.46,10.1h5.41l-2.71-7.68-2.71,7.68Z"/>
    <path class="st1" d="M167.06.44c3.96,0,7,2.88,7,7.7s-3.04,7.7-7,7.7h-4.05V.44h4.05ZM164.46,1.81v12.67h2.62c2.84,0,5.46-1.91,5.46-6.34s-2.62-6.34-5.46-6.34h-2.62Z"/>
    <path class="st1" d="M177.9,15.85h-1.45V.44h1.45v15.4Z"/>
    <path class="st1" d="M187.45,3.39c-.73-1.39-1.61-1.76-2.55-1.76-1.43,0-2.13,1.17-2.13,2.24,0,3.76,6.71,2.55,6.71,7.63,0,2.77-1.91,4.51-4.4,4.51s-4.2-1.76-4.71-4.16l1.25-.75c.51,1.83,1.32,3.54,3.45,3.54,1.65,0,2.88-1.03,2.88-3.1,0-3.83-6.65-2.86-6.65-7.5,0-2.29,1.65-3.78,3.59-3.78,2.24,0,3.01,1.06,3.74,2.38l-1.19.75Z"/>
    <path class="st1" d="M193.39,8.94v6.91h-1.45V.44h5.24c2.75,0,4.44,1.58,4.44,4.25s-1.69,4.25-4.44,4.25h-3.78ZM200.1,4.69c0-1.63-.79-2.88-2.9-2.88h-3.81v5.76h3.81c2.11,0,2.9-1.25,2.9-2.88Z"/>
    <path class="st1" d="M217.02,8.15c0,4.88-3.15,7.88-6.75,7.88s-6.75-2.99-6.75-7.88,3.15-7.88,6.75-7.88,6.75,2.99,6.75,7.88ZM205.03,8.15c0,4.31,2.35,6.51,5.24,6.51s5.24-2.2,5.24-6.51-2.35-6.51-5.24-6.51-5.24,2.2-5.24,6.51Z"/>
    <path class="st1" d="M230.22.44v15.4h-1.72l-7.63-13.05v13.05h-1.45V.44h1.72l7.63,13.09V.44h1.45Z"/>
    <path class="st1" d="M234.73,15.85h-1.45V.44h1.45v15.4Z"/>
    <path class="st1" d="M242.65.44c2.71,0,4.29,1.47,4.29,3.96,0,1.43-.95,2.57-1.94,3.01,1.5.53,2.73,1.78,2.73,3.98,0,2.71-1.83,4.44-4.73,4.44h-5.3V.44h4.95ZM239.15,1.81v5.15h3.5c1.78,0,2.79-.84,2.79-2.57s-1.01-2.57-2.79-2.57h-3.5ZM239.15,14.48h3.56c2.22,0,3.5-.81,3.5-3.08s-1.28-3.08-3.5-3.08h-3.56v6.16Z"/>
    <path class="st1" d="M251.71.44v14.04h7.22v1.36h-8.67V.44h1.45Z"/>
    <path class="st1" d="M269.73.44v1.36h-7.24v5.15h5.92v1.36h-5.92v6.16h7.46v1.36h-8.91V.44h8.69Z"/>
    <path class="st1" d="M287.24.44v1.36h-7.24v5.15h5.92v1.36h-5.92v6.16h7.46v1.36h-8.91V.44h8.69Z"/>
    <path class="st1" d="M300.68.44v15.4h-1.72l-7.63-13.05v13.05h-1.45V.44h1.72l7.63,13.09V.44h1.45Z"/>
    <path class="st1" d="M320.81.44v15.4h-1.72l-7.63-13.05v13.05h-1.45V.44h1.72l7.63,13.09V.44h1.45Z"/>
    <path class="st1" d="M332.56.44v1.36h-7.24v5.15h5.92v1.36h-5.92v6.16h7.46v1.36h-8.91V.44h8.69Z"/>
    <path class="st1" d="M334.56.44h10.65v1.36h-4.6v14.04h-1.45V1.81h-4.6V.44Z"/>
    <path class="st1" d="M356.19.44v1.36h-7.39v5.33h6.07v1.36h-6.07v7.35h-1.45V.44h8.84Z"/>
    <path class="st1" d="M359.97.44v14.04h7.22v1.36h-8.67V.44h1.45Z"/>
    <path class="st1" d="M370.75,15.85h-1.45V.44h1.45v15.4Z"/>
    <path class="st1" d="M383.4.44l-4.07,6.91,5.02,8.49h-1.52l-4.25-7.22-4.25,7.22h-1.52l5.02-8.49-4.07-6.91h1.52l3.3,5.61,3.3-5.61h1.52Z"/>
  </g>
  <g>
    <path class="st1" d="M140.04,22.69l5.57,15.4h-1.5l-1.54-4.38h-6.34l-1.54,4.38h-1.5l5.57-15.4h1.28ZM136.7,32.35h5.41l-2.71-7.68-2.71,7.68Z"/>
    <path class="st1" d="M151.66,22.69h10.65v1.36h-4.6v14.04h-1.45v-14.04h-4.6v-1.36Z"/>
    <path class="st1" d="M168.77,30.48h-2.88v7.61h-1.45v-15.4h4.95c2.73,0,4.4,1.28,4.4,3.89,0,2.27-1.25,3.54-3.37,3.83l4.8,7.68h-1.63l-4.82-7.61ZM165.89,24.06v5.06h3.41c1.98,0,3.01-.77,3.01-2.53s-1.03-2.53-3.01-2.53h-3.41Z"/>
    <path class="st1" d="M183.36,22.69l5.57,15.4h-1.5l-1.54-4.38h-6.34l-1.54,4.38h-1.5l5.57-15.4h1.28ZM180.01,32.35h5.41l-2.71-7.68-2.71,7.68Z"/>
    <path class="st1" d="M200.36,22.69l-5.39,15.4h-1.54l-5.39-15.4h1.5l4.66,13.33,4.66-13.33h1.5Z"/>
    <path class="st1" d="M210.99,22.69v1.36h-7.24v5.15h5.92v1.36h-5.92v6.16h7.46v1.36h-8.91v-15.4h8.69ZM207.03,18.38h2.05l-2.51,3.08h-1.08l1.54-3.08Z"/>
    <path class="st1" d="M220.16,25.64c-.73-1.39-1.61-1.76-2.55-1.76-1.43,0-2.13,1.17-2.13,2.24,0,3.76,6.71,2.55,6.71,7.63,0,2.77-1.91,4.51-4.4,4.51s-4.2-1.76-4.71-4.16l1.25-.75c.51,1.83,1.32,3.54,3.46,3.54,1.65,0,2.88-1.03,2.88-3.1,0-3.83-6.64-2.86-6.64-7.5,0-2.29,1.65-3.78,3.59-3.78,2.24,0,3.01,1.06,3.74,2.38l-1.19.75Z"/>
    <path class="st1" d="M234.62,22.69c3.96,0,7,2.88,7,7.7s-3.04,7.7-7,7.7h-4.05v-15.4h4.05ZM232.02,24.06v12.67h2.62c2.84,0,5.46-1.91,5.46-6.34s-2.62-6.34-5.46-6.34h-2.62Z"/>
    <path class="st1" d="M252.7,22.69v1.36h-7.24v5.15h5.92v1.36h-5.92v6.16h7.46v1.36h-8.91v-15.4h8.69Z"/>
    <path class="st1" d="M263.33,22.69l4.58,11.6,4.58-11.6h1.8v15.4h-1.45v-12.59l-4.47,11.18h-.92l-4.47-11.18v12.59h-1.45v-15.4h1.8Z"/>
    <path class="st1" d="M290.5,30.4c0,4.88-3.15,7.88-6.75,7.88s-6.75-2.99-6.75-7.88,3.15-7.88,6.75-7.88,6.75,2.99,6.75,7.88ZM278.51,30.4c0,4.31,2.35,6.51,5.24,6.51s5.24-2.2,5.24-6.51-2.35-6.51-5.24-6.51-5.24,2.2-5.24,6.51Z"/>
    <path class="st1" d="M303.41,22.69l-5.39,15.4h-1.54l-5.39-15.4h1.5l4.67,13.33,4.67-13.33h1.5Z"/>
    <path class="st1" d="M306.8,38.1h-1.45v-15.4h1.45v15.4Z"/>
    <path class="st1" d="M316.35,25.64c-.73-1.39-1.61-1.76-2.55-1.76-1.43,0-2.13,1.17-2.13,2.24,0,3.76,6.71,2.55,6.71,7.63,0,2.77-1.91,4.51-4.4,4.51s-4.2-1.76-4.71-4.16l1.25-.75c.51,1.83,1.32,3.54,3.46,3.54,1.65,0,2.88-1.03,2.88-3.1,0-3.83-6.64-2.86-6.64-7.5,0-2.29,1.65-3.78,3.59-3.78,2.24,0,3.01,1.06,3.74,2.38l-1.19.75Z"/>
    <path class="st1" d="M319.47,22.69h10.65v1.36h-4.6v14.04h-1.45v-14.04h-4.6v-1.36Z"/>
    <path class="st1" d="M335.99,22.69l5.57,15.4h-1.5l-1.54-4.38h-6.34l-1.54,4.38h-1.5l5.57-15.4h1.28ZM332.65,32.35h5.41l-2.71-7.68-2.71,7.68Z"/>
    <path class="st1" d="M347.7,30.48h-2.88v7.61h-1.45v-15.4h4.95c2.73,0,4.4,1.28,4.4,3.89,0,2.27-1.25,3.54-3.37,3.83l4.8,7.68h-1.63l-4.82-7.61ZM344.81,24.06v5.06h3.41c1.98,0,3.01-.77,3.01-2.53s-1.03-2.53-3.01-2.53h-3.41Z"/>
    <path class="st1" d="M363.89,31.19v6.91h-1.45v-15.4h5.24c2.75,0,4.44,1.58,4.44,4.25s-1.69,4.25-4.44,4.25h-3.78ZM370.6,26.94c0-1.63-.79-2.88-2.9-2.88h-3.81v5.76h3.81c2.11,0,2.9-1.25,2.9-2.88Z"/>
    <path class="st1" d="M375.81,22.69v14.04h7.22v1.36h-8.67v-15.4h1.45Z"/>
    <path class="st1" d="M384.33,22.69h1.45v10.61c0,1.91,1.25,3.61,3.83,3.61s3.83-1.69,3.83-3.61v-10.61h1.45v10.47c0,3.39-2.49,5.1-5.28,5.1s-5.28-1.72-5.28-5.1v-10.47Z"/>
    <path class="st1" d="M404.02,25.64c-.73-1.39-1.61-1.76-2.55-1.76-1.43,0-2.13,1.17-2.13,2.24,0,3.76,6.71,2.55,6.71,7.63,0,2.77-1.91,4.51-4.4,4.51s-4.2-1.76-4.71-4.16l1.25-.75c.51,1.83,1.32,3.54,3.46,3.54,1.65,0,2.88-1.03,2.88-3.1,0-3.83-6.64-2.86-6.64-7.5,0-2.29,1.65-3.78,3.59-3.78,2.24,0,3.01,1.06,3.74,2.38l-1.19.75Z"/>
    <path class="st1" d="M423.99,31.01h-7.01v7.34h-1.23v-7.34h-6.97v-1.23h6.97v-7.43h1.23v7.43h7.01v1.23Z"/>
  </g>
  <line class="st0" x1="121.28" x2="121.28" y2="38.03"/>
</svg>