<?xml version="1.0" encoding="UTF-8"?>
<svg id="Layer_1" xmlns="http://www.w3.org/2000/svg" version="1.1" viewBox="0 0 215.87 57.93">
  <!-- Generator: Adobe Illustrator 30.3.0, SVG Export Plug-In . SVG Version: 2.1.3 Build 182)  -->
  <defs>
    <style>
      .st0 {
        fill: #fff;
      }
    </style>
  </defs>
  <path class="st0" d="M29.6,0h-9.09c-.02,12.36-.04,20.36-.05,32.72C16.55,20.66,12.64,12.68,8.73,0H0v57.93c2.95-.42,6.1-.82,9.05-1.21,0-12.11.02-19.55.03-31.66,4.06,11.92,6.55,18.95,10.6,30.27,3.17-.36,6.66-.81,9.83-1.13.03-18.07.06-36.14.09-54.21"/>
  <path class="st0" d="M63.54,0h-25.18c-.03,17.82-.07,35.63-.1,53.45,8.42-.77,16.85-1.39,25.29-1.88,0-2.6,0-6.35.01-8.95-5.49.34-10.73.69-16.2,1.06,0-4.79.02-8.75.03-13.54,4-.07,8.22,0,12.3-.08,0-2.62,0-6.38.01-8.99-4.04.07-8.32.08-12.3.16,0-4.79.02-7.42.03-12.21,2.5-.03,4.96-.03,7.41-.03.43,0,.86,0,1.29,0h1.28c2.04,0,4.09,0,6.18-.02,0-2.6-.06-6.35-.06-8.95"/>
  <path class="st0" d="M97.48.04c-9.24,0-18.79,0-28.03,0,0,2.59,0,6.32-.01,8.9.4,0,.8,0,1.21,0,1.22,0,2.44.01,3.65.02,1.22.01,2.43.02,3.65.02.31,0,.62,0,.94,0-.02,14.36-.04,27.48-.06,41.84,2.97-.11,6.14-.2,9.11-.28.01-14.28.03-27.32.04-41.61,3.13-.01,6.37-.02,9.5-.03,0-2.54,0-6.33,0-8.88"/>
  <path class="st0" d="M128.65,0h-25.28c0,16.77,0,33.54,0,50.31.98,0,1.97,0,2.96,0,2.02,0,4.06,0,6.05.02,0-7.12,0-13.61,0-20.73.5,0,1,0,1.5,0,1.18,0,2.37,0,3.57,0,1.2,0,2.4,0,3.6,0s2.45,0,3.64.02c0-2.55,0-6.35,0-8.9-1.13-.01-2.28-.02-3.44-.02-1.24,0-2.5,0-3.75,0-1.25,0-2.5,0-3.72,0-.47,0-.93,0-1.4,0,0-4.57,0-7.16,0-11.73.99,0,1.97,0,2.96,0s1.99,0,2.99,0c1,0,2,0,3.01,0,2.44,0,4.89,0,7.35.01,0-2.56,0-6.43,0-8.99"/>
  <path class="st0" d="M134.56.04c.02,16.93-.06,33.86-.04,50.79,8.08.3,16.58.63,24.65,1.19,0-2.6,0-6.35-.01-8.95-5.11-.3-10.43-.66-15.54-.87-.02-14.5.06-27.65.03-42.15-2.96,0-6.13,0-9.09,0"/>
  <path class="st0" d="M166.62.04c.03,17.51.07,35.02.1,52.53,2.96.23,6.02.47,8.98.74.01-17.74.04-35.51,0-53.26-2.96,0-6.13,0-9.09,0"/>
  <path class="st0" d="M183.5.04c3.63,8.85,6.96,17.73,10.65,27.13-3.84,9.03-7.74,18-11.57,26.66,3.17.31,6.46.77,9.63,1.12,2.28-5.58,4.34-9.87,6.62-15.6,2.27,6.1,4.34,10.82,6.61,17.12,3.17.41,7.27,1,10.43,1.45-3.83-10.25-8.03-20.92-11.88-30.6,3.84-9.09,7.76-17.78,11.74-27.29-3.27,0-6.65,0-9.92,0-2.46,5.88-4.15,9.65-6.51,15.25-2.2-5.82-3.67-9.59-5.87-15.25-3.27,0-6.65,0-9.92,0"/>
</svg>