<?xml version="1.0" encoding="UTF-8"?>
<svg id="Layer_1" xmlns="http://www.w3.org/2000/svg" version="1.1" viewBox="0 0 163.32 95.72">
  <!-- Generator: Adobe Illustrator 30.3.0, SVG Export Plug-In . SVG Version: 2.1.3 Build 182)  -->
  <defs>
    <style>
      .st0 {
        fill: #fff;
      }
    </style>
  </defs>
  <path class="st0" d="M1,63.16c-.25-.07-.48-.19-.68-.36-.32-.2-.32-1.6-.32-24.13C0,25.55.08,14.74.12,14.62c.36-.52,1-.64,4.11-.64,1.79,0,3.35.08,3.51.12.44.16.6.64,1.08,2.95.24,1.2.52,2.23.6,2.31s.36-.32.64-.88c.64-1.2,2.51-3.19,3.75-3.87,2.05-1.22,4.46-1.7,6.82-1.36,5.42.84,9.17,5.46,10.85,13.28.4,1.99.52,8.61.16,11.17-.41,4.06-1.99,7.91-4.55,11.09-2.27,2.39-4.39,3.47-7.3,3.59-2.11.16-3.51-.08-5.1-.88-1.67-.93-3.08-2.26-4.11-3.87-.21-.38-.48-.73-.8-1.04-.08,0-.16,3.47-.16,7.74s-.08,7.94-.16,8.18c-.28.68-1,.8-4.71.8-1.87,0-3.59-.04-3.75-.12v-.04ZM17.35,43.93c1.32-.4,2.55-1.75,3.27-3.43.8-1.91,1.12-3.79,1.24-6.78.2-5.18-1-9.57-2.99-11.29-.64-.56-2.31-1.2-3.07-1.2-3.87,0-6.38,4.43-6.38,11.29,0,4.91,1,8.38,2.87,10.29,1.36,1.32,3.23,1.75,5.1,1.12h-.04ZM144.97,52.27c-6.36-1.29-11.35-6.25-12.68-12.6-2.27-9.01.2-18.5,6.06-23.25,5.41-4.48,13.24-4.46,18.62.04,2.23,1.99,3.55,3.83,4.79,6.86,1,2.47,1.4,4.63,1.52,8.06.08,1.6.04,3.07,0,3.31-.28,1.08.28,1-11.09,1-5.7,0-10.41.08-10.49.16-.2.32.48,3.51,1,4.91.72,1.87,2.07,3.31,3.47,3.71,2.99.84,5.86-.52,6.82-3.27.68-1.87.76-1.99,1.52-2.07.56-.04,4.63.8,7.1,1.4,1.04.28,1.16.8.48,2.47-.72,1.91-1.67,3.47-2.99,4.87-2.74,3.03-6.69,4.68-10.77,4.51-1.4.04-2.91,0-3.39-.08h.04ZM153.34,28.74c0-1.79-1.12-5.1-2.19-6.38-.86-.91-2.06-1.42-3.31-1.44-1.87,0-3.31.88-4.39,2.67-.64,1.16-1.4,3.39-1.6,4.79l-.12.92h11.61v-.56ZM37.01,51.19l-.48-.4v-18.11c0-16.67,0-18.19.28-18.39.4-.32,6.62-.48,7.38-.16.6.24.8.68,1.24,3.11.2,1.08.4,1.99.52,2.07.04.08.4-.4.72-1.04.8-1.48,2.59-3.39,3.83-3.99,2.33-1.09,4.96-1.34,7.46-.72,1.48.4,2.07.92,2.07,1.75,0,.6-1.2,5.58-1.71,7.22-.4,1.2-.64,1.32-2.39.64-1.31-.59-2.71-.94-4.15-1.04-2.67,0-4.39,1.4-5.18,4.39-.32.92-.36,2.39-.44,12.76.16,3.98.05,7.96-.32,11.92-.2.16-1.28.24-4.31.28-3.91.04-4.07,0-4.51-.32ZM63.33,51.35c-.22-.06-.4-.21-.52-.4-.08-.2-.2-32.66-.12-35.97,0-.92.56-1.04,5.03-1.04s4.51.04,4.59,1.2v18.11c0,17.35,0,17.59-.36,17.95-.32.32-.56.36-4.31.36-2.19,0-4.15-.08-4.35-.2h.04ZM78.96,51.35c-.27-.12-.48-.33-.6-.6-.12-.32-.16-7.02-.16-18.27,0-15.04,0-17.79.24-18.11s.52-.36,3.67-.4c2.31-.04,3.59,0,3.91.16.52.2.6.4,1.2,3.59l.44,1.68c.08.04.4-.44.76-1.12,1.12-2.23,2.95-3.91,5.18-4.71.84-.32,1.48-.4,3.11-.4,2.19,0,3.07.16,4.91,1.08,1.6,1,2.94,2.37,3.91,3.99.4.68.72,1.2.8,1.2.04,0,.36-.36.68-.8,1.51-2.34,3.73-4.13,6.34-5.1,2.09-.57,4.29-.57,6.38,0,3.67,1.28,5.82,3.99,7.18,9.05.32,1.4.36,1.79.4,14.76.08,11.57,0,13.44-.2,13.76-.24.32-.48.36-4.31.4-3.91.04-4.11.04-4.55-.32l-.48-.4-.08-12.04c-.04-11.88-.04-12.08-.44-13.24-.8-2.39-2.11-3.43-4.31-3.43s-3.83,1.2-4.67,3.55c-.6,1.68-.68,3.83-.68,14.64s0,10.57-.4,10.93c-.32.32-.56.36-4.27.36-3.99,0-4.43-.08-4.79-.72-.22-3.85-.29-7.71-.2-11.57,0-11.17-.04-12.52-.64-14.36-.8-2.55-3.99-3.67-6.5-2.27-1.64.88-2.51,2.71-2.79,5.94-.12.92-.2,6.3-.2,11.96v10.29l-.4.36c-.4.32-.6.36-4.23.36-2.11,0-3.99-.12-4.23-.2ZM65.88,11.15c-1.57-.5-2.87-1.62-3.59-3.11-.57-1.56-.57-3.27,0-4.83.52-1.16,1.64-2.27,2.79-2.79,1.57-.57,3.29-.57,4.87,0,1.28.6,2.55,1.99,2.99,3.35.4,1.36.28,3.27-.32,4.59-.56,1.2-1.87,2.31-3.19,2.71-.96.28-2.79.32-3.55.08Z"/>
  <path class="st0" d="M75.97,95.64c-11.68-.65-23.11-3.68-33.58-8.89-6-2.84-11.46-6.71-16.12-11.44-3.73-3.76-5.6-6.22-5.96-7.94-.3-1.36.24-2.22,1.48-2.22.8,0,2.1.77,4.36,2.52,9.84,7.65,23.53,13.19,38.76,15.65,18.94,3.05,38.34,1.56,56.6-4.33,3.26-1.1,5.33-1.96,8.68-3.59,2.19-1.1,2.87-1.36,3.59-1.39.86-.09.89-.06,1.36.44.68.74.65,1.72-.09,2.84-.68,1.04-1.9,2.25-3.7,3.7-9.28,7.47-24.36,12.83-40.54,14.4-2.9.3-12.3.41-14.85.24Z"/>
</svg>