<?xml version="1.0" encoding="UTF-8"?>
<svg id="Layer_1" xmlns="http://www.w3.org/2000/svg" version="1.1" viewBox="0 0 399.11 47.86">
  <!-- Generator: Adobe Illustrator 30.3.0, SVG Export Plug-In . SVG Version: 2.1.3 Build 182)  -->
  <defs>
    <style>
      .st0 {
        fill: none;
        stroke: #fff;
        stroke-miterlimit: 10;
      }

      .st1 {
        fill: #fff;
      }
    </style>
  </defs>
  <g>
    <path class="st1" d="M115.16,29.82l5.57,15.4h-1.5l-1.54-4.38h-6.34l-1.54,4.38h-1.5l5.57-15.4h1.28ZM111.82,39.48h5.41l-2.71-7.68-2.71,7.68Z"/>
    <path class="st1" d="M126.78,29.82h10.65v1.36h-4.6v14.04h-1.45v-14.04h-4.6v-1.36Z"/>
    <path class="st1" d="M143.9,37.6h-2.88v7.61h-1.45v-15.4h4.95c2.73,0,4.4,1.28,4.4,3.89,0,2.27-1.25,3.54-3.37,3.83l4.8,7.68h-1.63l-4.82-7.61ZM141.01,31.18v5.06h3.41c1.98,0,3.01-.77,3.01-2.53s-1.03-2.53-3.01-2.53h-3.41Z"/>
    <path class="st1" d="M158.48,29.82l5.57,15.4h-1.5l-1.54-4.38h-6.34l-1.54,4.38h-1.5l5.57-15.4h1.28ZM155.14,39.48h5.41l-2.71-7.68-2.71,7.68Z"/>
    <path class="st1" d="M175.49,29.82l-5.39,15.4h-1.54l-5.39-15.4h1.5l4.66,13.33,4.66-13.33h1.5Z"/>
    <path class="st1" d="M186.11,29.82v1.36h-7.24v5.15h5.92v1.36h-5.92v6.16h7.46v1.36h-8.91v-15.4h8.69ZM182.15,25.5h2.05l-2.51,3.08h-1.08l1.54-3.08Z"/>
    <path class="st1" d="M195.29,32.76c-.73-1.39-1.61-1.76-2.55-1.76-1.43,0-2.13,1.17-2.13,2.24,0,3.76,6.71,2.55,6.71,7.63,0,2.77-1.91,4.51-4.4,4.51s-4.2-1.76-4.71-4.16l1.25-.75c.51,1.83,1.32,3.54,3.46,3.54,1.65,0,2.88-1.03,2.88-3.1,0-3.83-6.64-2.86-6.64-7.5,0-2.29,1.65-3.78,3.59-3.78,2.24,0,3.01,1.06,3.74,2.38l-1.19.75Z"/>
    <path class="st1" d="M209.74,29.82c3.96,0,7,2.88,7,7.7s-3.04,7.7-7,7.7h-4.05v-15.4h4.05ZM207.14,31.18v12.67h2.62c2.84,0,5.46-1.91,5.46-6.34s-2.62-6.34-5.46-6.34h-2.62Z"/>
    <path class="st1" d="M227.83,29.82v1.36h-7.24v5.15h5.92v1.36h-5.92v6.16h7.46v1.36h-8.91v-15.4h8.69Z"/>
    <path class="st1" d="M238.45,29.82l4.58,11.6,4.58-11.6h1.8v15.4h-1.45v-12.59l-4.47,11.18h-.92l-4.47-11.18v12.59h-1.45v-15.4h1.8Z"/>
    <path class="st1" d="M265.62,37.52c0,4.88-3.15,7.88-6.75,7.88s-6.75-2.99-6.75-7.88,3.15-7.88,6.75-7.88,6.75,2.99,6.75,7.88ZM253.63,37.52c0,4.31,2.35,6.51,5.24,6.51s5.24-2.2,5.24-6.51-2.35-6.51-5.24-6.51-5.24,2.2-5.24,6.51Z"/>
    <path class="st1" d="M278.54,29.82l-5.39,15.4h-1.54l-5.39-15.4h1.5l4.67,13.33,4.67-13.33h1.5Z"/>
    <path class="st1" d="M281.92,45.22h-1.45v-15.4h1.45v15.4Z"/>
    <path class="st1" d="M291.47,32.76c-.73-1.39-1.61-1.76-2.55-1.76-1.43,0-2.13,1.17-2.13,2.24,0,3.76,6.71,2.55,6.71,7.63,0,2.77-1.91,4.51-4.4,4.51s-4.2-1.76-4.71-4.16l1.25-.75c.51,1.83,1.32,3.54,3.46,3.54,1.65,0,2.88-1.03,2.88-3.1,0-3.83-6.64-2.86-6.64-7.5,0-2.29,1.65-3.78,3.59-3.78,2.24,0,3.01,1.06,3.74,2.38l-1.19.75Z"/>
    <path class="st1" d="M294.59,29.82h10.65v1.36h-4.6v14.04h-1.45v-14.04h-4.6v-1.36Z"/>
    <path class="st1" d="M311.12,29.82l5.57,15.4h-1.5l-1.54-4.38h-6.34l-1.54,4.38h-1.5l5.57-15.4h1.28ZM307.77,39.48h5.41l-2.71-7.68-2.71,7.68Z"/>
    <path class="st1" d="M322.82,37.6h-2.88v7.61h-1.45v-15.4h4.95c2.73,0,4.4,1.28,4.4,3.89,0,2.27-1.25,3.54-3.37,3.83l4.8,7.68h-1.63l-4.82-7.61ZM319.94,31.18v5.06h3.41c1.98,0,3.01-.77,3.01-2.53s-1.03-2.53-3.01-2.53h-3.41Z"/>
    <path class="st1" d="M339.01,38.31v6.91h-1.45v-15.4h5.24c2.75,0,4.44,1.58,4.44,4.25s-1.69,4.25-4.44,4.25h-3.78ZM345.72,34.06c0-1.63-.79-2.88-2.9-2.88h-3.81v5.76h3.81c2.11,0,2.9-1.25,2.9-2.88Z"/>
    <path class="st1" d="M350.94,29.82v14.04h7.22v1.36h-8.67v-15.4h1.45Z"/>
    <path class="st1" d="M359.45,29.82h1.45v10.61c0,1.91,1.25,3.61,3.83,3.61s3.83-1.69,3.83-3.61v-10.61h1.45v10.47c0,3.39-2.49,5.1-5.28,5.1s-5.28-1.72-5.28-5.1v-10.47Z"/>
    <path class="st1" d="M379.14,32.76c-.73-1.39-1.61-1.76-2.55-1.76-1.43,0-2.13,1.17-2.13,2.24,0,3.76,6.71,2.55,6.71,7.63,0,2.77-1.91,4.51-4.4,4.51s-4.2-1.76-4.71-4.16l1.25-.75c.51,1.83,1.32,3.54,3.46,3.54,1.65,0,2.88-1.03,2.88-3.1,0-3.83-6.64-2.86-6.64-7.5,0-2.29,1.65-3.78,3.59-3.78,2.24,0,3.01,1.06,3.74,2.38l-1.19.75Z"/>
    <path class="st1" d="M399.11,38.13h-7.01v7.34h-1.23v-7.34h-6.97v-1.23h6.97v-7.43h1.23v7.43h7.01v1.23Z"/>
  </g>
  <line class="st0" x1="95.59" y1="7.12" x2="95.59" y2="45.15"/>
  <g>
    <path class="st1" d="M113.82,8.6c3.96,0,7,2.88,7,7.7s-3.04,7.7-7,7.7h-4.05v-15.4h4.05ZM111.23,9.97v12.67h2.62c2.84,0,5.46-1.91,5.46-6.34s-2.62-6.34-5.46-6.34h-2.62Z"/>
    <path class="st1" d="M124.67,24h-1.45v-15.4h1.45v15.4Z"/>
    <path class="st1" d="M134.22,11.55c-.73-1.39-1.61-1.76-2.55-1.76-1.43,0-2.13,1.17-2.13,2.24,0,3.76,6.71,2.55,6.71,7.63,0,2.77-1.91,4.51-4.4,4.51s-4.2-1.76-4.71-4.16l1.25-.75c.51,1.83,1.32,3.54,3.45,3.54,1.65,0,2.88-1.03,2.88-3.1,0-3.83-6.65-2.86-6.65-7.5,0-2.29,1.65-3.78,3.59-3.78,2.24,0,3.01,1.06,3.74,2.38l-1.19.75Z"/>
    <path class="st1" d="M147.55,8.6v1.36h-7.39v5.33h6.07v1.36h-6.07v7.35h-1.45v-15.4h8.85Z"/>
    <path class="st1" d="M154.21,16.39h-2.88v7.61h-1.45v-15.4h4.95c2.73,0,4.4,1.28,4.4,3.89,0,2.27-1.25,3.54-3.37,3.83l4.8,7.68h-1.63l-4.82-7.61ZM151.33,9.97v5.06h3.41c1.98,0,3.01-.77,3.01-2.53s-1.03-2.53-3.01-2.53h-3.41Z"/>
    <path class="st1" d="M161.91,8.6h1.45v10.61c0,1.91,1.25,3.61,3.83,3.61s3.83-1.69,3.83-3.61v-10.61h1.45v10.47c0,3.39-2.49,5.1-5.28,5.1s-5.28-1.72-5.28-5.1v-10.47ZM167.72,4.29h2.05l-2.51,3.08h-1.08l1.54-3.08Z"/>
    <path class="st1" d="M174.34,8.6h10.65v1.36h-4.6v14.04h-1.45v-14.04h-4.6v-1.36Z"/>
    <path class="st1" d="M190.87,8.6l5.57,15.4h-1.5l-1.54-4.38h-6.34l-1.54,4.38h-1.5l5.57-15.4h1.28ZM187.52,18.26h5.41l-2.71-7.68-2.71,7.68Z"/>
    <path class="st1" d="M199.69,8.6v14.04h7.22v1.36h-8.67v-15.4h1.45Z"/>
    <path class="st1" d="M221.38,16.3c0,4.88-3.15,7.88-6.75,7.88s-6.75-2.99-6.75-7.88,3.15-7.88,6.75-7.88,6.75,2.99,6.75,7.88ZM209.39,16.3c0,4.31,2.35,6.51,5.24,6.51s5.24-2.2,5.24-6.51-2.35-6.51-5.24-6.51-5.24,2.2-5.24,6.51Z"/>
    <path class="st1" d="M238.63,8.6v1.36h-7.24v5.15h5.92v1.36h-5.92v6.16h7.46v1.36h-8.91v-15.4h8.69Z"/>
    <path class="st1" d="M252.07,8.6v15.4h-1.72l-7.63-13.05v13.05h-1.45v-15.4h1.72l7.63,13.09v-13.09h1.45Z"/>
    <path class="st1" d="M262.85,17.09v6.91h-1.45v-15.4h5.24c2.75,0,4.44,1.58,4.44,4.25s-1.69,4.25-4.44,4.25h-3.78ZM269.56,12.85c0-1.63-.79-2.88-2.9-2.88h-3.81v5.76h3.81c2.11,0,2.9-1.25,2.9-2.88Z"/>
    <path class="st1" d="M277.66,16.39h-2.88v7.61h-1.45v-15.4h4.95c2.73,0,4.4,1.28,4.4,3.89,0,2.27-1.25,3.54-3.37,3.83l4.8,7.68h-1.63l-4.82-7.61ZM274.77,9.97v5.06h3.41c1.98,0,3.01-.77,3.01-2.53s-1.03-2.53-3.01-2.53h-3.41Z"/>
    <path class="st1" d="M287.34,24h-1.45v-15.4h1.45v15.4Z"/>
    <path class="st1" d="M292.62,8.6l4.58,11.6,4.58-11.6h1.8v15.4h-1.45v-12.59l-4.47,11.18h-.92l-4.47-11.18v12.59h-1.45v-15.4h1.8Z"/>
    <path class="st1" d="M315.26,8.6v1.36h-7.24v5.15h5.92v1.36h-5.92v6.16h7.46v1.36h-8.91v-15.4h8.69Z"/>
    <path class="st1" d="M334.64,8.6l-5.39,15.4h-1.54l-5.39-15.4h1.5l4.67,13.33,4.67-13.33h1.5Z"/>
    <path class="st1" d="M338.02,24h-1.45v-15.4h1.45v15.4Z"/>
    <path class="st1" d="M345.04,8.6c3.96,0,7,2.88,7,7.7s-3.04,7.7-7,7.7h-4.05v-15.4h4.05ZM342.45,9.97v12.67h2.62c2.84,0,5.46-1.91,5.46-6.34s-2.62-6.34-5.46-6.34h-2.62Z"/>
    <path class="st1" d="M363.13,8.6v1.36h-7.24v5.15h5.92v1.36h-5.92v6.16h7.46v1.36h-8.91v-15.4h8.69Z"/>
    <path class="st1" d="M378.64,16.3c0,4.88-3.15,7.88-6.75,7.88s-6.75-2.99-6.75-7.88,3.15-7.88,6.75-7.88,6.75,2.99,6.75,7.88ZM366.65,16.3c0,4.31,2.35,6.51,5.24,6.51s5.24-2.2,5.24-6.51-2.35-6.51-5.24-6.51-5.24,2.2-5.24,6.51Z"/>
  </g>
  <g>
    <path class="st1" d="M.5,31.58c-.12-.04-.24-.1-.34-.18-.16-.1-.16-.8-.16-12.06C0,12.77.04,7.37.06,7.31c.18-.26.5-.32,2.05-.32.9,0,1.68.04,1.75.06.22.08.3.32.54,1.48.12.6.26,1.12.3,1.16s.18-.16.32-.44c.32-.6,1.26-1.6,1.87-1.93,1.02-.61,2.23-.85,3.41-.68,2.71.42,4.59,2.73,5.42,6.64.2,1,.26,4.31.08,5.58-.2,2.03-.99,3.96-2.27,5.54-1.14,1.2-2.19,1.73-3.65,1.79-1.06.08-1.75-.04-2.55-.44-.83-.47-1.54-1.13-2.05-1.93-.11-.19-.24-.37-.4-.52-.04,0-.08,1.73-.08,3.87s-.04,3.97-.08,4.09c-.14.34-.5.4-2.35.4-.94,0-1.79-.02-1.87-.06v-.02ZM8.67,21.97c.66-.2,1.28-.88,1.64-1.71.4-.96.56-1.89.62-3.39.1-2.59-.5-4.79-1.5-5.64-.32-.28-1.16-.6-1.54-.6-1.93,0-3.19,2.21-3.19,5.64,0,2.45.5,4.19,1.44,5.14.68.66,1.62.88,2.55.56h-.02ZM72.48,26.14c-3.18-.65-5.67-3.12-6.34-6.3-1.14-4.51.1-9.25,3.03-11.63,2.7-2.24,6.62-2.23,9.31.02,1.12,1,1.77,1.91,2.39,3.43.5,1.24.7,2.31.76,4.03.04.8.02,1.54,0,1.66-.14.54.14.5-5.54.5-2.85,0-5.2.04-5.24.08-.1.16.24,1.75.5,2.45.36.94,1.04,1.66,1.73,1.85,1.5.42,2.93-.26,3.41-1.64.34-.94.38-1,.76-1.04.28-.02,2.31.4,3.55.7.52.14.58.4.24,1.24-.36.96-.84,1.73-1.5,2.43-1.37,1.51-3.34,2.34-5.38,2.25-.7.02-1.46,0-1.69-.04h.02ZM76.67,14.37c0-.9-.56-2.55-1.1-3.19-.43-.45-1.03-.71-1.66-.72-.94,0-1.66.44-2.19,1.34-.32.58-.7,1.69-.8,2.39l-.06.46h5.8v-.28ZM18.5,25.6l-.24-.2v-9.05c0-8.34,0-9.09.14-9.19.2-.16,3.31-.24,3.69-.08.3.12.4.34.62,1.56.1.54.2,1,.26,1.04.02.04.2-.2.36-.52.4-.74,1.3-1.69,1.91-1.99,1.16-.55,2.48-.67,3.73-.36.74.2,1.04.46,1.04.88,0,.3-.6,2.79-.86,3.61-.2.6-.32.66-1.2.32-.65-.3-1.36-.47-2.07-.52-1.34,0-2.19.7-2.59,2.19-.16.46-.18,1.2-.22,6.38.08,1.99.02,3.98-.16,5.96-.1.08-.64.12-2.15.14-1.95.02-2.03,0-2.25-.16ZM31.67,25.68c-.11-.03-.2-.1-.26-.2-.04-.1-.1-16.33-.06-17.99,0-.46.28-.52,2.51-.52s2.25.02,2.29.6v9.05c0,8.67,0,8.79-.18,8.97-.16.16-.28.18-2.15.18-1.1,0-2.07-.04-2.17-.1h.02ZM39.48,25.68c-.13-.06-.24-.17-.3-.3-.06-.16-.08-3.51-.08-9.13,0-7.52,0-8.89.12-9.05s.26-.18,1.83-.2c1.16-.02,1.79,0,1.95.08.26.1.3.2.6,1.79l.22.84s.2-.22.38-.56c.56-1.12,1.48-1.95,2.59-2.35.42-.16.74-.2,1.56-.2,1.1,0,1.54.08,2.45.54.8.5,1.47,1.18,1.95,1.99.2.34.36.6.4.6.02,0,.18-.18.34-.4.75-1.17,1.87-2.07,3.17-2.55,1.04-.29,2.15-.29,3.19,0,1.83.64,2.91,1.99,3.59,4.53.16.7.18.9.2,7.38.04,5.78,0,6.72-.1,6.88-.12.16-.24.18-2.15.2-1.95.02-2.05.02-2.27-.16l-.24-.2-.04-6.02c-.02-5.94-.02-6.04-.22-6.62-.4-1.2-1.06-1.71-2.15-1.71s-1.91.6-2.33,1.77c-.3.84-.34,1.91-.34,7.32s0,5.28-.2,5.46c-.16.16-.28.18-2.13.18-1.99,0-2.21-.04-2.39-.36-.11-1.93-.15-3.85-.1-5.78,0-5.58-.02-6.26-.32-7.18-.4-1.28-1.99-1.83-3.25-1.14-.82.44-1.26,1.36-1.4,2.97-.06.46-.1,3.15-.1,5.98v5.14l-.2.18c-.2.16-.3.18-2.11.18-1.06,0-1.99-.06-2.11-.1ZM32.94,5.58c-.79-.25-1.44-.81-1.79-1.56-.29-.78-.29-1.63,0-2.41.26-.58.82-1.14,1.4-1.4.79-.28,1.65-.28,2.43,0,.64.3,1.28,1,1.5,1.68.2.68.14,1.64-.16,2.29-.28.6-.94,1.16-1.6,1.36-.48.14-1.4.16-1.77.04Z"/>
    <path class="st1" d="M37.99,47.82c-5.84-.33-11.55-1.84-16.79-4.45-3-1.42-5.73-3.36-8.06-5.72-1.87-1.88-2.8-3.11-2.98-3.97-.15-.68.12-1.11.74-1.11.4,0,1.05.39,2.18,1.26,4.92,3.82,11.77,6.59,19.38,7.82,9.47,1.52,19.17.78,28.3-2.16,1.63-.55,2.67-.98,4.34-1.79,1.1-.55,1.44-.68,1.79-.7.43-.04.44-.03.68.22.34.37.33.86-.04,1.42-.34.52-.95,1.13-1.85,1.85-4.64,3.73-12.18,6.42-20.27,7.2-1.45.15-6.15.21-7.42.12Z"/>
  </g>
  <path class="st1" d="M68.33,43.4c-.47-.4-.39-.84.37-2.1.95-1.51,1.65-3.17,2.07-4.9.16-1.04-.1-1.38-1.24-1.59-1.07-.18-3.57-.04-5.16.28-.3.06-.81.1-1.16.1-.59,0-.67,0-.81-.18-.12-.14-.19-.31-.22-.49-.03-.27,0-.34.22-.59,1.92-1.57,4.33-2.41,6.8-2.37,2.33,0,4.21.56,4.83,1.45.22.33.24.36.27,1.44.01.8,0,1.29-.1,1.79-.34,1.74-1.08,3.38-2.15,4.8-.75.9-1.62,1.69-2.58,2.36-.59.3-.81.3-1.14,0Z"/>
</svg>