<?xml version="1.0" encoding="UTF-8"?>
<svg id="Layer_1" xmlns="http://www.w3.org/2000/svg" version="1.1" viewBox="0 0 345.18 79.81">
  <!-- Generator: Adobe Illustrator 30.3.0, SVG Export Plug-In . SVG Version: 2.1.3 Build 182)  -->
  <path d="M157.53.19c-8.2,1.04-15.6,4.28-21.61,9.44-1.95,1.69-3.37,3.11-3.37,3.4,0,.09.31.21.71.28,1,.17,3.23,1.33,4.19,2.17,2.54,2.24,3.85,5.94,4.18,11.84l.12,2.12h-8.51v-1.17c0-1.33-.21-2.78-.6-4.12-.31-1.05-1.26-2.23-2.11-2.59-.72-.29-2.31-.29-3.04.02-1.64.67-2.83,3.62-2.4,5.97.62,3.31,2.23,5.19,7.97,9.35,4.76,3.43,6.92,5.71,8.46,8.85,1.23,2.5,1.57,3.97,1.67,7.08.09,2.26.05,2.78-.28,4.06-1.24,5-5.3,9.2-9.3,9.61-.5.05-.95.16-.98.24-.12.17,2.78,2.99,4.49,4.35,7.59,6.06,16.6,9.03,26.4,8.7,8.59-.29,16.84-3.33,23.47-8.65,1.73-1.38,4.4-3.87,4.4-4.07,0-.07-.45-.29-1-.5-2.23-.79-4.56-2.76-6.21-5.23-3.3-4.87-4.94-11.1-5.16-19.4-.31-11.67,2.33-21.05,7.28-25.89,1.36-1.33,3.47-2.55,4.71-2.76.4-.07.72-.16.72-.22s-.6-.74-1.33-1.5c-5.64-5.85-13.51-9.79-22.4-11.2-2.4-.4-8.11-.48-10.49-.17ZM155.86,24.87v10.61h10.01V14.25h9.15v52.46h-9.15v-22.78l-4.95.03-4.97.05-.05,11.34-.03,11.36h-8.97V14.25h8.97v10.61Z"/>
  <path d="M45.87,4.24c-2.45.45-3.97,1.28-4.99,2.78-1.24,1.79-1.17.12-1.17,28.56v25.58l1.45.12c1.85.16,4.83-.14,6.39-.6.88-.28,1.4-.57,2.02-1.16,1.59-1.48,1.45,1.16,1.5-28.72.03-25.08.03-26.35-.26-26.47-.48-.19-4-.26-4.94-.09Z"/>
  <path d="M207.98,15.39c0,.38,6.37,48.39,6.66,50.15l.1.66h4.12c2.26,0,4.12-.02,4.12-.05,0-.17,4.5-31.56,4.59-32.05l.12-.6.14.6c.09.33,1.09,7.59,2.23,16.14,1.14,8.54,2.11,15.64,2.16,15.74.05.17,1.07.22,4.28.22h4.21l.09-.57c.05-.29,1.29-10.01,2.74-21.56l2.66-21.02h7.85v43.14h9.32V23.05h8.46v43.14h9.66V14.94l-20.4.03-20.42.05-1.59,12.43c-2.16,16.96-2.17,17.1-2.23,16.91-.03-.1-.91-6.47-1.97-14.15-1.04-7.7-1.93-14.27-2-14.63l-.1-.64h-4.21c-3.23,0-4.25.05-4.3.21-.03.12-1.02,6.71-2.16,14.63s-2.12,14.6-2.19,14.84l-.1.43-.14-.52c-.09-.29-.81-6.73-1.62-14.32-.83-7.59-1.54-14.13-1.59-14.55l-.1-.72h-8.4v.45Z"/>
  <path d="M285.81,40.57v25.63h6.9v-18.76c0-10.3.05-18.69.12-18.62.07.05,1.52,8.47,3.24,18.71l3.12,18.59,2.61.05c2.36.03,2.61.02,2.67-.26.05-.17,1.43-8.37,3.09-18.22l3-17.93.05,18.22.03,18.22,4.28-.03,4.26-.05V15.03l-6.16-.05-6.14-.03-.1.47c-.05.28-1,5.92-2.09,12.56-1.1,6.64-2.05,12.22-2.12,12.39s-.98-5.23-2.09-12.34c-1.09-6.95-2-12.75-2.05-12.87-.05-.16-1.48-.21-6.35-.21h-6.28v25.63Z"/>
  <path d="M323.61,40.57v25.63h21.57v-8.11h-12.25v-13.81h8.8l-.03-4.28-.05-4.26-4.35-.05-4.37-.03v-12.6h11.74v-8.11h-21.05v25.63Z"/>
  <path d="M74.33,18.58c-2.64.31-4.8,1.28-6.95,3.12-1.64,1.4-15.77,16.91-15.7,17.24.03.14,2.62,4.3,5.75,9.22,6.33,10.01,7.09,10.99,9.23,12.06,1.86.93,3.4,1.21,6.18,1.09,2.16-.09,2.93-.22,5.16-.9.21-.07.38-.21.38-.29s-2.99-4.68-6.66-10.18c-3.66-5.52-6.61-10.11-6.58-10.22.05-.12,2.16-2.4,4.69-5.09,3.76-3.99,4.66-4.83,4.83-4.64.36.38,15.45,24.14,15.45,24.33,0,.09-2.11,4.59-4.66,10.01-2.57,5.4-4.69,9.92-4.71,10.03-.05.33,2.24,1,4.07,1.21,3.92.45,6.66-.66,8.46-3.38.33-.5,5.78-12.46,12.12-26.59,8.85-19.76,11.46-25.71,11.29-25.84-.14-.07-.86-.31-1.62-.52-1.66-.47-4.52-.55-5.87-.17-2.23.62-4.4,2.43-5.56,4.59-.29.57-2.17,4.9-4.18,9.65-2,4.73-3.71,8.72-3.78,8.85-.19.31.71,1.69-7.44-11.6-3.73-6.07-6.87-11.15-6.99-11.27-.52-.53-4.69-.97-6.9-.71Z"/>
  <path d="M14.52,18.76c-7.87.74-12.89,4.38-14.22,10.29-1.38,6.14,2.16,11.86,8.61,13.93.76.24,3.81.91,6.8,1.48,2.97.57,5.73,1.12,6.11,1.23,3.12.85,3.9,3.23,1.47,4.56-1.4.76-3.11.86-8.61.53-6.11-.36-8.53-.36-9.6,0-1.83.62-2.99,1.9-3.62,3.95-.36,1.23-.45,5.11-.12,5.44.12.12.81.28,1.55.36,6.4.72,16.07.93,19.76.43,8.28-1.12,12.86-5.23,13.37-12.03.38-5.06-2.09-9.34-6.73-11.61-2.14-1.05-3.74-1.48-10.22-2.69-3.05-.57-5.88-1.17-6.3-1.36-2.67-1.16-1.95-3.49,1.31-4.18,1.35-.28,4.66-.28,9.84,0,3.78.22,4.25.21,5.25-.05,2.61-.67,3.9-2.33,4.35-5.59.17-1.26.09-3.38-.16-3.78-.12-.19-3.9-.62-8.06-.91-2.8-.19-8.66-.19-10.79.02Z"/>
  <path d="M193.34,22.3c-1.16.57-1.95,1.52-2.9,3.43-1.57,3.23-2.3,6.97-2.43,12.6-.17,6.8.69,12.1,2.55,15.89,1.45,2.97,3.69,4.31,5.76,3.45,1.36-.59,2.88-2.69,3.88-5.42,2.35-6.45,2.59-15.27.6-22.88-1.57-6.06-4.31-8.65-7.47-7.08Z"/>
  <path d="M122.21,40.17c.02,5.47,1.28,11.34,3.14,14.6.72,1.29,2.24,2.86,3.16,3.3,3.73,1.76,7.14-2.59,5.87-7.49-.66-2.47-2-3.99-6.54-7.27-1.69-1.23-3.62-2.67-4.26-3.23-.66-.53-1.23-.98-1.28-.98s-.09.48-.09,1.07Z"/>
</svg>