<?xml version="1.0" encoding="UTF-8"?>
<svg id="Layer_1" xmlns="http://www.w3.org/2000/svg" xmlns:xlink="http://www.w3.org/1999/xlink" version="1.1" viewBox="0 0 99.54 96.15">
  <!-- Generator: Adobe Illustrator 30.3.0, SVG Export Plug-In . SVG Version: 2.1.3 Build 182)  -->
  <defs>
    <style>
      .st0 {
        fill: url(#linear-gradient);
      }

      .st1 {
        fill: #ffc200;
      }
    </style>
    <linearGradient id="linear-gradient" x1="-532.62" y1="-662.06" x2="-445.76" y2="-662.06" gradientTransform="translate(539 709.74)" gradientUnits="userSpaceOnUse">
      <stop offset="0" stop-color="#4047ff"/>
      <stop offset="1" stop-color="#04006c"/>
    </linearGradient>
  </defs>
  <path class="st0" d="M93.24,31.34c-.63,4.49-2.76,19.29-13.62,33.78-11.02,14.96-25.44,22.21-29.85,24.41-4.33-2.21-18.82-9.45-29.85-24.41-10.79-14.41-12.91-29.22-13.54-33.78l6.54-3.54v-4.88l6.54-3.54v-4.88c8.98-4.33,18.9-7.09,30.32-8.66,11.42,1.5,21.34,4.33,30.32,8.66v4.88l6.54,3.54v4.88l6.61,3.54Z"/>
  <path class="st1" d="M92.53,24.33v-4.88l-6.54-3.54v-5.12l-3.31-1.58C73.16,4.73,62.68,1.73,50.56.08l-.79-.08-.79.08c-12.05,1.65-22.6,4.65-32.05,9.21l-3.31,1.58v5.12l-6.54,3.46v4.88l-7.09,3.78.55,4.02c1.89,13.54,6.85,25.83,14.73,36.46,7.95,10.79,18.66,19.61,31.89,26.22l2.6,1.34,2.6-1.34c13.23-6.61,23.94-15.43,31.89-26.22,7.87-10.63,12.84-22.92,14.73-36.46l.55-4.02s-7.01-3.78-7.01-3.78ZM93.24,31.34c-.63,4.49-2.76,19.29-13.62,33.78-11.02,14.96-25.44,22.21-29.85,24.41-4.33-2.21-18.82-9.45-29.85-24.41-10.79-14.41-12.91-29.22-13.54-33.78l6.54-3.54v-4.88l6.54-3.54v-4.88c8.98-4.33,18.9-7.09,30.32-8.66,11.42,1.5,21.34,4.33,30.32,8.66v4.88l6.54,3.54v4.88l6.61,3.54Z"/>
  <path class="st1" d="M40.08,17.64l.31,39.77-.31.16c-4.17-10.63-6.69-23.86-7.48-37.17-2.05.94-4.25,2.05-6.54,3.46.94,12.05,2.99,22.6,6.69,32.68l-2.13,1.18c-5.59-7.8-9.21-17.25-11.65-28.51-1.73,1.58-3.39,3.31-5.12,5.2,3.23,13.47,8.43,23.7,15.91,31.97l5.75-3.46c2.83,5.91,6.77,11.73,11.18,16.38V16.46c-2.21.24-4.41.63-6.61,1.18ZM77.25,38.19c2.36-2.6,2.83-4.49,2.83-6.77,0-3.23-2.68-6.14-6.61-8.66-2.36-1.5-5.98-3.31-11.26-4.8-2.99-.79-6.22-1.34-9.45-1.42v62.92c13.23-6.77,28.9-25.44,28.98-34.96.16-2.91-1.34-4.8-4.49-6.3ZM59.38,24.02c3.23,0,13.78,3.31,13.78,7.56,0,1.5-1.34,3.7-5.51,5.91l-8.27,4.41v-17.88h0ZM67.57,58.9c-1.89,2.13-4.88,5.43-8.19,7.95v-18.03s11.97-6.69,12.36-7.01c3.54.94,3.39,3.54,3.39,3.78,0,3.31-3.39,8.43-7.56,13.31Z"/>
</svg>