<?xml version="1.0" encoding="UTF-8"?>
<svg id="uuid-0e143979-2b89-4a47-980b-c920611fe185" xmlns="http://www.w3.org/2000/svg" version="1.1" viewBox="0 0 163.3 75">
  <!-- Generator: Adobe Illustrator 29.0.0, SVG Export Plug-In . SVG Version: 2.1.0 Build 186)  -->
  <defs>
    <style>
      .st0 {
        fill: #fa3732;
      }
    </style>
  </defs>
  <g>
    <path d="M66.9,70.2c-1.1,0-2.2-.6-2.7-1.2v5.6h-2.8v-15.9h2.8v1.2c.3-.6,1.3-1.3,2.7-1.3,3.4,0,5.2,2.4,5.2,5.8s-1.8,5.8-5.2,5.8h0ZM66.5,60.9c-1.5,0-2.6,1.2-2.6,3.5s1.1,3.5,2.6,3.5,2.6-1.2,2.6-3.5-1.2-3.5-2.6-3.5Z"/>
    <path d="M79.6,58.5c3.6,0,5.8,2.6,5.8,5.8s-2.1,5.8-5.8,5.8-5.8-2.6-5.8-5.8,2.1-5.8,5.8-5.8ZM79.6,67.8c1.8,0,2.8-1.6,2.8-3.5s-1-3.5-2.8-3.5-2.8,1.6-2.8,3.5,1,3.5,2.8,3.5Z"/>
    <path d="M87.4,70v-11.3h2.8v1.8c.8-1.3,2.1-2,3.4-2s.6,0,.9,0v2.7c-.3-.2-.7-.3-1.2-.3-1.6,0-3,1.3-3,5v4h-2.8Z"/>
  </g>
  <g>
    <path class="st0" d="M18.4,27h-8.2l-2,6.6H0L10.5,2.6h7.5l10.5,31h-8.1l-2-6.6h0ZM12.1,20.3h4.3l-2.1-7.3-2.1,7.3h0Z"/>
    <path class="st0" d="M51.7,27.5c-2,4.5-5.5,6.5-10.8,6.5s-11.6-5.2-11.6-11.5,4.2-11.5,11.6-11.5,9,2.1,10.7,6.6l-6.4,2.7c-.7-1.8-1.9-3-4.1-3s-4.3,2.3-4.3,5.3,1.3,5.3,4.3,5.3,3.2-1.1,4.2-2.9l6.2,2.6h0Z"/>
    <path class="st0" d="M76.2,27.5c-2,4.5-5.5,6.5-10.8,6.5s-11.6-5.2-11.6-11.5,4.2-11.5,11.6-11.5,9,2.1,10.7,6.6l-6.4,2.7c-.7-1.8-1.9-3-4.1-3s-4.3,2.3-4.3,5.3,1.3,5.3,4.3,5.3,3.2-1.1,4.2-2.9l6.2,2.6h0Z"/>
    <path class="st0" d="M83.4,0c2.5,0,4.3,1.9,4.3,4.3s-1.9,4.3-4.3,4.3-4.3-1.9-4.3-4.3,1.9-4.3,4.3-4.3h0ZM87,11.3v22.3h-7.3V11.3s7.3,0,7.3,0Z"/>
    <path class="st0" d="M102.3,10.9c7.8,0,11.8,5.4,11.8,11.5s-4,11.5-11.8,11.5-11.8-5.4-11.8-11.5,4-11.5,11.8-11.5ZM102.3,27.8c3.1,0,4.5-2.1,4.5-5.3s-1.4-5.3-4.5-5.3-4.5,2.1-4.5,5.3,1.4,5.3,4.5,5.3ZM101,2.3h9.2l-6.7,7.1h-5.3l2.8-7.1h0Z"/>
    <path class="st0" d="M125.2,11.3v2.6c1.2-1.7,3.6-2.9,6.3-2.9,5.1,0,7.4,2.7,7.4,7.3v15.3h-7.3v-13.2c0-1.9-.9-3-2.5-3-2.4,0-4,2.2-4,6.4v9.8h-7.3V11.3h7.3,0Z"/>
  </g>
  <path d="M110.4,51.2c-1.7,0-4.8.9-6.2,6.7-.6,2.5-.9,5.2-.3,8.3.5,2.9,1.4,5.4,1.9,6.8.2.5.5,1,.8,1.3.7.9,1.9.8,2.3.6.5-.3,1.1-.9.9-2.3-.1-.7-.4-1.7-.6-2.3-.5-1.7-1.2-3.8-1.3-5.3,0-2,.7-2.3,1.2-2.4.9-.2,1.6.8,2.3,2,.8,1.4,2.3,4,3.4,5.9,1.1,1.8,3,3.6,6.1,3.5,3.2-.1,5.5-1.3,6.7-5.2.9-2.9,1.5-5,2.5-7.2,1.1-2.5,2.7-3.9,3.9-3.4,1.2.4,1.5,1.5,1.5,3.2,0,1.5-.2,3.2-.3,4.4,0,.4-.1,1.3-.1,1.8,0,1,.5,1.9,1.6,2.1,1.2.2,2.1-.8,2.5-1.9.1-.4.3-1.1.3-1.6.3-2.4.4-4.1.3-6.6-.2-2.9-.8-5.6-1.7-7.9-1-2.2-2.5-3.6-4.5-3.7-2.2-.1-4.7,1.3-6,4.1-1.2,2.6-2.2,5.2-2.8,6.6-.6,1.4-1.5,2.2-2.8,2.4-1.6.2-3.1-1-4.1-2.7-.9-1.5-2.7-4.3-3.6-5.2-.9-.9-1.9-2-4.1-2"/>
  <rect x="151.8" y="2.2" width="5.1" height="31.5"/>
  <polygon points="163.3 58.6 157 58.6 157 52.2 151.8 52.2 151.8 58.6 145.4 58.6 145.4 63.8 151.8 63.8 151.8 70.1 157 70.1 157 63.8 163.3 63.8 163.3 58.6"/>
</svg>