<?xml version="1.0" encoding="UTF-8"?>
<svg id="Capa_1" xmlns="http://www.w3.org/2000/svg" version="1.1" viewBox="0 0 188.9 52.1">
  <!-- Generator: Adobe Illustrator 29.0.0, SVG Export Plug-In . SVG Version: 2.1.0 Build 186)  -->
  <defs>
    <style>
      .st0 {
        fill: #1ec33c;
      }

      .st1 {
        fill: #fff;
      }
    </style>
  </defs>
  <g id="uuid-cf54224c-8573-4165-a88f-c95a9ab9d48b">
    <g>
      <rect class="st1" x="49.9" width="4.7" height="52.1"/>
      <path class="st1" d="M34.8,17.1c-1-2.2-2.5-3.6-4.5-3.8-2.2-.1-4.7,1.3-6,4.1-1.2,2.6-2.2,5.2-2.8,6.6-.6,1.4-1.5,2.2-2.8,2.4-1.6.2-3.1-1-4.1-2.7-.9-1.5-2.7-4.3-3.7-5.3-.9-.9-1.9-2-4.1-2-1.7,0-4.8.9-6.3,6.7C0,25.7-.2,28.3.3,31.5c.5,2.9,1.4,5.4,1.9,6.8.2.5.5,1,.8,1.3.7.9,1.9.8,2.3.6.5-.3,1.1-.9.9-2.3-.1-.7-.4-1.7-.6-2.3-.5-1.7-1.2-3.8-1.3-5.3,0-2,.7-2.3,1.2-2.4.9-.2,1.6.8,2.3,2,.8,1.4,2.3,4,3.4,6,1.1,1.8,3,3.7,6.1,3.5,3.2-.1,5.5-1.3,6.8-5.2.9-2.9,1.5-5,2.5-7.2,1.1-2.5,2.7-3.9,4-3.5,1.2.4,1.5,1.5,1.5,3.3,0,1.5-.2,3.2-.3,4.4,0,.4-.1,1.3-.1,1.8,0,1,.5,2,1.6,2.1,1.2.2,2.1-.8,2.5-1.9.1-.4.3-1.1.3-1.6.3-2.4.4-4.1.3-6.6-.2-2.9-.8-5.6-1.8-7.9h0Z"/>
      <g>
        <path class="st0" d="M79.7,13.6c-.5-1.4-1.5-2.5-3.4-2.5s-3.8,1.6-3.8,4.8,1.8,4.8,3.8,4.8,2.9-1.1,3.4-2.5l3.7,1c-.9,3.4-3.5,5.1-7,5.1s-8-2.9-8-8.4,3.7-8.4,8-8.4,6.3,1.9,7.1,5l-3.7,1.1h0Z"/>
        <path class="st0" d="M89.2,7.5v6.1c.6-.9,2-1.5,3.4-1.5,2.6,0,4,1.4,4,4.1v7.9h-3.8v-6.8c0-1.1-.7-1.7-1.5-1.7-1.4,0-2.1,1.2-2.1,3.4v5.2h-3.8V7.5h3.8,0Z"/>
        <path class="st0" d="M103.7,12.1c1.3,0,2.4.4,3.1,1.1v-.9h3.8v11.8h-3.8v-1c-.6.8-1.9,1.2-3,1.2-3.2,0-5.4-2.3-5.4-6.1s2.2-6.1,5.3-6.1h0ZM104.6,21c1.3,0,2.4-.9,2.4-2.8s-1.1-2.8-2.4-2.8-2.4.9-2.4,2.8,1.1,2.8,2.4,2.8Z"/>
        <path class="st0" d="M120.2,24.1v-7.2c0-1-.4-1.6-1.2-1.6s-2.1,1.1-2.1,4.2v4.6h-3.6v-11.8h3.6v1.4c.7-.9,1.6-1.6,3.1-1.6s2.7.7,3.3,2c.6-1,1.7-2,3.6-2s3.8,1.5,3.8,3.6v8.3h-3.6v-7.2c0-1-.4-1.6-1.2-1.6s-2.1,1.1-2.1,4.1v4.7h-3.6,0Z"/>
        <path class="st0" d="M139.5,24.3c-1.1,0-2-.3-2.6-.9v5.5h-3.8V12.3h3.8v1c.7-.7,1.6-1.2,2.9-1.2,3,0,5.1,2.3,5.1,6.1s-2.3,6.1-5.4,6.1h0ZM139,15.4c-1.3,0-2.2.9-2.2,2.8s1,2.8,2.2,2.8,2.2-.9,2.2-2.8-1-2.8-2.2-2.8Z"/>
        <path class="st0" d="M149,6.3c1.3,0,2.3,1,2.3,2.3s-1,2.3-2.3,2.3-2.3-1-2.3-2.3,1-2.3,2.3-2.3ZM150.9,12.3v11.8h-3.8v-11.8h3.8Z"/>
        <path class="st0" d="M158.9,12.1c4.1,0,6.2,2.8,6.2,6.1s-2.1,6.1-6.2,6.1-6.2-2.8-6.2-6.1,2.1-6.1,6.2-6.1ZM158.9,21c1.6,0,2.4-1.1,2.4-2.8s-.7-2.8-2.4-2.8-2.4,1.1-2.4,2.8.7,2.8,2.4,2.8Z"/>
        <path class="st0" d="M171,12.3v1.4c.6-.9,1.9-1.5,3.3-1.5,2.7,0,3.9,1.4,3.9,3.9v8.1h-3.8v-7c0-1-.5-1.6-1.3-1.6-1.3,0-2.1,1.2-2.1,3.4v5.2h-3.8v-11.8h3.8Z"/>
        <path class="st0" d="M188.4,14.1l-2.1,1.9c-.5-.7-1.1-1-1.8-1s-.8.3-.8.7.4.7,1.4,1.1c2.3.8,3.8,1.4,3.8,3.6s-1.6,3.9-4.3,3.9-4.2-1.5-5-3.2l2.8-1.5c.4,1.1,1.1,1.8,2.2,1.8s1-.2,1-.8c0-.8-1.2-1.1-2.5-1.6-1.5-.6-2.6-1.5-2.6-3.4s1.5-3.4,4.1-3.4,3.1.8,3.9,2h0Z"/>
        <path class="st0" d="M67.7,28.5h13.1v3.6h-4.4v12.8h-4.2v-12.8h-4.4s0-3.6,0-3.6Z"/>
        <path class="st0" d="M86,32.9c4.1,0,6.2,2.8,6.2,6.1s-2.1,6.1-6.2,6.1-6.2-2.8-6.2-6.1,2.1-6.1,6.2-6.1ZM86,41.8c1.6,0,2.4-1.1,2.4-2.8s-.7-2.8-2.4-2.8-2.4,1.1-2.4,2.8.7,2.8,2.4,2.8Z"/>
        <path class="st0" d="M101.6,44.9v-1.4c-.6.9-1.8,1.5-3.3,1.5-2.5,0-3.9-1.4-3.9-4.3v-7.7h3.8v6.9c0,1.1.5,1.7,1.3,1.7,1.3,0,2.1-1.2,2.1-3.4v-5.2h3.8v11.8h-3.8Z"/>
        <path class="st0" d="M108.1,44.9v-11.8h3.8v1.3c.6-.9,1.9-1.5,3.3-1.5s.8,0,1,.1v3.6c-.4-.2-1-.3-1.5-.3-1.4,0-2.8,1.1-2.8,4.3v4.2h-3.8Z"/>
      </g>
    </g>
  </g>
</svg>