<?xml version="1.0" encoding="UTF-8"?>
<svg id="Capa_1" xmlns="http://www.w3.org/2000/svg" version="1.1" viewBox="0 0 252.6 121.6">
  <!-- Generator: Adobe Illustrator 29.0.0, SVG Export Plug-In . SVG Version: 2.1.0 Build 186)  -->
  <defs>
    <style>
      .st0, .st1, .st2, .st3, .st4, .st5, .st6 {
        isolation: isolate;
      }

      .st0, .st1, .st2, .st3, .st4, .st6 {
        font-family: ApercuMovistar-Bold, 'Apercu Movistar';
        font-weight: 700;
      }

      .st0, .st7, .st3 {
        fill: #fff;
      }

      .st0, .st3 {
        font-size: 22.5px;
      }

      .st1 {
        letter-spacing: 0em;
      }

      .st1, .st2, .st4, .st6 {
        fill: #1ec33c;
        font-size: 44.3px;
      }

      .st2 {
        letter-spacing: 0em;
      }

      .st3 {
        letter-spacing: 0em;
      }

      .st4 {
        letter-spacing: 0em;
      }
    </style>
  </defs>
  <g id="CONTENIDO">
    <g>
      <g class="st5">
        <text class="st0" transform="translate(149.1 115.6)"><tspan x="0" y="0">p</tspan></text>
        <text class="st3" transform="translate(162.3 115.6)"><tspan x="0" y="0">o</tspan></text>
        <text class="st0" transform="translate(175.2 115.6)"><tspan x="0" y="0">r</tspan></text>
      </g>
      <path class="st7" d="M199.7,96.8c-1.7,0-4.8.9-6.2,6.7-.6,2.5-.9,5.2-.3,8.3.5,2.9,1.4,5.4,1.9,6.8.2.5.5,1,.8,1.3.7.9,1.9.8,2.3.6.5-.3,1.1-.9.9-2.3-.1-.7-.4-1.7-.6-2.3-.5-1.7-1.2-3.8-1.3-5.3,0-2,.7-2.3,1.2-2.4.9-.2,1.6.8,2.3,2,.8,1.4,2.3,4,3.4,5.9,1.1,1.8,3,3.6,6.1,3.5,3.2-.1,5.5-1.3,6.7-5.2.9-2.9,1.5-5,2.5-7.2,1.1-2.5,2.7-3.9,3.9-3.4,1.2.4,1.5,1.5,1.5,3.2,0,1.5-.2,3.2-.3,4.4,0,.4-.1,1.3-.1,1.8,0,1,.5,1.9,1.6,2.1,1.2.2,2.1-.8,2.5-1.9.1-.4.3-1.1.3-1.6.3-2.4.4-4.1.3-6.6-.2-2.9-.8-5.6-1.7-7.9-1-2.2-2.5-3.6-4.5-3.7-2.2-.1-4.7,1.3-6,4.1-1.2,2.6-2.2,5.2-2.8,6.6-.6,1.4-1.5,2.2-2.8,2.4-1.6.2-3.1-1-4.1-2.7-.9-1.5-2.7-4.3-3.6-5.2-.9-.9-1.9-2-4.1-2"/>
      <g class="st5">
        <text class="st6" transform="translate(0 37.6)"><tspan x="0" y="0">C</tspan></text>
        <text class="st6" transform="translate(31.1 37.6)"><tspan x="0" y="0">h</tspan></text>
        <text class="st6" transform="translate(57.3 37.6)"><tspan x="0" y="0">a</tspan></text>
        <text class="st6" transform="translate(83.8 37.6)"><tspan x="0" y="0">m</tspan></text>
        <text class="st6" transform="translate(121.4 37.6)"><tspan x="0" y="0">p</tspan></text>
        <text class="st1" transform="translate(148.1 37.6)"><tspan x="0" y="0">i</tspan></text>
        <text class="st6" transform="translate(159.7 37.6)"><tspan x="0" y="0">o</tspan></text>
        <text class="st4" transform="translate(185.9 37.6)"><tspan x="0" y="0">n</tspan></text>
        <text class="st6" transform="translate(211.4 37.6)"><tspan x="0" y="0">s</tspan></text>
        <text class="st2" transform="translate(137.4 79.2)"><tspan x="0" y="0">T</tspan></text>
        <text class="st6" transform="translate(159.1 79.2)"><tspan x="0" y="0">o</tspan></text>
        <text class="st6" transform="translate(185.6 79.2)"><tspan x="0" y="0">u</tspan></text>
        <text class="st6" transform="translate(211.4 79.2)"><tspan x="0" y="0">r</tspan></text>
      </g>
      <g>
        <polygon class="st7" points="252.6 104.2 246.3 104.2 246.3 97.8 241.1 97.8 241.1 104.2 234.7 104.2 234.7 109.3 241.1 109.3 241.1 115.7 246.3 115.7 246.3 109.3 252.6 109.3 252.6 104.2"/>
        <rect class="st7" x="241.1" y="6.9" width="5.1" height="72.3"/>
      </g>
    </g>
  </g>
</svg>