<?xml version="1.0" encoding="UTF-8"?>
<svg id="Capa_1" xmlns="http://www.w3.org/2000/svg" version="1.1" viewBox="0 0 252.6 121.6">
  <!-- Generator: Adobe Illustrator 30.2.1, SVG Export Plug-In . SVG Version: 2.1.1 Build 1)  -->
  <defs>
    <style>
      .st0 {
        fill: #1ec33c;
      }

      .st1 {
        isolation: isolate;
      }

      .st2 {
        fill: #fff;
      }
    </style>
  </defs>
  <g id="CONTENIDO">
    <g>
      <g class="st1">
        <g class="st1">
          <g class="st1">
            <path class="st2" d="M156.17,115.78c-1.15,0-2.25-.58-2.75-1.21v5.63h-2.79v-15.94h2.79v1.17c.32-.58,1.35-1.35,2.75-1.35,3.42,0,5.18,2.36,5.18,5.85s-1.76,5.85-5.18,5.85ZM155.78,106.46c-1.46,0-2.61,1.22-2.61,3.47s1.15,3.47,2.61,3.47,2.63-1.21,2.63-3.47-1.17-3.47-2.63-3.47Z"/>
          </g>
        </g>
        <g class="st1">
          <g class="st1">
            <path class="st2" d="M168.89,104.08c3.65,0,5.76,2.57,5.76,5.85s-2.12,5.85-5.76,5.85-5.76-2.57-5.76-5.85,2.12-5.85,5.76-5.85ZM168.89,113.39c1.8,0,2.84-1.6,2.84-3.47s-1.04-3.47-2.84-3.47-2.84,1.6-2.84,3.47,1.04,3.47,2.84,3.47Z"/>
          </g>
        </g>
        <g class="st1">
          <g class="st1">
            <path class="st2" d="M176.73,115.6v-11.34h2.79v1.85c.81-1.33,2.07-2.03,3.35-2.03.25,0,.58.02.86.09v2.72c-.34-.2-.7-.32-1.17-.32-1.62,0-3.04,1.33-3.04,5v4.03h-2.79Z"/>
          </g>
        </g>
      </g>
      <path class="st2" d="M199.7,96.8c-1.7,0-4.8.9-6.2,6.7-.6,2.5-.9,5.2-.3,8.3.5,2.9,1.4,5.4,1.9,6.8.2.5.5,1,.8,1.3.7.9,1.9.8,2.3.6.5-.3,1.1-.9.9-2.3-.1-.7-.4-1.7-.6-2.3-.5-1.7-1.2-3.8-1.3-5.3,0-2,.7-2.3,1.2-2.4.9-.2,1.6.8,2.3,2,.8,1.4,2.3,4,3.4,5.9,1.1,1.8,3,3.6,6.1,3.5,3.2-.1,5.5-1.3,6.7-5.2.9-2.9,1.5-5,2.5-7.2,1.1-2.5,2.7-3.9,3.9-3.4,1.2.4,1.5,1.5,1.5,3.2,0,1.5-.2,3.2-.3,4.4,0,.4-.1,1.3-.1,1.8,0,1,.5,1.9,1.6,2.1,1.2.2,2.1-.8,2.5-1.9.1-.4.3-1.1.3-1.6.3-2.4.4-4.1.3-6.6-.2-2.9-.8-5.6-1.7-7.9-1-2.2-2.5-3.6-4.5-3.7-2.2-.1-4.7,1.3-6,4.1-1.2,2.6-2.2,5.2-2.8,6.6s-1.5,2.2-2.8,2.4c-1.6.2-3.1-1-4.1-2.7-.9-1.5-2.7-4.3-3.6-5.2-.9-.9-1.9-2-4.1-2"/>
      <g>
        <polygon class="st2" points="252.6 104.2 246.3 104.2 246.3 97.8 241.1 97.8 241.1 104.2 234.7 104.2 234.7 109.3 241.1 109.3 241.1 115.7 246.3 115.7 246.3 109.3 252.6 109.3 252.6 104.2"/>
        <rect class="st2" x="241.1" y="6.9" width="5.1" height="72.3"/>
      </g>
      <g class="st1">
        <g class="st1">
          <path class="st0" d="M24.59,17.73c-.97-2.64-2.82-4.8-6.38-4.8-3.74,0-7.08,3.08-7.08,9.07s3.3,9.07,7.08,9.07,5.41-2.16,6.38-4.8l6.95,1.94c-1.76,6.34-6.56,9.55-13.25,9.55-8.18,0-15.01-5.46-15.01-15.75s7-15.75,15.01-15.75c7.08,0,11.88,3.56,13.33,9.46l-7.04,2.02Z"/>
          <path class="st0" d="M42.62,6.24v11.53c1.19-1.72,3.7-2.9,6.42-2.9,4.97,0,7.61,2.68,7.61,7.7v14.83h-7.22v-12.85c0-2.16-1.28-3.26-2.86-3.26-2.6,0-3.96,2.2-3.96,6.38v9.73h-7.22V6.24h7.22Z"/>
          <path class="st0" d="M69.86,14.87c2.46,0,4.58.75,5.81,2.11v-1.76h7.22v22.18h-7.22v-1.89c-1.19,1.45-3.52,2.24-5.68,2.24-6.03,0-10.08-4.36-10.08-11.44s4.05-11.44,9.95-11.44ZM71.49,31.59c2.38,0,4.53-1.63,4.53-5.28s-2.16-5.28-4.53-5.28-4.53,1.63-4.53,5.28,2.16,5.28,4.53,5.28Z"/>
          <path class="st0" d="M100.79,37.4v-13.47c0-1.85-.75-3.08-2.33-3.08-2.16,0-3.96,1.98-3.96,7.83v8.71h-6.69V15.22h6.69v2.64c1.28-1.76,3.08-2.99,5.76-2.99,3.21,0,5.1,1.32,6.25,3.74,1.14-1.94,3.26-3.74,6.73-3.74,4.67,0,7.22,2.73,7.22,6.82v15.71h-6.69v-13.47c0-1.94-.66-3.08-2.29-3.08-2.02,0-4,1.98-4,7.79v8.76h-6.69Z"/>
          <path class="st0" d="M137.27,37.75c-2.16,0-3.83-.53-4.84-1.67v10.3h-7.22V15.22h7.22v1.89c1.28-1.41,2.99-2.24,5.54-2.24,5.63,0,9.51,4.36,9.51,11.44s-4.31,11.44-10.21,11.44ZM136.26,21.03c-2.38,0-4.18,1.63-4.18,5.28s1.8,5.28,4.18,5.28,4.18-1.63,4.18-5.28-1.8-5.28-4.18-5.28Z"/>
          <path class="st0" d="M155,4c2.46,0,4.31,1.89,4.31,4.31s-1.85,4.31-4.31,4.31-4.31-1.89-4.31-4.31,1.85-4.31,4.31-4.31ZM158.61,15.22v22.18h-7.22V15.22h7.22Z"/>
          <path class="st0" d="M173.74,14.87c7.75,0,11.71,5.33,11.71,11.44s-3.96,11.44-11.71,11.44-11.71-5.32-11.71-11.44,3.96-11.44,11.71-11.44ZM173.74,31.59c3.08,0,4.49-2.11,4.49-5.28s-1.41-5.28-4.49-5.28-4.49,2.11-4.49,5.28,1.41,5.28,4.49,5.28Z"/>
          <path class="st0" d="M196.53,15.22v2.55c1.19-1.72,3.56-2.9,6.29-2.9,5.06,0,7.39,2.68,7.39,7.3v15.23h-7.22v-13.11c0-1.89-.92-2.99-2.51-2.99-2.42,0-3.96,2.2-3.96,6.38v9.73h-7.22V15.22h7.22Z"/>
          <path class="st0" d="M229.23,18.56l-3.92,3.61c-.97-1.28-2.16-1.94-3.34-1.94-.79,0-1.5.48-1.5,1.23,0,.84.7,1.41,2.6,2.07,4.31,1.45,7.13,2.55,7.13,6.82,0,4-3.04,7.39-8.14,7.39s-7.83-2.82-9.37-6.03l5.33-2.86c.75,2.07,2.02,3.43,4.05,3.43,1.01,0,1.94-.44,1.94-1.5,0-1.58-2.33-2.02-4.8-3.04-2.73-1.1-4.93-2.9-4.93-6.42s2.9-6.47,7.66-6.47c3.43,0,5.85,1.5,7.31,3.7Z"/>
        </g>
      </g>
      <g class="st1">
        <g class="st1">
          <path class="st0" d="M138.67,48.96h24.56v6.69h-8.36v24.12h-7.83v-24.12h-8.36v-6.69Z"/>
          <path class="st0" d="M173.08,57.23c7.75,0,11.71,5.33,11.71,11.44s-3.96,11.44-11.71,11.44-11.71-5.32-11.71-11.44,3.96-11.44,11.71-11.44ZM173.08,73.96c3.08,0,4.49-2.11,4.49-5.28s-1.41-5.28-4.49-5.28-4.49,2.11-4.49,5.28,1.41,5.28,4.49,5.28Z"/>
          <path class="st0" d="M202.43,79.76v-2.55c-1.19,1.63-3.34,2.9-6.29,2.9-4.8,0-7.39-2.68-7.39-8.01v-14.52h7.22v12.94c0,2.07.92,3.17,2.51,3.17,2.42,0,3.96-2.2,3.96-6.38v-9.73h7.22v22.18h-7.22Z"/>
          <path class="st0" d="M214.66,79.76v-22.18h7.22v2.42c1.14-1.67,3.56-2.77,6.16-2.77.79,0,1.45.13,1.89.26v6.87c-.66-.4-1.89-.62-2.82-.62-2.55,0-5.24,2.16-5.24,8.14v7.88h-7.22Z"/>
        </g>
      </g>
    </g>
  </g>
</svg>