<?xml version="1.0" encoding="UTF-8"?>
<svg id="uuid-eec5bc2c-c207-40b9-94e1-79c24fe15495" xmlns="http://www.w3.org/2000/svg" version="1.1" viewBox="0 0 288.4 75">
  <!-- Generator: Adobe Illustrator 29.0.0, SVG Export Plug-In . SVG Version: 2.1.0 Build 186)  -->
  <defs>
    <style>
      .st0 {
        fill: #fa3732;
      }
    </style>
  </defs>
  <g>
    <path d="M191.9,70.2c-1.1,0-2.2-.6-2.7-1.2v5.6h-2.8v-15.9h2.8v1.2c.3-.6,1.3-1.3,2.7-1.3,3.4,0,5.2,2.4,5.2,5.8s-1.8,5.8-5.2,5.8h0ZM191.5,60.9c-1.5,0-2.6,1.2-2.6,3.5s1.1,3.5,2.6,3.5,2.6-1.2,2.6-3.5-1.2-3.5-2.6-3.5Z"/>
    <path d="M204.7,58.5c3.6,0,5.8,2.6,5.8,5.8s-2.1,5.8-5.8,5.8-5.8-2.6-5.8-5.8,2.1-5.8,5.8-5.8ZM204.7,67.8c1.8,0,2.8-1.6,2.8-3.5s-1-3.5-2.8-3.5-2.8,1.6-2.8,3.5,1,3.5,2.8,3.5Z"/>
    <path d="M212.5,70v-11.3h2.8v1.8c.8-1.3,2.1-2,3.4-2s.6,0,.9,0v2.7c-.3-.2-.7-.3-1.2-.3-1.6,0-3,1.3-3,5v4h-2.8Z"/>
  </g>
  <g>
    <path class="st0" d="M21.4,13.8c-1-2.7-2.8-4.8-6.4-4.8s-7.1,3.1-7.1,9.1,3.3,9.1,7.1,9.1,5.4-2.2,6.4-4.8l7,1.9c-1.8,6.4-6.6,9.6-13.3,9.6S0,28.5,0,18.1,7,2.3,15.1,2.3s12,3.6,13.4,9.5c0,0-7.1,2-7.1,2Z"/>
    <path class="st0" d="M35.6,0c2.5,0,4.3,1.9,4.3,4.3s-1.9,4.3-4.3,4.3-4.3-1.9-4.3-4.3,1.9-4.3,4.3-4.3ZM39.3,11.3v22.3h-7.3V11.3s7.3,0,7.3,0Z"/>
    <path class="st0" d="M51.7,11.3v2.6c1.2-1.7,3.6-2.9,6.3-2.9,5.1,0,7.4,2.7,7.4,7.3v15.3h-7.3v-13.2c0-1.9-.9-3-2.5-3-2.4,0-4,2.2-4,6.4v9.8h-7.3V11.3h7.3,0Z"/>
    <path class="st0" d="M75.9,24.3c.4,2.6,2.1,4.1,5,4.1s3.3-.8,4.4-2.4l5.6,2c-1.9,3.5-5,5.9-10.4,5.9-8.1,0-11.2-6.2-11.2-11.5s3.7-11.5,11.3-11.5,10.8,6.4,10.8,11.1v2.3h-15.4ZM76.1,19.6h8.5c-.3-1.9-1.8-3.4-4.3-3.4s-3.6,1.1-4.3,3.4h0Z"/>
    <path class="st0" d="M127.7,2.6v6.7h-13.2v4.4h10.4v6.7h-10.4v6.4h13.6v6.7h-21.5V2.6h21.1,0Z"/>
    <path class="st0" d="M147,14.7l-3.9,3.6c-1-1.3-2.2-1.9-3.4-1.9s-1.5.5-1.5,1.2.7,1.4,2.6,2.1c4.3,1.5,7.2,2.6,7.2,6.9s-3.1,7.4-8.2,7.4-7.9-2.8-9.4-6.1l5.4-2.9c.8,2.1,2,3.5,4.1,3.5s1.9-.4,1.9-1.5c0-1.6-2.3-2-4.8-3.1-2.7-1.1-5-2.9-5-6.5s2.9-6.5,7.7-6.5,5.9,1.5,7.3,3.7h0Z"/>
    <path class="st0" d="M163.6,34c-2.2,0-3.9-.5-4.9-1.7v10.4h-7.3V11.3h7.3v1.9c1.3-1.4,3-2.3,5.6-2.3,5.7,0,9.6,4.4,9.6,11.5s-4.3,11.5-10.3,11.5h0ZM162.6,17.1c-2.4,0-4.2,1.6-4.2,5.3s1.8,5.3,4.2,5.3,4.2-1.6,4.2-5.3-1.8-5.3-4.2-5.3Z"/>
    <path class="st0" d="M186.5,10.9c2.5,0,4.6.8,5.8,2.1v-1.8h7.3v22.3h-7.3v-1.9c-1.2,1.5-3.5,2.3-5.7,2.3-6.1,0-10.1-4.4-10.1-11.5s4.1-11.5,10-11.5h0ZM188.2,27.8c2.4,0,4.6-1.6,4.6-5.3s-2.2-5.3-4.6-5.3-4.6,1.6-4.6,5.3,2.2,5.3,4.6,5.3Z"/>
    <path class="st0" d="M211.8,11.3v2.6c1.2-1.7,3.6-2.9,6.3-2.9,5.1,0,7.4,2.7,7.4,7.3v15.3h-7.3v-13.2c0-1.9-.9-3-2.5-3-2.4,0-4,2.2-4,6.4v9.8h-7.3V11.3h7.3,0ZM206.4,6c1-2.4,3.4-4.2,6-4.2s3.8,1.6,5.9,1.6,1.9-.7,2.7-1.8l3.5,2.9c-1,2.4-3.4,4.2-6,4.2s-3.8-1.6-5.9-1.6-1.9.7-2.7,1.8l-3.5-2.9Z"/>
    <path class="st0" d="M241,10.9c7.8,0,11.8,5.4,11.8,11.5s-4,11.5-11.8,11.5-11.8-5.4-11.8-11.5,4-11.5,11.8-11.5ZM241,27.8c3.1,0,4.5-2.1,4.5-5.3s-1.4-5.3-4.5-5.3-4.5,2.1-4.5,5.3,1.4,5.3,4.5,5.3Z"/>
    <path class="st0" d="M263.7,2.3v31.3h-7.3V2.3s7.3,0,7.3,0Z"/>
  </g>
  <path d="M235.4,51.2c-1.7,0-4.8.9-6.2,6.7-.6,2.5-.9,5.2-.3,8.3.5,2.9,1.4,5.4,1.9,6.8.2.5.5,1,.8,1.3.7.9,1.9.8,2.3.6.5-.3,1.1-.9.9-2.3-.1-.7-.4-1.7-.6-2.3-.5-1.7-1.2-3.8-1.3-5.3,0-2,.7-2.3,1.2-2.4.9-.2,1.6.8,2.3,2,.8,1.4,2.3,4,3.4,5.9,1.1,1.8,3,3.6,6.1,3.5,3.2-.1,5.5-1.3,6.7-5.2.9-2.9,1.5-5,2.5-7.2,1.1-2.5,2.7-3.9,3.9-3.4,1.2.4,1.5,1.5,1.5,3.2,0,1.5-.2,3.2-.3,4.4,0,.4-.1,1.3-.1,1.8,0,1,.5,1.9,1.6,2.1,1.2.2,2.1-.8,2.5-1.9.1-.4.3-1.1.3-1.6.3-2.4.4-4.1.3-6.6-.2-2.9-.8-5.6-1.7-7.9-1-2.2-2.5-3.6-4.5-3.7-2.2-.1-4.7,1.3-6,4.1-1.2,2.6-2.2,5.2-2.8,6.6-.6,1.4-1.5,2.2-2.8,2.4-1.6.2-3.1-1-4.1-2.7-.9-1.5-2.7-4.3-3.6-5.2-.9-.9-1.9-2-4.1-2"/>
  <rect x="276.8" y="2.2" width="5.1" height="31.5"/>
  <polygon points="288.4 58.6 282 58.6 282 52.2 276.8 52.2 276.8 58.6 270.5 58.6 270.5 63.8 276.8 63.8 276.8 70.1 282 70.1 282 63.8 288.4 63.8 288.4 58.6"/>
</svg>