<?xml version="1.0" encoding="UTF-8"?>
<svg xmlns="http://www.w3.org/2000/svg" viewBox="0 0 376.12 320">
  <defs>
    <style>
      .uuid-26150e08-6cff-4283-b973-edcf4cf13a61 {
        fill: #fa3732;
      }

      .uuid-f08481a1-14b1-4c61-9109-e036bca25abb {
        fill: #fff;
      }
    </style>
  </defs>
  <g id="uuid-a40b1d18-9798-4fed-8d4b-cbf08fe9f3a7" data-name="FONDOS">
    <rect width="376.12" height="320"/>
  </g>
  <g id="uuid-9b1f33eb-f8ef-40ed-a6ae-086968b304bc" data-name="CONTENIDO">
    <g>
      <g>
        <path class="uuid-f08481a1-14b1-4c61-9109-e036bca25abb" d="m90.01,249.37c-2.87,0-5.62-1.46-6.86-3.04v14.06h-6.97v-39.81h6.97v2.92c.79-1.46,3.37-3.37,6.86-3.37,8.55,0,12.93,5.9,12.93,14.62s-4.39,14.62-12.93,14.62Zm-.96-23.28c-3.65,0-6.52,3.04-6.52,8.66s2.87,8.66,6.52,8.66,6.58-3.04,6.58-8.66-2.92-8.66-6.58-8.66Z"/>
        <path class="uuid-f08481a1-14b1-4c61-9109-e036bca25abb" d="m121.89,220.13c9.11,0,14.39,6.41,14.39,14.62s-5.29,14.62-14.39,14.62-14.39-6.41-14.39-14.62,5.29-14.62,14.39-14.62Zm0,23.28c4.5,0,7.08-3.99,7.08-8.66s-2.59-8.66-7.08-8.66-7.08,3.99-7.08,8.66,2.59,8.66,7.08,8.66Z"/>
        <path class="uuid-f08481a1-14b1-4c61-9109-e036bca25abb" d="m141.4,248.92v-28.34h6.97v4.61c2.02-3.32,5.17-5.06,8.38-5.06.62,0,1.46.06,2.14.23v6.8c-.84-.51-1.74-.79-2.92-.79-4.05,0-7.59,3.32-7.59,12.48v10.06h-6.97Z"/>
      </g>
      <g>
        <path class="uuid-26150e08-6cff-4283-b973-edcf4cf13a61" d="m98.57,108.36c-2.44-6.64-7.08-12.06-16.05-12.06-9.41,0-17.82,7.75-17.82,22.8s8.3,22.8,17.82,22.8,13.61-5.42,16.05-12.06l17.49,4.87c-4.43,15.94-16.49,24.02-33.32,24.02-20.59,0-37.74-13.73-37.74-39.63s17.6-39.63,37.74-39.63c17.82,0,29.89,8.97,33.54,23.8l-17.71,5.09Z"/>
        <path class="uuid-26150e08-6cff-4283-b973-edcf4cf13a61" d="m134.1,73.83c6.2,0,10.85,4.76,10.85,10.85s-4.65,10.85-10.85,10.85-10.85-4.76-10.85-10.85,4.65-10.85,10.85-10.85Zm9.08,28.23v55.79h-18.15v-55.79h18.15Z"/>
        <path class="uuid-26150e08-6cff-4283-b973-edcf4cf13a61" d="m174.28,102.05v6.42c2.99-4.32,8.97-7.31,15.83-7.31,12.73,0,18.6,6.75,18.6,18.37v38.3h-18.15v-32.98c0-4.76-2.32-7.53-6.31-7.53-6.09,0-9.96,5.53-9.96,16.05v24.46h-18.15v-55.79h18.15Z"/>
        <path class="uuid-26150e08-6cff-4283-b973-edcf4cf13a61" d="m234.71,134.6c1.11,6.53,5.31,10.18,12.4,10.18,4.54,0,8.3-1.88,10.96-5.98l13.95,5.09c-4.65,8.63-12.62,14.83-26.12,14.83-20.15,0-28.11-15.61-28.11-28.78s9.19-28.78,28.34-28.78c20.15,0,27.12,15.94,27.12,27.67v5.76h-38.52Zm.44-11.73h21.36c-.77-4.76-4.43-8.52-10.63-8.52-4.54,0-9.08,2.66-10.74,8.52Z"/>
      </g>
      <path class="uuid-f08481a1-14b1-4c61-9109-e036bca25abb" d="m198.85,201.82c-4.23.07-12.03,2.15-15.59,16.7-1.55,6.34-2.15,12.95-.82,20.81,1.22,7.26,3.39,13.52,4.86,16.97.5,1.19,1.29,2.43,1.89,3.19,1.74,2.19,4.63,2.05,5.84,1.46,1.32-.65,2.84-2.23,2.29-5.82-.27-1.73-1.03-4.27-1.47-5.69-1.33-4.33-3.09-9.55-3.25-13.28-.2-4.98,1.76-5.63,3.06-5.92,2.19-.48,4.03,1.92,5.78,4.94,2.09,3.6,5.66,9.98,8.57,14.85,2.63,4.4,7.48,9.11,15.28,8.79,7.95-.33,13.81-3.36,16.82-12.91,2.26-7.14,3.8-12.48,6.28-17.94,2.85-6.29,6.65-9.65,9.85-8.62,2.97.95,3.71,3.86,3.75,8.12.03,3.77-.41,7.94-.75,10.99-.12,1.11-.35,3.34-.26,4.58.18,2.44,1.23,4.87,3.98,5.26,2.92.42,5.27-1.92,6.2-4.74.37-1.11.69-2.81.86-4.02.86-6.1,1.08-10.2.7-16.44-.45-7.3-1.88-13.95-4.37-19.71-2.38-5.51-6.21-9.04-11.13-9.35-5.44-.34-11.67,3.26-14.95,10.26-3.02,6.45-5.43,13.07-6.9,16.45-1.48,3.43-3.67,5.54-7.02,5.9-4.1.43-7.64-2.55-10.23-6.79-2.26-3.7-6.73-10.75-9.12-13.11-2.25-2.22-4.82-5.01-10.16-4.92"/>
      <rect class="uuid-f08481a1-14b1-4c61-9109-e036bca25abb" x="302.34" y="79.26" width="12.84" height="78.8"/>
      <polygon class="uuid-f08481a1-14b1-4c61-9109-e036bca25abb" points="331.12 220.37 315.18 220.37 315.18 204.43 302.34 204.43 302.34 220.37 286.4 220.37 286.4 233.21 302.34 233.21 302.34 249.15 315.18 249.15 315.18 233.21 331.12 233.21 331.12 220.37"/>
    </g>
  </g>
</svg>