<?xml version="1.0" encoding="UTF-8"?>
<svg id="Capa_1" xmlns="http://www.w3.org/2000/svg" version="1.1" viewBox="0 0 190.6 75">
  <!-- Generator: Adobe Illustrator 29.0.0, SVG Export Plug-In . SVG Version: 2.1.0 Build 186)  -->
  <defs>
    <style>
      .st0 {
        fill: #fa3732;
      }

      .st1 {
        fill: #fff;
      }
    </style>
  </defs>
  <g id="uuid-2e4cef18-5196-4929-be8e-54d3c7bfe19f">
    <g>
      <g>
        <path class="st1" d="M94.2,70.2c-1.1,0-2.2-.6-2.7-1.2v5.6h-2.8v-15.9h2.8v1.2c.3-.6,1.3-1.3,2.7-1.3,3.4,0,5.2,2.4,5.2,5.8s-1.8,5.8-5.2,5.8ZM93.8,60.9c-1.5,0-2.6,1.2-2.6,3.5s1.1,3.5,2.6,3.5,2.6-1.2,2.6-3.5-1.2-3.5-2.6-3.5Z"/>
        <path class="st1" d="M106.9,58.5c3.6,0,5.8,2.6,5.8,5.8s-2.1,5.8-5.8,5.8-5.8-2.6-5.8-5.8,2.1-5.8,5.8-5.8ZM106.9,67.8c1.8,0,2.8-1.6,2.8-3.5s-1-3.5-2.8-3.5-2.8,1.6-2.8,3.5,1,3.5,2.8,3.5Z"/>
        <path class="st1" d="M114.7,70v-11.3h2.8v1.8c.8-1.3,2.1-2,3.4-2s.6,0,.9,0v2.7c-.3-.2-.7-.3-1.2-.3-1.6,0-3,1.3-3,5v4h-2.8Z"/>
      </g>
      <g>
        <path class="st0" d="M21.4,13.8c-1-2.7-2.8-4.8-6.4-4.8s-7.1,3.1-7.1,9.1,3.3,9.1,7.1,9.1,5.4-2.2,6.4-4.8l7,1.9c-1.8,6.4-6.6,9.6-13.3,9.6S0,28.5,0,18.1,7,2.3,15.1,2.3s12,3.6,13.4,9.5l-7.1,2Z"/>
        <path class="st0" d="M39.6,2.3v31.3h-7.3V2.3s7.3,0,7.3,0Z"/>
        <path class="st0" d="M53.1,10.9c2.5,0,4.6.8,5.8,2.1v-1.8h7.3v22.3h-7.3v-1.9c-1.2,1.5-3.5,2.3-5.7,2.3-6.1,0-10.1-4.4-10.1-11.5s4.1-11.5,10-11.5ZM54.7,27.8c2.4,0,4.6-1.6,4.6-5.3s-2.2-5.3-4.6-5.3-4.6,1.6-4.6,5.3,2.2,5.3,4.6,5.3ZM53.9,2.3h9.2l-6.7,7.1h-5.3l2.8-7.1h0Z"/>
        <path class="st0" d="M85.8,14.7l-3.9,3.6c-1-1.3-2.2-1.9-3.4-1.9s-1.5.5-1.5,1.2.7,1.4,2.6,2.1c4.3,1.5,7.2,2.6,7.2,6.9s-3.1,7.4-8.2,7.4-7.9-2.8-9.4-6.1l5.4-2.9c.8,2.1,2,3.5,4.1,3.5s1.9-.4,1.9-1.5c0-1.6-2.3-2-4.8-3.1-2.7-1.1-5-2.9-5-6.5s2.9-6.5,7.7-6.5,5.9,1.5,7.3,3.7h0Z"/>
        <path class="st0" d="M93.7,0c2.5,0,4.3,1.9,4.3,4.3s-1.9,4.3-4.3,4.3-4.3-1.9-4.3-4.3,1.9-4.3,4.3-4.3ZM97.4,11.3v22.3h-7.3V11.3s7.3,0,7.3,0Z"/>
        <path class="st0" d="M123.1,27.5c-2,4.5-5.5,6.5-10.8,6.5s-11.6-5.2-11.6-11.5,4.2-11.5,11.6-11.5,9,2.1,10.7,6.6l-6.4,2.7c-.7-1.8-1.9-3-4.1-3s-4.3,2.3-4.3,5.3,1.3,5.3,4.3,5.3,3.2-1.1,4.2-2.9l6.2,2.6h0Z"/>
        <path class="st0" d="M137.1,10.9c7.8,0,11.8,5.4,11.8,11.5s-4,11.5-11.8,11.5-11.8-5.4-11.8-11.5,4-11.5,11.8-11.5ZM137.1,27.8c3.1,0,4.5-2.1,4.5-5.3s-1.4-5.3-4.5-5.3-4.5,2.1-4.5,5.3,1.4,5.3,4.5,5.3Z"/>
        <path class="st0" d="M166.8,14.7l-3.9,3.6c-1-1.3-2.2-1.9-3.4-1.9s-1.5.5-1.5,1.2.7,1.4,2.6,2.1c4.3,1.5,7.2,2.6,7.2,6.9s-3.1,7.4-8.2,7.4-7.9-2.8-9.4-6.1l5.4-2.9c.8,2.1,2,3.5,4.1,3.5s1.9-.4,1.9-1.5c0-1.6-2.3-2-4.8-3.1-2.7-1.1-5-2.9-5-6.5s2.9-6.5,7.7-6.5,5.9,1.5,7.3,3.7h0Z"/>
      </g>
      <path class="st1" d="M137.7,51.2c-1.7,0-4.8.9-6.2,6.7-.6,2.5-.9,5.2-.3,8.3.5,2.9,1.4,5.4,1.9,6.8.2.5.5,1,.8,1.3.7.9,1.9.8,2.3.6.5-.3,1.1-.9.9-2.3-.1-.7-.4-1.7-.6-2.3-.5-1.7-1.2-3.8-1.3-5.3,0-2,.7-2.3,1.2-2.4.9-.2,1.6.8,2.3,2,.8,1.4,2.3,4,3.4,5.9,1.1,1.8,3,3.6,6.1,3.5,3.2-.1,5.5-1.3,6.7-5.2.9-2.9,1.5-5,2.5-7.2,1.1-2.5,2.7-3.9,3.9-3.4,1.2.4,1.5,1.5,1.5,3.2,0,1.5-.2,3.2-.3,4.4,0,.4-.1,1.3-.1,1.8,0,1,.5,1.9,1.6,2.1,1.2.2,2.1-.8,2.5-1.9.1-.4.3-1.1.3-1.6.3-2.4.4-4.1.3-6.6-.2-2.9-.8-5.6-1.7-7.9-1-2.2-2.5-3.6-4.5-3.7-2.2-.1-4.7,1.3-6,4.1-1.2,2.6-2.2,5.2-2.8,6.6-.6,1.4-1.5,2.2-2.8,2.4-1.6.2-3.1-1-4.1-2.7-.9-1.5-2.7-4.3-3.6-5.2-.9-.9-1.9-2-4.1-2"/>
      <rect class="st1" x="179.1" y="2.2" width="5.1" height="31.5"/>
      <polygon class="st1" points="190.6 58.6 184.2 58.6 184.2 52.2 179.1 52.2 179.1 58.6 172.7 58.6 172.7 63.8 179.1 63.8 179.1 70.1 184.2 70.1 184.2 63.8 190.6 63.8 190.6 58.6"/>
    </g>
  </g>
</svg>