<?xml version="1.0" encoding="UTF-8"?>
<svg id="uuid-31331269-9966-42ae-9927-edc8237c192d" xmlns="http://www.w3.org/2000/svg" version="1.1" xmlns:xlink="http://www.w3.org/1999/xlink" viewBox="0 0 204.8 75">
  <!-- Generator: Adobe Illustrator 29.0.0, SVG Export Plug-In . SVG Version: 2.1.0 Build 186)  -->
  <defs>
    <style>
      .st0 {
        fill: url(#Degradado_sin_nombre_6);
      }

      .st1 {
        fill: #fa3732;
      }

      .st2 {
        fill: url(#Degradado_sin_nombre_5);
      }

      .st3 {
        fill: url(#Degradado_sin_nombre_4);
      }

      .st4 {
        fill: url(#Degradado_sin_nombre_2);
      }

      .st5 {
        fill: url(#Degradado_sin_nombre_7);
      }

      .st6 {
        fill: url(#Degradado_sin_nombre_3);
      }

      .st7 {
        fill: url(#Degradado_sin_nombre);
      }
    </style>
    <linearGradient id="Degradado_sin_nombre" data-name="Degradado sin nombre" x1="0" y1="51.4" x2="180.5" y2="51.4" gradientTransform="translate(0 69.5) scale(1 -1)" gradientUnits="userSpaceOnUse">
      <stop offset="0" stop-color="#fa3732"/>
      <stop offset="1" stop-color="#fa730a"/>
    </linearGradient>
    <linearGradient id="Degradado_sin_nombre_2" data-name="Degradado sin nombre 2" x1="0" y1="47" x2="180.5" y2="47" gradientTransform="translate(0 69.5) scale(1 -1)" gradientUnits="userSpaceOnUse">
      <stop offset="0" stop-color="#fa3732"/>
      <stop offset="1" stop-color="#fa730a"/>
    </linearGradient>
    <linearGradient id="Degradado_sin_nombre_3" data-name="Degradado sin nombre 3" x1="0" y1="47.2" x2="180.5" y2="47.2" gradientTransform="translate(0 69.5) scale(1 -1)" gradientUnits="userSpaceOnUse">
      <stop offset="0" stop-color="#fa3732"/>
      <stop offset="1" stop-color="#fa730a"/>
    </linearGradient>
    <linearGradient id="Degradado_sin_nombre_4" data-name="Degradado sin nombre 4" x1="0" y1="47" x2="180.5" y2="47" gradientTransform="translate(0 69.5) scale(1 -1)" gradientUnits="userSpaceOnUse">
      <stop offset="0" stop-color="#fa3732"/>
      <stop offset="1" stop-color="#fa730a"/>
    </linearGradient>
    <linearGradient id="Degradado_sin_nombre_5" data-name="Degradado sin nombre 5" x1="0" y1="51.4" x2="180.5" y2="51.4" gradientTransform="translate(0 69.5) scale(1 -1)" gradientUnits="userSpaceOnUse">
      <stop offset="0" stop-color="#fa3732"/>
      <stop offset="1" stop-color="#fa730a"/>
    </linearGradient>
    <linearGradient id="Degradado_sin_nombre_6" data-name="Degradado sin nombre 6" x1="0" y1="52.7" x2="180.5" y2="52.7" gradientTransform="translate(0 69.5) scale(1 -1)" gradientUnits="userSpaceOnUse">
      <stop offset="0" stop-color="#fa3732"/>
      <stop offset="1" stop-color="#fa730a"/>
    </linearGradient>
    <linearGradient id="Degradado_sin_nombre_7" data-name="Degradado sin nombre 7" x1="0" y1="47" x2="180.5" y2="47" gradientTransform="translate(0 69.5) scale(1 -1)" gradientUnits="userSpaceOnUse">
      <stop offset="0" stop-color="#fa3732"/>
      <stop offset="1" stop-color="#fa730a"/>
    </linearGradient>
  </defs>
  <g>
    <path d="M108.4,70.2c-1.1,0-2.2-.6-2.7-1.2v5.6h-2.8v-15.9h2.8v1.2c.3-.6,1.3-1.3,2.7-1.3,3.4,0,5.2,2.4,5.2,5.8s-1.8,5.8-5.2,5.8ZM108,60.9c-1.5,0-2.6,1.2-2.6,3.5s1.1,3.5,2.6,3.5,2.6-1.2,2.6-3.5-1.2-3.5-2.6-3.5Z"/>
    <path d="M121.1,58.5c3.6,0,5.8,2.6,5.8,5.8s-2.1,5.8-5.8,5.8-5.8-2.6-5.8-5.8,2.1-5.8,5.8-5.8ZM121.1,67.8c1.8,0,2.8-1.6,2.8-3.5s-1-3.5-2.8-3.5-2.8,1.6-2.8,3.5,1,3.5,2.8,3.5Z"/>
    <path d="M128.9,70v-11.3h2.8v1.8c.8-1.3,2.1-2,3.4-2s.6,0,.9,0v2.7c-.3-.2-.7-.3-1.2-.3-1.6,0-3,1.3-3,5v4h-2.8Z"/>
  </g>
  <g>
    <g>
      <path class="st1" d="M21.4,13.8c-1-2.7-2.8-4.8-6.4-4.8s-7.1,3.1-7.1,9.1,3.3,9.1,7.1,9.1,5.4-2.2,6.4-4.8l7,1.9c-1.8,6.4-6.6,9.6-13.3,9.6S0,28.5,0,18.1,7,2.3,15.1,2.3s12,3.6,13.4,9.5l-7.1,2Z"/>
      <path class="st1" d="M42.9,10.9c7.8,0,11.8,5.4,11.8,11.5s-4,11.5-11.8,11.5-11.8-5.4-11.8-11.5,4-11.5,11.8-11.5ZM42.9,27.8c3.1,0,4.5-2.1,4.5-5.3s-1.4-5.3-4.5-5.3-4.5,2.1-4.5,5.3,1.4,5.3,4.5,5.3Z"/>
      <path class="st1" d="M71.6,33.6v-13.5c0-1.9-.8-3.1-2.3-3.1s-4,2-4,7.9v8.8h-6.7V11.3h6.7v2.7c1.3-1.8,3.1-3,5.8-3s5.1,1.3,6.3,3.8c1.2-1.9,3.3-3.8,6.8-3.8s7.3,2.7,7.3,6.9v15.8h-6.7v-13.5c0-1.9-.7-3.1-2.3-3.1s-4,2-4,7.8v8.8h-6.7Z"/>
      <path class="st1" d="M101.8,24.3c.4,2.6,2.1,4.1,5,4.1s3.3-.8,4.4-2.4l5.6,2c-1.9,3.5-5,5.9-10.4,5.9-8.1,0-11.2-6.2-11.2-11.5s3.7-11.5,11.3-11.5,10.8,6.4,10.8,11.1v2.3h-15.4ZM102,19.6h8.5c-.3-1.9-1.8-3.4-4.3-3.4s-3.6,1.1-4.3,3.4h0Z"/>
      <path class="st1" d="M129.8,10.9c2.5,0,4.2.8,5.3,2.1V2.3h7.3v31.3h-7.3v-1.9c-1.2,1.5-3,2.3-5.2,2.3-6.1,0-10-4.4-10-11.5s3.9-11.5,9.8-11.5ZM131.3,27.8c2.4,0,4.2-1.6,4.2-5.3s-1.8-5.3-4.2-5.3-4.2,1.6-4.2,5.3,1.8,5.3,4.2,5.3Z"/>
      <path class="st1" d="M150.2,0c2.5,0,4.3,1.9,4.3,4.3s-1.9,4.3-4.3,4.3-4.3-1.9-4.3-4.3,1.9-4.3,4.3-4.3ZM153.8,11.3v22.3h-7.3V11.3s7.3,0,7.3,0Z"/>
      <path class="st1" d="M167.4,10.9c2.5,0,4.6.8,5.8,2.1v-1.8h7.3v22.3h-7.3v-1.9c-1.2,1.5-3.5,2.3-5.7,2.3-6.1,0-10.1-4.4-10.1-11.5s4.1-11.5,10-11.5h0ZM169.1,27.8c2.4,0,4.6-1.6,4.6-5.3s-2.2-5.3-4.6-5.3-4.6,1.6-4.6,5.3,2.2,5.3,4.6,5.3Z"/>
    </g>
    <g>
      <path class="st7" d="M21.4,13.8c-1-2.7-2.8-4.8-6.4-4.8s-7.1,3.1-7.1,9.1,3.3,9.1,7.1,9.1,5.4-2.2,6.4-4.8l7,1.9c-1.8,6.4-6.6,9.6-13.3,9.6S0,28.5,0,18.1,7,2.3,15.1,2.3s12,3.6,13.4,9.5l-7.1,2Z"/>
      <path class="st4" d="M42.9,10.9c7.8,0,11.8,5.4,11.8,11.5s-4,11.5-11.8,11.5-11.8-5.4-11.8-11.5,4-11.5,11.8-11.5ZM42.9,27.8c3.1,0,4.5-2.1,4.5-5.3s-1.4-5.3-4.5-5.3-4.5,2.1-4.5,5.3,1.4,5.3,4.5,5.3Z"/>
      <path class="st6" d="M71.6,33.6v-13.5c0-1.9-.8-3.1-2.3-3.1s-4,2-4,7.9v8.8h-6.7V11.3h6.7v2.7c1.3-1.8,3.1-3,5.8-3s5.1,1.3,6.3,3.8c1.2-1.9,3.3-3.8,6.8-3.8s7.3,2.7,7.3,6.9v15.8h-6.7v-13.5c0-1.9-.7-3.1-2.3-3.1s-4,2-4,7.8v8.8h-6.7Z"/>
      <path class="st3" d="M101.8,24.3c.4,2.6,2.1,4.1,5,4.1s3.3-.8,4.4-2.4l5.6,2c-1.9,3.5-5,5.9-10.4,5.9-8.1,0-11.2-6.2-11.2-11.5s3.7-11.5,11.3-11.5,10.8,6.4,10.8,11.1v2.3h-15.4ZM102,19.6h8.5c-.3-1.9-1.8-3.4-4.3-3.4s-3.6,1.1-4.3,3.4h0Z"/>
      <path class="st2" d="M129.8,10.9c2.5,0,4.2.8,5.3,2.1V2.3h7.3v31.3h-7.3v-1.9c-1.2,1.5-3,2.3-5.2,2.3-6.1,0-10-4.4-10-11.5s3.9-11.5,9.8-11.5ZM131.3,27.8c2.4,0,4.2-1.6,4.2-5.3s-1.8-5.3-4.2-5.3-4.2,1.6-4.2,5.3,1.8,5.3,4.2,5.3Z"/>
      <path class="st0" d="M150.2,0c2.5,0,4.3,1.9,4.3,4.3s-1.9,4.3-4.3,4.3-4.3-1.9-4.3-4.3,1.9-4.3,4.3-4.3ZM153.8,11.3v22.3h-7.3V11.3s7.3,0,7.3,0Z"/>
      <path class="st5" d="M167.4,10.9c2.5,0,4.6.8,5.8,2.1v-1.8h7.3v22.3h-7.3v-1.9c-1.2,1.5-3.5,2.3-5.7,2.3-6.1,0-10.1-4.4-10.1-11.5s4.1-11.5,10-11.5h0ZM169.1,27.8c2.4,0,4.6-1.6,4.6-5.3s-2.2-5.3-4.6-5.3-4.6,1.6-4.6,5.3,2.2,5.3,4.6,5.3Z"/>
    </g>
  </g>
  <path d="M151.9,51.2c-1.7,0-4.8.9-6.2,6.7-.6,2.5-.9,5.2-.3,8.3.5,2.9,1.4,5.4,1.9,6.8.2.5.5,1,.8,1.3.7.9,1.9.8,2.3.6.5-.3,1.1-.9.9-2.3-.1-.7-.4-1.7-.6-2.3-.5-1.7-1.2-3.8-1.3-5.3,0-2,.7-2.3,1.2-2.4.9-.2,1.6.8,2.3,2,.8,1.4,2.3,4,3.4,5.9,1.1,1.8,3,3.6,6.1,3.5,3.2-.1,5.5-1.3,6.7-5.2.9-2.9,1.5-5,2.5-7.2,1.1-2.5,2.7-3.9,3.9-3.4,1.2.4,1.5,1.5,1.5,3.2,0,1.5-.2,3.2-.3,4.4,0,.4-.1,1.3-.1,1.8,0,1,.5,1.9,1.6,2.1,1.2.2,2.1-.8,2.5-1.9.1-.4.3-1.1.3-1.6.3-2.4.4-4.1.3-6.6-.2-2.9-.8-5.6-1.7-7.9-1-2.2-2.5-3.6-4.5-3.7-2.2-.1-4.7,1.3-6,4.1-1.2,2.6-2.2,5.2-2.8,6.6-.6,1.4-1.5,2.2-2.8,2.4-1.6.2-3.1-1-4.1-2.7-.9-1.5-2.7-4.3-3.6-5.2-.9-.9-1.9-2-4.1-2"/>
  <rect x="193.3" y="2.2" width="5.1" height="31.5"/>
  <polygon points="204.8 58.6 198.4 58.6 198.4 52.2 193.3 52.2 193.3 58.6 186.9 58.6 186.9 63.8 193.3 63.8 193.3 70.1 198.4 70.1 198.4 63.8 204.8 63.8 204.8 58.6"/>
</svg>