<?xml version="1.0" encoding="UTF-8"?>
<svg id="CONTENIDO" xmlns="http://www.w3.org/2000/svg" version="1.1" viewBox="0 0 206 89.4">
  <!-- Generator: Adobe Illustrator 29.0.0, SVG Export Plug-In . SVG Version: 2.1.0 Build 186)  -->
  <defs>
    <style>
      .st0 {
        fill: #1ec33c;
      }
    </style>
  </defs>
  <rect x="194.4" width="5.3" height="52"/>
  <g>
    <g>
      <path d="M109.5,84.6c-1.2,0-2.2-.6-2.8-1.2v5.6h-2.8v-15.9h2.8v1.2c.3-.6,1.4-1.4,2.8-1.4,3.4,0,5.2,2.4,5.2,5.8s-1.8,5.8-5.2,5.8ZM109.1,75.3c-1.5,0-2.6,1.2-2.6,3.5s1.2,3.5,2.6,3.5,2.6-1.2,2.6-3.5-1.2-3.5-2.6-3.5Z"/>
      <path d="M122.3,72.9c3.6,0,5.8,2.6,5.8,5.8s-2.1,5.8-5.8,5.8-5.8-2.6-5.8-5.8,2.1-5.8,5.8-5.8ZM122.3,82.2c1.8,0,2.8-1.6,2.8-3.5s-1-3.5-2.8-3.5-2.8,1.6-2.8,3.5,1,3.5,2.8,3.5Z"/>
      <path d="M130.1,84.4v-11.3h2.8v1.8c.8-1.3,2.1-2,3.4-2s.6,0,.8,0v2.7c-.3-.2-.7-.3-1.2-.3-1.6,0-3,1.3-3,5v4h-2.8Z"/>
    </g>
    <g>
      <path d="M153,65.6c-1.7,0-4.8.8-6.2,6.7-.6,2.5-.8,5.2-.3,8.3.5,2.9,1.4,5.4,2,6.8.2.5.5,1,.8,1.3.7.9,1.8.8,2.3.6.5-.2,1.1-.9.9-2.3-.1-.7-.4-1.7-.6-2.3-.5-1.7-1.2-3.8-1.3-5.3,0-2,.7-2.2,1.2-2.4.9-.2,1.6.8,2.3,2,.8,1.4,2.3,4,3.4,5.9,1,1.8,3,3.6,6.1,3.5,3.2-.1,5.5-1.4,6.7-5.2.9-2.8,1.5-5,2.5-7.2,1.2-2.5,2.6-3.8,4-3.4,1.2.4,1.5,1.6,1.5,3.2,0,1.5-.2,3.2-.3,4.4,0,.4-.2,1.3-.1,1.8,0,1,.5,2,1.6,2.1,1.2.2,2.1-.8,2.5-1.9.2-.4.3-1.1.4-1.6.4-2.4.4-4.1.3-6.6-.2-2.9-.8-5.6-1.8-7.9-1-2.2-2.5-3.6-4.4-3.8-2.2-.1-4.7,1.3-6,4.1-1.2,2.6-2.2,5.2-2.8,6.6-.6,1.4-1.5,2.2-2.8,2.4-1.6.2-3-1-4.1-2.7-.9-1.5-2.7-4.3-3.6-5.2-1-1-2-2.1-4.2-2"/>
      <polygon points="206 73 199.6 73 199.6 66.6 194.4 66.6 194.4 73 188.1 73 188.1 78.2 194.4 78.2 194.4 84.5 199.6 84.5 199.6 78.2 206 78.2 206 73"/>
    </g>
  </g>
  <g>
    <g>
      <path class="st0" d="M156,15.9v20.3c0,.5.1.9.3,1.2s.5.4.9.4h.3c.4,0,.7-.2.9-.4.2-.3.3-.7.3-1.2V15.9h2.6v20.1c0,1.5-.3,2.6-.9,3.2s-1.6,1-2.9,1h-.4c-1.3,0-2.3-.4-2.9-1s-.9-1.8-.9-3.2V15.9h2.6Z"/>
      <path class="st0" d="M164.1,15.9h2.7v9.6h2.5v-9.6h2.7v24h-2.7v-12h-2.5v12h-2.7s0-24,0-24Z"/>
      <path class="st0" d="M174.7,15.9h4.2c1.4,0,2.4.3,3,.8s.8,1.6.8,3v16.4c0,1.4-.3,2.4-.8,3-.6.6-1.6.8-3,.8h-4.2s0-24,0-24ZM178.8,37.6c.5,0,.8,0,1-.3.2-.2.3-.6.3-1.1v-16.4c0-.6,0-.9-.3-1.1-.2-.2-.5-.3-1-.3h-1.4v19.3h1.4Z"/>
    </g>
    <g>
      <g>
        <polygon class="st0" points="86.8 12.7 86.8 12 83.9 12 83.9 14.8 84.6 14.8 84.6 13.8 86.6 13.8 86.6 13.2 84.6 13.2 84.6 12.7 86.8 12.7"/>
        <polygon class="st0" points="82.3 17 82.3 16.3 79.3 16.3 79.3 19.1 82.3 19.1 82.3 18.4 80 18.4 80 18 82 18 82 17.4 80 17.4 80 17 82.3 17"/>
        <polygon class="st0" points="83.9 19.1 84.6 19.1 84.6 18.1 86.6 18.1 86.6 17.5 84.6 17.5 84.6 17 86.8 17 86.8 16.3 83.9 16.3 83.9 19.1"/>
        <path class="st0" d="M81.6,13.9c.4-.2.6-.5.6-.9,0-.6-.4-1-1-1h-1.8v2.8h.7v-.9h.8l.7.9h.8l-.8-1h0ZM81,13.3h-1v-.6h1.1c.3,0,.4,0,.4.3s0,.4-.4.3h0Z"/>
        <path class="st0" d="M88.7,10.5v-1c-1.8-.7-3.7-1-5.6-1s-3.9.4-5.6,1v1c1.7-.8,3.6-1.2,5.6-1.2s3.9.4,5.6,1.2h0Z"/>
        <path class="st0" d="M95.7,14.8c-.1.4-.2.9-.4,1.3,1.4,2.2,2.2,4.8,2.2,7.6,0,7.9-6.4,14.4-14.4,14.4s-14.4-6.4-14.4-14.4.8-5.4,2.2-7.6c-.2-.4-.3-.8-.4-1.3-1.9,2.6-3,5.8-3,9.3,0,8.7,7,15.7,15.7,15.7s15.6-7,15.6-15.6-1.2-6.7-3.1-9.3h0Z"/>
        <g>
          <path class="st0" d="M83.6,23.2v5.6c0,2.9,1.8,6.5,5.4,7,0,0,.6-.3,1.4-.8-1.6.1-5.3-1.8-5.3-6.8v-4c2.8-.5,5-2.1,6-4.4,3.4-1.7,4.1-5.2,4.1-7.4v-6.4h-5.3v11.2c0,3.6-2.9,5.8-6.2,6.1h0ZM91.4,17.5V6.7h2.2v6.9c0,2.8-1,4.2-2.3,5.2,0-.4.1-.9.1-1.4h0Z"/>
          <path class="st0" d="M76.3,17.2V6h-5.3v6.4c0,2.2.8,5.6,4.1,7.4.9,2.3,3.1,3.8,6,4.4v4c0,5.1-3.6,6.9-5.3,6.8.7.5,1.4.8,1.4.8,3.6-.5,5.4-4.1,5.4-7v-5.6c-3.4-.3-6.2-2.5-6.2-6.1h0ZM74.9,18.9c-1.2-1-2.3-2.4-2.3-5.2v-6.9h2.2v10.8c0,.4,0,.9.1,1.4h0Z"/>
        </g>
      </g>
      <g>
        <path class="st0" d="M76.7,43.2h-2.6v4.3h2.6c1.6,0,2.5-.8,2.5-2.1h0c0-1.5-.9-2.2-2.5-2.2h0ZM78.1,45.4c0,.8-.6,1.2-1.5,1.2h-1.4v-2.5h1.4c1,0,1.5.4,1.5,1.2h0Z"/>
        <polygon class="st0" points="85.9 44.2 85.9 43.2 81.2 43.2 81.2 47.5 85.9 47.5 85.9 46.6 82.3 46.6 82.3 45.8 85.4 45.8 85.4 44.9 82.3 44.9 82.3 44.2 85.9 44.2"/>
        <polygon class="st0" points="92.7 46.6 89.4 46.6 89.4 43.2 88.3 43.2 88.3 47.5 92.7 47.5 92.7 46.6"/>
      </g>
      <g>
        <path class="st0" d="M114.4,27.4c.7-.9,1-2.3,1-4.2v-8.6c0-2.3-.5-3.9-1.4-4.9-1-1-2.6-1.4-4.9-1.4h-6.1v39.2h4.3v-20h.4l4.1,20h4.7l-4.1-18.8c.8-.2,1.4-.7,1.9-1.3h0ZM109,26.2h-1.6v-13.8h1.8c.8,0,1.4.2,1.6.5.3.3.5,1,.5,1.8v9.1c0,.9-.2,1.5-.5,1.8-.4.4-1,.5-1.8.5h0Z"/>
        <polygon class="st0" points="124 27.7 128.4 27.7 128.4 24 124 24 124 12.4 129.8 12.4 129.8 8.4 119.7 8.4 119.7 47.5 130.1 47.5 130.1 43.5 124 43.5 124 27.7"/>
        <polygon class="st0" points="147.4 8.4 143.1 8.4 140.8 26 140.6 30 140.1 30 139.8 26 137.6 8.4 133.2 8.4 138 38.4 138 47.5 142.5 47.5 142.5 38.4 147.4 8.4"/>
      </g>
      <g>
        <path class="st0" d="M6.9,7.9h-.5C1.8,7.9,0,10,0,15v25.9c0,5,1.8,7.1,6.4,7.1h.6c4.4,0,6.3-2.2,6.3-6.8v-8.7h-4.3v9c0,1.7-.8,2.7-2.1,2.7h-.4c-1.5,0-2.2-.9-2.2-2.7V14.4c0-1.7.7-2.7,2.2-2.7h.4c1.4,0,2.1.9,2.1,2.7v8.3h4.2v-8c0-4.6-1.9-6.8-6.3-6.8h0Z"/>
        <path class="st0" d="M23.5,48h.6c4.4,0,6.4-2.2,6.4-6.8V14.7c0-4.6-2-6.8-6.4-6.8h-.6c-4.5,0-6.4,2.1-6.4,6.8v26.5c0,4.7,1.9,6.8,6.4,6.8h0ZM21.4,14.4c0-1.7.8-2.7,2.2-2.7h.4c1.4,0,2.1.9,2.1,2.7v27.1c0,1.7-.8,2.7-2.1,2.7h-.5c-1.5,0-2.2-.9-2.2-2.7V14.4h0Z"/>
        <path class="st0" d="M39.1,32.7h1.9c4.6,0,6.6-1.8,6.6-6.5v-11.5c0-4.6-1.8-6.3-6.2-6.3h-6.5v39.2h4.2v-14.8h0ZM39.1,12.4h2.1c1.6,0,2.1.6,2.1,2.3v11.6c0,1.8-.6,2.3-2.3,2.3h-1.9V12.4h0Z"/>
        <path class="st0" d="M61.2,8.4h-7.8l-3.2,39.2h4.2l.6-7.7h4.4l.6,7.7h4.5l-3.3-39.2h0ZM55.2,35.8l1.5-19.6.2-4.6h.4l.2,4.6,1.5,19.6h-3.8Z"/>
      </g>
    </g>
  </g>
</svg>