<?xml version="1.0" encoding="UTF-8"?>
<svg id="Capa_1" xmlns="http://www.w3.org/2000/svg" version="1.1" viewBox="0 0 240.1 72.8">
  <!-- Generator: Adobe Illustrator 29.0.0, SVG Export Plug-In . SVG Version: 2.1.0 Build 186)  -->
  <defs>
    <style>
      .st0 {
        fill: #1ec33c;
      }

      .st1 {
        fill: #fff;
      }
    </style>
  </defs>
  <g id="uuid-85cb2f2f-b72b-425d-a9f2-05c655aa90b7">
    <g>
      <g>
        <path class="st1" d="M143.7,68c-1.1,0-2.2-.6-2.7-1.2v5.6h-2.8v-15.9h2.8v1.2c.3-.6,1.3-1.3,2.7-1.3,3.4,0,5.2,2.4,5.2,5.8s-1.8,5.8-5.2,5.8ZM143.3,58.7c-1.5,0-2.6,1.2-2.6,3.5s1.1,3.5,2.6,3.5,2.6-1.2,2.6-3.5-1.2-3.5-2.6-3.5Z"/>
        <path class="st1" d="M156.4,56.3c3.6,0,5.8,2.6,5.8,5.8s-2.1,5.8-5.8,5.8-5.8-2.6-5.8-5.8,2.1-5.8,5.8-5.8ZM156.4,65.7c1.8,0,2.8-1.6,2.8-3.5s-1-3.5-2.8-3.5-2.8,1.6-2.8,3.5,1,3.5,2.8,3.5Z"/>
        <path class="st1" d="M164.3,67.9v-11.3h2.8v1.8c.8-1.3,2.1-2,3.4-2s.6,0,.9,0v2.7c-.3-.2-.7-.3-1.2-.3-1.6,0-3,1.3-3,5v4h-2.8Z"/>
      </g>
      <g>
        <path class="st0" d="M0,31.4V.4h10.5c7.8,0,15.3,4.6,15.3,15.5s-7.5,15.5-15.3,15.5H0ZM9.5,24.7c4.3,0,8.4-2,8.4-8.8S13.8,7.2,9.5,7.2h-1.8v17.5h1.8Z"/>
        <path class="st0" d="M35.6,22.1c.4,2.6,2.1,4.1,5,4.1s3.3-.8,4.4-2.4l5.6,2c-1.9,3.5-5,5.9-10.4,5.9-8.1,0-11.2-6.2-11.2-11.5s3.7-11.5,11.3-11.5,10.8,6.4,10.8,11.1v2.3h-15.4ZM35.8,17.4h8.5c-.3-1.9-1.8-3.4-4.3-3.4s-3.6,1.1-4.3,3.4h0Z"/>
        <path class="st0" d="M67.2,31.8c-2.2,0-3.9-.5-4.9-1.7v10.4h-7.3V9.1h7.3v1.9c1.3-1.4,3-2.3,5.6-2.3,5.7,0,9.6,4.4,9.6,11.5s-4.3,11.5-10.3,11.5h0ZM66.1,15c-2.4,0-4.2,1.6-4.2,5.3s1.8,5.3,4.2,5.3,4.2-1.6,4.2-5.3-1.8-5.3-4.2-5.3Z"/>
        <path class="st0" d="M92.2,8.8c7.8,0,11.8,5.4,11.8,11.5s-4,11.5-11.8,11.5-11.8-5.4-11.8-11.5,4-11.5,11.8-11.5ZM92.2,25.6c3.1,0,4.5-2.1,4.5-5.3s-1.4-5.3-4.5-5.3-4.5,2.1-4.5,5.3,1.4,5.3,4.5,5.3Z"/>
        <path class="st0" d="M107.9,31.4V9.1h7.3v2.4c1.2-1.7,3.6-2.8,6.2-2.8s1.5.1,1.9.3v6.9c-.7-.4-1.9-.6-2.8-.6-2.6,0-5.3,2.2-5.3,8.2v7.9h-7.3Z"/>
        <path class="st0" d="M141.2,31.2c-.9.3-2.1.6-3.5.6-5,0-8.9-2.7-8.9-8.2v-8.9h-3.2v-5.6h3.2v-4.6L135.9,0v9h5.6v5.6h-5.6v7.5c0,2.1.9,3.2,2.5,3.2s1.9-.3,2.8-.7v6.5h0Z"/>
        <path class="st0" d="M150.3,22.1c.4,2.6,2.1,4.1,5,4.1s3.3-.8,4.4-2.4l5.6,2c-1.9,3.5-5,5.9-10.4,5.9-8.1,0-11.2-6.2-11.2-11.5s3.7-11.5,11.3-11.5,10.8,6.4,10.8,11.1v2.3h-15.4ZM150.5,17.4h8.5c-.3-1.9-1.8-3.4-4.3-3.4s-3.6,1.1-4.3,3.4h0Z"/>
        <path class="st0" d="M184.3,12.5l-3.9,3.6c-1-1.3-2.2-1.9-3.4-1.9s-1.5.5-1.5,1.2.7,1.4,2.6,2.1c4.3,1.5,7.2,2.6,7.2,6.9s-3.1,7.4-8.2,7.4-7.9-2.8-9.4-6.1l5.4-2.9c.8,2.1,2,3.5,4.1,3.5s1.9-.4,1.9-1.5c0-1.6-2.3-2-4.8-3.1-2.7-1.1-5-2.9-5-6.5s2.9-6.5,7.7-6.5,5.9,1.5,7.3,3.7h0Z"/>
        <path class="st0" d="M201.8,22c.4,2.6,2.3,3.4,3.9,3.4s3.5-1.4,3.5-4.2-1.4-4.3-3.8-4.3-3.5.9-4.3,2.4l-5.3-1.2,1.6-17.7h17.1v6.1h-11.4l-.7,5.2c1-.5,2.5-.9,4.3-.9,6.5,0,9.7,4.2,9.7,10.3s-4.4,10.6-10.8,10.6-9.7-3.5-10.3-8.7l6.5-1.2h0Z"/>
      </g>
      <path class="st1" d="M187.2,49c-1.7,0-4.8.9-6.2,6.7-.6,2.5-.9,5.2-.3,8.3.5,2.9,1.4,5.4,1.9,6.8.2.5.5,1,.8,1.3.7.9,1.9.8,2.3.6.5-.3,1.1-.9.9-2.3-.1-.7-.4-1.7-.6-2.3-.5-1.7-1.2-3.8-1.3-5.3,0-2,.7-2.3,1.2-2.4.9-.2,1.6.8,2.3,2,.8,1.4,2.3,4,3.4,5.9,1.1,1.8,3,3.6,6.1,3.5,3.2-.1,5.5-1.3,6.7-5.2.9-2.9,1.5-5,2.5-7.2,1.1-2.5,2.7-3.9,3.9-3.4,1.2.4,1.5,1.5,1.5,3.2,0,1.5-.2,3.2-.3,4.4,0,.4-.1,1.3-.1,1.8,0,1,.5,1.9,1.6,2.1,1.2.2,2.1-.8,2.5-1.9.1-.4.3-1.1.3-1.6.3-2.4.4-4.1.3-6.6-.2-2.9-.8-5.6-1.7-7.9-1-2.2-2.5-3.6-4.5-3.7-2.2-.1-4.7,1.3-6,4.1-1.2,2.6-2.2,5.2-2.8,6.6-.6,1.4-1.5,2.2-2.8,2.4-1.6.2-3.1-1-4.1-2.7-.9-1.5-2.7-4.3-3.6-5.2-.9-.9-1.9-2-4.1-2"/>
      <rect class="st1" x="228.6" width="5.1" height="31.5"/>
      <polygon class="st1" points="240.1 56.4 233.8 56.4 233.8 50.1 228.6 50.1 228.6 56.4 222.3 56.4 222.3 61.6 228.6 61.6 228.6 68 233.8 68 233.8 61.6 240.1 61.6 240.1 56.4"/>
    </g>
  </g>
</svg>