<?xml version="1.0" encoding="UTF-8"?>
<svg id="Capa_1" xmlns="http://www.w3.org/2000/svg" version="1.1" viewBox="0 0 313.1 72.3">
  <!-- Generator: Adobe Illustrator 29.0.0, SVG Export Plug-In . SVG Version: 2.1.0 Build 186)  -->
  <defs>
    <style>
      .st0 {
        fill: #9664ff;
      }

      .st1 {
        fill: #fff;
      }
    </style>
  </defs>
  <g id="uuid-da0bcaaa-e723-40b2-a334-cea0c31b43a1">
    <g>
      <g>
        <path class="st1" d="M217.3,67.6c-1.1,0-2.2-.6-2.7-1.2v5.6h-2.8v-15.8h2.8v1.2c.3-.6,1.3-1.3,2.7-1.3,3.4,0,5.1,2.3,5.1,5.8s-1.7,5.8-5.1,5.8h0ZM216.9,58.3c-1.5,0-2.6,1.2-2.6,3.4s1.1,3.4,2.6,3.4,2.6-1.2,2.6-3.4-1.2-3.4-2.6-3.4Z"/>
        <path class="st1" d="M230,55.9c3.6,0,5.7,2.5,5.7,5.8s-2.1,5.8-5.7,5.8-5.7-2.5-5.7-5.8,2.1-5.8,5.7-5.8ZM230,65.2c1.8,0,2.8-1.6,2.8-3.4s-1-3.4-2.8-3.4-2.8,1.6-2.8,3.4,1,3.4,2.8,3.4Z"/>
        <path class="st1" d="M237.7,67.4v-11.3h2.8v1.8c.8-1.3,2.1-2,3.3-2s.6,0,.8,0v2.7c-.3-.2-.7-.3-1.2-.3-1.6,0-3,1.3-3,5v4h-2.8Z"/>
      </g>
      <g>
        <path class="st0" d="M0,31.2V.4h10.4c7.8,0,15.2,4.6,15.2,15.4s-7.4,15.4-15.2,15.4H0ZM9.5,24.5c4.2,0,8.4-2,8.4-8.7S13.7,7.1,9.5,7.1h-1.8v17.4h1.8Z"/>
        <path class="st0" d="M40.3,8.7c7.7,0,11.7,5.3,11.7,11.4s-4,11.4-11.7,11.4-11.7-5.3-11.7-11.4,4-11.4,11.7-11.4ZM40.3,25.4c3.1,0,4.5-2.1,4.5-5.3s-1.4-5.3-4.5-5.3-4.5,2.1-4.5,5.3,1.4,5.3,4.5,5.3Z"/>
        <path class="st0" d="M77.1,25.1c-2,4.4-5.5,6.5-10.7,6.5s-11.5-5.2-11.5-11.4,4.2-11.4,11.5-11.4,8.9,2.1,10.6,6.5l-6.4,2.6c-.7-1.8-1.9-3-4-3s-4.2,2.2-4.2,5.3,1.3,5.3,4.3,5.3,3.2-1.1,4.2-2.9l6.2,2.6Z"/>
        <path class="st0" d="M93.9,31.2v-2.5c-1.2,1.6-3.3,2.9-6.3,2.9-4.8,0-7.4-2.7-7.4-8v-14.5h7.2v12.9c0,2.1.9,3.2,2.5,3.2,2.4,0,4-2.2,4-6.4v-9.7h7.2v22.2h-7.2Z"/>
        <path class="st0" d="M119.1,31.2v-13.5c0-1.8-.7-3.1-2.3-3.1s-4,2-4,7.8v8.7h-6.7V9.1h6.7v2.6c1.3-1.8,3.1-3,5.8-3s5.1,1.3,6.2,3.7c1.1-1.9,3.3-3.7,6.7-3.7s7.2,2.7,7.2,6.8v15.7h-6.7v-13.5c0-1.9-.7-3.1-2.3-3.1s-4,2-4,7.8v8.7h-6.7Z"/>
        <path class="st0" d="M149.1,22c.4,2.6,2.1,4,4.9,4s3.3-.7,4.4-2.4l5.5,2c-1.8,3.4-5,5.9-10.4,5.9-8,0-11.2-6.2-11.2-11.4s3.6-11.4,11.3-11.4,10.8,6.3,10.8,11v2.3h-15.3ZM149.3,17.3h8.5c-.3-1.9-1.8-3.4-4.2-3.4s-3.6,1.1-4.3,3.4Z"/>
        <path class="st0" d="M175.5,9.1v2.5c1.2-1.7,3.6-2.9,6.3-2.9,5.1,0,7.4,2.7,7.4,7.3v15.2h-7.2v-13.1c0-1.9-.9-3-2.5-3-2.4,0-4,2.2-4,6.4v9.7h-7.2V9.1h7.2Z"/>
        <path class="st0" d="M207.3,30.9c-.9.3-2.1.6-3.5.6-5,0-8.8-2.7-8.8-8.2v-8.8h-3.2v-5.5h3.2v-4.6L201.9,0v9h5.6v5.5h-5.6v7.4c0,2.1.9,3.2,2.5,3.2s1.9-.3,2.8-.7v6.4h0Z"/>
        <path class="st0" d="M220.4,8.7c2.5,0,4.6.7,5.8,2.1v-1.8h7.2v22.2h-7.2v-1.9c-1.2,1.5-3.5,2.2-5.7,2.2-6,0-10.1-4.4-10.1-11.4s4-11.4,9.9-11.4h0ZM222,25.4c2.4,0,4.5-1.6,4.5-5.3s-2.2-5.3-4.5-5.3-4.5,1.6-4.5,5.3,2.2,5.3,4.5,5.3Z"/>
        <path class="st0" d="M245.3,0v31.1h-7.2V0s7.2,0,7.2,0Z"/>
        <path class="st0" d="M255.7,22c.4,2.6,2.1,4,4.9,4s3.3-.7,4.4-2.4l5.5,2c-1.8,3.4-5,5.9-10.4,5.9-8,0-11.2-6.2-11.2-11.4s3.6-11.4,11.3-11.4,10.8,6.3,10.8,11v2.3h-15.3ZM255.9,17.3h8.5c-.3-1.9-1.8-3.4-4.2-3.4s-3.6,1.1-4.3,3.4h0Z"/>
        <path class="st0" d="M289.5,12.4l-3.9,3.6c-1-1.3-2.2-1.9-3.3-1.9s-1.5.5-1.5,1.2.7,1.4,2.6,2.1c4.3,1.5,7.1,2.5,7.1,6.8s-3,7.4-8.1,7.4-7.8-2.8-9.4-6l5.3-2.9c.7,2.1,2,3.4,4,3.4s1.9-.4,1.9-1.5c0-1.6-2.3-2-4.8-3-2.7-1.1-4.9-2.9-4.9-6.4s2.9-6.5,7.6-6.5,5.8,1.5,7.3,3.7h0Z"/>
      </g>
      <path class="st1" d="M260.5,48.7c-1.7,0-4.8.9-6.2,6.6-.6,2.5-.9,5.1-.3,8.3.5,2.9,1.3,5.4,1.9,6.7.2.5.5,1,.8,1.3.7.9,1.8.8,2.3.6.5-.3,1.1-.9.9-2.3-.1-.7-.4-1.7-.6-2.3-.5-1.7-1.2-3.8-1.3-5.3,0-2,.7-2.2,1.2-2.3.9-.2,1.6.8,2.3,2,.8,1.4,2.2,4,3.4,5.9,1,1.7,3,3.6,6.1,3.5,3.2-.1,5.5-1.3,6.7-5.1.9-2.8,1.5-5,2.5-7.1,1.1-2.5,2.6-3.8,3.9-3.4,1.2.4,1.5,1.5,1.5,3.2,0,1.5-.2,3.2-.3,4.4,0,.4-.1,1.3-.1,1.8,0,1,.5,1.9,1.6,2.1,1.2.2,2.1-.8,2.5-1.9.1-.4.3-1.1.3-1.6.3-2.4.4-4.1.3-6.5-.2-2.9-.7-5.5-1.7-7.8-.9-2.2-2.5-3.6-4.4-3.7-2.2-.1-4.6,1.3-5.9,4.1-1.2,2.6-2.2,5.2-2.7,6.5-.6,1.4-1.5,2.2-2.8,2.3-1.6.2-3-1-4.1-2.7-.9-1.5-2.7-4.3-3.6-5.2-.9-.9-1.9-2-4-2"/>
      <rect class="st1" x="301.7" width="5.1" height="31.3"/>
      <polygon class="st1" points="313.1 56 306.8 56 306.8 49.7 301.7 49.7 301.7 56 295.3 56 295.3 61.1 301.7 61.1 301.7 67.5 306.8 67.5 306.8 61.1 313.1 61.1 313.1 56"/>
    </g>
  </g>
</svg>