<?xml version="1.0" encoding="UTF-8"?>
<svg id="CONTENIDO" xmlns="http://www.w3.org/2000/svg" version="1.1" viewBox="0 0 197.6 79.5">
  <!-- Generator: Adobe Illustrator 29.0.0, SVG Export Plug-In . SVG Version: 2.1.0 Build 186)  -->
  <defs>
    <style>
      .st0, .st1 {
        font-size: 22.3px;
      }

      .st0, .st1, .st2, .st3, .st4, .st5, .st6 {
        isolation: isolate;
      }

      .st0, .st1, .st2, .st4, .st5, .st6 {
        font-family: ApercuMovistar-Bold, 'Apercu Movistar';
        font-weight: 700;
      }

      .st1 {
        letter-spacing: 0em;
      }

      .st2 {
        letter-spacing: 0em;
      }

      .st2, .st4, .st5, .st6 {
        fill: #fa3732;
        font-size: 44px;
      }

      .st4 {
        letter-spacing: 0em;
      }

      .st6 {
        letter-spacing: 0em;
      }
    </style>
  </defs>
  <g class="st3">
    <text class="st0" transform="translate(94.9 73.5)"><tspan x="0" y="0">p</tspan></text>
    <text class="st1" transform="translate(108 73.5)"><tspan x="0" y="0">o</tspan></text>
    <text class="st0" transform="translate(120.8 73.5)"><tspan x="0" y="0">r</tspan></text>
  </g>
  <g class="st3">
    <text class="st5" transform="translate(0 37.4)"><tspan x="0" y="0">E</tspan></text>
    <text class="st5" transform="translate(25.8 37.4)"><tspan x="0" y="0">s</tspan></text>
    <text class="st4" transform="translate(44.8 37.4)"><tspan x="0" y="0">t</tspan></text>
    <text class="st2" transform="translate(62.3 37.4)"><tspan x="0" y="0">r</tspan></text>
    <text class="st5" transform="translate(80.9 37.4)"><tspan x="0" y="0">e</tspan></text>
    <text class="st5" transform="translate(105.6 37.4)"><tspan x="0" y="0">n</tspan></text>
    <text class="st6" transform="translate(131.3 37.4)"><tspan x="0" y="0">o</tspan></text>
    <text class="st5" transform="translate(156.8 37.4)"><tspan x="0" y="0">s</tspan></text>
  </g>
  <path d="M145.1,54.8c-1.7,0-4.8.9-6.2,6.6-.6,2.5-.9,5.1-.3,8.3.5,2.9,1.3,5.4,1.9,6.7.2.5.5,1,.8,1.3.7.9,1.8.8,2.3.6.5-.3,1.1-.9.9-2.3-.1-.7-.4-1.7-.6-2.3-.5-1.7-1.2-3.8-1.3-5.3,0-2,.7-2.2,1.2-2.3.9-.2,1.6.8,2.3,2,.8,1.4,2.2,4,3.4,5.9,1,1.7,3,3.6,6.1,3.5,3.2-.1,5.5-1.3,6.7-5.1.9-2.8,1.5-5,2.5-7.1,1.1-2.5,2.6-3.8,3.9-3.4,1.2.4,1.5,1.5,1.5,3.2,0,1.5-.2,3.2-.3,4.4,0,.4-.1,1.3-.1,1.8,0,1,.5,1.9,1.6,2.1,1.2.2,2.1-.8,2.5-1.9.1-.4.3-1.1.3-1.6.3-2.4.4-4.1.3-6.5-.2-2.9-.7-5.5-1.7-7.8-.9-2.2-2.5-3.6-4.4-3.7-2.2-.1-4.6,1.3-5.9,4.1-1.2,2.6-2.2,5.2-2.7,6.5-.6,1.4-1.5,2.2-2.8,2.3-1.6.2-3-1-4.1-2.7-.9-1.5-2.7-4.3-3.6-5.2-.9-.9-1.9-2-4-2"/>
  <rect x="186.2" y="6.2" width="5.1" height="31.3"/>
  <polygon points="197.6 62.2 191.3 62.2 191.3 55.9 186.2 55.9 186.2 62.2 179.9 62.2 179.9 67.3 186.2 67.3 186.2 73.6 191.3 73.6 191.3 67.3 197.6 67.3 197.6 62.2"/>
</svg>