<?xml version="1.0" encoding="UTF-8"?>
<svg id="Capa_1" xmlns="http://www.w3.org/2000/svg" version="1.1" viewBox="0 0 143.9 72.8">
  <!-- Generator: Adobe Illustrator 29.0.0, SVG Export Plug-In . SVG Version: 2.1.0 Build 186)  -->
  <defs>
    <style>
      .st0 {
        fill: #1ec33c;
      }

      .st1 {
        fill: #fff;
      }
    </style>
  </defs>
  <g id="uuid-5cb60660-e5cf-4d0e-8488-5654fdb51591">
    <g>
      <g>
        <path class="st1" d="M47.4,68c-1.1,0-2.2-.6-2.7-1.2v5.6h-2.8v-15.9h2.8v1.2c.3-.6,1.3-1.3,2.7-1.3,3.4,0,5.2,2.4,5.2,5.8s-1.8,5.8-5.2,5.8h0ZM47.1,58.7c-1.5,0-2.6,1.2-2.6,3.5s1.1,3.5,2.6,3.5,2.6-1.2,2.6-3.5-1.2-3.5-2.6-3.5Z"/>
        <path class="st1" d="M60.2,56.3c3.6,0,5.8,2.6,5.8,5.8s-2.1,5.8-5.8,5.8-5.8-2.6-5.8-5.8,2.1-5.8,5.8-5.8ZM60.2,65.7c1.8,0,2.8-1.6,2.8-3.5s-1-3.5-2.8-3.5-2.8,1.6-2.8,3.5,1,3.5,2.8,3.5Z"/>
        <path class="st1" d="M68,67.9v-11.3h2.8v1.8c.8-1.3,2.1-2,3.4-2s.6,0,.9,0v2.7c-.3-.2-.7-.3-1.2-.3-1.6,0-3,1.3-3,5v4h-2.8Z"/>
      </g>
      <g>
        <path class="st0" d="M21.8,28.7c-1.7,2-4.1,3.1-7.3,3.1C6.9,31.8,0,26.5,0,15.9S7.2,0,15.2,0s11.7,3.6,13.3,10.1l-7,1.8c-.7-3.1-3.2-5.1-6.5-5.1s-7.7,3.4-7.7,9.1,3.4,9.1,7.6,9.1,5.2-1.5,6-3.9h-5.2v-5.8h12.5v16.1h-6l-.4-2.7h0Z"/>
        <path class="st0" d="M43.8,8.8c7.8,0,11.8,5.4,11.8,11.5s-4,11.5-11.8,11.5-11.8-5.4-11.8-11.5,4-11.5,11.8-11.5ZM43.8,25.6c3.1,0,4.5-2.1,4.5-5.3s-1.4-5.3-4.5-5.3-4.5,2.1-4.5,5.3,1.4,5.3,4.5,5.3Z"/>
        <path class="st0" d="M66.5,0v31.3h-7.3V0s7.3,0,7.3,0Z"/>
        <path class="st0" d="M69.9,9.1h2.4v-.4c0-5.7,3.4-8.6,8.9-8.6s2.1.1,2.9.4v6.1c-.5-.4-1.2-.8-2.2-.8-1.5,0-2.3,1-2.3,2.5v.9h4.5v5.6h-4.5v16.7h-7.3V14.7h-2.4v-5.6h0Z"/>
        <path class="st0" d="M98.7,28.2l11.3-13.9c1.2-1.5,2.1-3.1,2.1-4.8s-1.2-3.2-3.1-3.2-3.2,1.5-3.5,3.7l-6.5-1.3c.6-4.5,3.9-8.6,10.1-8.6s9.9,3.9,9.9,9.2-1.4,5.5-3.5,8.2l-6.2,7.7h10.4v6.2h-20.9v-3.3h0Z"/>
      </g>
      <path class="st1" d="M91,49c-1.7,0-4.8.9-6.2,6.7-.6,2.5-.9,5.2-.3,8.3.5,2.9,1.4,5.4,1.9,6.8.2.5.5,1,.8,1.3.7.9,1.9.8,2.3.6.5-.3,1.1-.9.9-2.3-.1-.7-.4-1.7-.6-2.3-.5-1.7-1.2-3.8-1.3-5.3,0-2,.7-2.3,1.2-2.4.9-.2,1.6.8,2.3,2,.8,1.4,2.3,4,3.4,5.9,1.1,1.8,3,3.6,6.1,3.5,3.2-.1,5.5-1.3,6.7-5.2.9-2.9,1.5-5,2.5-7.2,1.1-2.5,2.7-3.9,3.9-3.4,1.2.4,1.5,1.5,1.5,3.2,0,1.5-.2,3.2-.3,4.4,0,.4-.1,1.3-.1,1.8,0,1,.5,1.9,1.6,2.1,1.2.2,2.1-.8,2.5-1.9.1-.4.3-1.1.3-1.6.3-2.4.4-4.1.3-6.6-.2-2.9-.8-5.6-1.7-7.9-1-2.2-2.5-3.6-4.4-3.7-2.2-.1-4.7,1.3-6,4.1-1.2,2.6-2.2,5.2-2.8,6.6-.6,1.4-1.5,2.2-2.8,2.4-1.6.2-3.1-1-4.1-2.7-.9-1.5-2.7-4.3-3.6-5.2-.9-.9-1.9-2-4.1-2"/>
      <rect class="st1" x="132.4" width="5.1" height="31.5"/>
      <polygon class="st1" points="143.9 56.4 137.5 56.4 137.5 50.1 132.4 50.1 132.4 56.4 126 56.4 126 61.6 132.4 61.6 132.4 68 137.5 68 137.5 61.6 143.9 61.6 143.9 56.4"/>
    </g>
  </g>
</svg>