<?xml version="1.0" encoding="UTF-8"?>
<svg id="CONTENIDO" xmlns="http://www.w3.org/2000/svg" version="1.1" viewBox="0 0 145.4 80">
  <!-- Generator: Adobe Illustrator 29.0.0, SVG Export Plug-In . SVG Version: 2.1.0 Build 186)  -->
  <defs>
    <style>
      .st0 {
        letter-spacing: 0em;
      }

      .st0, .st1, .st2, .st3, .st4 {
        isolation: isolate;
      }

      .st0, .st1, .st3, .st4 {
        font-family: ApercuMovistar-Bold, 'Apercu Movistar';
        font-weight: 700;
      }

      .st0, .st3 {
        fill: #1ec33c;
        font-size: 44.3px;
      }

      .st1, .st4 {
        font-size: 22.5px;
      }

      .st4 {
        letter-spacing: 0em;
      }
    </style>
  </defs>
  <g class="st2">
    <text class="st1" transform="translate(41.9 74.1)"><tspan x="0" y="0">p</tspan></text>
    <text class="st4" transform="translate(55.1 74.1)"><tspan x="0" y="0">o</tspan></text>
    <text class="st1" transform="translate(68 74.1)"><tspan x="0" y="0">r</tspan></text>
  </g>
  <g class="st2">
    <text class="st3" transform="translate(0 37.6)"><tspan x="0" y="0">G</tspan></text>
    <text class="st0" transform="translate(32.1 37.6)"><tspan x="0" y="0">o</tspan></text>
    <text class="st0" transform="translate(58 37.6)"><tspan x="0" y="0">l</tspan></text>
    <text class="st3" transform="translate(70.3 37.6)"><tspan x="0" y="0">f 2</tspan></text>
  </g>
  <path d="M92.5,55.2c-1.7,0-4.8.9-6.2,6.7-.6,2.5-.9,5.2-.3,8.3.5,2.9,1.4,5.4,1.9,6.8.2.5.5,1,.8,1.3.7.9,1.9.8,2.3.6.5-.3,1.1-.9.9-2.3-.1-.7-.4-1.7-.6-2.3-.5-1.7-1.2-3.8-1.3-5.3,0-2,.7-2.3,1.2-2.4.9-.2,1.6.8,2.3,2,.8,1.4,2.3,4,3.4,5.9,1.1,1.8,3,3.6,6.1,3.5,3.2-.1,5.5-1.3,6.7-5.2.9-2.9,1.5-5,2.5-7.2,1.1-2.5,2.7-3.9,3.9-3.4,1.2.4,1.5,1.5,1.5,3.2,0,1.5-.2,3.2-.3,4.4,0,.4-.1,1.3-.1,1.8,0,1,.5,1.9,1.6,2.1,1.2.2,2.1-.8,2.5-1.9.1-.4.3-1.1.3-1.6.3-2.4.4-4.1.3-6.6-.2-2.9-.8-5.6-1.7-7.9-1-2.2-2.5-3.6-4.4-3.7-2.2-.1-4.7,1.3-6,4.1-1.2,2.6-2.2,5.2-2.8,6.6-.6,1.4-1.5,2.2-2.8,2.4-1.6.2-3.1-1-4.1-2.7-.9-1.5-2.7-4.3-3.6-5.2-.9-.9-1.9-2-4.1-2"/>
  <rect x="133.9" y="6.2" width="5.1" height="31.5"/>
  <polygon points="145.4 62.6 139 62.6 139 56.3 133.9 56.3 133.9 62.6 127.5 62.6 127.5 67.8 133.9 67.8 133.9 74.2 139 74.2 139 67.8 145.4 67.8 145.4 62.6"/>
</svg>