<?xml version="1.0" encoding="UTF-8"?>
<svg id="Capa_1" xmlns="http://www.w3.org/2000/svg" version="1.1" viewBox="0 0 103 79.5">
  <!-- Generator: Adobe Illustrator 30.2.1, SVG Export Plug-In . SVG Version: 2.1.1 Build 1)  -->
  <defs>
    <style>
      .st0 {
        fill: #fa3732;
      }

      .st1, .st2 {
        isolation: isolate;
      }

      .st3, .st2 {
        fill: #fff;
      }

      .st2 {
        font-family: ApercuMovistarPlus-Bold, 'Apercu Movistar Plus';
        font-size: 22.3px;
        font-weight: 700;
      }
    </style>
  </defs>
  <g id="CONTENIDO">
    <g>
      <g class="st1">
        <g class="st1">
          <text class="st2" transform="translate(.3 73.5)"><tspan x="0" y="0">p</tspan></text>
        </g>
        <g class="st1">
          <text class="st2" transform="translate(13.4 73.5)"><tspan x="0" y="0">o</tspan></text>
        </g>
        <g class="st1">
          <text class="st2" transform="translate(26.2 73.5)"><tspan x="0" y="0">r</tspan></text>
        </g>
      </g>
      <g class="st1">
        <g class="st1">
          <g class="st1">
            <path class="st0" d="M3.04,6.6h7.83v10.74h10.21V6.6h7.83v30.8h-7.83v-12.85h-10.21v12.85H3.04V6.6Z"/>
            <path class="st0" d="M37.97,4c2.46,0,4.31,1.89,4.31,4.31s-1.85,4.31-4.31,4.31-4.31-1.89-4.31-4.31,1.85-4.31,4.31-4.31ZM41.58,15.22v22.18h-7.22V15.22h7.22Z"/>
            <path class="st0" d="M60.19,37.14c-.88.31-2.11.62-3.52.62-5.02,0-8.85-2.68-8.85-8.18v-8.8h-3.17v-5.54h3.17v-4.58l7.04-4.4v8.98h5.59v5.54h-5.59v7.44c0,2.11.88,3.21,2.51,3.21,1.1,0,1.89-.31,2.82-.71v6.43Z"/>
            <path class="st0" d="M79.51,18.56l-3.92,3.61c-.97-1.28-2.16-1.94-3.34-1.94-.79,0-1.5.48-1.5,1.23,0,.84.7,1.41,2.6,2.07,4.31,1.45,7.13,2.55,7.13,6.82,0,4-3.04,7.39-8.14,7.39s-7.83-2.82-9.37-6.03l5.32-2.86c.75,2.07,2.03,3.43,4.05,3.43,1.01,0,1.94-.44,1.94-1.5,0-1.58-2.33-2.02-4.8-3.04-2.73-1.1-4.93-2.9-4.93-6.42s2.9-6.47,7.66-6.47c3.43,0,5.85,1.5,7.31,3.7Z"/>
          </g>
        </g>
      </g>
      <path class="st3" d="M50.5,54.8c-1.7,0-4.8.9-6.2,6.6-.6,2.5-.9,5.1-.3,8.3.5,2.9,1.3,5.4,1.9,6.7.2.5.5,1,.8,1.3.7.9,1.8.8,2.3.6.5-.3,1.1-.9.9-2.3-.1-.7-.4-1.7-.6-2.3-.5-1.7-1.2-3.8-1.3-5.3,0-2,.7-2.2,1.2-2.3.9-.2,1.6.8,2.3,2,.8,1.4,2.2,4,3.4,5.9,1,1.7,3,3.6,6.1,3.5,3.2-.1,5.5-1.3,6.7-5.1.9-2.8,1.5-5,2.5-7.1,1.1-2.5,2.6-3.8,3.9-3.4,1.2.4,1.5,1.5,1.5,3.2,0,1.5-.2,3.2-.3,4.4,0,.4-.1,1.3-.1,1.8,0,1,.5,1.9,1.6,2.1,1.2.2,2.1-.8,2.5-1.9.1-.4.3-1.1.3-1.6.3-2.4.4-4.1.3-6.5-.2-2.9-.7-5.5-1.7-7.8-.9-2.2-2.5-3.6-4.4-3.7-2.2-.1-4.6,1.3-5.9,4.1-1.2,2.6-2.2,5.2-2.7,6.5-.6,1.4-1.5,2.2-2.8,2.3-1.6.2-3-1-4.1-2.7-.9-1.5-2.7-4.3-3.6-5.2-.9-.9-1.9-2-4-2"/>
      <rect class="st3" x="91.6" y="6.2" width="5.1" height="31.3"/>
      <polygon class="st3" points="103 62.2 96.7 62.2 96.7 55.9 91.6 55.9 91.6 62.2 85.3 62.2 85.3 67.3 91.6 67.3 91.6 73.6 96.7 73.6 96.7 67.3 103 67.3 103 62.2"/>
    </g>
  </g>
</svg>