<?xml version="1.0" encoding="UTF-8"?>
<svg id="uuid-5af01830-5b12-42fe-993a-37915f8ea403" xmlns="http://www.w3.org/2000/svg" version="1.1" viewBox="0 0 120.5 75">
  <!-- Generator: Adobe Illustrator 29.0.0, SVG Export Plug-In . SVG Version: 2.1.0 Build 186)  -->
  <defs>
    <style>
      .st0 {
        fill: #fa3732;
      }
    </style>
  </defs>
  <g>
    <path d="M24,70.2c-1.1,0-2.2-.6-2.7-1.2v5.6h-2.8v-15.9h2.8v1.2c.3-.6,1.3-1.3,2.7-1.3,3.4,0,5.2,2.4,5.2,5.8s-1.8,5.8-5.2,5.8h0ZM23.6,60.9c-1.5,0-2.6,1.2-2.6,3.5s1.1,3.5,2.6,3.5,2.6-1.2,2.6-3.5-1.2-3.5-2.6-3.5Z"/>
    <path d="M36.8,58.5c3.6,0,5.8,2.6,5.8,5.8s-2.1,5.8-5.8,5.8-5.8-2.6-5.8-5.8,2.1-5.8,5.8-5.8ZM36.8,67.8c1.8,0,2.8-1.6,2.8-3.5s-1-3.5-2.8-3.5-2.8,1.6-2.8,3.5,1,3.5,2.8,3.5Z"/>
    <path d="M44.6,70v-11.3h2.8v1.8c.8-1.3,2.1-2,3.4-2s.6,0,.9,0v2.7c-.3-.2-.7-.3-1.2-.3-1.6,0-3,1.3-3,5v4h-2.8Z"/>
  </g>
  <g>
    <path class="st0" d="M7.9,33.6H0V2.6h7.9v31Z"/>
    <path class="st0" d="M20.4,11.3v2.6c1.2-1.7,3.6-2.9,6.3-2.9,5.1,0,7.4,2.7,7.4,7.3v15.3h-7.3v-13.2c0-1.9-.9-3-2.5-3-2.4,0-4,2.2-4,6.4v9.8h-7.3V11.3h7.3,0Z"/>
    <path class="st0" d="M47.6,10.9c2.5,0,4.2.8,5.3,2.1V2.3h7.3v31.3h-7.3v-1.9c-1.2,1.5-3,2.3-5.2,2.3-6.1,0-10-4.4-10-11.5s3.9-11.5,9.8-11.5ZM49.1,27.8c2.4,0,4.2-1.6,4.2-5.3s-1.8-5.3-4.2-5.3-4.2,1.6-4.2,5.3,1.8,5.3,4.2,5.3Z"/>
    <path class="st0" d="M68,0c2.5,0,4.3,1.9,4.3,4.3s-1.9,4.3-4.3,4.3-4.3-1.9-4.3-4.3,1.9-4.3,4.3-4.3ZM71.7,11.3v22.3h-7.3V11.3s7.3,0,7.3,0Z"/>
    <path class="st0" d="M81.9,24.3c.4,2.6,2.1,4.1,5,4.1s3.3-.8,4.4-2.4l5.6,2c-1.9,3.5-5,5.9-10.4,5.9-8.1,0-11.2-6.2-11.2-11.5s3.7-11.5,11.3-11.5,10.8,6.4,10.8,11.1v2.3h-15.4ZM82.1,19.6h8.5c-.3-1.9-1.8-3.4-4.3-3.4s-3.6,1.1-4.3,3.4h0Z"/>
  </g>
  <path d="M67.6,51.2c-1.7,0-4.8.9-6.2,6.7-.6,2.5-.9,5.2-.3,8.3.5,2.9,1.4,5.4,1.9,6.8.2.5.5,1,.8,1.3.7.9,1.9.8,2.3.6.5-.3,1.1-.9.9-2.3-.1-.7-.4-1.7-.6-2.3-.5-1.7-1.2-3.8-1.3-5.3,0-2,.7-2.3,1.2-2.4.9-.2,1.6.8,2.3,2,.8,1.4,2.3,4,3.4,5.9,1.1,1.8,3,3.6,6.1,3.5,3.2-.1,5.5-1.3,6.7-5.2.9-2.9,1.5-5,2.5-7.2,1.1-2.5,2.7-3.9,3.9-3.4,1.2.4,1.5,1.5,1.5,3.2,0,1.5-.2,3.2-.3,4.4,0,.4-.1,1.3-.1,1.8,0,1,.5,1.9,1.6,2.1,1.2.2,2.1-.8,2.5-1.9.1-.4.3-1.1.3-1.6.3-2.4.4-4.1.3-6.6-.2-2.9-.8-5.6-1.7-7.9-1-2.2-2.5-3.6-4.5-3.7-2.2-.1-4.7,1.3-6,4.1-1.2,2.6-2.2,5.2-2.8,6.6-.6,1.4-1.5,2.2-2.8,2.4-1.6.2-3.1-1-4.1-2.7-.9-1.5-2.7-4.3-3.6-5.2-.9-.9-1.9-2-4.1-2"/>
  <rect x="109" y="2.2" width="5.1" height="31.5"/>
  <polygon points="120.5 58.6 114.1 58.6 114.1 52.2 109 52.2 109 58.6 102.6 58.6 102.6 63.8 109 63.8 109 70.1 114.1 70.1 114.1 63.8 120.5 63.8 120.5 58.6"/>
</svg>