<?xml version="1.0" encoding="UTF-8"?>
<svg id="CONTENIDO" xmlns="http://www.w3.org/2000/svg" version="1.1" viewBox="0 0 76.5 31.7">
  <!-- Generator: Adobe Illustrator 29.0.0, SVG Export Plug-In . SVG Version: 2.1.0 Build 186)  -->
  <path d="M7.9,31.3H0V.4h7.9v31Z"/>
  <path d="M20.4,9v2.6c.6-.9,1.4-1.6,2.6-2.1,1.1-.5,2.4-.8,3.8-.8,2.6,0,4.4.6,5.6,1.9s1.8,3.1,1.8,5.4v15.3h-7.3v-13.2c0-.9-.2-1.7-.7-2.2-.4-.5-1.1-.8-1.9-.8-1.2,0-2.2.5-2.9,1.6-.7,1.1-1.1,2.7-1.1,4.8v9.8h-7.3V9h7.3Z"/>
  <path d="M37.1,9h2.4v-.4c0-2.9.8-5,2.3-6.5,1.6-1.4,3.7-2.2,6.5-2.2s2,.1,2.9.4v6.1c-.2-.2-.5-.4-.9-.5s-.8-.2-1.3-.2c-.8,0-1.3.2-1.7.7s-.6,1-.6,1.8v.9h4.5v5.6h-4.5v16.7h-7.3V14.6h-2.4v-5.6Z"/>
  <path d="M53,20.2c0-1.5.3-3,.8-4.4s1.2-2.6,2.2-3.7c1-1.1,2.2-1.9,3.7-2.5,1.5-.6,3.2-.9,5.1-.9s3.7.3,5.1.9,2.7,1.5,3.7,2.5c1,1.1,1.7,2.3,2.2,3.7s.8,2.8.8,4.4-.3,3-.8,4.4-1.2,2.6-2.2,3.7c-1,1.1-2.2,1.9-3.7,2.5s-3.2.9-5.1.9-3.7-.3-5.1-.9-2.7-1.5-3.7-2.5c-1-1.1-1.7-2.3-2.2-3.7s-.8-2.8-.8-4.4ZM60.2,20.2c0,1.6.4,2.9,1.1,3.9.7,1,1.9,1.5,3.4,1.5s2.7-.5,3.4-1.5c.7-1,1.1-2.3,1.1-3.9s-.4-2.9-1.1-3.9c-.7-1-1.9-1.5-3.4-1.5s-2.7.5-3.4,1.5c-.7,1-1.1,2.3-1.1,3.9Z"/>
</svg>