<?xml version="1.0" encoding="UTF-8"?>
<svg id="Capa_1" xmlns="http://www.w3.org/2000/svg" version="1.1" viewBox="0 0 157.1 72.6">
  <!-- Generator: Adobe Illustrator 29.0.0, SVG Export Plug-In . SVG Version: 2.1.0 Build 186)  -->
  <defs>
    <style>
      .st0, .st1 {
        fill: #1ec33c;
      }

      .st2 {
        fill: #fff;
      }

      .st1 {
        fill-rule: evenodd;
      }
    </style>
  </defs>
  <g id="CONTENIDO">
    <g>
      <g>
        <rect class="st2" x="145.6" y=".3" width="5.1" height="31.5"/>
        <g>
          <path class="st2" d="M60.7,67.8c-1.1,0-2.2-.6-2.7-1.2v5.6h-2.8v-15.9h2.8v1.2c.3-.6,1.3-1.3,2.7-1.3,3.4,0,5.2,2.4,5.2,5.8s-1.8,5.8-5.2,5.8ZM60.3,58.5c-1.5,0-2.6,1.2-2.6,3.5s1.1,3.5,2.6,3.5,2.6-1.2,2.6-3.5-1.2-3.5-2.6-3.5Z"/>
          <path class="st2" d="M73.5,56.1c3.6,0,5.8,2.6,5.8,5.8s-2.1,5.8-5.8,5.8-5.8-2.6-5.8-5.8,2.1-5.8,5.8-5.8ZM73.5,65.4c1.8,0,2.8-1.6,2.8-3.5s-1-3.5-2.8-3.5-2.8,1.6-2.8,3.5,1,3.5,2.8,3.5Z"/>
          <path class="st2" d="M81.3,67.6v-11.3h2.8v1.8c.8-1.3,2.1-2,3.4-2s.6,0,.9,0v2.7c-.3-.2-.7-.3-1.2-.3-1.6,0-3,1.3-3,5v4h-2.8Z"/>
        </g>
        <g>
          <path class="st2" d="M104.2,48.8c-1.7,0-4.8.9-6.2,6.7-.6,2.5-.9,5.2-.3,8.3.5,2.9,1.4,5.4,1.9,6.8.2.5.5,1,.8,1.3.7.9,1.9.8,2.3.6.5-.3,1.1-.9.9-2.3-.1-.7-.4-1.7-.6-2.3-.5-1.7-1.2-3.8-1.3-5.3,0-2,.7-2.3,1.2-2.4.9-.2,1.6.8,2.3,2,.8,1.4,2.3,4,3.4,5.9,1.1,1.8,3,3.6,6.1,3.5,3.2-.1,5.5-1.3,6.7-5.2.9-2.9,1.5-5,2.5-7.2,1.1-2.5,2.7-3.9,3.9-3.4,1.2.4,1.5,1.5,1.5,3.2,0,1.5-.2,3.2-.3,4.4,0,.4-.1,1.3-.1,1.8,0,1,.5,1.9,1.6,2.1,1.2.2,2.1-.8,2.5-1.9.1-.4.3-1.1.3-1.6.3-2.4.4-4.1.3-6.6-.2-2.9-.8-5.6-1.7-7.9-1-2.2-2.5-3.6-4.4-3.7-2.2-.1-4.7,1.3-6,4.1-1.2,2.6-2.2,5.2-2.8,6.6-.6,1.4-1.5,2.2-2.8,2.4-1.6.2-3.1-1-4.1-2.7-.9-1.5-2.7-4.3-3.6-5.2-.9-.9-1.9-2-4.1-2"/>
          <polygon class="st2" points="157.1 56.2 150.8 56.2 150.8 49.8 145.6 49.8 145.6 56.2 139.3 56.2 139.3 61.3 145.6 61.3 145.6 67.7 150.8 67.7 150.8 61.3 157.1 61.3 157.1 56.2"/>
        </g>
      </g>
      <g>
        <polygon class="st1" points="44.1 .3 32.2 .3 11.7 29.6 11.2 30.3 10.9 31 10.6 31.7 10.4 32.4 10.4 33.1 10.4 33.8 10.6 34.4 10.8 35.1 11.1 35.7 11.4 36.3 11.9 36.9 15.3 41.4 31.5 33.1 21.1 33.1 44.1 .3"/>
        <polygon class="st1" points="23.2 .3 12.4 .3 1.2 16.4 .8 17.1 .5 17.8 .2 18.5 0 19.2 0 19.9 0 20.6 .2 21.2 .4 21.8 .6 22.4 1 23 1.5 23.6 4.3 27.2 18.3 20.1 9.3 20.1 23.2 .3"/>
      </g>
      <g>
        <path class="st0" d="M77.7,0v32h-4v-15.1h-14.6v15.1h-4V0h4v13.1h14.6V0h4Z"/>
        <path class="st0" d="M92.8,0c7.9,0,14.7,5.6,14.7,16s-6.9,16-14.7,16h-8.8V0h8.8ZM88,3.8v24.4h4.1c5.9,0,11.1-3.2,11.1-12.2s-5.2-12.2-11.1-12.2c0,0-4.1,0-4.1,0Z"/>
        <path class="st0" d="M121.3,16.9h-4.8v15.1h-4V0h10.7c5.7,0,9.4,3.1,9.4,8.5s-2.5,7.3-6.7,8.2l9.6,15.4h-4.8l-9.4-15.1h0ZM116.5,3.8v9.2h6.7c3.3,0,5.2-1.4,5.2-4.6s-1.8-4.6-5.2-4.6c0,0-6.7,0-6.7,0Z"/>
      </g>
    </g>
  </g>
</svg>