<?xml version="1.0" encoding="UTF-8"?>
<svg id="CONTENIDO" xmlns="http://www.w3.org/2000/svg" version="1.1" viewBox="0 0 102 72.3">
  <!-- Generator: Adobe Illustrator 29.0.0, SVG Export Plug-In . SVG Version: 2.1.0 Build 186)  -->
  <defs>
    <style>
      .st0 {
        fill: #1ec33c;
        fill-rule: evenodd;
      }
    </style>
  </defs>
  <g>
    <rect x="90.5" width="5.1" height="31.5"/>
    <g>
      <path d="M5.5,67.5c-1.1,0-2.2-.6-2.7-1.2v5.6H0v-15.9h2.8v1.2c.3-.6,1.3-1.3,2.7-1.3,3.4,0,5.2,2.4,5.2,5.8s-1.8,5.8-5.2,5.8h0ZM5.1,58.2c-1.5,0-2.6,1.2-2.6,3.5s1.1,3.5,2.6,3.5,2.6-1.2,2.6-3.5-1.2-3.5-2.6-3.5Z"/>
      <path d="M18.3,55.8c3.6,0,5.8,2.6,5.8,5.8s-2.1,5.8-5.8,5.8-5.8-2.6-5.8-5.8,2.1-5.8,5.8-5.8ZM18.3,65.1c1.8,0,2.8-1.6,2.8-3.5s-1-3.5-2.8-3.5-2.8,1.6-2.8,3.5,1,3.5,2.8,3.5Z"/>
      <path d="M26.1,67.3v-11.3h2.8v1.8c.8-1.3,2.1-2,3.4-2s.6,0,.9,0v2.7c-.3-.2-.7-.3-1.2-.3-1.6,0-3,1.3-3,5v4h-2.8Z"/>
    </g>
    <g>
      <path d="M49.1,48.5c-1.7,0-4.8.9-6.2,6.7-.6,2.5-.9,5.2-.3,8.3.5,2.9,1.4,5.4,1.9,6.8.2.5.5,1,.8,1.3.7.9,1.9.8,2.3.6.5-.3,1.1-.9.9-2.3-.1-.7-.4-1.7-.6-2.3-.5-1.7-1.2-3.8-1.3-5.3,0-2,.7-2.3,1.2-2.4.9-.2,1.6.8,2.3,2,.8,1.4,2.3,4,3.4,5.9,1.1,1.8,3,3.6,6.1,3.5,3.2-.1,5.5-1.3,6.7-5.2.9-2.9,1.5-5,2.5-7.2,1.1-2.5,2.7-3.9,3.9-3.4,1.2.4,1.5,1.5,1.5,3.2,0,1.5-.2,3.2-.3,4.4,0,.4-.1,1.3-.1,1.8,0,1,.5,1.9,1.6,2.1,1.2.2,2.1-.8,2.5-1.9.1-.4.3-1.1.3-1.6.3-2.4.4-4.1.3-6.6-.2-2.9-.8-5.6-1.7-7.9-1-2.2-2.5-3.6-4.4-3.7-2.2-.1-4.7,1.3-6,4.1-1.2,2.6-2.2,5.2-2.8,6.6-.6,1.4-1.5,2.2-2.8,2.4-1.6.2-3.1-1-4.1-2.7-.9-1.5-2.7-4.3-3.6-5.2-.9-.9-1.9-2-4.1-2"/>
      <polygon points="102 55.9 95.6 55.9 95.6 49.6 90.5 49.6 90.5 55.9 84.1 55.9 84.1 61.1 90.5 61.1 90.5 67.4 95.6 67.4 95.6 61.1 102 61.1 102 55.9"/>
    </g>
  </g>
  <g>
    <polygon class="st0" points="80.2 0 68.3 0 47.7 29.3 47.2 30 46.9 30.8 46.6 31.5 46.5 32.2 46.4 32.9 46.5 33.5 46.6 34.2 46.8 34.8 47.1 35.4 47.4 36 47.9 36.7 51.3 41.1 67.5 32.9 57.1 32.9 80.2 0"/>
    <polygon class="st0" points="59.2 0 48.4 0 37.3 16.2 36.8 16.8 36.5 17.5 36.2 18.2 36.1 18.9 36 19.7 36.1 20.3 36.2 21 36.4 21.5 36.7 22.1 37 22.7 37.5 23.4 40.3 27 54.3 19.8 45.3 19.8 59.2 0"/>
  </g>
</svg>