<?xml version="1.0" encoding="UTF-8"?>
<svg id="Capa_1" xmlns="http://www.w3.org/2000/svg" version="1.1" viewBox="0 0 102 77.5">
  <!-- Generator: Adobe Illustrator 29.0.0, SVG Export Plug-In . SVG Version: 2.1.0 Build 186)  -->
  <defs>
    <style>
      .st0 {
        fill: #fff;
      }

      .st1 {
        fill-rule: evenodd;
      }

      .st1, .st2 {
        fill: #1ec33c;
      }

      .st2 {
        font-family: ApercuMovistar-Bold, 'Apercu Movistar';
        font-size: 43.2px;
        font-weight: 700;
      }

      .st2, .st3 {
        isolation: isolate;
      }
    </style>
  </defs>
  <g id="CONTENIDO">
    <g>
      <g>
        <rect class="st0" x="90.5" y="5.2" width="5.1" height="31.5"/>
        <g>
          <path class="st0" d="M5.5,72.7c-1.1,0-2.2-.6-2.7-1.2v5.6H0v-15.9h2.8v1.2c.3-.6,1.3-1.3,2.7-1.3,3.4,0,5.2,2.4,5.2,5.8s-1.8,5.8-5.2,5.8h0ZM5.1,63.4c-1.5,0-2.6,1.2-2.6,3.5s1.1,3.5,2.6,3.5,2.6-1.2,2.6-3.5-1.2-3.5-2.6-3.5Z"/>
          <path class="st0" d="M18.3,61c3.6,0,5.8,2.6,5.8,5.8s-2.1,5.8-5.8,5.8-5.8-2.6-5.8-5.8,2.1-5.8,5.8-5.8ZM18.3,70.3c1.8,0,2.8-1.6,2.8-3.5s-1-3.5-2.8-3.5-2.8,1.6-2.8,3.5,1,3.5,2.8,3.5Z"/>
          <path class="st0" d="M26.1,72.5v-11.3h2.8v1.8c.8-1.3,2.1-2,3.4-2s.6,0,.9,0v2.7c-.3-.2-.7-.3-1.2-.3-1.6,0-3,1.3-3,5v4h-2.8Z"/>
        </g>
        <g>
          <path class="st0" d="M49.1,53.7c-1.7,0-4.8.9-6.2,6.7-.6,2.5-.9,5.2-.3,8.3.5,2.9,1.4,5.4,1.9,6.8.2.5.5,1,.8,1.3.7.9,1.9.8,2.3.6.5-.3,1.1-.9.9-2.3-.1-.7-.4-1.7-.6-2.3-.5-1.7-1.2-3.8-1.3-5.3,0-2,.7-2.3,1.2-2.4.9-.2,1.6.8,2.3,2,.8,1.4,2.3,4,3.4,5.9,1.1,1.8,3,3.6,6.1,3.5,3.2-.1,5.5-1.3,6.7-5.2.9-2.9,1.5-5,2.5-7.2,1.1-2.5,2.7-3.9,3.9-3.4,1.2.4,1.5,1.5,1.5,3.2,0,1.5-.2,3.2-.3,4.4,0,.4-.1,1.3-.1,1.8,0,1,.5,1.9,1.6,2.1,1.2.2,2.1-.8,2.5-1.9.1-.4.3-1.1.3-1.6.3-2.4.4-4.1.3-6.6-.2-2.9-.8-5.6-1.7-7.9-1-2.2-2.5-3.6-4.4-3.7-2.2-.1-4.7,1.3-6,4.1-1.2,2.6-2.2,5.2-2.8,6.6-.6,1.4-1.5,2.2-2.8,2.4-1.6.2-3.1-1-4.1-2.7-.9-1.5-2.7-4.3-3.6-5.2-.9-.9-1.9-2-4.1-2"/>
          <polygon class="st0" points="102 61.1 95.6 61.1 95.6 54.8 90.5 54.8 90.5 61.1 84.1 61.1 84.1 66.3 90.5 66.3 90.5 72.6 95.6 72.6 95.6 66.3 102 66.3 102 61.1"/>
        </g>
      </g>
      <g>
        <g>
          <polygon class="st1" points="50.2 5.2 38.3 5.2 17.7 34.5 17.2 35.2 16.9 36 16.6 36.7 16.5 37.4 16.4 38.1 16.5 38.7 16.6 39.4 16.8 40 17.1 40.6 17.4 41.2 17.9 41.9 21.3 46.3 37.5 38.1 27.1 38.1 50.2 5.2"/>
          <polygon class="st1" points="29.2 5.2 18.4 5.2 7.3 21.4 6.8 22 6.5 22.7 6.2 23.4 6.1 24.1 6 24.9 6.1 25.5 6.2 26.2 6.4 26.7 6.7 27.3 7 27.9 7.5 28.6 10.3 32.2 24.3 25 15.3 25 29.2 5.2"/>
        </g>
        <g class="st3">
          <text class="st2" transform="translate(56 36.7)"><tspan x="0" y="0">3</tspan></text>
        </g>
      </g>
    </g>
  </g>
</svg>