<?xml version="1.0" encoding="UTF-8"?>
<svg id="CONTENIDO" xmlns="http://www.w3.org/2000/svg" version="1.1" viewBox="0 0 297.4 121.6">
  <!-- Generator: Adobe Illustrator 29.0.0, SVG Export Plug-In . SVG Version: 2.1.0 Build 186)  -->
  <defs>
    <style>
      .st0, .st1 {
        fill: #fff;
      }

      .st2 {
        letter-spacing: 0em;
      }

      .st2, .st3, .st1, .st4 {
        isolation: isolate;
      }

      .st2, .st1, .st4 {
        font-family: ApercuMovistar-Bold, 'Apercu Movistar';
        font-weight: 700;
      }

      .st2, .st4 {
        fill: #1ec33c;
        font-size: 44.3px;
      }

      .st1 {
        font-size: 22.5px;
      }
    </style>
  </defs>
  <g class="st3">
    <g class="st3">
      <text class="st1" transform="translate(193.9 115.6)"><tspan x="0" y="0">p</tspan></text>
    </g>
    <g class="st3">
      <text class="st1" transform="translate(207.1 115.6)"><tspan x="0" y="0">o</tspan></text>
    </g>
    <g class="st3">
      <text class="st1" transform="translate(220 115.6)"><tspan x="0" y="0">r</tspan></text>
    </g>
  </g>
  <path class="st0" d="M244.5,96.8c-1.7,0-4.8.8-6.2,6.7-.6,2.5-.9,5.2-.3,8.3.5,2.9,1.4,5.4,2,6.8.2.5.5,1,.8,1.3.7.9,1.8.8,2.3.6.5-.2,1.1-.9.9-2.3-.1-.7-.4-1.7-.6-2.3-.5-1.7-1.2-3.8-1.3-5.3,0-2,.7-2.2,1.2-2.4.9-.2,1.6.8,2.3,2,.8,1.4,2.3,4,3.4,6,1,1.8,3,3.6,6.1,3.5,3.2-.1,5.5-1.4,6.7-5.2.9-2.8,1.5-5,2.5-7.2,1.1-2.5,2.7-3.8,3.9-3.4,1.2.4,1.5,1.6,1.5,3.2,0,1.5-.2,3.2-.3,4.4,0,.4-.1,1.3-.1,1.8,0,1,.5,2,1.6,2.1,1.2.2,2.1-.8,2.5-1.9.2-.4.3-1.1.4-1.6.4-2.4.4-4.1.3-6.6-.2-2.9-.8-5.6-1.8-7.9-1-2.2-2.5-3.6-4.4-3.8-2.2-.1-4.7,1.3-6,4.1-1.2,2.6-2.2,5.2-2.8,6.6s-1.5,2.2-2.8,2.4c-1.6.2-3-1-4.1-2.7-.9-1.5-2.7-4.3-3.6-5.2-.9-.9-1.9-2-4.1-2"/>
  <g class="st3">
    <g class="st3">
      <text class="st4" transform="translate(128.7 37.6)"><tspan x="0" y="0">Li</tspan></text>
    </g>
    <g class="st3">
      <text class="st4" transform="translate(165 37.6)"><tspan x="0" y="0">g</tspan></text>
    </g>
    <g class="st3">
      <text class="st4" transform="translate(186.8 37.6)"><tspan x="0" y="0">a</tspan></text>
    </g>
    <g class="st3">
      <text class="st4" transform="translate(224.5 37.6)"><tspan x="0" y="0">d</tspan></text>
    </g>
    <g class="st3">
      <text class="st4" transform="translate(250.6 37.6)"><tspan x="0" y="0">e</tspan></text>
    </g>
    <g class="st3">
      <text class="st4" transform="translate(0 79.2)"><tspan x="0" y="0">C</tspan></text>
    </g>
    <g class="st3">
      <text class="st4" transform="translate(31.1 79.2)"><tspan x="0" y="0">a</tspan></text>
    </g>
    <g class="st3">
      <text class="st4" transform="translate(57.6 79.2)"><tspan x="0" y="0">m</tspan></text>
    </g>
    <g class="st3">
      <text class="st4" transform="translate(95.2 79.2)"><tspan x="0" y="0">pe</tspan></text>
    </g>
    <g class="st3">
      <text class="st4" transform="translate(146.8 79.2)"><tspan x="0" y="0">on</tspan></text>
    </g>
    <g class="st3">
      <text class="st4" transform="translate(198.9 79.2)"><tspan x="0" y="0">e</tspan></text>
    </g>
    <g class="st3">
      <text class="st2" transform="translate(223.8 79.2)"><tspan x="0" y="0">s</tspan></text>
    </g>
    <g class="st3">
      <text class="st4" transform="translate(238.7 79.2)"><tspan x="0" y="0" xml:space="preserve"> 8</tspan></text>
    </g>
  </g>
  <g>
    <polygon class="st0" points="297.4 104.2 291 104.2 291 97.8 285.9 97.8 285.9 104.2 279.5 104.2 279.5 109.3 285.9 109.3 285.9 115.7 291 115.7 291 109.3 297.4 109.3 297.4 104.2"/>
    <rect class="st0" x="285.9" y="6.9" width="5.1" height="72.4"/>
  </g>
</svg>