<?xml version="1.0" encoding="UTF-8"?>
<svg id="Capa_1" xmlns="http://www.w3.org/2000/svg" version="1.1" viewBox="0 0 410 116.5">
  <!-- Generator: Adobe Illustrator 29.0.0, SVG Export Plug-In . SVG Version: 2.1.0 Build 186)  -->
  <defs>
    <style>
      .st0 {
        fill: #1ec33c;
      }

      .st1 {
        fill: #fff;
      }
    </style>
  </defs>
  <g id="uuid-58a606bd-eee9-4207-ad93-1aebd22fc99e">
    <g>
      <g>
        <path class="st1" d="M313.5,111.7c-1.1,0-2.2-.6-2.7-1.2v5.6h-2.8v-15.9h2.8v1.2c.3-.6,1.3-1.3,2.7-1.3,3.4,0,5.2,2.4,5.2,5.8s-1.8,5.8-5.2,5.8ZM313.1,102.4c-1.5,0-2.6,1.2-2.6,3.5s1.1,3.5,2.6,3.5,2.6-1.2,2.6-3.5-1.2-3.5-2.6-3.5Z"/>
        <path class="st1" d="M326.3,100.1c3.6,0,5.8,2.6,5.8,5.8s-2.1,5.8-5.8,5.8-5.8-2.6-5.8-5.8,2.1-5.8,5.8-5.8ZM326.3,109.4c1.8,0,2.8-1.6,2.8-3.5s-1-3.5-2.8-3.5-2.8,1.6-2.8,3.5,1,3.5,2.8,3.5Z"/>
        <path class="st1" d="M334.1,111.6v-11.3h2.8v1.8c.8-1.3,2.1-2,3.4-2s.6,0,.9,0v2.7c-.3-.2-.7-.3-1.2-.3-1.6,0-3,1.3-3,5v4h-2.8Z"/>
      </g>
      <path class="st1" d="M357.1,92.7c-1.7,0-4.8.9-6.2,6.7-.6,2.5-.9,5.2-.3,8.3.5,2.9,1.4,5.4,1.9,6.8.2.5.5,1,.8,1.3.7.9,1.9.8,2.3.6.5-.3,1.1-.9.9-2.3-.1-.7-.4-1.7-.6-2.3-.5-1.7-1.2-3.8-1.3-5.3,0-2,.7-2.3,1.2-2.4.9-.2,1.6.8,2.3,2,.8,1.4,2.3,4,3.4,5.9,1.1,1.8,3,3.6,6.1,3.5,3.2-.1,5.5-1.3,6.7-5.2.9-2.9,1.5-5,2.5-7.2,1.1-2.5,2.7-3.9,3.9-3.4,1.2.4,1.5,1.5,1.5,3.2,0,1.5-.2,3.2-.3,4.4,0,.4-.1,1.3-.1,1.8,0,1,.5,1.9,1.6,2.1,1.2.2,2.1-.8,2.5-1.9.1-.4.3-1.1.3-1.6.3-2.4.4-4.1.3-6.6-.2-2.9-.8-5.6-1.7-7.9-1-2.2-2.5-3.6-4.5-3.7-2.2-.1-4.7,1.3-6,4.1-1.2,2.6-2.2,5.2-2.8,6.6-.6,1.4-1.5,2.2-2.8,2.4-1.6.2-3.1-1-4.1-2.7-.9-1.5-2.7-4.3-3.6-5.2-.9-.9-1.9-2-4.1-2"/>
      <g>
        <path class="st0" d="M252.2,2.6v24.3h12.8v6.7h-20.6V2.6h7.9Z"/>
        <path class="st0" d="M271.5,0c2.5,0,4.3,1.9,4.3,4.3s-1.9,4.3-4.3,4.3-4.3-1.9-4.3-4.3,1.9-4.3,4.3-4.3ZM275.2,11.3v22.3h-7.3V11.3s7.3,0,7.3,0Z"/>
        <path class="st0" d="M293,11.7l4.5-2.3,2.4,4.1-3.1,1.6c.5,1,.8,2.1.8,3.4,0,4.7-3.9,7.4-8.5,7.4s-2-.1-2.9-.4c-.7.5-.8,1.1-.8,1.5,0,.8.7,1.3,1.9,1.3h4.2c5.3,0,8.1,2.5,8.1,6.8s-5.1,7.9-10.4,7.9-10.4-2.5-10.4-7.3.6-3.1,1.8-4.4c-.7-.8-1.1-2-1.1-3.5s.9-3.5,2.9-4.6c-1.1-1.2-1.7-2.8-1.7-4.7,0-4.6,3.8-7.5,8.5-7.5s2.7.3,3.9.8h0ZM284.9,33.6c-.2.5-.3.9-.3,1.4,0,1.6,1.7,2.7,4.4,2.7s4-.7,4-2.2-1.2-1.7-3-1.7h-3.1c-.7,0-1.3,0-2.1-.2h0ZM289,20.7c1.3,0,2.2-.9,2.2-2.2s-.9-2.3-2.2-2.3-2.2,1-2.2,2.3.9,2.2,2.2,2.2Z"/>
        <path class="st0" d="M310.6,10.9c2.5,0,4.6.8,5.8,2.1v-1.8h7.3v22.3h-7.3v-1.9c-1.2,1.5-3.5,2.3-5.7,2.3-6.1,0-10.1-4.4-10.1-11.5s4.1-11.5,10-11.5h0ZM312.2,27.8c2.4,0,4.6-1.6,4.6-5.3s-2.2-5.3-4.6-5.3-4.6,1.6-4.6,5.3,2.2,5.3,4.6,5.3Z"/>
        <path class="st0" d="M348.4,10.9c2.5,0,4.2.8,5.3,2.1V2.3h7.3v31.3h-7.3v-1.9c-1.2,1.5-3,2.3-5.2,2.3-6.1,0-10-4.4-10-11.5s3.9-11.5,9.8-11.5h0ZM349.8,27.8c2.4,0,4.2-1.6,4.2-5.3s-1.8-5.3-4.2-5.3-4.2,1.6-4.2,5.3,1.8,5.3,4.2,5.3Z"/>
        <path class="st0" d="M371.4,24.3c.4,2.6,2.1,4.1,5,4.1s3.3-.8,4.4-2.4l5.6,2c-1.9,3.5-5,5.9-10.4,5.9-8.1,0-11.2-6.2-11.2-11.5s3.7-11.5,11.3-11.5,10.8,6.4,10.8,11.1v2.3h-15.4ZM371.6,19.6h8.5c-.3-1.9-1.8-3.4-4.3-3.4s-3.6,1.1-4.3,3.4h0Z"/>
        <path class="st0" d="M21.4,55.3c-1-2.7-2.8-4.8-6.4-4.8s-7.1,3.1-7.1,9.1,3.3,9.1,7.1,9.1,5.4-2.2,6.4-4.8l7,1.9c-1.8,6.4-6.6,9.6-13.3,9.6S0,70,0,59.6s7-15.9,15.1-15.9,12,3.6,13.4,9.5l-7.1,2Z"/>
        <path class="st0" d="M40.7,52.5c2.5,0,4.6.8,5.8,2.1v-1.8h7.3v22.3h-7.3v-1.9c-1.2,1.5-3.5,2.3-5.7,2.3-6.1,0-10.1-4.4-10.1-11.5s4.1-11.5,10-11.5h0ZM42.4,69.3c2.4,0,4.6-1.6,4.6-5.3s-2.2-5.3-4.6-5.3-4.6,1.6-4.6,5.3,2.2,5.3,4.6,5.3Z"/>
        <path class="st0" d="M71.9,75.1v-13.5c0-1.9-.8-3.1-2.3-3.1s-4,2-4,7.9v8.8h-6.7v-22.3h6.7v2.7c1.3-1.8,3.1-3,5.8-3s5.1,1.3,6.3,3.8c1.2-1.9,3.3-3.8,6.8-3.8s7.3,2.7,7.3,6.9v15.8h-6.7v-13.5c0-1.9-.7-3.1-2.3-3.1s-4,2-4,7.8v8.8h-6.7Z"/>
        <path class="st0" d="M108.6,75.5c-2.2,0-3.9-.5-4.9-1.7v10.4h-7.3v-31.3h7.3v1.9c1.3-1.4,3-2.3,5.6-2.3,5.7,0,9.6,4.4,9.6,11.5s-4.3,11.5-10.3,11.5h0ZM107.5,58.7c-2.4,0-4.2,1.6-4.2,5.3s1.8,5.3,4.2,5.3,4.2-1.6,4.2-5.3-1.8-5.3-4.2-5.3Z"/>
        <path class="st0" d="M128.6,65.8c.4,2.6,2.1,4.1,5,4.1s3.3-.8,4.4-2.4l5.6,2c-1.9,3.5-5,5.9-10.4,5.9-8.1,0-11.2-6.2-11.2-11.5s3.7-11.5,11.3-11.5,10.8,6.4,10.8,11.1v2.3h-15.4ZM128.8,61.1h8.5c-.3-1.9-1.8-3.4-4.3-3.4s-3.6,1.1-4.3,3.4h0Z"/>
        <path class="st0" d="M158.6,52.5c7.8,0,11.8,5.4,11.8,11.5s-4,11.5-11.8,11.5-11.8-5.4-11.8-11.5,4-11.5,11.8-11.5h0ZM158.6,69.3c3.1,0,4.5-2.1,4.5-5.3s-1.4-5.3-4.5-5.3-4.5,2.1-4.5,5.3,1.4,5.3,4.5,5.3Z"/>
        <path class="st0" d="M181.5,52.8v2.6c1.2-1.7,3.6-2.9,6.3-2.9,5.1,0,7.4,2.7,7.4,7.3v15.3h-7.3v-13.2c0-1.9-.9-3-2.5-3-2.4,0-4,2.2-4,6.4v9.8h-7.3v-22.3h7.3,0Z"/>
        <path class="st0" d="M205.7,65.8c.4,2.6,2.1,4.1,5,4.1s3.3-.8,4.4-2.4l5.6,2c-1.9,3.5-5,5.9-10.4,5.9-8.1,0-11.2-6.2-11.2-11.5s3.7-11.5,11.3-11.5,10.8,6.4,10.8,11.1v2.3h-15.4ZM205.9,61.1h8.5c-.3-1.9-1.8-3.4-4.3-3.4s-3.6,1.1-4.3,3.4h0Z"/>
        <path class="st0" d="M239.7,56.2l-3.9,3.6c-1-1.3-2.2-1.9-3.4-1.9s-1.5.5-1.5,1.2.7,1.4,2.6,2.1c4.3,1.5,7.2,2.6,7.2,6.9s-3.1,7.4-8.2,7.4-7.9-2.8-9.4-6.1l5.4-2.9c.8,2.1,2,3.5,4.1,3.5s1.9-.4,1.9-1.5c0-1.6-2.3-2-4.8-3.1-2.7-1.1-5-2.9-5-6.5s2.9-6.5,7.7-6.5,5.9,1.5,7.3,3.7h0Z"/>
        <path class="st0" d="M263.3,44.1v31h-7.2v-21.3l-5.7,3.4v-7.9l8.9-5.1h3.9Z"/>
        <path class="st0" d="M292,59.6c0,9.9-4.3,15.9-12,15.9s-12-5.9-12-15.9,4.3-15.9,12-15.9,12,5.9,12,15.9h0ZM275,59.6c0,6.1,1.8,9.5,5,9.5s5-3.4,5-9.5-1.8-9.5-5-9.5-5,3.4-5,9.5Z"/>
        <path class="st0" d="M307.8,44.1h3.9v20.7c0,3.9,2.4,6.9,7,6.9s7-3,7-6.9v-20.7h3.9v20.5c0,7.1-4.9,10.9-10.8,10.9s-10.8-3.8-10.8-10.9v-20.5h0Z"/>
        <path class="st0" d="M357.1,44.1v31h-3.9v-14.6h-14.2v14.6h-3.9v-31h3.9v12.7h14.2v-12.7h3.9Z"/>
        <path class="st0" d="M371.8,44.1c7.6,0,14.3,5.4,14.3,15.5s-6.6,15.5-14.3,15.5h-8.5v-31h8.5ZM367.2,47.9v23.6h3.9c5.7,0,10.8-3.1,10.8-11.8s-5-11.8-10.8-11.8h-3.9Z"/>
      </g>
      <g>
        <polygon class="st1" points="410 100.1 403.6 100.1 403.6 93.8 398.5 93.8 398.5 100.1 392.1 100.1 392.1 105.3 398.5 105.3 398.5 111.7 403.6 111.7 403.6 105.3 410 105.3 410 100.1"/>
        <rect class="st1" x="398.5" y="2.9" width="5.1" height="72.3"/>
      </g>
    </g>
  </g>
</svg>