<?xml version="1.0" encoding="UTF-8"?>
<svg id="CONTENIDO" xmlns="http://www.w3.org/2000/svg" version="1.1" viewBox="0 0 297.1 121.6">
  <!-- Generator: Adobe Illustrator 29.0.0, SVG Export Plug-In . SVG Version: 2.1.0 Build 186)  -->
  <defs>
    <style>
      .st0 {
        letter-spacing: 0em;
      }

      .st0, .st1, .st2, .st3, .st4, .st5 {
        isolation: isolate;
      }

      .st0, .st2, .st3, .st4, .st5 {
        font-family: ApercuMovistar-Bold, 'Apercu Movistar';
        font-weight: 700;
      }

      .st0, .st2, .st4 {
        fill: #1ec33c;
        font-size: 44.3px;
      }

      .st3 {
        letter-spacing: 0em;
      }

      .st3, .st5 {
        font-size: 22.5px;
      }

      .st4 {
        letter-spacing: 0em;
      }
    </style>
  </defs>
  <g class="st1">
    <text class="st5" transform="translate(193.6 115.6)"><tspan x="0" y="0">p</tspan></text>
    <text class="st3" transform="translate(206.8 115.6)"><tspan x="0" y="0">o</tspan></text>
    <text class="st5" transform="translate(219.7 115.6)"><tspan x="0" y="0">r</tspan></text>
  </g>
  <path d="M244.2,96.8c-1.7,0-4.8.9-6.2,6.7-.6,2.5-.9,5.2-.3,8.3.5,2.9,1.4,5.4,1.9,6.8.2.5.5,1,.8,1.3.7.9,1.9.8,2.3.6.5-.3,1.1-.9.9-2.3-.1-.7-.4-1.7-.6-2.3-.5-1.7-1.2-3.8-1.3-5.3,0-2,.7-2.3,1.2-2.4.9-.2,1.6.8,2.3,2,.8,1.4,2.3,4,3.4,5.9,1.1,1.8,3,3.6,6.1,3.5,3.2-.1,5.5-1.3,6.7-5.2.9-2.9,1.5-5,2.5-7.2,1.1-2.5,2.7-3.9,3.9-3.4,1.2.4,1.5,1.5,1.5,3.2,0,1.5-.2,3.2-.3,4.4,0,.4-.1,1.3-.1,1.8,0,1,.5,1.9,1.6,2.1,1.2.2,2.1-.8,2.5-1.9.1-.4.3-1.1.3-1.6.3-2.4.4-4.1.3-6.6-.2-2.9-.8-5.6-1.7-7.9-1-2.2-2.5-3.6-4.5-3.7-2.2-.1-4.7,1.3-6,4.1-1.2,2.6-2.2,5.2-2.8,6.6-.6,1.4-1.5,2.2-2.8,2.4-1.6.2-3.1-1-4.1-2.7-.9-1.5-2.7-4.3-3.6-5.2-.9-.9-1.9-2-4.1-2"/>
  <g class="st1">
    <text class="st2" transform="translate(128.3 37.6)"><tspan x="0" y="0">Li</tspan></text>
    <text class="st0" transform="translate(164.7 37.6)"><tspan x="0" y="0">g</tspan></text>
    <text class="st2" transform="translate(186.5 37.6)"><tspan x="0" y="0">a </tspan></text>
    <text class="st0" transform="translate(224.2 37.6)"><tspan x="0" y="0">d</tspan></text>
    <text class="st2" transform="translate(250.2 37.6)"><tspan x="0" y="0">e</tspan></text>
    <text class="st2" transform="translate(0 79.2)"><tspan x="0" y="0">C</tspan></text>
    <text class="st2" transform="translate(31.1 79.2)"><tspan x="0" y="0">a</tspan></text>
    <text class="st2" transform="translate(57.6 79.2)"><tspan x="0" y="0">m</tspan></text>
    <text class="st2" transform="translate(95.2 79.2)"><tspan x="0" y="0">pe</tspan></text>
    <text class="st2" transform="translate(146.8 79.2)"><tspan x="0" y="0">on</tspan></text>
    <text class="st2" transform="translate(198.9 79.2)"><tspan x="0" y="0">e</tspan></text>
    <text class="st4" transform="translate(223.8 79.2)"><tspan x="0" y="0">s</tspan></text>
    <text class="st2" transform="translate(238.7 79.2)"><tspan x="0" y="0" xml:space="preserve"> 2</tspan></text>
  </g>
  <g>
    <polygon points="297.1 104.2 290.7 104.2 290.7 97.8 285.6 97.8 285.6 104.2 279.2 104.2 279.2 109.3 285.6 109.3 285.6 115.7 290.7 115.7 290.7 109.3 297.1 109.3 297.1 104.2"/>
    <rect x="285.6" y="6.9" width="5.1" height="72.3"/>
  </g>
</svg>