<?xml version="1.0" encoding="UTF-8"?>
<svg id="Capa_1" xmlns="http://www.w3.org/2000/svg" version="1.1" viewBox="0 0 314.5 116.5">
  <!-- Generator: Adobe Illustrator 29.0.0, SVG Export Plug-In . SVG Version: 2.1.0 Build 186)  -->
  <defs>
    <style>
      .st0, .st1 {
        fill: #1ec33c;
      }

      .st2 {
        fill: #fff;
      }

      .st3, .st1 {
        display: none;
      }
    </style>
  </defs>
  <g id="CONTENIDO">
    <g>
      <g>
        <path class="st2" d="M218.1,111.8c-1.2,0-2.2-.6-2.8-1.2v5.6h-2.8v-15.9h2.8v1.2c.3-.6,1.4-1.4,2.8-1.4,3.4,0,5.2,2.4,5.2,5.8,0,3.4-1.8,5.8-5.2,5.8ZM217.7,102.4c-1.5,0-2.6,1.2-2.6,3.5s1.2,3.5,2.6,3.5,2.6-1.2,2.6-3.5-1.2-3.5-2.6-3.5Z"/>
        <path class="st2" d="M230.8,100c3.6,0,5.8,2.6,5.8,5.8s-2.1,5.8-5.8,5.8-5.8-2.6-5.8-5.8,2.1-5.8,5.8-5.8ZM230.8,109.4c1.8,0,2.8-1.6,2.8-3.5s-1-3.5-2.8-3.5-2.8,1.6-2.8,3.5,1,3.5,2.8,3.5Z"/>
        <path class="st2" d="M238.6,111.6v-11.3h2.8v1.8c.8-1.3,2.1-2,3.4-2s.6,0,.8,0v2.7c-.3-.2-.7-.3-1.2-.3-1.6,0-3,1.3-3,5v4h-2.8Z"/>
      </g>
      <path class="st2" d="M261.6,92.7c-1.7,0-4.8.9-6.2,6.7-.6,2.5-.9,5.2-.3,8.3.5,2.9,1.4,5.4,2,6.8.2.5.5,1,.8,1.3.7.9,1.8.8,2.3.6.5-.3,1.1-.9.9-2.3-.1-.7-.4-1.7-.6-2.3-.5-1.7-1.2-3.8-1.3-5.3,0-2,.7-2.2,1.2-2.4.9-.2,1.6.8,2.3,2,.8,1.4,2.3,4,3.4,6,1,1.8,3,3.6,6.1,3.5,3.2-.1,5.5-1.4,6.7-5.2.9-2.8,1.5-5,2.5-7.2,1.1-2.5,2.6-3.8,3.9-3.4,1.2.4,1.5,1.6,1.5,3.2s-.2,3.2-.3,4.4c0,.4-.1,1.3-.1,1.8,0,1,.5,2,1.6,2.1,1.2.2,2.1-.8,2.5-1.9.2-.4.3-1.1.4-1.6.4-2.4.4-4.1.3-6.6-.2-2.9-.8-5.6-1.8-7.9-1-2.2-2.5-3.6-4.4-3.7-2.2-.1-4.7,1.3-6,4.1-1.2,2.6-2.2,5.2-2.8,6.6-.6,1.4-1.5,2.2-2.8,2.4-1.6.2-3-1-4.1-2.7-.9-1.5-2.7-4.3-3.6-5.2-1-1-2-2.2-4.2-2.1"/>
      <g>
        <path class="st0" d="M156.7,2.6v24.3h12.8v6.7h-20.6V2.6h7.9Z"/>
        <path class="st0" d="M176.1,0c2.5,0,4.3,1.9,4.3,4.3s-1.8,4.3-4.3,4.3-4.3-1.9-4.3-4.3c0-2.4,1.8-4.3,4.3-4.3ZM179.7,11.3v22.3h-7.3V11.3h7.3Z"/>
        <path class="st0" d="M197.5,11.7l4.5-2.4,2.4,4.1-3.1,1.6c.5,1,.8,2.1.8,3.4,0,4.7-3.8,7.4-8.6,7.4s-2-.1-2.9-.4c-.7.5-.8,1.1-.8,1.5,0,.8.7,1.3,1.9,1.3h4.2c5.3,0,8.2,2.5,8.2,6.8s-5.1,7.9-10.4,7.9-10.4-2.5-10.4-7.4.6-3.2,1.8-4.4c-.7-.8-1.1-2-1.1-3.5s.9-3.5,2.9-4.6c-1.1-1.2-1.7-2.8-1.7-4.7,0-4.6,3.8-7.5,8.5-7.5,1.3,0,2.7.3,3.9.8ZM189.4,33.6c-.2.5-.3.9-.3,1.4,0,1.6,1.7,2.6,4.4,2.6s4-.7,4-2.2-1.2-1.7-3-1.7h-3.1c-.7,0-1.4,0-2.1-.2ZM193.6,20.7c1.3,0,2.2-.9,2.2-2.2s-.9-2.3-2.2-2.3-2.2,1-2.2,2.3.9,2.2,2.2,2.2Z"/>
        <path class="st0" d="M215.1,10.9c2.5,0,4.6.8,5.8,2.1v-1.8h7.3v22.3h-7.3v-1.9c-1.2,1.5-3.6,2.2-5.7,2.2-6.1,0-10.1-4.4-10.1-11.5s4.1-11.5,10-11.5ZM216.8,27.8c2.4,0,4.6-1.6,4.6-5.3s-2.2-5.3-4.6-5.3-4.6,1.6-4.6,5.3,2.2,5.3,4.6,5.3Z"/>
        <path class="st0" d="M252.9,10.9c2.5,0,4.2.8,5.3,2.1V2.2h7.3v31.4h-7.3v-1.9c-1.2,1.5-3,2.2-5.2,2.2-6.1,0-10-4.4-10-11.5,0-7.1,3.9-11.5,9.8-11.5ZM254.4,27.8c2.4,0,4.2-1.6,4.2-5.3s-1.8-5.3-4.2-5.3-4.2,1.6-4.2,5.3,1.8,5.3,4.2,5.3Z"/>
        <path class="st0" d="M276,24.3c.4,2.6,2.1,4.1,5,4.1s3.3-.8,4.4-2.4l5.6,2c-1.8,3.4-5,5.9-10.4,5.9-8,0-11.2-6.2-11.2-11.5s3.7-11.5,11.3-11.5,10.8,6.4,10.8,11.1v2.3h-15.4ZM276.1,19.6h8.6c-.3-1.9-1.8-3.4-4.2-3.4s-3.6,1.1-4.3,3.4Z"/>
        <path class="st0" d="M21.4,55.4c-1-2.6-2.8-4.8-6.4-4.8s-7.1,3.1-7.1,9.1,3.3,9.1,7.1,9.1,5.4-2.2,6.4-4.8l7,2c-1.8,6.4-6.6,9.6-13.3,9.6S0,70,0,59.6s7-15.8,15.1-15.8,12,3.6,13.4,9.5l-7.1,2Z"/>
        <path class="st0" d="M40.7,52.5c2.5,0,4.6.8,5.8,2.1v-1.8h7.3v22.3h-7.3v-1.9c-1.2,1.5-3.6,2.2-5.7,2.2-6.1,0-10.1-4.4-10.1-11.5s4.1-11.5,10-11.5ZM42.3,69.3c2.4,0,4.6-1.6,4.6-5.3s-2.2-5.3-4.6-5.3-4.6,1.6-4.6,5.3c0,3.7,2.2,5.3,4.6,5.3Z"/>
        <path class="st0" d="M71.8,75.1v-13.6c0-1.8-.8-3.1-2.4-3.1s-4,2-4,7.9v8.8h-6.7v-22.3h6.7v2.6c1.3-1.8,3.1-3,5.8-3s5.1,1.3,6.3,3.8c1.2-2,3.3-3.8,6.8-3.8s7.3,2.8,7.3,6.9v15.8h-6.7v-13.6c0-2-.7-3.1-2.3-3.1s-4,2-4,7.8v8.8h-6.7Z"/>
        <path class="st0" d="M108.5,75.5c-2.2,0-3.8-.5-4.9-1.7v10.4h-7.3v-31.4h7.3v1.9c1.3-1.4,3-2.2,5.6-2.2,5.7,0,9.6,4.4,9.6,11.5,0,7.1-4.3,11.5-10.2,11.5ZM107.5,58.7c-2.4,0-4.2,1.6-4.2,5.3s1.8,5.3,4.2,5.3,4.2-1.6,4.2-5.3c0-3.7-1.8-5.3-4.2-5.3Z"/>
        <path class="st0" d="M128.6,65.8c.4,2.6,2.1,4.1,5,4.1s3.3-.8,4.4-2.4l5.6,2c-1.8,3.4-5,5.9-10.4,5.9-8,0-11.2-6.2-11.2-11.5s3.7-11.5,11.3-11.5,10.8,6.4,10.8,11.1v2.3h-15.4ZM128.8,61.2h8.6c-.3-1.9-1.8-3.4-4.2-3.4-1.8,0-3.7,1-4.3,3.4Z"/>
        <path class="st0" d="M158.6,52.5c7.8,0,11.8,5.4,11.8,11.5s-4,11.5-11.8,11.5-11.8-5.4-11.8-11.5c0-6.2,4-11.5,11.8-11.5ZM158.6,69.3c3.1,0,4.5-2.1,4.5-5.3s-1.4-5.3-4.5-5.3-4.5,2.1-4.5,5.3,1.4,5.3,4.5,5.3Z"/>
        <path class="st0" d="M181.5,52.8v2.6c1.2-1.7,3.6-2.9,6.3-2.9,5.1,0,7.4,2.7,7.4,7.4v15.3h-7.3v-13.2c0-1.9-.9-3-2.5-3-2.4,0-4,2.2-4,6.4v9.8h-7.2v-22.3h7.3Z"/>
        <path class="st0" d="M205.6,65.8c.4,2.6,2.1,4.1,5,4.1s3.3-.8,4.4-2.4l5.6,2c-1.8,3.4-5,5.9-10.4,5.9-8,0-11.2-6.2-11.2-11.5s3.7-11.5,11.3-11.5,10.8,6.4,10.8,11.1v2.3h-15.4ZM205.8,61.2h8.6c-.3-1.9-1.8-3.4-4.2-3.4-1.8,0-3.7,1-4.3,3.4Z"/>
        <path class="st0" d="M239.6,56.2l-4,3.6c-1-1.3-2.2-2-3.4-2s-1.5.5-1.5,1.2.7,1.4,2.6,2.1c4.3,1.5,7.2,2.6,7.2,6.9s-3,7.4-8.2,7.4-7.9-2.8-9.4-6.1l5.4-2.9c.8,2.1,2,3.4,4.1,3.4s2-.4,2-1.5c0-1.6-2.4-2-4.8-3-2.8-1.1-5-2.9-5-6.5s2.9-6.5,7.7-6.5c3.5,0,6,1.5,7.4,3.8Z"/>
        <path class="st0" d="M263.3,44.1v31h-7.2v-21.4l-5.7,3.4v-7.9l8.9-5.1h4Z"/>
        <path class="st1" d="M280.6,70.1h-13.2v-3.8l12.9-22.1h6.9v19.8h3.6v6.1h-3.6v5h-6.6v-5ZM280.6,64v-9.6l-5.4,9.6h5.4Z"/>
      </g>
      <g>
        <polygon class="st2" points="314.5 100.2 308.2 100.2 308.2 93.8 303 93.8 303 100.2 296.6 100.2 296.6 105.3 303 105.3 303 111.6 308.2 111.6 308.2 105.3 314.5 105.3 314.5 100.2"/>
        <rect class="st2" x="303" y="2.9" width="5.1" height="72.4"/>
      </g>
    </g>
    <path class="st0" d="M277.9,64c-6.1,0-10.3-4.1-10.3-10.1s4.4-10.1,10.7-10.1,10.8,4.3,10.8,10.1-.6,4.3-2.3,7.2l-8.1,14.4h-7.6l6.8-11.6ZM282.1,53.8c0-2.4-1.7-4-3.9-4s-3.9,1.6-3.9,4,1.7,4,3.9,4,3.9-1.4,3.9-4Z"/>
    <g class="st3">
      <path class="st0" d="M288.6,52.2c0,2.5-1.1,4.8-2.9,6.2,2.5,1.4,4.2,4,4.2,7.5,0,6-4.9,9.6-10.6,9.6s-10.6-3.6-10.6-9.6,1.6-6,4.2-7.5c-1.8-1.5-2.9-3.7-2.9-6.2,0-4.6,3.8-8.5,9.3-8.5s9.3,3.9,9.3,8.5ZM275.4,65.7c0,2.5,1.7,3.9,3.9,3.9s3.9-1.4,3.9-3.9-1.7-3.9-3.9-3.9-3.9,1.4-3.9,3.9ZM276.1,52.5c0,2,1.2,3.3,3.2,3.3s3.2-1.3,3.2-3.3-1.2-3.3-3.2-3.3-3.2,1.3-3.2,3.3Z"/>
    </g>
  </g>
</svg>