<?xml version="1.0" encoding="UTF-8"?>
<svg id="CONTENIDO" xmlns="http://www.w3.org/2000/svg" version="1.1" viewBox="0 0 298.8 120.6">
  <!-- Generator: Adobe Illustrator 29.0.0, SVG Export Plug-In . SVG Version: 2.1.0 Build 186)  -->
  <defs>
    <style>
      .st0 {
        fill: #fff;
      }

      .st1 {
        letter-spacing: 0em;
      }

      .st1, .st2, .st3 {
        isolation: isolate;
      }

      .st1, .st3 {
        fill: #1ec33c;
        font-family: ApercuMovistar-Bold, 'Apercu Movistar';
        font-size: 44.3px;
        font-weight: 700;
      }
    </style>
  </defs>
  <g class="st2">
    <g class="st2">
      <path class="st0" d="M202.4,115.8c-1.2,0-2.2-.6-2.8-1.2v5.6h-2.8v-15.9h2.8v1.2c.3-.6,1.4-1.4,2.8-1.4,3.4,0,5.2,2.4,5.2,5.8s-1.8,5.8-5.2,5.8h0ZM202,106.5c-1.5,0-2.6,1.2-2.6,3.5s1.2,3.5,2.6,3.5,2.6-1.2,2.6-3.5-1.2-3.5-2.6-3.5Z"/>
    </g>
    <g class="st2">
      <path class="st0" d="M215.1,104.1c3.6,0,5.8,2.6,5.8,5.8s-2.1,5.8-5.8,5.8-5.8-2.6-5.8-5.8,2.1-5.8,5.8-5.8ZM215.1,113.4c1.8,0,2.8-1.6,2.8-3.5s-1-3.5-2.8-3.5-2.8,1.6-2.8,3.5,1,3.5,2.8,3.5Z"/>
    </g>
    <g class="st2">
      <path class="st0" d="M222.9,115.6v-11.3h2.8v1.8c.8-1.3,2.1-2,3.4-2s.6,0,.8,0v2.7c-.3-.2-.7-.3-1.2-.3-1.6,0-3,1.3-3,5v4h-2.8Z"/>
    </g>
  </g>
  <path class="st0" d="M245.9,96.8c-1.7,0-4.8.8-6.2,6.7-.6,2.5-.9,5.2-.3,8.3.5,2.9,1.4,5.4,2,6.8.2.5.5,1,.8,1.3.7.9,1.8.8,2.3.6.5-.2,1.1-.9.9-2.3-.1-.7-.4-1.7-.6-2.3-.5-1.7-1.2-3.8-1.3-5.3,0-2,.7-2.2,1.2-2.4.9-.2,1.6.8,2.3,2,.8,1.4,2.3,4,3.4,6,1,1.8,3,3.6,6.1,3.5,3.2-.1,5.5-1.4,6.7-5.2.9-2.8,1.5-5,2.5-7.2,1.1-2.5,2.7-3.8,3.9-3.4,1.2.4,1.5,1.6,1.5,3.2,0,1.5-.2,3.2-.3,4.4,0,.4-.1,1.3-.1,1.8,0,1,.5,2,1.6,2.1,1.2.2,2.1-.8,2.5-1.9.2-.4.3-1.1.4-1.6.4-2.4.4-4.1.3-6.6-.2-2.9-.8-5.6-1.8-7.9-1-2.2-2.5-3.6-4.4-3.8-2.2-.1-4.7,1.3-6,4.1-1.2,2.6-2.2,5.2-2.8,6.6s-1.5,2.2-2.8,2.4c-1.6.2-3-1-4.1-2.7-.9-1.5-2.7-4.3-3.6-5.2-.9-.9-1.9-2-4.1-2"/>
  <g class="st2">
    <g class="st2">
      <text class="st3" transform="translate(130.1 37.6)"><tspan x="0" y="0">Li</tspan></text>
    </g>
    <g class="st2">
      <text class="st3" transform="translate(166.4 37.6)"><tspan x="0" y="0">g</tspan></text>
    </g>
    <g class="st2">
      <text class="st3" transform="translate(188.3 37.6)"><tspan x="0" y="0">a</tspan></text>
    </g>
    <g class="st2">
      <text class="st3" transform="translate(225.9 37.6)"><tspan x="0" y="0">d</tspan></text>
    </g>
    <g class="st2">
      <text class="st3" transform="translate(252 37.6)"><tspan x="0" y="0">e</tspan></text>
    </g>
    <g class="st2">
      <text class="st3" transform="translate(0 79.2)"><tspan x="0" y="0">C</tspan></text>
    </g>
    <g class="st2">
      <text class="st3" transform="translate(31.1 79.2)"><tspan x="0" y="0">a</tspan></text>
    </g>
    <g class="st2">
      <text class="st3" transform="translate(57.6 79.2)"><tspan x="0" y="0">m</tspan></text>
    </g>
    <g class="st2">
      <text class="st3" transform="translate(95.2 79.2)"><tspan x="0" y="0">pe</tspan></text>
    </g>
    <g class="st2">
      <text class="st3" transform="translate(146.8 79.2)"><tspan x="0" y="0">on</tspan></text>
    </g>
    <g class="st2">
      <text class="st3" transform="translate(198.9 79.2)"><tspan x="0" y="0">e</tspan></text>
    </g>
    <g class="st2">
      <text class="st1" transform="translate(223.8 79.2)"><tspan x="0" y="0">s</tspan></text>
    </g>
    <g class="st2">
      <text class="st3" transform="translate(238.7 79.2)"><tspan x="0" y="0" xml:space="preserve"> 4</tspan></text>
    </g>
  </g>
  <g>
    <polygon class="st0" points="298.8 104.2 292.4 104.2 292.4 97.8 287.3 97.8 287.3 104.2 280.9 104.2 280.9 109.3 287.3 109.3 287.3 115.7 292.4 115.7 292.4 109.3 298.8 109.3 298.8 104.2"/>
    <rect class="st0" x="287.3" y="6.9" width="5.1" height="72.4"/>
  </g>
</svg>