<?xml version="1.0" encoding="UTF-8"?>
<svg id="CONTENIDO" xmlns="http://www.w3.org/2000/svg" version="1.1" viewBox="0 0 112.7 26.7">
  <!-- Generator: Adobe Illustrator 29.0.0, SVG Export Plug-In . SVG Version: 2.1.0 Build 186)  -->
  <defs>
    <style>
      .st0 {
        fill: #fff;
      }
    </style>
  </defs>
  <g>
    <path class="st0" d="M6.8,3.1c-1.7,0-4.8.9-6.2,6.6C0,12.3-.2,14.9.3,18c.5,2.9,1.3,5.4,1.9,6.7.2.5.5,1,.8,1.3.7.9,1.8.8,2.3.6.5-.3,1.1-.9.9-2.3-.1-.7-.4-1.7-.6-2.3-.5-1.7-1.2-3.8-1.3-5.3,0-2,.7-2.2,1.2-2.4.9-.2,1.6.8,2.3,2,.8,1.4,2.2,4,3.4,5.9,1,1.7,3,3.6,6.1,3.5,3.2-.1,5.5-1.3,6.7-5.1.9-2.8,1.5-5,2.5-7.1,1.1-2.5,2.6-3.8,3.9-3.4,1.2.4,1.5,1.5,1.5,3.2,0,1.5-.2,3.2-.3,4.4,0,.4-.1,1.3-.1,1.8,0,1,.5,1.9,1.6,2.1,1.2.2,2.1-.8,2.5-1.9.1-.4.3-1.1.3-1.6.3-2.4.4-4.1.3-6.5-.2-2.9-.7-5.5-1.7-7.8C33.5,1.5,32,.1,30,0c-2.2-.1-4.6,1.3-5.9,4.1-1.2,2.6-2.2,5.2-2.7,6.5-.6,1.4-1.5,2.2-2.8,2.3-1.6.2-3-1-4.1-2.7-.9-1.5-2.7-4.3-3.6-5.2-.9-.9-1.9-2-4-2"/>
    <polygon class="st0" points="59.4 10.5 53 10.5 53 4.1 47.9 4.1 47.9 10.5 41.6 10.5 41.6 15.6 47.9 15.6 47.9 21.9 53 21.9 53 15.6 59.4 15.6 59.4 10.5"/>
  </g>
  <g>
    <path class="st0" d="M68.2,4.3h2.2v11.8c0,2.2,1.4,3.9,4,3.9s4-1.7,4-3.9V4.3h2.2v11.6c0,4-2.8,6.2-6.2,6.2s-6.2-2.2-6.2-6.2V4.3h0Z"/>
    <path class="st0" d="M96.3,4.3v17.6h-2.2v-8.3h-8.1v8.3h-2.2V4.3h2.2v7.2h8.1v-7.2s2.2,0,2.2,0Z"/>
    <path class="st0" d="M104.6,4.3c4.3,0,8.1,3.1,8.1,8.8s-3.8,8.8-8.1,8.8h-4.8V4.3h4.8ZM102,6.4v13.4h2.2c3.3,0,6.1-1.8,6.1-6.7s-2.9-6.7-6.1-6.7h-2.2Z"/>
  </g>
</svg>