<?xml version="1.0" encoding="UTF-8"?>
<svg id="uuid-3ec16d7c-9b46-4d9e-9012-8d4915b318a7" xmlns="http://www.w3.org/2000/svg" version="1.1" viewBox="0 0 267.7 52.1">
  <!-- Generator: Adobe Illustrator 29.0.0, SVG Export Plug-In . SVG Version: 2.1.0 Build 186)  -->
  <defs>
    <style>
      .st0 {
        fill: #1ec33c;
      }
    </style>
  </defs>
  <rect x="49.9" width="4.7" height="52.1"/>
  <path d="M34.8,17.1c-1-2.2-2.5-3.6-4.5-3.8-2.2-.1-4.7,1.3-6,4.1-1.2,2.6-2.2,5.2-2.8,6.6-.6,1.4-1.5,2.2-2.8,2.4-1.6.2-3.1-1-4.1-2.7-.9-1.5-2.7-4.3-3.7-5.3-.9-.9-1.9-2-4.1-2-1.7,0-4.8.9-6.3,6.7C0,25.7-.2,28.3.3,31.5c.5,2.9,1.4,5.4,1.9,6.8.2.5.5,1,.8,1.3.7.9,1.9.8,2.3.6.5-.3,1.1-.9.9-2.3-.1-.7-.4-1.7-.6-2.3-.5-1.7-1.2-3.8-1.3-5.3,0-2,.7-2.3,1.2-2.4.9-.2,1.6.8,2.3,2,.8,1.4,2.3,4,3.4,6,1.1,1.8,3,3.7,6.1,3.5,3.2-.1,5.5-1.3,6.8-5.2.9-2.9,1.5-5,2.5-7.2,1.1-2.5,2.7-3.9,4-3.5,1.2.4,1.5,1.5,1.5,3.3,0,1.5-.2,3.2-.3,4.4,0,.4-.1,1.3-.1,1.8,0,1,.5,2,1.6,2.1,1.2.2,2.1-.8,2.5-1.9.1-.4.3-1.1.3-1.6.3-2.4.4-4.1.3-6.6-.2-2.9-.8-5.6-1.8-7.9h0Z"/>
  <g>
    <path class="st0" d="M70.2,7.7v12.8h6.7v3.6h-10.9V7.7h4.2Z"/>
    <path class="st0" d="M80.4,6.3c1.3,0,2.3,1,2.3,2.3s-1,2.3-2.3,2.3-2.3-1-2.3-2.3,1-2.3,2.3-2.3ZM82.3,12.3v11.8h-3.8v-11.8h3.8Z"/>
    <path class="st0" d="M91.7,12.5l2.4-1.2,1.3,2.2-1.6.8c.3.5.4,1.1.4,1.8,0,2.5-2,3.9-4.5,3.9s-1.1,0-1.5-.2c-.4.3-.4.6-.4.8,0,.4.4.7,1,.7h2.2c2.8,0,4.3,1.3,4.3,3.6s-2.7,4.2-5.5,4.2-5.5-1.3-5.5-3.9.3-1.7,1-2.3c-.4-.4-.6-1.1-.6-1.8s.5-1.8,1.5-2.4c-.6-.6-.9-1.5-.9-2.5,0-2.5,2-4,4.5-4s1.4.1,2.1.4h0ZM87.5,24.1c0,.3-.1.5-.1.7,0,.9.9,1.4,2.3,1.4s2.1-.4,2.1-1.1-.7-.9-1.6-.9h-1.6c-.4,0-.7,0-1.1,0ZM89.7,17.2c.7,0,1.2-.5,1.2-1.2s-.5-1.2-1.2-1.2-1.2.5-1.2,1.2.5,1.2,1.2,1.2Z"/>
    <path class="st0" d="M101,12.1c1.3,0,2.4.4,3.1,1.1v-.9h3.8v11.8h-3.8v-1c-.6.8-1.9,1.2-3,1.2-3.2,0-5.4-2.3-5.4-6.1s2.2-6.1,5.3-6.1h0ZM101.9,21c1.3,0,2.4-.9,2.4-2.8s-1.1-2.8-2.4-2.8-2.4.9-2.4,2.8,1.1,2.8,2.4,2.8Z"/>
    <path class="st0" d="M121,12.1c1.3,0,2.2.4,2.8,1.1v-5.7h3.8v16.6h-3.8v-1c-.6.8-1.6,1.2-2.7,1.2-3.2,0-5.3-2.3-5.3-6.1s2.1-6.1,5.2-6.1h0ZM121.8,21c1.3,0,2.2-.9,2.2-2.8s-1-2.8-2.2-2.8-2.2.9-2.2,2.8,1,2.8,2.2,2.8Z"/>
    <path class="st0" d="M133.2,19.2c.2,1.4,1.1,2.2,2.6,2.2s1.8-.4,2.3-1.3l2.9,1.1c-1,1.8-2.7,3.1-5.5,3.1-4.3,0-5.9-3.3-5.9-6.1s1.9-6.1,6-6.1,5.7,3.4,5.7,5.8v1.2h-8.1ZM133.3,16.7h4.5c-.2-1-.9-1.8-2.2-1.8s-1.9.6-2.3,1.8h0Z"/>
    <path class="st0" d="M76.5,34.4c-.5-1.4-1.5-2.5-3.4-2.5s-3.8,1.6-3.8,4.8,1.8,4.8,3.8,4.8,2.9-1.1,3.4-2.5l3.7,1c-.9,3.4-3.5,5.1-7,5.1s-8-2.9-8-8.4,3.7-8.4,8-8.4,6.3,1.9,7.1,5l-3.7,1.1h0Z"/>
    <path class="st0" d="M86.7,32.9c1.3,0,2.4.4,3.1,1.1v-.9h3.8v11.8h-3.8v-1c-.6.8-1.9,1.2-3,1.2-3.2,0-5.4-2.3-5.4-6.1s2.2-6.1,5.3-6.1h0ZM87.6,41.8c1.3,0,2.4-.9,2.4-2.8s-1.1-2.8-2.4-2.8-2.4.9-2.4,2.8,1.1,2.8,2.4,2.8Z"/>
    <path class="st0" d="M103.2,44.9v-7.2c0-1-.4-1.6-1.2-1.6s-2.1,1.1-2.1,4.2v4.6h-3.6v-11.8h3.6v1.4c.7-.9,1.6-1.6,3.1-1.6s2.7.7,3.3,2c.6-1,1.7-2,3.6-2s3.8,1.4,3.8,3.6v8.4h-3.6v-7.2c0-1-.4-1.6-1.2-1.6s-2.1,1.1-2.1,4.1v4.7h-3.6,0Z"/>
    <path class="st0" d="M122.6,45.1c-1.1,0-2-.3-2.6-.9v5.5h-3.8v-16.6h3.8v1c.7-.7,1.6-1.2,2.9-1.2,3,0,5.1,2.3,5.1,6.1s-2.3,6.1-5.4,6.1h0ZM122,36.2c-1.3,0-2.2.9-2.2,2.8s1,2.8,2.2,2.8,2.2-.9,2.2-2.8-1-2.8-2.2-2.8Z"/>
    <path class="st0" d="M133.2,40c.2,1.4,1.1,2.2,2.6,2.2s1.8-.4,2.3-1.3l2.9,1.1c-1,1.8-2.7,3.1-5.5,3.1-4.3,0-5.9-3.3-5.9-6.1s1.9-6.1,6-6.1,5.7,3.4,5.7,5.8v1.2h-8.1ZM133.2,37.5h4.5c-.2-1-.9-1.8-2.2-1.8s-1.9.6-2.3,1.8h0Z"/>
    <path class="st0" d="M149,32.9c4.1,0,6.2,2.8,6.2,6.1s-2.1,6.1-6.2,6.1-6.2-2.8-6.2-6.1,2.1-6.1,6.2-6.1ZM149,41.8c1.6,0,2.4-1.1,2.4-2.8s-.7-2.8-2.4-2.8-2.4,1.1-2.4,2.8.7,2.8,2.4,2.8Z"/>
    <path class="st0" d="M161.1,33.1v1.4c.6-.9,1.9-1.5,3.3-1.5,2.7,0,3.9,1.4,3.9,3.9v8.1h-3.8v-7c0-1-.5-1.6-1.3-1.6-1.3,0-2.1,1.2-2.1,3.4v5.2h-3.8v-11.8h3.8Z"/>
    <path class="st0" d="M173.9,40c.2,1.4,1.1,2.2,2.6,2.2s1.8-.4,2.3-1.3l2.9,1.1c-1,1.8-2.7,3.1-5.5,3.1-4.3,0-5.9-3.3-5.9-6.1s1.9-6.1,6-6.1,5.7,3.4,5.7,5.8v1.2h-8.1ZM174,37.5h4.5c-.2-1-.9-1.8-2.2-1.8s-1.9.6-2.3,1.8h0Z"/>
    <path class="st0" d="M191.8,34.9l-2.1,1.9c-.5-.7-1.1-1-1.8-1s-.8.3-.8.7.4.7,1.4,1.1c2.3.8,3.8,1.4,3.8,3.6s-1.6,3.9-4.3,3.9-4.2-1.5-5-3.2l2.8-1.5c.4,1.1,1.1,1.8,2.2,1.8s1-.2,1-.8c0-.8-1.2-1.1-2.5-1.6-1.5-.6-2.6-1.5-2.6-3.4s1.5-3.4,4.1-3.4,3.1.8,3.9,2h0Z"/>
    <path class="st0" d="M203.9,28.5v16.4h-3.8v-11.3l-3,1.8v-4.2l4.7-2.7h2.1,0Z"/>
    <path class="st0" d="M206.1,43.1l6-7.3c.7-.8,1.1-1.7,1.1-2.5s-.6-1.7-1.6-1.7-1.7.8-1.9,2l-3.4-.7c.3-2.4,2.1-4.5,5.3-4.5s5.2,2.1,5.2,4.8-.7,2.9-1.9,4.4l-3.3,4.1h5.5v3.3h-11.1v-1.7h0Z"/>
    <path class="st0" d="M226.4,28.5h2.1v10.9c0,2.1,1.3,3.6,3.7,3.6s3.7-1.6,3.7-3.6v-10.9h2.1v10.8c0,3.7-2.6,5.8-5.7,5.8s-5.7-2-5.7-5.8v-10.8h0Z"/>
    <path class="st0" d="M252.4,28.5v16.4h-2.1v-7.7h-7.5v7.7h-2.1v-16.4h2.1v6.7h7.5v-6.7s2.1,0,2.1,0Z"/>
    <path class="st0" d="M260.1,28.5c4,0,7.5,2.9,7.5,8.2s-3.5,8.2-7.5,8.2h-4.5v-16.4h4.5ZM257.7,30.5v12.4h2.1c3,0,5.7-1.6,5.7-6.2s-2.7-6.2-5.7-6.2h-2.1Z"/>
  </g>
</svg>