<?xml version="1.0" encoding="UTF-8"?>
<svg id="Capa_1" xmlns="http://www.w3.org/2000/svg" version="1.1" viewBox="0 0 218.1 52.1">
  <!-- Generator: Adobe Illustrator 29.0.0, SVG Export Plug-In . SVG Version: 2.1.0 Build 186)  -->
  <defs>
    <style>
      .st0 {
        fill: #1ec33c;
      }

      .st1 {
        fill: #fff;
      }
    </style>
  </defs>
  <g id="uuid-546eb6d8-435f-4cb5-8246-ae638bf0ff91">
    <g>
      <rect class="st1" x="49.9" width="4.7" height="52.1"/>
      <path class="st1" d="M34.8,17.1c-1-2.2-2.5-3.6-4.5-3.8-2.2-.1-4.7,1.3-6,4.1-1.2,2.6-2.2,5.2-2.8,6.6-.6,1.4-1.5,2.2-2.8,2.4-1.6.2-3.1-1-4.1-2.7-.9-1.5-2.7-4.3-3.7-5.3-.9-.9-1.9-2-4.1-2-1.7,0-4.8.9-6.3,6.7C0,25.7-.2,28.3.3,31.5c.5,2.9,1.4,5.4,1.9,6.8.2.5.5,1,.8,1.3.7.9,1.9.8,2.3.6.5-.3,1.1-.9.9-2.3-.1-.7-.4-1.7-.6-2.3-.5-1.7-1.2-3.8-1.3-5.3,0-2,.7-2.3,1.2-2.4.9-.2,1.6.8,2.3,2,.8,1.4,2.3,4,3.4,6,1.1,1.8,3,3.7,6.1,3.5,3.2-.1,5.5-1.3,6.8-5.2.9-2.9,1.5-5,2.5-7.2,1.1-2.5,2.7-3.9,4-3.5,1.2.4,1.5,1.5,1.5,3.3,0,1.5-.2,3.2-.3,4.4,0,.4-.1,1.3-.1,1.8,0,1,.5,2,1.6,2.1,1.2.2,2.1-.8,2.5-1.9.1-.4.3-1.1.3-1.6.3-2.4.4-4.1.3-6.6-.2-2.9-.8-5.6-1.8-7.9h0Z"/>
      <g>
        <path class="st0" d="M69.9,7.7v12.8h6.7v3.6h-10.9V7.7h4.2Z"/>
        <path class="st0" d="M80.1,6.3c1.3,0,2.3,1,2.3,2.3s-1,2.3-2.3,2.3-2.3-1-2.3-2.3,1-2.3,2.3-2.3ZM82,12.3v11.8h-3.8v-11.8h3.8Z"/>
        <path class="st0" d="M91.4,12.5l2.4-1.2,1.3,2.2-1.6.8c.3.5.4,1.1.4,1.8,0,2.5-2,3.9-4.5,3.9s-1.1,0-1.5-.2c-.4.3-.4.6-.4.8,0,.4.4.7,1,.7h2.2c2.8,0,4.3,1.3,4.3,3.6s-2.7,4.2-5.5,4.2-5.5-1.3-5.5-3.9.3-1.7,1-2.3c-.4-.4-.6-1.1-.6-1.8s.5-1.8,1.5-2.4c-.6-.6-.9-1.5-.9-2.5,0-2.5,2-4,4.5-4s1.4.1,2.1.4h0ZM87.2,24.1c0,.3-.1.5-.1.7,0,.9.9,1.4,2.3,1.4s2.1-.4,2.1-1.1-.7-.9-1.6-.9h-1.6c-.4,0-.7,0-1.1,0ZM89.4,17.2c.7,0,1.2-.5,1.2-1.2s-.5-1.2-1.2-1.2-1.2.5-1.2,1.2.5,1.2,1.2,1.2Z"/>
        <path class="st0" d="M100.7,12.1c1.3,0,2.4.4,3.1,1.1v-.9h3.8v11.8h-3.8v-1c-.6.8-1.9,1.2-3,1.2-3.2,0-5.4-2.3-5.4-6.1s2.2-6.1,5.3-6.1h0ZM101.6,21c1.3,0,2.4-.9,2.4-2.8s-1.1-2.8-2.4-2.8-2.4.9-2.4,2.8,1.1,2.8,2.4,2.8Z"/>
        <path class="st0" d="M120.7,12.1c1.3,0,2.2.4,2.8,1.1v-5.7h3.8v16.6h-3.8v-1c-.6.8-1.6,1.2-2.7,1.2-3.2,0-5.3-2.3-5.3-6.1s2.1-6.1,5.2-6.1h0ZM121.5,21c1.3,0,2.2-.9,2.2-2.8s-1-2.8-2.2-2.8-2.2.9-2.2,2.8,1,2.8,2.2,2.8Z"/>
        <path class="st0" d="M132.9,19.2c.2,1.4,1.1,2.2,2.6,2.2s1.8-.4,2.3-1.3l2.9,1.1c-1,1.8-2.7,3.1-5.5,3.1-4.3,0-5.9-3.3-5.9-6.1s1.9-6.1,6-6.1,5.7,3.4,5.7,5.8v1.2h-8.1ZM133,16.7h4.5c-.2-1-.9-1.8-2.2-1.8s-1.9.6-2.3,1.8h0Z"/>
        <path class="st0" d="M76.2,34.4c-.5-1.4-1.5-2.5-3.4-2.5s-3.8,1.6-3.8,4.8,1.8,4.8,3.8,4.8,2.9-1.1,3.4-2.5l3.7,1c-.9,3.4-3.5,5.1-7,5.1s-8-2.9-8-8.4,3.7-8.4,8-8.4,6.3,1.9,7.1,5l-3.7,1.1Z"/>
        <path class="st0" d="M86.4,32.9c1.3,0,2.4.4,3.1,1.1v-.9h3.8v11.8h-3.8v-1c-.6.8-1.9,1.2-3,1.2-3.2,0-5.4-2.3-5.4-6.1s2.2-6.1,5.3-6.1h0ZM87.3,41.8c1.3,0,2.4-.9,2.4-2.8s-1.1-2.8-2.4-2.8-2.4.9-2.4,2.8,1.1,2.8,2.4,2.8Z"/>
        <path class="st0" d="M102.9,44.9v-7.2c0-1-.4-1.6-1.2-1.6s-2.1,1.1-2.1,4.2v4.6h-3.6v-11.8h3.6v1.4c.7-.9,1.6-1.6,3.1-1.6s2.7.7,3.3,2c.6-1,1.7-2,3.6-2s3.8,1.4,3.8,3.6v8.4h-3.6v-7.2c0-1-.4-1.6-1.2-1.6s-2.1,1.1-2.1,4.1v4.7h-3.6,0Z"/>
        <path class="st0" d="M122.3,45c-1.1,0-2-.3-2.6-.9v5.5h-3.8v-16.6h3.8v1c.7-.7,1.6-1.2,2.9-1.2,3,0,5.1,2.3,5.1,6.1s-2.3,6.1-5.4,6.1h0ZM121.7,36.2c-1.3,0-2.2.9-2.2,2.8s1,2.8,2.2,2.8,2.2-.9,2.2-2.8-1-2.8-2.2-2.8Z"/>
        <path class="st0" d="M132.9,40c.2,1.4,1.1,2.2,2.6,2.2s1.8-.4,2.3-1.3l2.9,1.1c-1,1.8-2.7,3.1-5.5,3.1-4.3,0-5.9-3.3-5.9-6.1s1.9-6.1,6-6.1,5.7,3.4,5.7,5.8v1.2h-8.1ZM132.9,37.5h4.5c-.2-1-.9-1.8-2.2-1.8s-1.9.6-2.3,1.8h0Z"/>
        <path class="st0" d="M148.7,32.9c4.1,0,6.2,2.8,6.2,6.1s-2.1,6.1-6.2,6.1-6.2-2.8-6.2-6.1,2.1-6.1,6.2-6.1ZM148.7,41.8c1.6,0,2.4-1.1,2.4-2.8s-.7-2.8-2.4-2.8-2.4,1.1-2.4,2.8.7,2.8,2.4,2.8Z"/>
        <path class="st0" d="M160.8,33.1v1.4c.6-.9,1.9-1.5,3.3-1.5,2.7,0,3.9,1.4,3.9,3.9v8.1h-3.8v-7c0-1-.5-1.6-1.3-1.6-1.3,0-2.1,1.2-2.1,3.4v5.2h-3.8v-11.8h3.8Z"/>
        <path class="st0" d="M173.6,40c.2,1.4,1.1,2.2,2.6,2.2s1.8-.4,2.3-1.3l2.9,1.1c-1,1.8-2.7,3.1-5.5,3.1-4.3,0-5.9-3.3-5.9-6.1s1.9-6.1,6-6.1,5.7,3.4,5.7,5.8v1.2h-8.1ZM173.7,37.5h4.5c-.2-1-.9-1.8-2.2-1.8s-1.9.6-2.3,1.8h0Z"/>
        <path class="st0" d="M191.5,34.9l-2.1,1.9c-.5-.7-1.1-1-1.8-1s-.8.3-.8.7.4.7,1.4,1.1c2.3.8,3.8,1.4,3.8,3.6s-1.6,3.9-4.3,3.9-4.2-1.5-5-3.2l2.8-1.5c.4,1.1,1.1,1.8,2.2,1.8s1-.2,1-.8c0-.8-1.2-1.1-2.5-1.6-1.4-.6-2.6-1.5-2.6-3.4s1.5-3.4,4.1-3.4,3.1.8,3.9,2h0Z"/>
        <path class="st0" d="M203.6,28.5v16.4h-3.8v-11.3l-3,1.8v-4.2l4.7-2.7h2.1,0Z"/>
        <path class="st0" d="M212.7,42.2h-7v-2l6.8-11.7h3.6v10.5h1.9v3.2h-1.9v2.7h-3.5v-2.7h0ZM212.7,39v-5.1l-2.9,5.1h2.9Z"/>
      </g>
    </g>
  </g>
</svg>