<?xml version="1.0" encoding="UTF-8"?>
<svg id="uuid-bf6f4938-36f8-4a21-aad8-f6b96e7c82f8" xmlns="http://www.w3.org/2000/svg" version="1.1" viewBox="0 0 89.7 75">
  <!-- Generator: Adobe Illustrator 29.0.0, SVG Export Plug-In . SVG Version: 2.1.0 Build 186)  -->
  <defs>
    <style>
      .st0 {
        fill: #019df4;
      }
    </style>
  </defs>
  <g>
    <path class="st0" d="M0,2.6h8.3l6.3,17L21,2.6h8.3v31h-7.1v-15.9l-4.8,13.1h-5.6l-4.8-13.1v15.9H0V2.6h0Z"/>
    <path class="st0" d="M38.4,0c2.5,0,4.3,1.9,4.3,4.3s-1.9,4.3-4.3,4.3-4.3-1.9-4.3-4.3S35.9,0,38.4,0ZM42.1,11.3v22.3h-7.3V11.3h7.3Z"/>
    <path class="st0" d="M66.6,11.3l-6.6,10.4,7.4,11.9h-7.9l-3.5-5.9-3.5,5.9h-7.9l7.4-11.9-6.6-10.4h7.7l2.7,4.5,2.7-4.5h7.7Z"/>
  </g>
  <g>
    <path d="M36.7,51.2c-1.7,0-4.8.9-6.2,6.7-.6,2.5-.9,5.2-.3,8.3.5,2.9,1.4,5.4,1.9,6.8.2.5.5,1,.8,1.3.7.9,1.9.8,2.3.6.5-.3,1.1-.9.9-2.3-.1-.7-.4-1.7-.6-2.3-.5-1.7-1.2-3.8-1.3-5.3,0-2,.7-2.3,1.2-2.4.9-.2,1.6.8,2.3,2,.8,1.4,2.3,4,3.4,5.9,1.1,1.8,3,3.6,6.1,3.5,3.2-.1,5.5-1.3,6.7-5.2.9-2.9,1.5-5,2.5-7.2,1.1-2.5,2.7-3.9,3.9-3.4,1.2.4,1.5,1.5,1.5,3.2,0,1.5-.2,3.2-.3,4.4,0,.4-.1,1.3-.1,1.8,0,1,.5,1.9,1.6,2.1,1.2.2,2.1-.8,2.5-1.9.1-.4.3-1.1.3-1.6.3-2.4.4-4.1.3-6.6-.2-2.9-.8-5.6-1.7-7.9-1-2.2-2.5-3.6-4.5-3.7-2.2-.1-4.7,1.3-6,4.1-1.2,2.6-2.2,5.2-2.8,6.6-.6,1.4-1.5,2.2-2.8,2.4-1.6.2-3.1-1-4.1-2.7-.9-1.5-2.7-4.3-3.6-5.2-.9-.9-1.9-2-4.1-2"/>
    <rect x="78.1" y="2.2" width="5.1" height="31.5"/>
    <polygon points="89.7 58.6 83.3 58.6 83.3 52.2 78.1 52.2 78.1 58.6 71.8 58.6 71.8 63.8 78.1 63.8 78.1 70.1 83.3 70.1 83.3 63.8 89.7 63.8 89.7 58.6"/>
  </g>
</svg>