<?xml version="1.0" encoding="UTF-8"?>
<svg id="Capa_1" xmlns="http://www.w3.org/2000/svg" version="1.1" viewBox="0 0 126.2 75">
  <!-- Generator: Adobe Illustrator 29.0.0, SVG Export Plug-In . SVG Version: 2.1.0 Build 186)  -->
  <defs>
    <style>
      .st0 {
        fill: #fff;
      }

      .st1 {
        fill: #019df4;
      }
    </style>
  </defs>
  <g id="uuid-22f12fda-aec1-44d5-855c-f8a71a7764b5">
    <g>
      <g>
        <path class="st1" d="M0,2.6h8.3l6.3,17L21,2.6h8.3v31h-7.1v-15.9l-4.8,13.1h-5.6l-4.8-13.1v15.9H0V2.6h0Z"/>
        <path class="st1" d="M38.4,0c2.5,0,4.3,1.9,4.3,4.3s-1.9,4.3-4.3,4.3-4.3-1.9-4.3-4.3,1.9-4.3,4.3-4.3ZM42.1,11.3v22.3h-7.3V11.3s7.3,0,7.3,0Z"/>
        <path class="st1" d="M66.6,11.3l-6.6,10.4,7.4,11.9h-7.9l-3.5-5.9-3.5,5.9h-7.9l7.4-11.9-6.6-10.4h7.7l2.7,4.5,2.7-4.5h7.7Z"/>
        <path class="st1" d="M81,30.3l11.3-13.9c1.2-1.5,2.1-3.1,2.1-4.8s-1.2-3.2-3.1-3.2-3.2,1.5-3.5,3.7l-6.5-1.3c.6-4.5,3.9-8.6,10.1-8.6s9.9,3.9,9.9,9.2-1.4,5.5-3.5,8.2l-6.2,7.7h10.4v6.2h-20.9v-3.3h0Z"/>
      </g>
      <g>
        <g>
          <path class="st0" d="M29.7,70.2c-1.1,0-2.2-.6-2.7-1.2v5.6h-2.8v-15.9h2.8v1.2c.3-.6,1.3-1.3,2.7-1.3,3.4,0,5.2,2.4,5.2,5.8s-1.8,5.8-5.2,5.8ZM29.4,60.9c-1.5,0-2.6,1.2-2.6,3.5s1.1,3.5,2.6,3.5,2.6-1.2,2.6-3.5-1.2-3.5-2.6-3.5Z"/>
          <path class="st0" d="M42.5,58.5c3.6,0,5.8,2.6,5.8,5.8s-2.1,5.8-5.8,5.8-5.8-2.6-5.8-5.8,2.1-5.8,5.8-5.8ZM42.5,67.8c1.8,0,2.8-1.6,2.8-3.5s-1-3.5-2.8-3.5-2.8,1.6-2.8,3.5,1,3.5,2.8,3.5Z"/>
          <path class="st0" d="M50.3,70v-11.3h2.8v1.8c.8-1.3,2.1-2,3.4-2s.6,0,.9,0v2.7c-.3-.2-.7-.3-1.2-.3-1.6,0-3,1.3-3,5v4h-2.8Z"/>
        </g>
        <path class="st0" d="M73.3,51.2c-1.7,0-4.8.9-6.2,6.7-.6,2.5-.9,5.2-.3,8.3.5,2.9,1.4,5.4,1.9,6.8.2.5.5,1,.8,1.3.7.9,1.9.8,2.3.6.5-.3,1.1-.9.9-2.3-.1-.7-.4-1.7-.6-2.3-.5-1.7-1.2-3.8-1.3-5.3,0-2,.7-2.3,1.2-2.4.9-.2,1.6.8,2.3,2,.8,1.4,2.3,4,3.4,5.9,1.1,1.8,3,3.6,6.1,3.5,3.2-.1,5.5-1.3,6.7-5.2.9-2.9,1.5-5,2.5-7.2,1.1-2.5,2.7-3.9,3.9-3.4,1.2.4,1.5,1.5,1.5,3.2,0,1.5-.2,3.2-.3,4.4,0,.4-.1,1.3-.1,1.8,0,1,.5,1.9,1.6,2.1,1.2.2,2.1-.8,2.5-1.9.1-.4.3-1.1.3-1.6.3-2.4.4-4.1.3-6.6-.2-2.9-.8-5.6-1.7-7.9-1-2.2-2.5-3.6-4.5-3.7-2.2-.1-4.7,1.3-6,4.1-1.2,2.6-2.2,5.2-2.8,6.6-.6,1.4-1.5,2.2-2.8,2.4-1.6.2-3.1-1-4.1-2.7-.9-1.5-2.7-4.3-3.6-5.2-.9-.9-1.9-2-4.1-2"/>
        <rect class="st0" x="114.7" y="2.2" width="5.1" height="31.5"/>
        <polygon class="st0" points="126.2 58.6 119.8 58.6 119.8 52.2 114.7 52.2 114.7 58.6 108.3 58.6 108.3 63.8 114.7 63.8 114.7 70.1 119.8 70.1 119.8 63.8 126.2 63.8 126.2 58.6"/>
      </g>
    </g>
  </g>
</svg>