<?xml version="1.0" encoding="UTF-8"?>
<svg id="uuid-baf3d54e-16ef-4acd-b057-ca23a44768a4" xmlns="http://www.w3.org/2000/svg" version="1.1" viewBox="0 0 161.2 74.5">
  <!-- Generator: Adobe Illustrator 29.0.0, SVG Export Plug-In . SVG Version: 2.1.0 Build 186)  -->
  <defs>
    <style>
      .st0 {
        fill: #f0377d;
      }
    </style>
  </defs>
  <g>
    <path d="M65.4,69.7c-1.1,0-2.2-.6-2.7-1.2v5.6h-2.8v-15.8h2.8v1.2c.3-.6,1.3-1.3,2.7-1.3,3.4,0,5.1,2.3,5.1,5.8s-1.7,5.8-5.1,5.8h0ZM65,60.5c-1.5,0-2.6,1.2-2.6,3.4s1.1,3.4,2.6,3.4,2.6-1.2,2.6-3.4-1.2-3.4-2.6-3.4Z"/>
    <path d="M78.1,58.1c3.6,0,5.7,2.5,5.7,5.8s-2.1,5.8-5.7,5.8-5.7-2.5-5.7-5.8,2.1-5.8,5.7-5.8ZM78.1,67.3c1.8,0,2.8-1.6,2.8-3.4s-1-3.4-2.8-3.4-2.8,1.6-2.8,3.4,1,3.4,2.8,3.4Z"/>
    <path d="M85.8,69.5v-11.3h2.8v1.8c.8-1.3,2.1-2,3.3-2s.6,0,.8,0v2.7c-.3-.2-.7-.3-1.2-.3-1.6,0-3,1.3-3,5v4h-2.8Z"/>
  </g>
  <g>
    <path class="st0" d="M0,2.6h8.3l6.3,16.9L20.8,2.6h8.3v30.8h-7v-15.8l-4.7,13h-5.5l-4.7-13v15.8H0V2.6h0Z"/>
    <path class="st0" d="M47.7,33.4v-2.5c-1.2,1.6-3.3,2.9-6.3,2.9-4.8,0-7.4-2.7-7.4-8v-14.5h7.2v12.9c0,2.1.9,3.2,2.5,3.2,2.4,0,4-2.2,4-6.4v-9.7h7.2v22.2h-7.2ZM43.6,2.2h9.1l-6.7,7h-5.2l2.8-7Z"/>
    <path class="st0" d="M74.6,14.5l-3.9,3.6c-1-1.3-2.2-1.9-3.3-1.9s-1.5.5-1.5,1.2.7,1.4,2.6,2.1c4.3,1.5,7.1,2.5,7.1,6.8s-3,7.4-8.1,7.4-7.8-2.8-9.4-6l5.3-2.9c.7,2.1,2,3.4,4,3.4s1.9-.4,1.9-1.5c0-1.6-2.3-2-4.8-3-2.7-1.1-4.9-2.9-4.9-6.4s2.9-6.5,7.6-6.5,5.8,1.5,7.3,3.7h0Z"/>
    <path class="st0" d="M82.5,0c2.5,0,4.3,1.9,4.3,4.3s-1.8,4.3-4.3,4.3-4.3-1.9-4.3-4.3,1.8-4.3,4.3-4.3ZM86.1,11.2v22.2h-7.2V11.2h7.2Z"/>
    <path class="st0" d="M111.7,27.3c-2,4.4-5.5,6.5-10.7,6.5s-11.5-5.2-11.5-11.4,4.2-11.4,11.5-11.4,8.9,2.1,10.6,6.5l-6.4,2.6c-.7-1.8-1.9-3-4-3s-4.2,2.2-4.2,5.3,1.3,5.3,4.3,5.3,3.2-1.1,4.2-2.9l6.2,2.6Z"/>
    <path class="st0" d="M124.1,10.9c2.5,0,4.6.7,5.8,2.1v-1.8h7.2v22.2h-7.2v-1.9c-1.2,1.5-3.5,2.2-5.7,2.2-6,0-10.1-4.4-10.1-11.4s4-11.4,9.9-11.4ZM125.7,27.6c2.4,0,4.5-1.6,4.5-5.3s-2.2-5.3-4.5-5.3-4.5,1.6-4.5,5.3,2.2,5.3,4.5,5.3Z"/>
  </g>
  <path d="M108.6,50.8c-1.7,0-4.8.9-6.2,6.6-.6,2.5-.9,5.1-.3,8.3.5,2.9,1.3,5.4,1.9,6.7.2.5.5,1,.8,1.3.7.9,1.8.8,2.3.6.5-.3,1.1-.9.9-2.3-.1-.7-.4-1.7-.6-2.3-.5-1.7-1.2-3.8-1.3-5.3,0-2,.7-2.2,1.2-2.3.9-.2,1.6.8,2.3,2,.8,1.4,2.2,4,3.4,5.9,1,1.7,3,3.6,6.1,3.5,3.2-.1,5.5-1.3,6.7-5.1.9-2.8,1.5-5,2.5-7.1,1.1-2.5,2.6-3.8,3.9-3.4,1.2.4,1.5,1.5,1.5,3.2,0,1.5-.2,3.2-.3,4.4,0,.4-.1,1.3-.1,1.8,0,1,.5,1.9,1.6,2.1,1.2.2,2.1-.8,2.5-1.9.1-.4.3-1.1.3-1.6.3-2.4.4-4.1.3-6.5-.2-2.9-.7-5.5-1.7-7.8-.9-2.2-2.5-3.6-4.4-3.7-2.2-.1-4.6,1.3-5.9,4.1-1.2,2.6-2.2,5.2-2.7,6.5-.6,1.4-1.5,2.2-2.8,2.3-1.6.2-3-1-4.1-2.7-.9-1.5-2.7-4.3-3.6-5.2-.9-.9-1.9-2-4-2"/>
  <rect x="149.7" y="2.2" width="5.1" height="31.3"/>
  <polygon points="161.2 58.2 154.8 58.2 154.8 51.9 149.7 51.9 149.7 58.2 143.4 58.2 143.4 63.3 149.7 63.3 149.7 69.6 154.8 69.6 154.8 63.3 161.2 63.3 161.2 58.2"/>
</svg>