<?xml version="1.0" encoding="UTF-8"?>
<svg id="Capa_1" xmlns="http://www.w3.org/2000/svg" version="1.1" viewBox="0 0 226.8 74.5">
  <!-- Generator: Adobe Illustrator 29.0.0, SVG Export Plug-In . SVG Version: 2.1.0 Build 186)  -->
  <defs>
    <style>
      .st0 {
        fill: #fff;
      }

      .st1 {
        fill: #019df4;
      }
    </style>
  </defs>
  <g id="uuid-e6cc6d13-c608-4ad3-806c-4c25917ae55b">
    <g>
      <g>
        <path class="st0" d="M131,69.7c-1.1,0-2.2-.6-2.7-1.2v5.6h-2.8v-15.8h2.8v1.2c.3-.6,1.3-1.3,2.7-1.3,3.4,0,5.1,2.3,5.1,5.8s-1.7,5.8-5.1,5.8h0ZM130.6,60.5c-1.5,0-2.6,1.2-2.6,3.4s1.1,3.4,2.6,3.4,2.6-1.2,2.6-3.4-1.2-3.4-2.6-3.4Z"/>
        <path class="st0" d="M143.7,58.1c3.6,0,5.7,2.5,5.7,5.8s-2.1,5.8-5.7,5.8-5.7-2.5-5.7-5.8,2.1-5.8,5.7-5.8ZM143.7,67.3c1.8,0,2.8-1.6,2.8-3.4s-1-3.4-2.8-3.4-2.8,1.6-2.8,3.4,1,3.4,2.8,3.4Z"/>
        <path class="st0" d="M151.4,69.5v-11.3h2.8v1.8c.8-1.3,2.1-2,3.3-2s.6,0,.8,0v2.7c-.3-.2-.7-.3-1.2-.3-1.6,0-3,1.3-3,5v4h-2.8Z"/>
      </g>
      <g>
        <path class="st1" d="M30.2,18c0,10.7-7.3,15.7-15.1,15.7S0,28.7,0,18,7.3,2.2,15.1,2.2s15.1,5.1,15.1,15.7ZM7.8,18c0,6.2,3.3,9.1,7.3,9.1s7.3-2.8,7.3-9.1-3.3-9.1-7.3-9.1-7.3,2.8-7.3,9.1Z"/>
        <path class="st1" d="M34.5,33.4V11.2h7.2v2.4c1.1-1.7,3.6-2.8,6.2-2.8s1.5.1,1.9.3v6.9c-.7-.4-1.9-.6-2.8-.6-2.5,0-5.2,2.2-5.2,8.1v7.9h-7.2Z"/>
        <path class="st1" d="M56.9,0c2.5,0,4.3,1.9,4.3,4.3s-1.8,4.3-4.3,4.3-4.3-1.9-4.3-4.3,1.8-4.3,4.3-4.3ZM60.5,11.2v22.2h-7.2V11.2h7.2Z"/>
        <path class="st1" d="M78.2,11.6l4.4-2.3,2.4,4.1-3.1,1.6c.5,1,.8,2.1.8,3.4,0,4.7-3.8,7.4-8.5,7.4s-2-.1-2.9-.4c-.7.5-.8,1.1-.8,1.5,0,.8.7,1.3,1.9,1.3h4.1c5.3,0,8.1,2.5,8.1,6.7s-5.1,7.9-10.4,7.9-10.4-2.5-10.4-7.3.6-3.1,1.8-4.4c-.7-.8-1.1-2-1.1-3.5s.9-3.5,2.9-4.6c-1.1-1.2-1.7-2.8-1.7-4.7,0-4.6,3.8-7.5,8.4-7.5s2.7.3,3.9.7h0ZM70.2,33.4c-.2.5-.3.9-.3,1.4,0,1.6,1.7,2.6,4.4,2.6s4-.7,4-2.2-1.2-1.7-2.9-1.7h-3.1c-.7,0-1.3,0-2.1-.2ZM74.3,20.5c1.3,0,2.2-.9,2.2-2.2s-.9-2.3-2.2-2.3-2.2,1-2.2,2.3.9,2.2,2.2,2.2Z"/>
        <path class="st1" d="M91.3,0c2.5,0,4.3,1.9,4.3,4.3s-1.8,4.3-4.3,4.3-4.3-1.9-4.3-4.3,1.8-4.3,4.3-4.3ZM94.9,11.2v22.2h-7.2V11.2h7.2Z"/>
        <path class="st1" d="M107.2,11.2v2.5c1.2-1.7,3.6-2.9,6.3-2.9,5.1,0,7.4,2.7,7.4,7.3v15.2h-7.2v-13.1c0-1.9-.9-3-2.5-3-2.4,0-4,2.2-4,6.4v9.7h-7.2V11.2h7.2Z"/>
        <path class="st1" d="M134.1,10.9c2.5,0,4.6.7,5.8,2.1v-1.8h7.2v22.2h-7.2v-1.9c-1.2,1.5-3.5,2.2-5.7,2.2-6,0-10.1-4.4-10.1-11.4s4-11.4,9.9-11.4h0ZM135.7,27.6c2.4,0,4.5-1.6,4.5-5.3s-2.2-5.3-4.5-5.3-4.5,1.6-4.5,5.3,2.2,5.3,4.5,5.3Z"/>
        <path class="st1" d="M159,2.2v31.1h-7.2V2.2s7.2,0,7.2,0Z"/>
        <path class="st1" d="M169.4,24.1c.4,2.6,2.1,4,4.9,4s3.3-.7,4.4-2.4l5.5,2c-1.8,3.4-5,5.9-10.4,5.9-8,0-11.2-6.2-11.2-11.4s3.6-11.4,11.3-11.4,10.8,6.3,10.8,11v2.3h-15.3ZM169.6,19.5h8.5c-.3-1.9-1.8-3.4-4.2-3.4s-3.6,1.1-4.3,3.4Z"/>
        <path class="st1" d="M203.2,14.5l-3.9,3.6c-1-1.3-2.2-1.9-3.3-1.9s-1.5.5-1.5,1.2.7,1.4,2.6,2.1c4.3,1.5,7.1,2.5,7.1,6.8s-3,7.4-8.1,7.4-7.8-2.8-9.4-6l5.3-2.9c.7,2.1,2,3.4,4,3.4s1.9-.4,1.9-1.5c0-1.6-2.3-2-4.8-3-2.7-1.1-4.9-2.9-4.9-6.4s2.9-6.5,7.6-6.5,5.8,1.5,7.3,3.7h0Z"/>
      </g>
      <path class="st0" d="M174.3,50.8c-1.7,0-4.8.9-6.2,6.6-.6,2.5-.9,5.1-.3,8.3.5,2.9,1.3,5.4,1.9,6.7.2.5.5,1,.8,1.3.7.9,1.8.8,2.3.6.5-.3,1.1-.9.9-2.3-.1-.7-.4-1.7-.6-2.3-.5-1.7-1.2-3.8-1.3-5.3,0-2,.7-2.2,1.2-2.3.9-.2,1.6.8,2.3,2,.8,1.4,2.2,4,3.4,5.9,1,1.7,3,3.6,6.1,3.5,3.2-.1,5.5-1.3,6.7-5.1.9-2.8,1.5-5,2.5-7.1,1.1-2.5,2.6-3.8,3.9-3.4,1.2.4,1.5,1.5,1.5,3.2,0,1.5-.2,3.2-.3,4.4,0,.4-.1,1.3,0,1.8,0,1,.5,1.9,1.6,2.1,1.2.2,2.1-.8,2.5-1.9.1-.4.3-1.1.3-1.6.3-2.4.4-4.1.3-6.5-.2-2.9-.7-5.5-1.7-7.8-.9-2.2-2.5-3.6-4.4-3.7-2.2-.1-4.6,1.3-5.9,4.1-1.2,2.6-2.2,5.2-2.7,6.5-.6,1.4-1.5,2.2-2.8,2.3-1.6.2-3-1-4.1-2.7-.9-1.5-2.7-4.3-3.6-5.2-.9-.9-1.9-2-4-2"/>
      <rect class="st0" x="215.4" y="2.2" width="5.1" height="31.3"/>
      <polygon class="st0" points="226.8 58.2 220.5 58.2 220.5 51.9 215.4 51.9 215.4 58.2 209 58.2 209 63.3 215.4 63.3 215.4 69.6 220.5 69.6 220.5 63.3 226.8 63.3 226.8 58.2"/>
    </g>
  </g>
</svg>