<?xml version="1.0" encoding="UTF-8"?>
<svg id="Capa_1" xmlns="http://www.w3.org/2000/svg" version="1.1" viewBox="0 0 250.7 79">
  <!-- Generator: Adobe Illustrator 29.0.0, SVG Export Plug-In . SVG Version: 2.1.0 Build 186)  -->
  <defs>
    <style>
      .st0 {
        fill: #fa3732;
      }

      .st1 {
        fill: #fff;
      }
    </style>
  </defs>
  <g id="uuid-1f8711b8-95af-486e-9278-f277b0a3f2ee">
    <g>
      <g>
        <g>
          <path class="st1" d="M155,74.2c-1.1,0-2.2-.6-2.7-1.2v5.6h-2.8v-15.8h2.8v1.2c.3-.6,1.3-1.3,2.7-1.3,3.4,0,5.1,2.3,5.1,5.8s-1.7,5.8-5.1,5.8h0ZM154.6,65c-1.5,0-2.6,1.2-2.6,3.4s1.1,3.4,2.6,3.4,2.6-1.2,2.6-3.4-1.2-3.4-2.6-3.4Z"/>
          <path class="st1" d="M167.6,62.6c3.6,0,5.7,2.5,5.7,5.8s-2.1,5.8-5.7,5.8-5.7-2.5-5.7-5.8,2.1-5.8,5.7-5.8ZM167.6,71.9c1.8,0,2.8-1.6,2.8-3.4s-1-3.4-2.8-3.4-2.8,1.6-2.8,3.4,1,3.4,2.8,3.4Z"/>
          <path class="st1" d="M175.4,74.1v-11.3h2.8v1.8c.8-1.3,2.1-2,3.3-2s.6,0,.8,0v2.7c-.3-.2-.7-.3-1.2-.3-1.6,0-3,1.3-3,5v4h-2.8Z"/>
        </g>
        <path class="st1" d="M198.2,55.4c-1.7,0-4.8.9-6.2,6.6-.6,2.5-.9,5.1-.3,8.3.5,2.9,1.3,5.4,1.9,6.7.2.5.5,1,.8,1.3.7.9,1.8.8,2.3.6.5-.3,1.1-.9.9-2.3-.1-.7-.4-1.7-.6-2.3-.5-1.7-1.2-3.8-1.3-5.3,0-2,.7-2.2,1.2-2.3.9-.2,1.6.8,2.3,2,.8,1.4,2.2,4,3.4,5.9,1,1.7,3,3.6,6.1,3.5,3.2-.1,5.5-1.3,6.7-5.1.9-2.8,1.5-5,2.5-7.1,1.1-2.5,2.6-3.8,3.9-3.4,1.2.4,1.5,1.5,1.5,3.2,0,1.5-.2,3.2-.3,4.4,0,.4-.1,1.3-.1,1.8,0,1,.5,1.9,1.6,2.1,1.2.2,2.1-.8,2.5-1.9.1-.4.3-1.1.3-1.6.3-2.4.4-4.1.3-6.5-.2-2.9-.7-5.5-1.7-7.8-.9-2.2-2.5-3.6-4.4-3.7-2.2-.1-4.6,1.3-5.9,4.1-1.2,2.6-2.2,5.2-2.7,6.5-.6,1.4-1.5,2.2-2.8,2.3-1.6.2-3-1-4.1-2.7-.9-1.5-2.7-4.3-3.6-5.2-.9-.9-1.9-2-4-2"/>
        <rect class="st1" x="239.3" y="6.7" width="5.1" height="31.3"/>
        <polygon class="st1" points="250.7 62.7 244.4 62.7 244.4 56.4 239.3 56.4 239.3 62.7 233 62.7 233 67.8 239.3 67.8 239.3 74.2 244.4 74.2 244.4 67.8 250.7 67.8 250.7 62.7"/>
      </g>
      <g>
        <path class="st0" d="M9.7,31.1c0-5.5,7.8-18.8,7.8-25.4s-.3-1-1-1c-2.8,0-8.7,4.9-8.7,10.2s1.4,4.3,1.4,5-.3.6-.9.6c-2.7,0-8.3-2.7-8.3-7.4C0,5.3,10.5,0,18.5,0s6.9,2.3,6.9,6c0,7.2-7,21.2-7,25.1s.5,1.2,1.1,1.2c4.6,0,15.9-17.6,15.9-30.3s.3-1,.9-1c1.8,0,6.8,3.1,6.8,5.5,0,9.2-16.4,31.3-25.4,31.3s-8-2.7-8-6.7h0Z"/>
        <path class="st0" d="M56.1,37.8c-4.6,0-6.4-3.2-6.8-3.2-.7,0-3.6,3.2-8.7,3.2s-4.7-1.9-4.7-5.1c0-7.3,7.5-15.3,16.7-15.3s8.4,2.8,8.4,4.1-4.4,6.1-4.4,13,.4,1.9.4,2.5-.3.7-.8.7h0ZM44.1,31.4c0,.6.3,1,1,1,3,0,7.7-9.2,7.7-10.5s-.2-.7-.7-.7c-3.4,0-8,6.5-8,10.2h0Z"/>
        <path class="st0" d="M68.2,38.1c-5,0-7.6-2.7-7.6-6.8,0-6.5,8-13.9,15.4-13.9s6.4,1.9,6.4,4.3-4,5.7-7.2,5.7-.9-.3-.9-.6c0-.5.3-.8,1-1.8.6-.8,1.4-2.1,1.4-3.1s-.3-1-1-1c-2.5,0-5.6,5.1-5.6,8.5s1.1,3.2,3.1,3.2c3.7,0,5.3-2.6,6.2-2.6s.8.5.8,1c0,1-4,7.1-12,7.1h0Z"/>
        <path class="st0" d="M102.6,37.8c-4.6,0-6.4-3.2-6.8-3.2-.7,0-3.6,3.2-8.7,3.2s-4.7-1.9-4.7-5.1c0-7.3,7.5-15.3,16.7-15.3s8.4,2.8,8.4,4.1-4.4,6.1-4.4,13,.4,1.9.4,2.5-.3.7-.8.7h0ZM90.7,31.4c0,.6.3,1,1,1,3,0,7.7-9.2,7.7-10.5s-.2-.7-.7-.7c-3.4,0-8,6.5-8,10.2h0Z"/>
        <path class="st0" d="M114.7,38.1c-5,0-7.6-2.7-7.6-6.8,0-6.5,8-13.9,15.4-13.9s6.4,1.9,6.4,4.3-4,5.7-7.2,5.7-.9-.3-.9-.6c0-.5.3-.8,1-1.8.6-.8,1.4-2.1,1.4-3.1s-.3-1-1-1c-2.5,0-5.6,5.1-5.6,8.5s1.1,3.2,3.1,3.2c3.7,0,5.3-2.6,6.2-2.6s.8.5.8,1c0,1-4,7.1-12,7.1h0Z"/>
        <path class="st0" d="M135.3,36.4c0,.8-.2,1.4-1.1,1.4-2.7,0-6.3-.7-6.3-2.7,0-4.1,5.6-12.2,5.6-16.7s.5-1,1.6-1c3.4,0,5.5,2.5,5.5,4.1,0,3.3-5.3,10.6-5.3,14.9h0ZM141.9,6.2c2,0,3.6,1.3,3.6,3.4s-2.2,5.6-4.8,5.6-3.7-1.3-3.7-3.3c0-2.9,2.2-5.6,5-5.6h0Z"/>
        <path class="st0" d="M155.8,17.3c5.6,0,8.8,2.7,8.8,6.6,0,6.8-6.8,13.8-15.8,13.8s-7.9-2.1-7.9-6.2,4-7.9,5.3-8.7c0-.3,0-.5,0-.7,0-2.5,4.6-4.8,9.7-4.8h0ZM150.2,33.7c3.1,0,6.6-7.4,6.6-10.8s-.5-1.9-1.6-1.9c-1.5,0-3.3,1.7-3.3,3.7s.5,1.8.5,2.3-.3.7-.8.7c-.7,0-1.5-.4-2.3-1-.5,1.1-.8,2.5-.8,4.1s.7,2.9,1.8,2.9h0Z"/>
        <path class="st0" d="M180.6,22.2c-.8,0-2.7,1.2-4.4,3.8-2,3.1-4.3,8-4.3,10.5s-.2,1.4-1.1,1.4c-2.7,0-6.3-.7-6.3-2.7,0-4.1,5.1-12.2,5.1-16.7s.5-1,1.6-1c5,0,5.3,4.1,5.5,4.1s4-4.1,9.1-4.1,4.3,1.5,4.3,3.7c0,3.8-4.6,8.9-4.6,14.3s1.8,5,5.3,5,2.5-.6,3-.6.7.3.7.7c0,1.1-3.6,4.9-9.6,4.9s-8.5-3.1-8.5-7.7c0-6.6,5.1-12.4,5.1-14.6s-.3-.9-.9-.9h0Z"/>
        <path class="st0" d="M208.4,30.1c.5,0,.9.5.9,1,0,1-3.2,6.9-12.1,6.9s-7.1-2.3-7.1-6.4c0-7,7.6-14.1,15.4-14.1s6,2.3,6,4.5c0,4.4-7.1,8-12.2,8.9.3,1.2,1.2,1.9,2.9,1.9,3.8,0,5.3-2.6,6.2-2.6h0ZM199.4,27.6c3.7-1,6.7-3.7,6.7-5.4s-.4-1-1-1c-1.8,0-4.9,2.9-5.8,6.4h0Z"/>
        <path class="st0" d="M227.1,25.4c-.6,0-.7-.3-.9-1.1-.3-1.2-1-2.5-2.3-2.5s-1.3.5-1.3,1.2c0,2.9,6.6,3.8,6.6,8.1s-3.3,6.7-9.9,6.7-8.8-3-8.8-4.5,3.3-4.1,5.3-4.1,1,.3,1.1.8c.4,1.9,1.7,3.3,2.9,3.3s1.2-.5,1.2-1.1c0-3.6-6.9-4.1-6.9-8.4s4.6-6.3,10.3-6.3,7.3,2.3,7.3,4.2-3.2,3.8-4.6,3.8h0Z"/>
      </g>
    </g>
  </g>
</svg>