<?xml version="1.0" encoding="UTF-8"?>
<svg id="uuid-4c2a5213-f66b-47b6-a310-d34220310e48" xmlns="http://www.w3.org/2000/svg" version="1.1" viewBox="0 0 144.9 75">
  <!-- Generator: Adobe Illustrator 29.0.0, SVG Export Plug-In . SVG Version: 2.1.0 Build 186)  -->
  <defs>
    <style>
      .st0 {
        fill: #fa730a;
      }
    </style>
  </defs>
  <g>
    <path d="M48.5,70.2c-1.1,0-2.2-.6-2.7-1.2v5.6h-2.8v-15.9h2.8v1.2c.3-.6,1.3-1.3,2.7-1.3,3.4,0,5.2,2.4,5.2,5.8s-1.8,5.8-5.2,5.8h0ZM48.1,60.9c-1.5,0-2.6,1.2-2.6,3.5s1.1,3.5,2.6,3.5,2.6-1.2,2.6-3.5-1.2-3.5-2.6-3.5Z"/>
    <path d="M61.3,58.5c3.6,0,5.8,2.6,5.8,5.8s-2.1,5.8-5.8,5.8-5.8-2.6-5.8-5.8,2.1-5.8,5.8-5.8ZM61.3,67.8c1.8,0,2.8-1.6,2.8-3.5s-1-3.5-2.8-3.5-2.8,1.6-2.8,3.5,1,3.5,2.8,3.5Z"/>
    <path d="M69.1,70v-11.3h2.8v1.8c.8-1.3,2.1-2,3.4-2s.6,0,.9,0v2.7c-.3-.2-.7-.3-1.2-.3-1.6,0-3,1.3-3,5v4h-2.8Z"/>
  </g>
  <g>
    <path class="st0" d="M14.6,11.9c-1-2.2-2-3.1-3.4-3.1s-1.9.7-1.9,1.9c0,4.4,12.6,3.9,12.6,13.3s-4,10-10.5,10S1,30,0,25.3l6.1-3.9c.8,3.1,2.4,5.8,5.3,5.8s2.7-.7,2.7-2.4c0-5.2-12.3-4.1-12.3-14S5.4,2.3,10.9,2.3s7.5,1.8,9.5,5.8l-5.8,3.9h0Z"/>
    <path class="st0" d="M31.3,24.3c.4,2.6,2.1,4.1,5,4.1s3.3-.8,4.4-2.4l5.6,2c-1.9,3.5-5,5.9-10.4,5.9-8.1,0-11.2-6.2-11.2-11.5s3.7-11.5,11.3-11.5,10.8,6.4,10.8,11.1v2.3h-15.4ZM31.5,19.6h8.5c-.3-1.9-1.8-3.4-4.3-3.4s-3.6,1.1-4.3,3.4h0Z"/>
    <path class="st0" d="M50.7,33.6V11.3h7.3v2.4c1.2-1.7,3.6-2.8,6.2-2.8s1.5.1,1.9.3v6.9c-.7-.4-1.9-.6-2.8-.6-2.6,0-5.3,2.2-5.3,8.2v7.9h-7.3Z"/>
    <path class="st0" d="M73.3,0c2.5,0,4.3,1.9,4.3,4.3s-1.9,4.3-4.3,4.3-4.3-1.9-4.3-4.3,1.9-4.3,4.3-4.3ZM76.9,11.3v22.3h-7.3V11.3s7.3,0,7.3,0Z"/>
    <path class="st0" d="M87.2,24.3c.4,2.6,2.1,4.1,5,4.1s3.3-.8,4.4-2.4l5.6,2c-1.9,3.5-5,5.9-10.4,5.9-8.1,0-11.2-6.2-11.2-11.5s3.7-11.5,11.3-11.5,10.8,6.4,10.8,11.1v2.3h-15.4ZM87.3,19.6h8.5c-.3-1.9-1.8-3.4-4.3-3.4s-3.6,1.1-4.3,3.4h0Z"/>
    <path class="st0" d="M121.2,14.7l-3.9,3.6c-1-1.3-2.2-1.9-3.4-1.9s-1.5.5-1.5,1.2.7,1.4,2.6,2.1c4.3,1.5,7.2,2.6,7.2,6.9s-3.1,7.4-8.2,7.4-7.9-2.8-9.4-6.1l5.4-2.9c.8,2.1,2,3.5,4.1,3.5s1.9-.4,1.9-1.5c0-1.6-2.3-2-4.8-3.1-2.7-1.1-5-2.9-5-6.5s2.9-6.5,7.7-6.5,5.9,1.5,7.3,3.7h0Z"/>
  </g>
  <path d="M92,51.2c-1.7,0-4.8.9-6.2,6.7-.6,2.5-.9,5.2-.3,8.3.5,2.9,1.4,5.4,1.9,6.8.2.5.5,1,.8,1.3.7.9,1.9.8,2.3.6.5-.3,1.1-.9.9-2.3-.1-.7-.4-1.7-.6-2.3-.5-1.7-1.2-3.8-1.3-5.3,0-2,.7-2.3,1.2-2.4.9-.2,1.6.8,2.3,2,.8,1.4,2.3,4,3.4,5.9,1.1,1.8,3,3.6,6.1,3.5,3.2-.1,5.5-1.3,6.7-5.2.9-2.9,1.5-5,2.5-7.2,1.1-2.5,2.7-3.9,3.9-3.4,1.2.4,1.5,1.5,1.5,3.2,0,1.5-.2,3.2-.3,4.4,0,.4-.1,1.3-.1,1.8,0,1,.5,1.9,1.6,2.1,1.2.2,2.1-.8,2.5-1.9.1-.4.3-1.1.3-1.6.3-2.4.4-4.1.3-6.6-.2-2.9-.8-5.6-1.7-7.9-1-2.2-2.5-3.6-4.5-3.7-2.2-.1-4.7,1.3-6,4.1-1.2,2.6-2.2,5.2-2.8,6.6-.6,1.4-1.5,2.2-2.8,2.4-1.6.2-3.1-1-4.1-2.7-.9-1.5-2.7-4.3-3.6-5.2-.9-.9-1.9-2-4.1-2"/>
  <rect x="133.4" y="2.2" width="5.1" height="31.5"/>
  <polygon points="144.9 58.6 138.6 58.6 138.6 52.2 133.4 52.2 133.4 58.6 127.1 58.6 127.1 63.8 133.4 63.8 133.4 70.1 138.6 70.1 138.6 63.8 144.9 63.8 144.9 58.6"/>
</svg>