<?xml version="1.0" encoding="UTF-8"?>
<svg id="Capa_1" xmlns="http://www.w3.org/2000/svg" version="1.1" xmlns:xlink="http://www.w3.org/1999/xlink" viewBox="0 0 209.6 72.3">
  <!-- Generator: Adobe Illustrator 29.0.0, SVG Export Plug-In . SVG Version: 2.1.0 Build 186)  -->
  <defs>
    <style>
      .st0 {
        fill: url(#Degradado_sin_nombre_6);
      }

      .st1 {
        fill: #fa3732;
      }

      .st2 {
        fill: url(#Degradado_sin_nombre_5);
      }

      .st3 {
        fill: #fff;
      }

      .st4 {
        fill: url(#Degradado_sin_nombre_4);
      }

      .st5 {
        fill: url(#Degradado_sin_nombre_2);
      }

      .st6 {
        fill: url(#Degradado_sin_nombre_7);
      }

      .st7 {
        fill: url(#Degradado_sin_nombre_3);
      }

      .st8 {
        fill: url(#Degradado_sin_nombre);
      }

      .st9 {
        fill: url(#Degradado_sin_nombre_8);
      }
    </style>
    <linearGradient id="Degradado_sin_nombre" data-name="Degradado sin nombre" x1="0" y1="44.8" x2="186.6" y2="44.8" gradientTransform="translate(0 60.6) scale(1 -1)" gradientUnits="userSpaceOnUse">
      <stop offset="0" stop-color="#fa3732"/>
      <stop offset="1" stop-color="#fa730a"/>
    </linearGradient>
    <linearGradient id="Degradado_sin_nombre_2" data-name="Degradado sin nombre 2" x1="0" y1="40.3" x2="186.6" y2="40.3" gradientTransform="translate(0 60.6) scale(1 -1)" gradientUnits="userSpaceOnUse">
      <stop offset="0" stop-color="#fa3732"/>
      <stop offset="1" stop-color="#fa730a"/>
    </linearGradient>
    <linearGradient id="Degradado_sin_nombre_3" data-name="Degradado sin nombre 3" x1="0" y1="40.5" x2="186.6" y2="40.5" gradientTransform="translate(0 60.6) scale(1 -1)" gradientUnits="userSpaceOnUse">
      <stop offset="0" stop-color="#fa3732"/>
      <stop offset="1" stop-color="#fa730a"/>
    </linearGradient>
    <linearGradient id="Degradado_sin_nombre_4" data-name="Degradado sin nombre 4" x1="0" y1="36.2" x2="186.6" y2="36.2" gradientTransform="translate(0 60.6) scale(1 -1)" gradientUnits="userSpaceOnUse">
      <stop offset="0" stop-color="#fa3732"/>
      <stop offset="1" stop-color="#fa730a"/>
    </linearGradient>
    <linearGradient id="Degradado_sin_nombre_5" data-name="Degradado sin nombre 5" x1="0" y1="40.5" x2="186.6" y2="40.5" gradientTransform="translate(0 60.6) scale(1 -1)" gradientUnits="userSpaceOnUse">
      <stop offset="0" stop-color="#fa3732"/>
      <stop offset="1" stop-color="#fa730a"/>
    </linearGradient>
    <linearGradient id="Degradado_sin_nombre_6" data-name="Degradado sin nombre 6" x1="0" y1="40.7" x2="186.6" y2="40.7" gradientTransform="translate(0 60.6) scale(1 -1)" gradientUnits="userSpaceOnUse">
      <stop offset="0" stop-color="#fa3732"/>
      <stop offset="1" stop-color="#fa730a"/>
    </linearGradient>
    <linearGradient id="Degradado_sin_nombre_7" data-name="Degradado sin nombre 7" x1="0" y1="40.5" x2="186.6" y2="40.5" gradientTransform="translate(0 60.6) scale(1 -1)" gradientUnits="userSpaceOnUse">
      <stop offset="0" stop-color="#fa3732"/>
      <stop offset="1" stop-color="#fa730a"/>
    </linearGradient>
    <linearGradient id="Degradado_sin_nombre_8" data-name="Degradado sin nombre 8" x1="0" y1="40.5" x2="186.6" y2="40.5" gradientTransform="translate(0 60.6) scale(1 -1)" gradientUnits="userSpaceOnUse">
      <stop offset="0" stop-color="#fa3732"/>
      <stop offset="1" stop-color="#fa730a"/>
    </linearGradient>
  </defs>
  <g id="uuid-c3542a93-ed6e-42b5-83ea-1a0bfe5f41d0">
    <g>
      <g>
        <path class="st3" d="M113.9,67.6c-1.1,0-2.2-.6-2.7-1.2v5.6h-2.8v-15.8h2.8v1.2c.3-.6,1.3-1.3,2.7-1.3,3.4,0,5.1,2.3,5.1,5.8s-1.7,5.8-5.1,5.8ZM113.5,58.3c-1.5,0-2.6,1.2-2.6,3.4s1.1,3.4,2.6,3.4,2.6-1.2,2.6-3.4-1.2-3.4-2.6-3.4Z"/>
        <path class="st3" d="M126.5,55.9c3.6,0,5.7,2.5,5.7,5.8s-2.1,5.8-5.7,5.8-5.7-2.5-5.7-5.8,2.1-5.8,5.7-5.8ZM126.5,65.2c1.8,0,2.8-1.6,2.8-3.4s-1-3.4-2.8-3.4-2.8,1.6-2.8,3.4,1,3.4,2.8,3.4Z"/>
        <path class="st3" d="M134.3,67.4v-11.3h2.8v1.8c.8-1.3,2.1-2,3.3-2s.6,0,.8,0v2.7c-.3-.2-.7-.3-1.2-.3-1.6,0-3,1.3-3,5v4h-2.8Z"/>
      </g>
      <g>
        <g>
          <path class="st1" d="M14.5,9.7c-1-2.2-2-3.1-3.4-3.1s-1.9.7-1.9,1.8c0,4.4,12.5,3.9,12.5,13.2s-4,9.9-10.5,9.9S1,27.7,0,23l6.1-3.8c.8,3.1,2.4,5.8,5.2,5.8s2.6-.7,2.6-2.4c0-5.1-12.2-4.1-12.2-13.9S5.4,0,10.8,0s7.5,1.8,9.5,5.8l-5.8,3.8h0Z"/>
          <path class="st1" d="M39,31.2v-2.5c-1.2,1.6-3.3,2.9-6.3,2.9-4.8,0-7.4-2.7-7.4-8v-14.5h7.2v12.9c0,2.1.9,3.2,2.5,3.2,2.4,0,4-2.2,4-6.4v-9.7h7.2v22.2h-7.2Z"/>
          <path class="st1" d="M65.9,12.4l-3.9,3.6c-1-1.3-2.2-1.9-3.3-1.9s-1.5.5-1.5,1.2.7,1.4,2.6,2.1c4.3,1.5,7.1,2.5,7.1,6.8s-3,7.4-8.1,7.4-7.8-2.8-9.4-6l5.3-2.9c.7,2.1,2,3.4,4,3.4s1.9-.4,1.9-1.5c0-1.6-2.3-2-4.8-3-2.7-1.1-4.9-2.9-4.9-6.4s2.9-6.5,7.6-6.5,5.8,1.5,7.3,3.7h0Z"/>
          <path class="st1" d="M82.4,31.6c-2.2,0-3.8-.5-4.8-1.7v10.3h-7.2V9.1h7.2v1.9c1.3-1.4,3-2.2,5.5-2.2,5.6,0,9.5,4.4,9.5,11.4s-4.3,11.4-10.2,11.4h0ZM81.4,14.9c-2.4,0-4.2,1.6-4.2,5.3s1.8,5.3,4.2,5.3,4.2-1.6,4.2-5.3-1.8-5.3-4.2-5.3h0Z"/>
          <path class="st1" d="M102.3,22c.4,2.6,2.1,4,4.9,4s3.3-.7,4.4-2.4l5.5,2c-1.8,3.4-5,5.9-10.4,5.9-8,0-11.2-6.2-11.2-11.4s3.6-11.4,11.3-11.4,10.8,6.3,10.8,11v2.3h-15.3ZM102.5,17.3h8.5c-.3-1.9-1.8-3.4-4.2-3.4s-3.6,1.1-4.3,3.4Z"/>
          <path class="st1" d="M128.7,9.1v2.5c1.2-1.7,3.6-2.9,6.3-2.9,5.1,0,7.4,2.7,7.4,7.3v15.2h-7.2v-13.1c0-1.9-.9-3-2.5-3-2.4,0-4,2.2-4,6.4v9.7h-7.2V9.1h7.2Z"/>
          <path class="st1" d="M161.4,12.4l-3.9,3.6c-1-1.3-2.2-1.9-3.3-1.9s-1.5.5-1.5,1.2.7,1.4,2.6,2.1c4.3,1.5,7.1,2.5,7.1,6.8s-3,7.4-8.1,7.4-7.8-2.8-9.4-6l5.3-2.9c.7,2.1,2,3.4,4,3.4s1.9-.4,1.9-1.5c0-1.6-2.3-2-4.8-3-2.7-1.1-4.9-2.9-4.9-6.4s2.9-6.5,7.6-6.5,5.8,1.5,7.3,3.7h0Z"/>
          <path class="st1" d="M171.3,22c.4,2.6,2.1,4,4.9,4s3.3-.7,4.4-2.4l5.5,2c-1.8,3.4-5,5.9-10.4,5.9-8,0-11.2-6.2-11.2-11.4s3.6-11.4,11.3-11.4,10.8,6.3,10.8,11v2.3h-15.3ZM171.5,17.3h8.5c-.3-1.9-1.8-3.4-4.2-3.4s-3.6,1.1-4.3,3.4Z"/>
        </g>
        <g>
          <path class="st8" d="M14.5,9.7c-1-2.2-2-3.1-3.4-3.1s-1.9.7-1.9,1.8c0,4.4,12.5,3.9,12.5,13.2s-4,9.9-10.5,9.9S1,27.7,0,23l6.1-3.8c.8,3.1,2.4,5.8,5.2,5.8s2.6-.7,2.6-2.4c0-5.1-12.2-4.1-12.2-13.9S5.4,0,10.8,0s7.5,1.8,9.5,5.8l-5.8,3.8h0Z"/>
          <path class="st5" d="M39,31.2v-2.5c-1.2,1.6-3.3,2.9-6.3,2.9-4.8,0-7.4-2.7-7.4-8v-14.5h7.2v12.9c0,2.1.9,3.2,2.5,3.2,2.4,0,4-2.2,4-6.4v-9.7h7.2v22.2h-7.2Z"/>
          <path class="st7" d="M65.9,12.4l-3.9,3.6c-1-1.3-2.2-1.9-3.3-1.9s-1.5.5-1.5,1.2.7,1.4,2.6,2.1c4.3,1.5,7.1,2.5,7.1,6.8s-3,7.4-8.1,7.4-7.8-2.8-9.4-6l5.3-2.9c.7,2.1,2,3.4,4,3.4s1.9-.4,1.9-1.5c0-1.6-2.3-2-4.8-3-2.7-1.1-4.9-2.9-4.9-6.4s2.9-6.5,7.6-6.5,5.8,1.5,7.3,3.7h0Z"/>
          <path class="st4" d="M82.4,31.6c-2.2,0-3.8-.5-4.8-1.7v10.3h-7.2V9.1h7.2v1.9c1.3-1.4,3-2.2,5.5-2.2,5.6,0,9.5,4.4,9.5,11.4s-4.3,11.4-10.2,11.4h0ZM81.4,14.9c-2.4,0-4.2,1.6-4.2,5.3s1.8,5.3,4.2,5.3,4.2-1.6,4.2-5.3-1.8-5.3-4.2-5.3h0Z"/>
          <path class="st2" d="M102.3,22c.4,2.6,2.1,4,4.9,4s3.3-.7,4.4-2.4l5.5,2c-1.8,3.4-5,5.9-10.4,5.9-8,0-11.2-6.2-11.2-11.4s3.6-11.4,11.3-11.4,10.8,6.3,10.8,11v2.3h-15.3ZM102.5,17.3h8.5c-.3-1.9-1.8-3.4-4.2-3.4s-3.6,1.1-4.3,3.4Z"/>
          <path class="st0" d="M128.7,9.1v2.5c1.2-1.7,3.6-2.9,6.3-2.9,5.1,0,7.4,2.7,7.4,7.3v15.2h-7.2v-13.1c0-1.9-.9-3-2.5-3-2.4,0-4,2.2-4,6.4v9.7h-7.2V9.1h7.2Z"/>
          <path class="st6" d="M161.4,12.4l-3.9,3.6c-1-1.3-2.2-1.9-3.3-1.9s-1.5.5-1.5,1.2.7,1.4,2.6,2.1c4.3,1.5,7.1,2.5,7.1,6.8s-3,7.4-8.1,7.4-7.8-2.8-9.4-6l5.3-2.9c.7,2.1,2,3.4,4,3.4s1.9-.4,1.9-1.5c0-1.6-2.3-2-4.8-3-2.7-1.1-4.9-2.9-4.9-6.4s2.9-6.5,7.6-6.5,5.8,1.5,7.3,3.7h0Z"/>
          <path class="st9" d="M171.3,22c.4,2.6,2.1,4,4.9,4s3.3-.7,4.4-2.4l5.5,2c-1.8,3.4-5,5.9-10.4,5.9-8,0-11.2-6.2-11.2-11.4s3.6-11.4,11.3-11.4,10.8,6.3,10.8,11v2.3h-15.3ZM171.5,17.3h8.5c-.3-1.9-1.8-3.4-4.2-3.4s-3.6,1.1-4.3,3.4Z"/>
        </g>
      </g>
      <path class="st3" d="M157.1,48.7c-1.7,0-4.8.9-6.2,6.6-.6,2.5-.9,5.1-.3,8.3.5,2.9,1.3,5.4,1.9,6.7.2.5.5,1,.8,1.3.7.9,1.8.8,2.3.6.5-.3,1.1-.9.9-2.3-.1-.7-.4-1.7-.6-2.3-.5-1.7-1.2-3.8-1.3-5.3,0-2,.7-2.2,1.2-2.3.9-.2,1.6.8,2.3,2,.8,1.4,2.2,4,3.4,5.9,1,1.7,3,3.6,6.1,3.5,3.2-.1,5.5-1.3,6.7-5.1.9-2.8,1.5-5,2.5-7.1,1.1-2.5,2.6-3.8,3.9-3.4,1.2.4,1.5,1.5,1.5,3.2,0,1.5-.2,3.2-.3,4.4,0,.4-.1,1.3-.1,1.8,0,1,.5,1.9,1.6,2.1,1.2.2,2.1-.8,2.5-1.9.1-.4.3-1.1.3-1.6.3-2.4.4-4.1.3-6.5-.2-2.9-.7-5.5-1.7-7.8-.9-2.2-2.5-3.6-4.4-3.7-2.2-.1-4.6,1.3-5.9,4.1-1.2,2.6-2.2,5.2-2.7,6.5-.6,1.4-1.5,2.2-2.8,2.3-1.6.2-3-1-4.1-2.7-.9-1.5-2.7-4.3-3.6-5.2-.9-.9-1.9-2-4-2"/>
      <rect class="st3" x="198.2" width="5.1" height="31.3"/>
      <polygon class="st3" points="209.6 56 203.3 56 203.3 49.7 198.2 49.7 198.2 56 191.9 56 191.9 61.1 198.2 61.1 198.2 67.5 203.3 67.5 203.3 61.1 209.6 61.1 209.6 56"/>
    </g>
  </g>
</svg>