<?xml version="1.0" encoding="UTF-8"?>
<svg id="CONTENIDO" xmlns="http://www.w3.org/2000/svg" version="1.1" viewBox="0 0 192.1 72.8">
  <!-- Generator: Adobe Illustrator 29.0.0, SVG Export Plug-In . SVG Version: 2.1.0 Build 186)  -->
  <defs>
    <style>
      .st0 {
        fill: #1ec33c;
      }

      .st1 {
        fill: #fff;
      }
    </style>
  </defs>
  <g>
    <path class="st0" d="M10.4,31.5L0,.5h7.9l6.2,20.1L20.4.5h7.9l-10.4,31h-7.4Z"/>
    <path class="st0" d="M26.1,20.4c0-1.8.2-3.4.7-4.8s1.2-2.6,2.1-3.6c.9-1,1.9-1.7,3.2-2.3,1.2-.5,2.6-.8,4.1-.8s2.4.2,3.4.6,1.8.9,2.5,1.6v-1.8h7.3v22.3h-7.3v-1.9c-.6.7-1.4,1.3-2.5,1.7s-2.1.6-3.2.6-2.9-.3-4.1-.8c-1.3-.5-2.3-1.3-3.2-2.3-.9-1-1.6-2.2-2.1-3.6s-.7-3-.7-4.8h0ZM33.2,20.4c0,.9.1,1.7.4,2.4.3.7.6,1.2,1,1.7s.9.8,1.5,1,1.1.3,1.7.3,1.2-.1,1.7-.3c.5-.2,1-.5,1.5-1,.4-.4.8-1,1-1.7s.4-1.5.4-2.4-.1-1.7-.4-2.4c-.3-.7-.6-1.2-1-1.7s-.9-.8-1.5-1c-.5-.2-1.1-.3-1.7-.3s-1.2.1-1.7.3c-.6.2-1,.5-1.5,1s-.7,1-1,1.7-.4,1.5-.4,2.4Z"/>
    <path class="st0" d="M67.3,31.5v-13.5c0-.9-.2-1.7-.6-2.3s-1-.8-1.8-.8-1,.1-1.5.4-.9.7-1.3,1.3c-.4.6-.7,1.4-.9,2.4-.2,1-.3,2.2-.3,3.7v8.8h-6.7V9.2h6.7v2.7c.6-.9,1.4-1.6,2.4-2.2.9-.6,2.1-.8,3.4-.8s2.9.3,3.9,1c1,.6,1.8,1.6,2.4,2.8.6-1,1.4-1.8,2.5-2.6s2.5-1.2,4.3-1.2,4.2.6,5.4,1.9c1.2,1.3,1.9,2.9,1.9,5v15.8h-6.7v-13.5c0-1-.2-1.7-.5-2.3-.4-.5-.9-.8-1.8-.8s-1,.1-1.5.4c-.5.3-.9.7-1.3,1.3s-.7,1.4-.9,2.4-.3,2.2-.3,3.7v8.8h-6.7,0Z"/>
    <path class="st0" d="M90.7,20.4c0-1.5.3-3,.8-4.4s1.2-2.6,2.2-3.7c1-1.1,2.2-1.9,3.7-2.5,1.5-.6,3.2-.9,5.1-.9s3.7.3,5.1.9c1.5.6,2.7,1.5,3.7,2.5,1,1.1,1.7,2.3,2.2,3.7s.8,2.8.8,4.4-.3,3-.8,4.4c-.5,1.4-1.2,2.6-2.2,3.7s-2.2,1.9-3.7,2.5-3.2.9-5.1.9-3.7-.3-5.1-.9c-1.5-.6-2.7-1.5-3.7-2.5-1-1.1-1.7-2.3-2.2-3.7-.5-1.4-.8-2.8-.8-4.4ZM97.9,20.4c0,1.6.4,2.9,1.1,3.9.7,1,1.9,1.5,3.4,1.5s2.7-.5,3.4-1.5c.7-1,1.1-2.3,1.1-3.9s-.4-2.9-1.1-3.9c-.7-1-1.9-1.5-3.4-1.5s-2.7.5-3.4,1.5-1.1,2.3-1.1,3.9Z"/>
    <path class="st0" d="M124.8,8.9c1.7,0,3.2.3,4.4,1,1.2.7,2.2,1.6,2.9,2.7l-3.9,3.6c-1-1.3-2.1-1.9-3.4-1.9s-.8.1-1.1.3-.4.5-.4.9.2.8.6,1.1c.4.3,1.1.6,2,1,1.1.4,2.1.7,3,1.1.9.4,1.6.8,2.3,1.3s1.1,1.1,1.4,1.8.5,1.6.5,2.7-.2,2-.6,2.9-.9,1.7-1.6,2.4c-.7.7-1.6,1.2-2.6,1.6-1,.4-2.2.6-3.4.6s-2.4-.2-3.4-.5c-1-.3-1.9-.8-2.6-1.3-.8-.6-1.4-1.2-2-1.9-.6-.7-1-1.5-1.4-2.3l5.4-2.9c.4,1,.9,1.9,1.5,2.5.6.6,1.5,1,2.5,1s1-.1,1.4-.4c.4-.2.6-.6.6-1.2s-.1-.7-.4-1c-.3-.3-.6-.5-1.1-.8-.5-.2-1-.4-1.5-.6-.6-.2-1.2-.4-1.8-.7-.7-.3-1.3-.6-1.9-1s-1.1-.8-1.6-1.4c-.4-.5-.8-1.1-1.1-1.8-.3-.7-.4-1.5-.4-2.3s.2-1.7.5-2.5c.4-.8.9-1.5,1.5-2.1.7-.6,1.5-1.1,2.4-1.4s2-.5,3.2-.5h0Z"/>
    <path class="st0" d="M147.3,28.2l11.3-13.9c.6-.8,1.1-1.5,1.5-2.3.4-.8.6-1.6.6-2.5s-.3-1.6-.8-2.3-1.3-.9-2.2-.9-1.9.3-2.5,1c-.6.7-.9,1.6-1.1,2.7l-6.5-1.3c.1-1.1.5-2.2,1-3.2s1.2-1.9,2-2.7,1.9-1.4,3-1.9c1.2-.5,2.5-.7,4.1-.7s3,.2,4.2.7,2.3,1.1,3.1,1.9c.8.8,1.5,1.8,1.9,2.9.4,1.1.7,2.3.7,3.6s-.3,3-1,4.2c-.6,1.3-1.5,2.6-2.6,4l-6.2,7.7h10.4v6.2h-20.9v-3.3h0Z"/>
  </g>
  <g>
    <g>
      <path class="st1" d="M95.7,68c-1.1,0-2.2-.6-2.7-1.2v5.6h-2.8v-15.9h2.8v1.2c.3-.6,1.3-1.3,2.7-1.3,3.4,0,5.2,2.4,5.2,5.8s-1.8,5.8-5.2,5.8ZM95.3,58.7c-1.5,0-2.6,1.2-2.6,3.5s1.1,3.5,2.6,3.5,2.6-1.2,2.6-3.5-1.2-3.5-2.6-3.5Z"/>
      <path class="st1" d="M108.4,56.3c3.6,0,5.8,2.6,5.8,5.8s-2.1,5.8-5.8,5.8-5.8-2.6-5.8-5.8,2.1-5.8,5.8-5.8ZM108.4,65.7c1.8,0,2.8-1.6,2.8-3.5s-1-3.5-2.8-3.5-2.8,1.6-2.8,3.5,1,3.5,2.8,3.5Z"/>
      <path class="st1" d="M116.2,67.9v-11.3h2.8v1.8c.8-1.3,2.1-2,3.4-2s.6,0,.9,0v2.7c-.3-.2-.7-.3-1.2-.3-1.6,0-3,1.3-3,5v4h-2.8Z"/>
    </g>
    <path class="st1" d="M139.2,49c-1.7,0-4.8.9-6.2,6.7-.6,2.5-.9,5.2-.3,8.3.5,2.9,1.4,5.4,1.9,6.8.2.5.5,1,.8,1.3.7.9,1.9.8,2.3.6.5-.3,1.1-.9.9-2.3-.1-.7-.4-1.7-.6-2.3-.5-1.7-1.2-3.8-1.3-5.3,0-2,.7-2.3,1.2-2.4.9-.2,1.6.8,2.3,2,.8,1.4,2.3,4,3.4,5.9,1.1,1.8,3,3.6,6.1,3.5,3.2-.1,5.5-1.3,6.7-5.2.9-2.9,1.5-5,2.5-7.2,1.1-2.5,2.7-3.9,3.9-3.4,1.2.4,1.5,1.5,1.5,3.2,0,1.5-.2,3.2-.3,4.4,0,.4-.1,1.3-.1,1.8,0,1,.5,1.9,1.6,2.1,1.2.2,2.1-.8,2.5-1.9.1-.4.3-1.1.3-1.6.3-2.4.4-4.1.3-6.6-.2-2.9-.8-5.6-1.7-7.9-1-2.2-2.5-3.6-4.5-3.7-2.2-.1-4.7,1.3-6,4.1-1.2,2.6-2.2,5.2-2.8,6.6-.6,1.4-1.5,2.2-2.8,2.4-1.6.2-3.1-1-4.1-2.7-.9-1.5-2.7-4.3-3.6-5.2-.9-.9-1.9-2-4.1-2"/>
    <rect class="st1" x="180.6" width="5.1" height="31.5"/>
    <polygon class="st1" points="192.1 56.4 185.7 56.4 185.7 50.1 180.6 50.1 180.6 56.4 174.2 56.4 174.2 61.6 180.6 61.6 180.6 68 185.7 68 185.7 61.6 192.1 61.6 192.1 56.4"/>
  </g>
</svg>