<?xml version="1.0" encoding="UTF-8"?>
<svg id="Capa_1" xmlns="http://www.w3.org/2000/svg" version="1.1" viewBox="0 0 156 72.8">
  <!-- Generator: Adobe Illustrator 29.0.0, SVG Export Plug-In . SVG Version: 2.1.0 Build 186)  -->
  <defs>
    <style>
      .st0 {
        fill: #1ec33c;
      }

      .st1 {
        fill: #fff;
      }
    </style>
  </defs>
  <g id="uuid-1a123394-32a1-4b13-94d8-1a54beb15358">
    <g>
      <g>
        <path class="st1" d="M59.5,68c-1.1,0-2.2-.6-2.7-1.2v5.6h-2.8v-15.9h2.8v1.2c.3-.6,1.3-1.3,2.7-1.3,3.4,0,5.2,2.4,5.2,5.8s-1.8,5.8-5.2,5.8h0ZM59.1,58.7c-1.5,0-2.6,1.2-2.6,3.5s1.1,3.5,2.6,3.5,2.6-1.2,2.6-3.5-1.2-3.5-2.6-3.5Z"/>
        <path class="st1" d="M72.3,56.3c3.6,0,5.8,2.6,5.8,5.8s-2.1,5.8-5.8,5.8-5.8-2.6-5.8-5.8,2.1-5.8,5.8-5.8ZM72.3,65.7c1.8,0,2.8-1.6,2.8-3.5s-1-3.5-2.8-3.5-2.8,1.6-2.8,3.5,1,3.5,2.8,3.5Z"/>
        <path class="st1" d="M80.1,67.9v-11.3h2.8v1.8c.8-1.3,2.1-2,3.4-2s.6,0,.9,0v2.7c-.3-.2-.7-.3-1.2-.3-1.6,0-3,1.3-3,5v4h-2.8Z"/>
      </g>
      <g>
        <path class="st0" d="M10.4,31.4L0,.4h7.9l6.2,20.1L20.4.4h7.9l-10.4,31s-7.4,0-7.4,0Z"/>
        <path class="st0" d="M36.1,8.8c2.5,0,4.6.8,5.8,2.1v-1.8h7.3v22.3h-7.3v-1.9c-1.2,1.5-3.5,2.3-5.7,2.3-6.1,0-10.1-4.4-10.1-11.5s4.1-11.5,10-11.5ZM37.8,25.6c2.4,0,4.6-1.6,4.6-5.3s-2.2-5.3-4.6-5.3-4.6,1.6-4.6,5.3,2.2,5.3,4.6,5.3Z"/>
        <path class="st0" d="M67.3,31.4v-13.5c0-1.9-.8-3.1-2.3-3.1s-4,2-4,7.9v8.8h-6.7V9.1h6.7v2.7c1.3-1.8,3.1-3,5.8-3s5.1,1.3,6.3,3.8c1.2-1.9,3.3-3.8,6.8-3.8s7.3,2.7,7.3,6.9v15.8h-6.7v-13.5c0-1.9-.7-3.1-2.3-3.1s-4,2-4,7.8v8.8h-6.7Z"/>
        <path class="st0" d="M102.4,8.8c7.8,0,11.8,5.4,11.8,11.5s-4,11.5-11.8,11.5-11.8-5.4-11.8-11.5,4-11.5,11.8-11.5ZM102.4,25.6c3.1,0,4.5-2.1,4.5-5.3s-1.4-5.3-4.5-5.3-4.5,2.1-4.5,5.3,1.4,5.3,4.5,5.3Z"/>
        <path class="st0" d="M132.2,12.5l-3.9,3.6c-1-1.3-2.2-1.9-3.4-1.9s-1.5.5-1.5,1.2.7,1.4,2.6,2.1c4.3,1.5,7.2,2.6,7.2,6.9s-3.1,7.4-8.2,7.4-7.9-2.8-9.4-6.1l5.4-2.9c.8,2.1,2,3.5,4.1,3.5s1.9-.4,1.9-1.5c0-1.6-2.3-2-4.8-3.1-2.7-1.1-5-2.9-5-6.5s2.9-6.5,7.7-6.5,5.9,1.5,7.3,3.7h0Z"/>
      </g>
      <path class="st1" d="M103.1,49c-1.7,0-4.8.9-6.2,6.7-.6,2.5-.9,5.2-.3,8.3.5,2.9,1.4,5.4,1.9,6.8.2.5.5,1,.8,1.3.7.9,1.9.8,2.3.6.5-.3,1.1-.9.9-2.3-.1-.7-.4-1.7-.6-2.3-.5-1.7-1.2-3.8-1.3-5.3,0-2,.7-2.3,1.2-2.4.9-.2,1.6.8,2.3,2,.8,1.4,2.3,4,3.4,5.9,1.1,1.8,3,3.6,6.1,3.5,3.2-.1,5.5-1.3,6.7-5.2.9-2.9,1.5-5,2.5-7.2,1.1-2.5,2.7-3.9,3.9-3.4,1.2.4,1.5,1.5,1.5,3.2,0,1.5-.2,3.2-.3,4.4,0,.4-.1,1.3-.1,1.8,0,1,.5,1.9,1.6,2.1,1.2.2,2.1-.8,2.5-1.9.1-.4.3-1.1.3-1.6.3-2.4.4-4.1.3-6.6-.2-2.9-.8-5.6-1.7-7.9-1-2.2-2.5-3.6-4.5-3.7-2.2-.1-4.7,1.3-6,4.1-1.2,2.6-2.2,5.2-2.8,6.6-.6,1.4-1.5,2.2-2.8,2.4-1.6.2-3.1-1-4.1-2.7-.9-1.5-2.7-4.3-3.6-5.2-.9-.9-1.9-2-4.1-2"/>
      <rect class="st1" x="144.5" width="5.1" height="31.5"/>
      <polygon class="st1" points="156 56.4 149.6 56.4 149.6 50.1 144.5 50.1 144.5 56.4 138.1 56.4 138.1 61.6 144.5 61.6 144.5 68 149.6 68 149.6 61.6 156 61.6 156 56.4"/>
    </g>
  </g>
</svg>