<?xml version="1.0" encoding="utf-8"?>
<!-- Generator: Adobe Illustrator 27.6.1, SVG Export Plug-In . SVG Version: 6.00 Build 0)  -->
<svg version="1.1" id="CONTENIDO" xmlns="http://www.w3.org/2000/svg" xmlns:xlink="http://www.w3.org/1999/xlink" x="0px" y="0px"
	 viewBox="0 0 983.1 320" style="enable-background:new 0 0 983.1 320;" xml:space="preserve">
<style type="text/css">
	.st0{font-family:'ApercuMovistar-Bold';}
	.st1{font-size:56.2271px;}
	.st2{fill:#1EC33C;}
	.st3{font-family:'ApercuMovistar-Black';}
	.st4{font-size:110.6832px;}
</style>
<g>
	<text transform="matrix(1 0 0 1 678.9481 245.0961)" class="st0 st1">por</text>
	<text transform="matrix(1 0 0 1 37.0406 154.018)" class="st2 st3 st4">Wimbledon UHD</text>
	<path d="M805.8,198c-4.2,0.1-12,2.2-15.6,16.7c-1.6,6.3-2.2,12.9-0.8,20.8c1.2,7.3,3.4,13.5,4.9,17c0.5,1.2,1.3,2.4,1.9,3.2
		c1.7,2.2,4.6,2.1,5.8,1.5c1.3-0.7,2.8-2.2,2.3-5.8c-0.3-1.7-1-4.3-1.5-5.7c-1.3-4.3-3.1-9.6-3.2-13.3c-0.2-5,1.8-5.6,3.1-5.9
		c2.2-0.5,4,1.9,5.8,4.9c2.1,3.6,5.7,10,8.6,14.9c2.6,4.4,7.5,9.1,15.3,8.8c7.9-0.3,13.8-3.4,16.8-12.9c2.3-7.1,3.8-12.5,6.3-17.9
		c2.8-6.3,6.6-9.6,9.8-8.6c3,1,3.7,3.9,3.7,8.1c0,3.8-0.4,7.9-0.7,11c-0.1,1.1-0.3,3.3-0.3,4.6c0.2,2.4,1.2,4.9,4,5.3
		c2.9,0.4,5.3-1.9,6.2-4.7c0.4-1.1,0.7-2.8,0.9-4c0.9-6.1,1.1-10.2,0.7-16.4c-0.5-7.3-1.9-14-4.4-19.7c-2.4-5.5-6.2-9-11.1-9.3
		c-5.4-0.3-11.7,3.3-14.9,10.3c-3,6.4-5.4,13.1-6.9,16.4c-1.5,3.4-3.7,5.5-7,5.9c-4.1,0.4-7.6-2.5-10.2-6.8
		c-2.3-3.7-6.7-10.7-9.1-13.1C813.8,200.7,811.2,197.9,805.8,198"/>
	<rect x="909.3" y="75.4" width="12.8" height="78.8"/>
	<polygon points="938.1,216.6 922.2,216.6 922.2,200.6 909.3,200.6 909.3,216.6 893.4,216.6 893.4,229.4 909.3,229.4 909.3,245.3 
		922.2,245.3 922.2,229.4 938.1,229.4 	"/>
</g>
</svg>
