<?xml version="1.0" encoding="UTF-8"?>
<svg id="Contenido" xmlns="http://www.w3.org/2000/svg" version="1.1" viewBox="0 0 257.6 116">
  <!-- Generator: Adobe Illustrator 29.0.0, SVG Export Plug-In . SVG Version: 2.1.0 Build 186)  -->
  <defs>
    <style>
      .st0 {
        fill: #fff;
      }
    </style>
  </defs>
  <path class="st0" d="M29.6,13.4c-7.3.1-20.7,3.7-26.9,28.8C0,53.1-1,64.5,1.3,78.1c2.1,12.5,5.8,23.3,8.4,29.2.9,2,2.2,4.2,3.2,5.5,3,3.8,8,3.5,10.1,2.5,2.3-1.1,4.9-3.8,4-10-.4-3-1.8-7.4-2.5-9.8-2.3-7.5-5.3-16.5-5.6-22.9-.4-8.6,3-9.7,5.3-10.2,3.8-.8,7,3.3,10,8.5,3.6,6.2,9.8,17.2,14.8,25.6,4.5,7.5,12.9,15.6,26.4,15.1,13.7-.6,23.8-5.8,29-22.2,3.9-12.3,6.6-21.5,10.8-30.9,4.9-10.8,11.4-16.6,17-14.9,5.1,1.6,6.4,6.6,6.4,14,0,6.5-.7,13.7-1.3,19-.2,1.9-.6,5.8-.4,7.9.3,4.2,2.1,8.4,6.8,9.1,5,.7,9.1-3.3,10.7-8.2.6-1.9,1.2-4.8,1.5-6.9,1.5-10.5,1.9-17.6,1.2-28.4-.8-12.6-3.2-24-7.6-34C145.2,6.7,138.6.6,130.1,0c-9.4-.6-20.1,5.6-25.8,17.7-5.2,11.1-9.4,22.5-11.9,28.4-2.6,5.9-6.3,9.6-12.1,10.2-7.1.8-13.2-4.4-17.6-11.7-3.9-6.4-11.6-18.5-15.7-22.6-3.8-3.9-8.2-8.7-17.4-8.5"/>
  <polygon class="st0" points="257.6 45.4 230.1 45.4 230.1 17.9 208 17.9 208 45.4 180.5 45.4 180.5 67.5 208 67.5 208 95 230.1 95 230.1 67.5 257.6 67.5 257.6 45.4"/>
</svg>