<?xml version="1.0" encoding="UTF-8"?>
<svg id="Layer_1" xmlns="http://www.w3.org/2000/svg" version="1.1" viewBox="0 0 76.83 26">
  <!-- Generator: Adobe Illustrator 30.3.0, SVG Export Plug-In . SVG Version: 2.1.3 Build 182)  -->
  <defs>
    <style>
      .st0 {
        fill: #f41e1e;
      }

      .st1 {
        fill: #010101;
      }

      .st2 {
        fill: #fff;
      }
    </style>
  </defs>
  <g>
    <path class="st0" d="M26.72,14.18c1.77,0,3.55,0,5.32,0,.59.02,1.21.14,1.71.47.35.23.61.58.7.99.11.44.03.91-.11,1.34-.47,1.36-1.53,2.45-2.75,3.18-1.1.65-2.36,1.1-3.65,1.07-1.19,0-2.39,0-3.58,0-.66,1.22-1.32,2.44-1.99,3.67-.48,0-.97,0-1.45,0,1.93-3.58,3.87-7.15,5.81-10.72h0Z"/>
    <path class="st0" d="M24.99,20.06c1.21,0,2.43,0,3.64,0,.36.01.72-.06,1.07-.16.78-.24,1.51-.64,2.11-1.19.52-.47.94-1.08,1.08-1.77.08-.37,0-.79-.26-1.07-.31-.32-.77-.44-1.2-.45-1.31,0-2.62,0-3.93,0-.84,1.54-1.68,3.09-2.51,4.63Z"/>
    <path class="st0" d="M43.6,24.9c3.65-3.59,7.31-7.16,10.96-10.75.4,0,.79,0,1.19,0-.26,3.58-.52,7.17-.78,10.75-.51,0-1.02,0-1.53,0,.07-.85.14-1.7.21-2.56h-5.96c-.86.85-1.72,1.7-2.58,2.56-.5,0-1,0-1.5,0h0Z"/>
    <path class="st0" d="M52.63,17.44c-1.27,1.26-2.53,2.51-3.8,3.77,1.63,0,3.27,0,4.9,0,.13-1.75.28-3.5.4-5.25-.51.48-.99,1-1.5,1.48Z"/>
    <path class="st0" d="M59.42,14.19c.54,0,1.09,0,1.63,0,.25,1.8.5,3.6.75,5.39,2.18-1.8,4.36-3.59,6.53-5.39.52,0,1.04,0,1.57,0-2.52,2.07-5.05,4.12-7.57,6.19-.19.18-.44.31-.59.53-.72,1.33-1.45,2.67-2.17,4-.5,0-1,0-1.5,0,.75-1.4,1.51-2.79,2.27-4.18-.31-2.18-.61-4.35-.92-6.53h0Z"/>
    <path class="st0" d="M32.39,24.9c1.93-3.57,3.87-7.14,5.8-10.71.48,0,.97,0,1.45,0-1.71,3.17-3.43,6.34-5.15,9.5,2.57,0,5.15,0,7.72,0-.22.4-.43.8-.65,1.2-3.06,0-6.11,0-9.17,0Z"/>
    <path class="st1" d="M19.72,12.99c10.1,0,20.2,0,30.3,0,8.94,0,17.88,0,26.81,0-2.4,4.34-4.82,8.66-7.22,13-9.02,0-18.05,0-27.07,0-10.02,0-20.03,0-30.05,0,2.41-4.34,4.81-8.67,7.22-13.01ZM26.72,14.18c-1.94,3.57-3.88,7.14-5.81,10.72.48,0,.97,0,1.45,0,.66-1.22,1.32-2.44,1.99-3.67,1.19,0,2.39,0,3.58,0,1.29.02,2.55-.42,3.65-1.07,1.22-.73,2.28-1.82,2.75-3.18.14-.43.22-.89.11-1.34-.09-.4-.36-.76-.7-.99-.5-.33-1.11-.45-1.71-.47-1.77,0-3.55,0-5.32,0h0ZM43.6,24.9c.5,0,1,0,1.5,0,.86-.86,1.72-1.71,2.58-2.56h5.96c-.07.85-.14,1.7-.21,2.56.51,0,1.02,0,1.53,0,.26-3.58.52-7.17.78-10.75-.4,0-.79,0-1.19,0-3.65,3.59-7.31,7.16-10.96,10.75h0ZM59.42,14.19c.31,2.18.61,4.35.92,6.53-.75,1.4-1.51,2.79-2.27,4.18.5,0,1,0,1.5,0,.72-1.34,1.45-2.67,2.17-4,.15-.22.4-.35.59-.53,2.52-2.06,5.05-4.12,7.57-6.19-.52,0-1.04,0-1.57,0-2.18,1.8-4.36,3.6-6.53,5.39-.25-1.8-.5-3.6-.75-5.39-.54,0-1.09,0-1.63,0h0ZM32.39,24.9c3.06,0,6.11,0,9.17,0,.22-.4.44-.8.65-1.2-2.57,0-5.15,0-7.72,0,1.72-3.17,3.44-6.33,5.15-9.5-.48,0-.97,0-1.45,0-1.94,3.57-3.87,7.13-5.8,10.71Z"/>
    <path class="st1" d="M24.99,20.06c.84-1.54,1.67-3.09,2.51-4.63,1.31,0,2.62,0,3.93,0,.43,0,.89.13,1.2.45.27.28.34.7.26,1.07-.14.69-.56,1.3-1.08,1.77-.6.55-1.33.95-2.11,1.19-.35.1-.71.17-1.07.16-1.21,0-2.43,0-3.64,0ZM52.63,17.44c.51-.48.99-1,1.5-1.48-.13,1.75-.28,3.5-.4,5.25-1.63,0-3.27,0-4.9,0,1.27-1.25,2.54-2.51,3.8-3.77Z"/>
  </g>
  <g>
    <path class="st0" d="M7.19.03c18.38,0,36.76,0,55.14,0,.66-.01,1.32.03,1.97-.03-2.41,4.33-4.82,8.67-7.22,13.01h0c-.24-.04-.48-.02-.72-.02-18.79,0-37.57,0-56.36,0,.03-.03.06-.07.09-.1h.04s-.02-.06-.03-.09h.07s-.01-.06-.02-.09h.04c.07-.16.15-.31.24-.45.08-.14.15-.28.23-.42.08-.14.15-.28.23-.42.08-.14.15-.28.23-.42.08-.14.15-.28.23-.42.08-.14.15-.28.23-.42.01-.02.04-.07.05-.09.06-.11.12-.22.18-.33.08-.14.15-.28.23-.42.08-.14.15-.28.23-.42.08-.14.15-.28.23-.42.08-.14.15-.28.23-.42.08-.14.15-.28.23-.42.08-.14.15-.28.23-.42.08-.14.15-.28.23-.42.08-.14.15-.28.23-.42.08-.14.15-.28.23-.42.01-.02.04-.07.05-.09.06-.11.12-.22.19-.33.08-.14.15-.28.23-.42.08-.14.15-.28.23-.42.08-.14.15-.29.24-.42,0-.01,0-.03,0-.04.07-.13.15-.25.23-.38,0-.01,0-.03,0-.04.07-.13.15-.25.23-.38v-.04c.08-.13.15-.25.23-.38v-.04c.08-.13.15-.25.23-.38,0-.01,0-.03,0-.04.07-.13.15-.25.23-.38v-.04c.08-.13.15-.25.23-.38v-.04c.08-.13.15-.25.23-.38v-.04c.08-.13.15-.25.23-.38v-.04c.08-.13.15-.25.23-.38,0-.01,0-.03,0-.04.08-.13.15-.26.23-.38l-.02-.03h0Z"/>
    <path class="st2" d="M8.57,3.17c.92-1.02,2.28-1.62,3.66-1.62,4.18,0,8.36,0,12.55,0-.43.76-.86,1.52-1.28,2.28-2.03,0-4.05,0-6.08,0-1.04,1.84-2.06,3.69-3.11,5.53.7,0,1.4,0,2.1,0,.77-1.38,1.55-2.75,2.31-4.13.73-.03,1.47,0,2.2-.02,1.3,0,2.61,0,3.91,0,.33-1.24,1.16-2.34,2.27-2.99.54-.31,1.13-.53,1.75-.62.46-.08.94-.06,1.41-.06h6.02c.39,0,.78-.01,1.17.03.95.08,1.89.36,2.69.87,1.08.68,1.89,1.8,2.13,3.07.04-.01.07-.04.08-.08.71-1.3,1.45-2.58,2.16-3.88,2.58,0,5.16,0,7.74,0-1.25,2.21-2.49,4.44-3.73,6.65,2.77,0,5.54,0,8.31,0-.59,1.08-1.21,2.15-1.8,3.24-2.84.01-5.68,0-8.52,0-.41,0-.82.03-1.22-.06-.67-.14-1.27-.51-1.77-.97-.65-.6-1.15-1.35-1.46-2.17-.33.86-.89,1.62-1.62,2.18-.91.71-2.07,1.06-3.22,1.02h-6.49c-.79.02-1.57-.11-2.33-.32-.79-.23-1.56-.59-2.2-1.12-.59-.5-1.05-1.16-1.28-1.9-.11-.3-.15-.61-.21-.92-.31.5-.58,1.03-.87,1.54-.51.91-1.02,1.81-1.53,2.72-2.95,0-5.91,0-8.86,0-1.02-.03-2.03-.21-2.99-.56-.99-.37-1.92-.98-2.5-1.88-.55-.84-.74-1.88-.67-2.88.08-1.09.54-2.15,1.27-2.95h0ZM33.92,3.54c-1.09,1.94-2.18,3.89-3.28,5.84.7,0,1.4,0,2.1,0,1.09-1.95,2.18-3.89,3.28-5.84-.7,0-1.4,0-2.1,0Z"/>
  </g>
</svg>