<?xml version="1.0" encoding="UTF-8"?>
<svg id="Layer_1" xmlns="http://www.w3.org/2000/svg" version="1.1" viewBox="0 0 412.21 46.57">
  <!-- Generator: Adobe Illustrator 30.5.1, SVG Export Plug-In . SVG Version: 2.1.4 Build 3)  -->
  <defs>
    <style>
      .st0 {
        isolation: isolate;
      }

      .st1 {
        fill: #fff;
      }
    </style>
  </defs>
  <g class="st0">
    <g class="st0">
      <path class="st1" d="M87.79,29.64h-8.92l-2.16,7.15h-8.83L79.25,3.2h8.16l11.37,33.58h-8.83l-2.16-7.15ZM81.02,22.34h4.61l-2.3-7.87-2.3,7.87Z"/>
      <path class="st1" d="M110.38,12.22c2.69,0,4.56.91,5.76,2.3V2.82h7.87v33.97h-7.87v-2.06c-1.3,1.58-3.26,2.45-5.61,2.45-6.57,0-10.79-4.75-10.79-12.47s4.22-12.47,10.65-12.47ZM111.97,30.45c2.59,0,4.56-1.78,4.56-5.76s-1.97-5.76-4.56-5.76-4.56,1.77-4.56,5.76,1.97,5.76,4.56,5.76Z"/>
      <path class="st1" d="M138.64,12.22c2.69,0,4.99.82,6.33,2.3v-1.92h7.87v24.18h-7.87v-2.06c-1.3,1.58-3.84,2.45-6.19,2.45-6.57,0-10.99-4.75-10.99-12.47s4.41-12.47,10.84-12.47ZM140.41,30.45c2.59,0,4.94-1.78,4.94-5.76s-2.35-5.76-4.94-5.76-4.94,1.77-4.94,5.76,2.35,5.76,4.94,5.76Z"/>
      <path class="st1" d="M170.97,37.17c-2.35,0-4.17-.57-5.28-1.82v11.23h-7.87V12.61h7.87v2.06c1.39-1.54,3.26-2.45,6.04-2.45,6.14,0,10.36,4.75,10.36,12.47s-4.7,12.47-11.13,12.47ZM169.86,18.94c-2.59,0-4.56,1.77-4.56,5.76s1.97,5.76,4.56,5.76,4.56-1.78,4.56-5.76-1.97-5.76-4.56-5.76Z"/>
      <path class="st1" d="M200.47,36.5c-.96.34-2.3.67-3.84.67-5.47,0-9.64-2.93-9.64-8.92v-9.6h-3.45v-6.04h3.45v-4.99l7.68-4.8v9.79h6.09v6.04h-6.09v8.11c0,2.3.96,3.5,2.73,3.5,1.2,0,2.06-.34,3.07-.77v7Z"/>
      <path class="st1" d="M214.76,12.22c2.69,0,4.99.82,6.33,2.3v-1.92h7.87v24.18h-7.87v-2.06c-1.3,1.58-3.84,2.45-6.19,2.45-6.57,0-10.99-4.75-10.99-12.47s4.41-12.47,10.84-12.47ZM216.54,30.45c2.59,0,4.94-1.78,4.94-5.76s-2.35-5.76-4.94-5.76-4.94,1.77-4.94,5.76,2.35,5.76,4.94,5.76Z"/>
      <path class="st1" d="M249.01,36.5c-.96.34-2.3.67-3.84.67-5.47,0-9.64-2.93-9.64-8.92v-9.6h-3.45v-6.04h3.45v-4.99l7.68-4.8v9.79h6.09v6.04h-6.09v8.11c0,2.3.96,3.5,2.73,3.5,1.2,0,2.06-.34,3.07-.77v7Z"/>
      <path class="st1" d="M264.27,12.22c8.44,0,12.76,5.8,12.76,12.47s-4.32,12.47-12.76,12.47-12.76-5.8-12.76-12.47,4.32-12.47,12.76-12.47ZM264.27,30.45c3.36,0,4.89-2.3,4.89-5.76s-1.54-5.76-4.89-5.76-4.89,2.3-4.89,5.76,1.54,5.76,4.89,5.76Z"/>
      <path class="st1" d="M281.25,36.79V12.61h7.87v2.64c1.25-1.82,3.89-3.02,6.72-3.02.86,0,1.58.14,2.06.29v7.48c-.72-.43-2.06-.67-3.07-.67-2.78,0-5.71,2.35-5.71,8.88v8.59h-7.87Z"/>
    </g>
  </g>
  <rect class="st1" y="15.91" width="51.67" height="11.78"/>
  <g>
    <path class="st1" d="M323.31,5.23c-2.84.05-8.08,1.45-10.48,11.22-1.04,4.26-1.45,8.7-.55,13.99.82,4.88,2.28,9.08,3.26,11.4.34.8.86,1.63,1.27,2.15,1.17,1.47,3.11,1.38,3.93.98.89-.44,1.91-1.5,1.54-3.91-.18-1.17-.7-2.87-.99-3.82-.89-2.91-2.08-6.42-2.18-8.92-.14-3.35,1.18-3.78,2.06-3.98,1.47-.32,2.71,1.29,3.88,3.32,1.4,2.42,3.8,6.71,5.76,9.98,1.77,2.96,5.03,6.12,10.27,5.9,5.34-.22,9.28-2.26,11.31-8.67,1.52-4.8,2.55-8.39,4.22-12.06,1.91-4.22,4.47-6.49,6.62-5.79,2,.64,2.49,2.59,2.52,5.46.02,2.54-.27,5.33-.5,7.39-.08.74-.23,2.24-.17,3.08.12,1.64.83,3.27,2.67,3.53,1.96.28,3.54-1.29,4.17-3.19.25-.75.46-1.89.58-2.7.58-4.1.73-6.86.47-11.05-.31-4.91-1.26-9.38-2.94-13.25-1.6-3.7-4.18-6.07-7.48-6.28-3.65-.23-7.85,2.19-10.05,6.89-2.03,4.34-3.65,8.78-4.64,11.06-1,2.3-2.46,3.72-4.72,3.96-2.76.29-5.13-1.71-6.87-4.57-1.52-2.49-4.52-7.22-6.13-8.81-1.51-1.49-3.24-3.36-6.83-3.31"/>
    <polygon class="st1" points="412.21 17.7 401.5 17.7 401.5 6.98 392.87 6.98 392.87 17.7 382.16 17.7 382.16 26.33 392.87 26.33 392.87 37.04 401.5 37.04 401.5 26.33 412.21 26.33 412.21 17.7"/>
  </g>
</svg>