<?xml version="1.0" encoding="UTF-8"?>
<svg id="Layer_1" xmlns="http://www.w3.org/2000/svg" version="1.1" viewBox="0 0 717.35 54.16">
  <!-- Generator: Adobe Illustrator 30.2.1, SVG Export Plug-In . SVG Version: 2.1.1 Build 1)  -->
  <defs>
    <style>
      .st0, .st1 {
        fill: #fff;
      }

      .st1 {
        font-family: ApercuMovistarPlus-Black, 'Apercu Movistar Plus';
        font-size: 47.97px;
        font-weight: 800;
      }
    </style>
  </defs>
  <text class="st1" transform="translate(67.64 40.78)"><tspan x="0" y="0">Editor de Adaptaciones</tspan></text>
  <rect class="st0" y="19.91" width="51.67" height="11.78"/>
  <g>
    <path class="st0" d="M628.45,9.23c-2.84.05-8.08,1.45-10.48,11.22-1.04,4.26-1.45,8.7-.55,13.99.82,4.88,2.28,9.08,3.26,11.4.34.8.86,1.63,1.27,2.15,1.17,1.47,3.11,1.38,3.93.98.89-.44,1.91-1.5,1.54-3.91-.18-1.17-.7-2.87-.99-3.82-.89-2.91-2.08-6.42-2.18-8.92-.14-3.35,1.18-3.78,2.06-3.98,1.47-.32,2.71,1.29,3.88,3.32,1.4,2.42,3.8,6.71,5.76,9.98,1.77,2.96,5.03,6.12,10.27,5.9,5.34-.22,9.28-2.26,11.31-8.67,1.52-4.8,2.55-8.39,4.22-12.06,1.91-4.22,4.47-6.49,6.62-5.79,2,.64,2.49,2.59,2.52,5.46.02,2.54-.27,5.33-.5,7.39-.08.74-.23,2.24-.17,3.08.12,1.64.83,3.27,2.67,3.53,1.96.28,3.54-1.29,4.17-3.19.25-.75.46-1.89.58-2.7.58-4.1.73-6.86.47-11.05-.31-4.91-1.26-9.38-2.94-13.25-1.6-3.7-4.18-6.07-7.48-6.28-3.65-.23-7.85,2.19-10.05,6.89-2.03,4.34-3.65,8.78-4.64,11.06-1,2.3-2.46,3.72-4.72,3.96-2.76.29-5.13-1.71-6.87-4.57-1.52-2.49-4.52-7.22-6.13-8.81-1.51-1.49-3.24-3.36-6.83-3.31"/>
    <polygon class="st0" points="717.35 21.7 706.64 21.7 706.64 10.98 698.01 10.98 698.01 21.7 687.3 21.7 687.3 30.33 698.01 30.33 698.01 41.04 706.64 41.04 706.64 30.33 717.35 30.33 717.35 21.7"/>
  </g>
</svg>