<?xml version="1.0" encoding="UTF-8"?>
<svg id="Contenido" xmlns="http://www.w3.org/2000/svg" version="1.1" viewBox="0 0 124.44 16.71">
  <!-- Generator: Adobe Illustrator 30.0.0, SVG Export Plug-In . SVG Version: 2.1.1 Build 123)  -->
  <defs>
    <style>
      .st0 {
        fill: #fff;
      }
    </style>
  </defs>
  <g>
    <path class="st0" d="M8.85,10.46c-.46,1.85-1.92,3.18-4.11,3.18-2.44,0-4.74-1.79-4.74-5.37S2.29,2.91,4.74,2.91c2.19,0,3.65,1.33,4.11,3.18l-1.27.37c-.48-1.47-1.46-2.29-2.83-2.29-1.94,0-3.38,1.39-3.38,4.11s1.44,4.11,3.38,4.11c1.38,0,2.35-.82,2.83-2.29l1.27.38Z"/>
    <path class="st0" d="M19.71,8.27c0,3.5-2.21,5.37-4.71,5.37s-4.71-1.88-4.71-5.37,2.2-5.37,4.71-5.37,4.71,1.88,4.71,5.37ZM11.65,8.27c0,2.75,1.48,4.11,3.34,4.11s3.35-1.36,3.35-4.11-1.48-4.11-3.35-4.11-3.34,1.36-3.34,4.11Z"/>
    <path class="st0" d="M22.65,3.03v9.24h4.77v1.26h-6.09V3.03h1.32Z"/>
    <path class="st0" d="M34.93,3.03v1.26h-4.71v3.02h3.81v1.26h-3.81v3.71h4.86v1.26h-6.18V3.03h6.03Z"/>
    <path class="st0" d="M45.13,10.46c-.46,1.85-1.92,3.18-4.11,3.18-2.44,0-4.74-1.79-4.74-5.37s2.29-5.37,4.74-5.37c2.19,0,3.65,1.33,4.11,3.18l-1.27.37c-.48-1.47-1.46-2.29-2.83-2.29-1.94,0-3.38,1.39-3.38,4.11s1.44,4.11,3.38,4.11c1.38,0,2.35-.82,2.83-2.29l1.27.38Z"/>
    <path class="st0" d="M55.42,10.46c-.46,1.85-1.92,3.18-4.11,3.18-2.44,0-4.74-1.79-4.74-5.37s2.29-5.37,4.74-5.37c2.19,0,3.65,1.33,4.11,3.18l-1.27.37c-.48-1.47-1.46-2.29-2.83-2.29-1.94,0-3.38,1.39-3.38,4.11s1.44,4.11,3.38,4.11c1.38,0,2.35-.82,2.83-2.29l1.27.38Z"/>
    <path class="st0" d="M58.42,3.03v10.5h-1.32V3.03h1.32Z"/>
    <path class="st0" d="M69.72,8.27c0,3.5-2.21,5.37-4.71,5.37s-4.71-1.88-4.71-5.37,2.2-5.37,4.71-5.37,4.71,1.88,4.71,5.37ZM61.66,8.27c0,2.75,1.48,4.11,3.34,4.11s3.35-1.36,3.35-4.11-1.48-4.11-3.35-4.11-3.34,1.36-3.34,4.11ZM64.99.03h1.81l-1.81,2.16h-1.02L64.99.03Z"/>
    <path class="st0" d="M78.94,3.03v10.5h-1.54l-4.74-8.35v8.35h-1.32V3.03h1.54l4.74,8.35V3.03h1.32Z"/>
  </g>
  <g>
    <path class="st0" d="M91.6,1.93c-1.05.02-2.99.53-3.87,4.15-.39,1.57-.53,3.21-.2,5.17.3,1.8.84,3.36,1.21,4.21.13.3.32.6.47.79.43.54,1.15.51,1.45.36.33-.16.71-.55.57-1.44-.07-.43-.26-1.06-.36-1.41-.33-1.07-.77-2.37-.81-3.3-.05-1.24.44-1.4.76-1.47.54-.12,1,.48,1.43,1.23.52.89,1.4,2.48,2.13,3.69.65,1.09,1.86,2.26,3.79,2.18,1.97-.08,3.43-.83,4.18-3.2.56-1.77.94-3.1,1.56-4.45.71-1.56,1.65-2.4,2.44-2.14.74.24.92.96.93,2.02,0,.94-.1,1.97-.18,2.73-.03.28-.09.83-.06,1.14.04.6.31,1.21.99,1.31.73.1,1.31-.48,1.54-1.18.09-.28.17-.7.21-1,.21-1.51.27-2.53.17-4.08-.11-1.81-.47-3.46-1.09-4.89-.59-1.37-1.54-2.24-2.76-2.32-1.35-.09-2.9.81-3.71,2.55-.75,1.6-1.35,3.24-1.71,4.08-.37.85-.91,1.38-1.74,1.46-1.02.11-1.9-.63-2.54-1.69-.56-.92-1.67-2.67-2.27-3.26-.56-.55-1.2-1.24-2.52-1.22"/>
    <polygon class="st0" points="124.44 6.54 120.48 6.54 120.48 2.58 117.29 2.58 117.29 6.54 113.34 6.54 113.34 9.73 117.29 9.73 117.29 13.69 120.48 13.69 120.48 9.73 124.44 9.73 124.44 6.54"/>
  </g>
</svg>