<?xml version="1.0" encoding="UTF-8"?>
<svg id="Layer_1" xmlns="http://www.w3.org/2000/svg" version="1.1" viewBox="0 0 14.03 14.03">
  <!-- Generator: Adobe Illustrator 30.2.1, SVG Export Plug-In . SVG Version: 2.1.1 Build 1)  -->
  <defs>
    <style>
      .st0 {
        fill: none;
        stroke: #ffba00;
        stroke-miterlimit: 10;
      }

      .st1 {
        fill: #ffba00;
      }
    </style>
  </defs>
  <rect class="st0" x=".37" y=".4" width="13.03" height="13.03" rx="1.87" ry="1.87"/>
  <g>
    <g>
      <rect class="st1" x=".37" y="5.5" width="1.92" height="1.92"/>
      <rect class="st1" x="4.16" y="5.5" width="1.92" height="1.92"/>
      <rect class="st1" x="7.95" y="5.5" width="1.92" height="1.92"/>
      <rect class="st1" x="11.74" y="5.5" width="1.92" height="1.92"/>
    </g>
    <g>
      <rect class="st1" x="2.27" y="3.63" width="1.92" height="1.92"/>
      <rect class="st1" x="6.06" y="3.63" width="1.92" height="1.92"/>
      <rect class="st1" x="9.85" y="3.63" width="1.92" height="1.92"/>
    </g>
    <g>
      <rect class="st1" x="2.27" y="7.42" width="1.92" height="1.92"/>
      <rect class="st1" x="6.06" y="7.42" width="1.92" height="1.92"/>
      <rect class="st1" x="9.85" y="7.42" width="1.92" height="1.92"/>
    </g>
    <path class="st1" d="M.38,9.31v2.46c0,1.03.83,1.86,1.86,1.86h9.56c1.03,0,1.86-.83,1.86-1.86v-2.46H.38ZM4.24,12.17h-1.92v-1.92h1.92v1.92ZM8.03,12.17h-1.92v-1.92h1.92v1.92ZM11.82,12.17h-1.92v-1.92h1.92v1.92Z"/>
  </g>
</svg>