<?xml version="1.0" encoding="UTF-8"?>
<svg id="Layer_1" xmlns="http://www.w3.org/2000/svg" version="1.1" viewBox="0 0 17.11 10.66">
  <!-- Generator: Adobe Illustrator 30.2.1, SVG Export Plug-In . SVG Version: 2.1.1 Build 1)  -->
  <defs>
    <style>
      .st0 {
        fill: #3a3a3a;
      }
    </style>
  </defs>
  <path class="st0" d="M8.55,10.66c-1.67,0-3.33-.48-4.8-1.39-1.41-.87-2.65-2.13-3.58-3.65l-.18-.29.18-.29c.93-1.52,2.17-2.78,3.58-3.65,1.47-.91,3.13-1.39,4.8-1.39s3.33.48,4.8,1.39c1.41.87,2.65,2.13,3.58,3.65l.18.29-.18.29c-.93,1.52-2.17,2.78-3.58,3.65-1.47.91-3.13,1.39-4.8,1.39ZM1.31,5.33c1.74,2.65,4.42,4.22,7.24,4.22s5.51-1.57,7.24-4.22c-1.74-2.65-4.42-4.22-7.24-4.22S3.05,2.68,1.31,5.33Z"/>
  <circle class="st0" cx="8.55" cy="5.29" r="3.34"/>
</svg>