<?xml version="1.0" encoding="UTF-8"?>
<svg id="Layer_1" xmlns="http://www.w3.org/2000/svg" version="1.1" viewBox="0 0 10.91 13.08">
  <!-- Generator: Adobe Illustrator 30.2.1, SVG Export Plug-In . SVG Version: 2.1.1 Build 1)  -->
  <defs>
    <style>
      .st0 {
        fill: #ccc;
      }
    </style>
  </defs>
  <path class="st0" d="M8.71,13.08H2.2c-.95,0-1.72-.77-1.72-1.72V1.67h9.94v9.69c0,.95-.77,1.72-1.72,1.72ZM1.61,2.79v8.57c0,.33.27.6.6.6h6.5c.33,0,.6-.27.6-.6V2.79H1.61Z"/>
  <g>
    <rect class="st0" x="2.63" y="4.4" width="1.12" height="5.95"/>
    <rect class="st0" x="4.84" y="4.4" width="1.12" height="5.95"/>
    <rect class="st0" x="7.04" y="4.4" width="1.12" height="5.95"/>
  </g>
  <rect class="st0" y="1.67" width="10.91" height="1.12"/>
  <path class="st0" d="M7.63,2.79H3.15v-1.73c0-.58.47-1.06,1.06-1.06h2.37c.58,0,1.06.47,1.06,1.06v1.73ZM4.27,1.67h2.25v-.55h-2.25v.55Z"/>
</svg>