<?xml version="1.0" encoding="UTF-8"?>
<svg id="Capa_1" xmlns="http://www.w3.org/2000/svg" version="1.1" viewBox="0 0 145 38">
  <!-- Generator: Adobe Illustrator 30.2.1, SVG Export Plug-In . SVG Version: 2.1.1 Build 1)  -->
  <defs>
    <style>
      .st0 {
        isolation: isolate;
      }

      .st1 {
        fill: #fff;
      }
    </style>
  </defs>
  <rect class="st1" width="145" height="38" rx="5.1" ry="5.1"/>
  <g class="st0">
    <g class="st0">
      <path d="M15.78,19.48v7.12h-3.38V8.4h6.86c3.85,0,5.69,2.37,5.69,5.54s-1.85,5.54-5.69,5.54h-3.48ZM21.53,13.94c0-1.66-.91-2.42-2.39-2.42h-3.35v4.84h3.35c1.48,0,2.39-.75,2.39-2.42Z"/>
      <path d="M35.28,26.6v-2.11c-.96,1.38-2.37,2.31-4.06,2.31-2.34,0-4.03-1.33-4.03-3.95v-9.36h3.22v8.4c0,1.56.78,2.16,1.87,2.16,1.56,0,2.99-1.87,2.99-5.33v-5.23h3.22v13.1h-3.22Z"/>
      <path d="M47.71,26.81c-1.61,0-2.81-.88-3.17-1.56v1.35h-3.22V8.19h3.22v6.5c.57-.73,1.85-1.4,3.17-1.4,3.95,0,5.98,2.73,5.98,6.76s-2.03,6.76-5.98,6.76ZM47.27,16.04c-1.69,0-3.02,1.4-3.02,4s1.33,4,3.02,4,3.04-1.4,3.04-4-1.35-4-3.04-4Z"/>
      <path d="M59.51,8.19v18.41h-3.22V8.19h3.22Z"/>
      <path d="M64.06,7.65c1.2,0,2.08.91,2.08,2.08s-.88,2.08-2.08,2.08-2.08-.91-2.08-2.08.88-2.08,2.08-2.08ZM65.68,13.5v13.1h-3.22v-13.1h3.22Z"/>
      <path d="M80.81,23.06c-.99,2.47-3.04,3.74-5.95,3.74-4.26,0-6.4-3.07-6.4-6.76s2.13-6.76,6.4-6.76c2.91,0,4.97,1.27,5.95,3.74l-2.89,1.17c-.68-1.38-1.61-2.16-3.07-2.16-2.03,0-3.02,1.69-3.02,4s.99,4,3.02,4c1.46,0,2.39-.78,3.07-2.16l2.89,1.17Z"/>
      <path d="M84.76,7.65c1.2,0,2.08.91,2.08,2.08s-.88,2.08-2.08,2.08-2.08-.91-2.08-2.08.88-2.08,2.08-2.08ZM86.37,13.5v13.1h-3.22v-13.1h3.22Z"/>
      <path d="M95.13,13.29c1.33,0,2.6.68,3.17,1.4v-6.5h3.22v18.41h-3.22v-1.35c-.36.68-1.56,1.56-3.17,1.56-3.95,0-5.98-2.73-5.98-6.76s2.03-6.76,5.98-6.76ZM95.57,24.05c1.69,0,3.02-1.4,3.02-4s-1.33-4-3.02-4-3.04,1.4-3.04,4,1.35,4,3.04,4Z"/>
      <path d="M110.26,13.29c1.46,0,2.86.73,3.43,1.46v-1.25h3.22v13.1h-3.22v-1.35c-.62.86-1.82,1.56-3.43,1.56-3.95,0-6.24-2.73-6.24-6.76s2.29-6.76,6.24-6.76ZM110.71,24.05c1.69,0,3.28-1.4,3.28-4s-1.59-4-3.28-4-3.3,1.4-3.3,4,1.61,4,3.3,4Z"/>
      <path d="M125.94,13.29c1.33,0,2.6.68,3.17,1.4v-6.5h3.22v18.41h-3.22v-1.35c-.36.68-1.56,1.56-3.17,1.56-3.95,0-5.98-2.73-5.98-6.76s2.03-6.76,5.98-6.76ZM126.38,24.05c1.69,0,3.02-1.4,3.02-4s-1.33-4-3.02-4-3.04,1.4-3.04,4,1.35,4,3.04,4Z"/>
    </g>
  </g>
</svg>