<?xml version="1.0" encoding="UTF-8"?>
<svg id="Layer_1" xmlns="http://www.w3.org/2000/svg" xmlns:xlink="http://www.w3.org/1999/xlink" version="1.1" viewBox="0 0 705 61">
  <!-- Generator: Adobe Illustrator 30.3.0, SVG Export Plug-In . SVG Version: 2.1.3 Build 182)  -->
  <defs>
    <style>
      .st0 {
        clip-path: url(#clippath-1);
      }

      .st1 {
        clip-path: url(#clippath-3);
      }

      .st2 {
        clip-path: url(#clippath-4);
      }

      .st3 {
        clip-path: url(#clippath-2);
      }

      .st4 {
        clip-path: url(#clippath-6);
      }

      .st5 {
        clip-path: url(#clippath-5);
      }

      .st6 {
        fill: #ffc000;
      }

      .st7 {
        clip-path: url(#clippath);
      }
    </style>
    <clipPath id="clippath">
      <path d="M58.39,12.41h-24.77c-.17,0-.34.09-.43.23l-7.47,11.17c-.12.19-.11.43.03.6l19.86,23.63s.04.05.07.07c.22.18.55.15.73-.07l19.85-23.63c.14-.17.16-.42.03-.6l-7.47-11.17c-.1-.14-.26-.23-.43-.23ZM58.39,8.92c1.37,0,2.65.68,3.4,1.8l7.47,11.17c.98,1.47.88,3.39-.26,4.75l-19.85,23.63c-1.43,1.7-4,1.94-5.73.54-.2-.16-.38-.34-.54-.54l-19.86-23.63c-1.14-1.35-1.24-3.28-.26-4.75l7.47-11.17c.75-1.13,2.03-1.8,3.4-1.8h24.77Z"/>
    </clipPath>
    <clipPath id="clippath-1">
      <rect x="22.08" y="8.92" width="47.9" height="43.03"/>
    </clipPath>
    <clipPath id="clippath-2">
      <rect x="24.65" y="22.01" width="42.81" height="4.03"/>
    </clipPath>
    <clipPath id="clippath-3">
      <polygon points="40.53 11.44 44.74 12.41 36.67 24.28 47.26 47.86 43.5 49.21 32.53 24.79 32.15 23.95 32.67 23.18 40.53 11.44"/>
    </clipPath>
    <clipPath id="clippath-4">
      <rect x="22.08" y="8.92" width="47.9" height="43.03"/>
    </clipPath>
    <clipPath id="clippath-5">
      <polygon points="50.99 10.11 47.63 11.96 55.49 24.13 44.74 47.88 48.39 49.21 59.49 24.64 59.85 23.81 59.35 23.05 50.99 10.11"/>
    </clipPath>
    <clipPath id="clippath-6">
      <rect x="22.08" y="8.92" width="47.9" height="43.03"/>
    </clipPath>
  </defs>
  <rect class="st6" width="705" height="61" rx="9.32" ry="9.32"/>
  <g>
    <g>
      <path d="M58.39,12.41h-24.77c-.17,0-.34.09-.43.23l-7.47,11.17c-.12.19-.11.43.03.6l19.86,23.63s.04.05.07.07c.22.18.55.15.73-.07l19.85-23.63c.14-.17.16-.42.03-.6l-7.47-11.17c-.1-.14-.26-.23-.43-.23ZM58.39,8.92c1.37,0,2.65.68,3.4,1.8l7.47,11.17c.98,1.47.88,3.39-.26,4.75l-19.85,23.63c-1.43,1.7-4,1.94-5.73.54-.2-.16-.38-.34-.54-.54l-19.86-23.63c-1.14-1.35-1.24-3.28-.26-4.75l7.47-11.17c.75-1.13,2.03-1.8,3.4-1.8h24.77Z"/>
      <g class="st7">
        <g>
          <rect x="22.08" y="8.92" width="47.9" height="43.03"/>
          <g class="st0">
            <rect x="21.64" y="8.48" width="48.79" height="43.91"/>
          </g>
        </g>
      </g>
    </g>
    <g>
      <rect x="24.65" y="22.01" width="42.81" height="4.03"/>
      <g class="st3">
        <rect x="24.21" y="21.57" width="43.7" height="4.92"/>
      </g>
    </g>
    <g>
      <polygon points="40.53 11.44 44.74 12.41 36.67 24.28 47.26 47.86 43.5 49.21 32.53 24.79 32.15 23.95 32.67 23.18 40.53 11.44"/>
      <g class="st1">
        <g>
          <rect x="22.08" y="8.92" width="47.9" height="43.03"/>
          <g class="st2">
            <rect x="31.71" y="10.99" width="16" height="38.66"/>
          </g>
        </g>
      </g>
    </g>
    <g>
      <polygon points="50.99 10.11 47.63 11.96 55.49 24.13 44.74 47.88 48.39 49.21 59.49 24.64 59.85 23.81 59.35 23.05 50.99 10.11"/>
      <g class="st5">
        <g>
          <rect x="22.08" y="8.92" width="47.9" height="43.03"/>
          <g class="st4">
            <rect x="44.3" y="9.66" width="16" height="39.99"/>
          </g>
        </g>
      </g>
    </g>
  </g>
  <g>
    <g>
      <path d="M103.2,18.54v2.31h-12.28v8.73h10.04v2.31h-10.04v10.45h12.65v2.31h-15.12v-26.13h14.74Z"/>
      <path d="M118.76,28.47l-1.64,1.42c-1.16-1.53-2.2-2.17-3.69-2.17-1.6,0-2.76,1.12-2.76,2.84,0,3.81,8.92,3.06,8.92,8.51,0,3.62-2.24,5.9-5.82,5.9-3.99,0-6.05-2.69-6.79-5.15l2.05-1.08c.82,2.28,1.98,4.07,4.74,4.07,2.2,0,3.4-1.31,3.4-3.36,0-4.29-8.88-2.95-8.88-8.84,0-3.02,2.28-5.04,5.26-5.04,2.39,0,3.96,1.12,5.23,2.91Z"/>
      <path d="M121.71,25.86h3.32v-6.08l2.31-1.53v7.61h5.08v2.17h-5.08v11.68c0,2.13,1.08,3.1,2.69,3.1.86,0,1.87-.22,2.58-.67v2.35c-.75.3-1.72.49-2.87.49-2.72,0-4.7-1.68-4.7-5.64v-11.31h-3.32v-2.17Z"/>
      <path d="M153.02,25.86v18.81h-2.31v-2.46c-.97,1.46-3.55,2.76-6.23,2.76-5.49,0-8.7-4.33-8.7-9.7s3.21-9.7,8.7-9.7c2.35,0,4.85.97,6.23,2.84v-2.54h2.31ZM144.59,42.8c3.99,0,6.35-3.28,6.35-7.54s-2.35-7.54-6.35-7.54-6.38,3.36-6.38,7.54,2.39,7.54,6.38,7.54Z"/>
      <path d="M168.55,52.28v-26.42h2.31v2.46c.97-1.46,3.47-2.76,5.93-2.76,5.49,0,8.4,4.33,8.4,9.7s-2.91,9.7-8.4,9.7c-2.02,0-4.55-1.16-5.93-2.95v10.26h-2.31ZM176.68,27.72c-3.99,0-6.05,3.28-6.05,7.54s2.05,7.54,6.05,7.54,6.08-3.36,6.08-7.54-2.09-7.54-6.08-7.54Z"/>
      <path d="M205.08,35.26h-14.18c0,4.4,2.17,7.54,5.93,7.54,2.87,0,4.4-1.23,5.79-4.03l2.05,1.01c-1.94,3.84-4.37,5.19-7.84,5.19-5,0-8.36-4.11-8.36-9.7s3.36-9.7,8.36-9.7,8.25,3.47,8.25,8.66v1.04ZM191.05,33.1h11.65c-.45-3.25-2.46-5.37-5.86-5.37-3.14,0-5.15,2.31-5.79,5.37Z"/>
      <path d="M212.14,18.24v26.42h-2.31v-26.42h2.31Z"/>
      <path d="M218.74,18.54h3.47l-4.25,5.23h-1.83l2.61-5.23ZM218.89,25.86v18.81h-2.31v-18.81h2.31Z"/>
      <path d="M239.94,39.78c-1.31,3.4-3.88,5.19-7.58,5.19-5.52,0-8.32-4.78-8.32-9.7s2.8-9.7,8.32-9.7c3.69,0,6.27,1.79,7.58,5.19l-2.09.82c-1.01-2.46-2.69-3.84-5.49-3.84-4.03,0-5.9,3.47-5.9,7.54s1.87,7.54,5.9,7.54c2.8,0,4.48-1.38,5.49-3.84l2.09.82Z"/>
      <path d="M244.2,25.86h2.31v12.62c0,2.72,1.23,4.33,3.84,4.33,3.43,0,6.08-3.36,6.08-8.7v-8.25h2.31v18.81h-2.31v-3.92c-1.27,2.46-3.73,4.22-6.46,4.22-3.55,0-5.79-2.24-5.79-6.2v-12.91Z"/>
      <path d="M265.62,18.24v26.42h-2.31v-26.42h2.31Z"/>
      <path d="M286.63,25.86v18.81h-2.31v-2.46c-.97,1.46-3.55,2.76-6.23,2.76-5.49,0-8.7-4.33-8.7-9.7s3.21-9.7,8.7-9.7c2.35,0,4.85.97,6.23,2.84v-2.54h2.31ZM278.2,42.8c3.99,0,6.35-3.28,6.35-7.54s-2.35-7.54-6.35-7.54-6.38,3.36-6.38,7.54,2.39,7.54,6.38,7.54Z"/>
      <path d="M315.33,25.86l-9.33,26.42h-2.31l2.72-7.73-6.76-18.7h2.43l5.6,15.23,5.23-15.23h2.43Z"/>
      <path d="M353.14,44.67h-2.31v-12.62c0-2.8-.75-4.33-3.36-4.33-3.06,0-5.6,3.36-5.6,8.7v8.25h-2.31v-12.62c0-2.8-.75-4.33-3.36-4.33-3.06,0-5.6,3.36-5.6,8.7v8.25h-2.31v-18.81h2.31v3.92c1.16-2.46,3.25-4.22,5.97-4.22,2.87,0,4.55,1.49,5.11,4.18,1.23-2.39,3.58-4.18,6.16-4.18,3.69,0,5.3,2.09,5.3,6.2v12.91Z"/>
      <path d="M357.88,25.86h2.31v12.62c0,2.72,1.23,4.33,3.84,4.33,3.43,0,6.08-3.36,6.08-8.7v-8.25h2.31v18.81h-2.31v-3.92c-1.27,2.46-3.73,4.22-6.46,4.22-3.55,0-5.79-2.24-5.79-6.2v-12.91Z"/>
      <path d="M392.89,39.78c-1.31,3.4-3.88,5.19-7.58,5.19-5.52,0-8.32-4.78-8.32-9.7s2.8-9.7,8.32-9.7c3.7,0,6.27,1.79,7.58,5.19l-2.09.82c-1.01-2.46-2.69-3.84-5.49-3.84-4.03,0-5.9,3.47-5.9,7.54s1.87,7.54,5.9,7.54c2.8,0,4.48-1.38,5.49-3.84l2.09.82Z"/>
      <path d="M411.74,44.67h-2.31v-12.62c0-2.72-1.34-4.33-3.92-4.33-3.43,0-6.35,3.47-6.35,8.92v8.02h-2.31v-26.42h2.31v11.72c1.31-3.02,4.14-4.4,6.72-4.4,3.7,0,5.86,2.24,5.86,6.2v12.91Z"/>
      <path d="M424.95,25.56c5.49,0,8.81,4.78,8.81,9.7s-3.32,9.7-8.81,9.7-8.81-4.78-8.81-9.7,3.32-9.7,8.81-9.7ZM424.95,42.8c4.22,0,6.38-3.77,6.38-7.54s-2.17-7.54-6.38-7.54-6.38,3.77-6.38,7.54,2.16,7.54,6.38,7.54Z"/>
      <path d="M472.87,44.67h-2.31v-12.62c0-2.8-.75-4.33-3.36-4.33-3.06,0-5.6,3.36-5.6,8.7v8.25h-2.31v-12.62c0-2.8-.75-4.33-3.36-4.33-3.06,0-5.6,3.36-5.6,8.7v8.25h-2.31v-18.81h2.31v3.92c1.16-2.46,3.25-4.22,5.97-4.22,2.87,0,4.55,1.49,5.11,4.18,1.23-2.39,3.58-4.18,6.16-4.18,3.69,0,5.3,2.09,5.3,6.2v12.91Z"/>
      <path d="M494.48,25.86v18.81h-2.31v-2.46c-.97,1.46-3.55,2.76-6.23,2.76-5.49,0-8.7-4.33-8.7-9.7s3.21-9.7,8.7-9.7c2.35,0,4.85.97,6.23,2.84v-2.54h2.31ZM486.05,42.8c3.99,0,6.34-3.28,6.34-7.54s-2.35-7.54-6.34-7.54-6.38,3.36-6.38,7.54,2.39,7.54,6.38,7.54ZM487.09,18.54h3.47l-4.25,5.23h-1.83l2.61-5.23Z"/>
      <path d="M510.64,28.47l-1.64,1.42c-1.16-1.53-2.2-2.17-3.7-2.17-1.6,0-2.76,1.12-2.76,2.84,0,3.81,8.92,3.06,8.92,8.51,0,3.62-2.24,5.9-5.82,5.9-3.99,0-6.05-2.69-6.79-5.15l2.05-1.08c.82,2.28,1.98,4.07,4.74,4.07,2.2,0,3.4-1.31,3.4-3.36,0-4.29-8.88-2.95-8.88-8.84,0-3.02,2.28-5.04,5.26-5.04,2.39,0,3.96,1.12,5.22,2.91Z"/>
      <path d="M525.79,52.28v-26.42h2.31v2.46c.97-1.46,3.47-2.76,5.93-2.76,5.49,0,8.4,4.33,8.4,9.7s-2.91,9.7-8.4,9.7c-2.02,0-4.55-1.16-5.93-2.95v10.26h-2.31ZM533.93,27.72c-3.99,0-6.05,3.28-6.05,7.54s2.05,7.54,6.05,7.54,6.08-3.36,6.08-7.54-2.09-7.54-6.08-7.54Z"/>
      <path d="M554.53,25.56c5.49,0,8.81,4.78,8.81,9.7s-3.32,9.7-8.81,9.7-8.81-4.78-8.81-9.7,3.32-9.7,8.81-9.7ZM554.53,42.8c4.22,0,6.38-3.77,6.38-7.54s-2.17-7.54-6.38-7.54-6.38,3.77-6.38,7.54,2.16,7.54,6.38,7.54Z"/>
      <path d="M577.34,28.39c-.82-.45-1.68-.67-2.65-.67-2.87,0-5.19,3.25-5.19,9.67v7.28h-2.31v-18.81h2.31v3.36c1.12-2.31,2.99-3.66,5.52-3.66,1.08,0,1.79.22,2.31.45v2.39Z"/>
    </g>
    <path d="M610.42,38.71h7.2l-5.93,11.27h-3.92l2.65-11.27Z"/>
    <path d="M597.93,34.96c-5.15,0-8.66-3.43-8.66-8.51s3.66-8.51,8.96-8.51c5.67,0,9.11,3.62,9.11,8.51,0,1.57-.49,3.58-1.9,6.08l-6.79,12.13h-6.38l5.67-9.7ZM601.47,26.45c0-2.05-1.46-3.36-3.25-3.36s-3.25,1.31-3.25,3.36c0,2.17,1.46,3.36,3.25,3.36s3.25-1.19,3.25-3.36Z"/>
    <path d="M626.52,34.96c-5.15,0-8.66-3.43-8.66-8.51s3.66-8.51,8.96-8.51c5.67,0,9.11,3.62,9.11,8.51,0,1.57-.49,3.58-1.9,6.08l-6.79,12.13h-6.38l5.67-9.7ZM630.07,26.45c0-2.05-1.46-3.36-3.25-3.36s-3.25,1.31-3.25,3.36c0,2.17,1.46,3.36,3.25,3.36s3.25-1.19,3.25-3.36Z"/>
    <path d="M646.44,34.96c-5.15,0-8.66-3.43-8.66-8.51s3.66-8.51,8.96-8.51c5.67,0,9.11,3.62,9.11,8.51,0,1.57-.49,3.58-1.9,6.08l-6.79,12.13h-6.38l5.67-9.7ZM649.98,26.45c0-2.05-1.46-3.36-3.25-3.36s-3.25,1.31-3.25,3.36c0,2.17,1.46,3.36,3.25,3.36s3.25-1.19,3.25-3.36Z"/>
    <path d="M660.08,26h1.68c1.64-6.27,6.34-8.06,10.26-8.06,4.14,0,6.94,1.75,8.43,4.52l-4.74,2.8c-.78-1.31-1.98-2.24-3.7-2.24s-3.43.45-4.4,2.99h7.46l-2.17,4.63h-6.05v1.34h8.21l-2.17,4.63h-5.3c.97,2.39,2.76,2.69,4.4,2.69s3.06-.9,3.88-2.46l4.67,3.1c-1.83,3.21-4.67,4.74-8.55,4.74s-8.62-1.79-10.26-8.06h-3.84l2.17-4.63h1.04v-1.34h-3.21l2.17-4.63Z"/>
  </g>
</svg>