<?xml version="1.0" encoding="UTF-8"?>
<svg id="Layer_1" xmlns="http://www.w3.org/2000/svg" version="1.1" viewBox="0 0 667 61">
  <!-- Generator: Adobe Illustrator 30.3.0, SVG Export Plug-In . SVG Version: 2.1.3 Build 182)  -->
  <defs>
    <style>
      .st0 {
        fill: none;
        stroke: #3588ff;
        stroke-miterlimit: 10;
        stroke-width: 4px;
      }

      .st1 {
        fill: #3588ff;
      }

      .st2 {
        fill: #fff;
      }
    </style>
  </defs>
  <rect class="st2" width="667" height="61" rx="9.32" ry="9.32"/>
  <g>
    <circle class="st0" cx="50.71" cy="30.52" r="18.75"/>
    <path class="st1" d="M46.2,38.27l13.7-7.77c.48-.27.48-.95,0-1.22l-13.7-7.77c-.47-.27-1.05.07-1.05.61v15.55c0,.54.58.88,1.05.61Z"/>
  </g>
  <g>
    <path class="st1" d="M93.98,19.04c6.72,0,11.87,4.89,11.87,13.06s-5.15,13.06-11.87,13.06h-6.87v-26.13h6.87ZM89.57,21.35v21.5h4.44c4.81,0,9.26-3.25,9.26-10.75s-4.44-10.75-9.26-10.75h-4.44Z"/>
    <path class="st1" d="M111.22,19.04c1.08,0,1.9.82,1.9,1.9s-.82,1.9-1.9,1.9-1.9-.82-1.9-1.9.82-1.9,1.9-1.9ZM112.38,26.35v18.81h-2.31v-18.81h2.31Z"/>
    <path class="st1" d="M128.02,28.96l-1.64,1.42c-1.16-1.53-2.2-2.17-3.69-2.17-1.6,0-2.76,1.12-2.76,2.84,0,3.81,8.92,3.06,8.92,8.51,0,3.62-2.24,5.9-5.82,5.9-3.99,0-6.05-2.69-6.79-5.15l2.05-1.08c.82,2.28,1.98,4.07,4.74,4.07,2.2,0,3.4-1.31,3.4-3.36,0-4.29-8.88-2.95-8.88-8.84,0-3.02,2.28-5.04,5.26-5.04,2.39,0,3.96,1.12,5.23,2.91Z"/>
    <path class="st1" d="M142.31,21.35c-.49-.22-1.05-.45-1.94-.45-2.05,0-3.32,1.23-3.32,3.88v1.57h4.55v2.16h-4.55v16.65h-2.31v-16.65h-2.99v-2.16h2.99v-1.19c0-4.4,2.16-6.42,5.82-6.42.56,0,1.27.11,1.75.37v2.24Z"/>
    <path class="st1" d="M154.78,28.89c-.82-.45-1.68-.67-2.65-.67-2.87,0-5.19,3.25-5.19,9.67v7.28h-2.31v-18.81h2.31v3.36c1.12-2.31,2.99-3.66,5.52-3.66,1.08,0,1.79.22,2.31.45v2.39Z"/>
    <path class="st1" d="M158.81,26.35h2.31v12.61c0,2.72,1.23,4.33,3.84,4.33,3.43,0,6.08-3.36,6.08-8.7v-8.25h2.31v18.81h-2.31v-3.92c-1.27,2.46-3.73,4.22-6.46,4.22-3.55,0-5.79-2.24-5.79-6.2v-12.91Z"/>
    <path class="st1" d="M177.06,26.35h3.32v-6.08l2.31-1.53v7.61h5.08v2.16h-5.08v11.68c0,2.13,1.08,3.1,2.69,3.1.86,0,1.87-.22,2.58-.67v2.35c-.75.3-1.72.49-2.87.49-2.72,0-4.7-1.68-4.7-5.64v-11.31h-3.32v-2.16Z"/>
    <path class="st1" d="M208.37,26.35v18.81h-2.31v-2.46c-.97,1.46-3.55,2.76-6.23,2.76-5.49,0-8.7-4.33-8.7-9.7s3.21-9.7,8.7-9.7c2.35,0,4.85.97,6.23,2.84v-2.54h2.31ZM199.94,43.3c3.99,0,6.35-3.28,6.35-7.54s-2.35-7.54-6.35-7.54-6.38,3.36-6.38,7.54,2.39,7.54,6.38,7.54Z"/>
    <path class="st1" d="M239.24,35.76h-14.18c0,4.4,2.17,7.54,5.93,7.54,2.87,0,4.4-1.23,5.79-4.03l2.05,1.01c-1.94,3.84-4.37,5.19-7.84,5.19-5,0-8.36-4.11-8.36-9.7s3.36-9.7,8.36-9.7,8.25,3.47,8.25,8.66v1.04ZM225.2,33.59h11.65c-.45-3.25-2.46-5.37-5.86-5.37-3.14,0-5.15,2.31-5.79,5.37Z"/>
    <path class="st1" d="M246.29,18.74v26.42h-2.31v-26.42h2.31Z"/>
    <path class="st1" d="M261.55,52.78v-26.42h2.31v2.46c.97-1.46,3.47-2.76,5.93-2.76,5.49,0,8.4,4.33,8.4,9.7s-2.91,9.7-8.4,9.7c-2.02,0-4.55-1.16-5.93-2.95v10.26h-2.31ZM269.69,28.22c-3.99,0-6.05,3.28-6.05,7.54s2.05,7.54,6.05,7.54,6.08-3.36,6.08-7.54-2.09-7.54-6.08-7.54Z"/>
    <path class="st1" d="M292.49,28.89c-.82-.45-1.68-.67-2.65-.67-2.87,0-5.19,3.25-5.19,9.67v7.28h-2.31v-18.81h2.31v3.36c1.12-2.31,2.99-3.66,5.52-3.66,1.08,0,1.79.22,2.31.45v2.39Z"/>
    <path class="st1" d="M297.16,19.04c1.08,0,1.9.82,1.9,1.9s-.82,1.9-1.9,1.9-1.9-.82-1.9-1.9.82-1.9,1.9-1.9ZM298.32,26.35v18.81h-2.31v-18.81h2.31Z"/>
    <path class="st1" d="M328.14,45.16h-2.31v-12.62c0-2.8-.75-4.33-3.36-4.33-3.06,0-5.6,3.36-5.6,8.7v8.25h-2.31v-12.62c0-2.8-.75-4.33-3.36-4.33-3.06,0-5.6,3.36-5.6,8.7v8.25h-2.31v-18.81h2.31v3.92c1.16-2.46,3.25-4.22,5.97-4.22,2.87,0,4.55,1.49,5.11,4.18,1.23-2.39,3.58-4.18,6.16-4.18,3.69,0,5.3,2.09,5.3,6.19v12.91Z"/>
    <path class="st1" d="M349.15,35.76h-14.18c0,4.4,2.17,7.54,5.93,7.54,2.87,0,4.4-1.23,5.79-4.03l2.05,1.01c-1.94,3.84-4.37,5.19-7.84,5.19-5,0-8.36-4.11-8.36-9.7s3.36-9.7,8.36-9.7,8.25,3.47,8.25,8.66v1.04ZM335.12,33.59h11.65c-.45-3.25-2.46-5.37-5.86-5.37-3.13,0-5.15,2.31-5.79,5.37Z"/>
    <path class="st1" d="M363.71,28.89c-.82-.45-1.68-.67-2.65-.67-2.87,0-5.19,3.25-5.19,9.67v7.28h-2.31v-18.81h2.31v3.36c1.12-2.31,2.99-3.66,5.52-3.66,1.08,0,1.79.22,2.31.45v2.39Z"/>
    <path class="st1" d="M391.81,40.27c-1.31,3.4-3.88,5.19-7.58,5.19-5.52,0-8.32-4.78-8.32-9.7s2.8-9.7,8.32-9.7c3.7,0,6.27,1.79,7.58,5.19l-2.09.82c-1.01-2.46-2.69-3.84-5.49-3.84-4.03,0-5.9,3.47-5.9,7.54s1.87,7.54,5.9,7.54c2.8,0,4.48-1.38,5.49-3.84l2.09.82Z"/>
    <path class="st1" d="M412.04,26.35v18.81h-2.31v-2.46c-.97,1.46-3.55,2.76-6.23,2.76-5.49,0-8.7-4.33-8.7-9.7s3.21-9.7,8.7-9.7c2.35,0,4.85.97,6.23,2.84v-2.54h2.31ZM403.6,43.3c3.99,0,6.34-3.28,6.34-7.54s-2.35-7.54-6.34-7.54-6.38,3.36-6.38,7.54,2.39,7.54,6.38,7.54Z"/>
    <path class="st1" d="M417.41,52.78v-26.42h2.31v2.46c.97-1.46,3.47-2.76,5.93-2.76,5.49,0,8.4,4.33,8.4,9.7s-2.91,9.7-8.4,9.7c-2.02,0-4.55-1.16-5.93-2.95v10.26h-2.31ZM425.55,28.22c-3.99,0-6.05,3.28-6.05,7.54s2.05,7.54,6.05,7.54,6.08-3.36,6.08-7.54-2.09-7.54-6.08-7.54Z"/>
    <path class="st1" d="M440.63,19.04h3.47l-4.25,5.23h-1.83l2.61-5.23ZM440.78,26.35v18.81h-2.31v-18.81h2.31Z"/>
    <path class="st1" d="M444.96,26.35h3.32v-6.08l2.31-1.53v7.61h5.08v2.16h-5.08v11.68c0,2.13,1.08,3.1,2.69,3.1.86,0,1.87-.22,2.58-.67v2.35c-.75.3-1.72.49-2.87.49-2.72,0-4.7-1.68-4.7-5.64v-11.31h-3.32v-2.16Z"/>
    <path class="st1" d="M459.77,26.35h2.31v12.61c0,2.72,1.23,4.33,3.84,4.33,3.43,0,6.08-3.36,6.08-8.7v-8.25h2.31v18.81h-2.31v-3.92c-1.27,2.46-3.73,4.22-6.46,4.22-3.55,0-5.79-2.24-5.79-6.2v-12.91Z"/>
    <path class="st1" d="M481.2,18.74v26.42h-2.31v-26.42h2.31Z"/>
    <path class="st1" d="M494,26.05c5.49,0,8.81,4.78,8.81,9.7s-3.32,9.7-8.81,9.7-8.81-4.78-8.81-9.7,3.32-9.7,8.81-9.7ZM494,43.3c4.22,0,6.38-3.77,6.38-7.54s-2.17-7.54-6.38-7.54-6.38,3.77-6.38,7.54,2.16,7.54,6.38,7.54Z"/>
  </g>
  <g>
    <path class="st1" d="M531.16,42.89c-1.42,1.72-3.43,2.58-6.2,2.58-6.34,0-12.2-4.44-12.2-13.36s6.08-13.36,12.8-13.36c5.82,0,9.89,3.02,11.23,8.47l-5.86,1.53c-.56-2.58-2.69-4.33-5.45-4.33-3.62,0-6.49,2.87-6.49,7.69s2.87,7.69,6.38,7.69c2.69,0,4.37-1.31,5.04-3.32h-4.4v-4.85h10.53v13.55h-5.04l-.33-2.28Z"/>
    <path class="st1" d="M547.99,34.41h-1.31v10.75h-6.42v-26.13h10.34c5.23,0,8.32,3.1,8.32,7.43,0,3.06-1.57,5.78-4.33,7.09l7.2,11.61h-7.13l-6.68-10.75ZM552.81,26.46c0-1.83-1.19-2.43-2.95-2.43h-3.17v4.85h3.17c1.75,0,2.95-.6,2.95-2.43Z"/>
    <path class="st1" d="M578.37,39.6h-6.94l-1.68,5.56h-6.87l8.85-26.13h6.34l8.85,26.13h-6.87l-1.68-5.56ZM573.11,33.93h3.58l-1.79-6.12-1.79,6.12Z"/>
    <path class="st1" d="M584.38,19.04h20.83v5.67h-7.09v20.45h-6.64v-20.45h-7.09v-5.67Z"/>
    <path class="st1" d="M614.69,45.16h-6.64v-26.13h6.64v26.13Z"/>
    <path class="st1" d="M629.47,26.87c-.86-1.83-1.68-2.61-2.87-2.61-1.01,0-1.64.6-1.64,1.57,0,3.73,10.6,3.32,10.6,11.23,0,5.26-3.4,8.4-8.88,8.4s-8.62-3.32-9.48-7.32l5.15-3.25c.67,2.61,2.01,4.89,4.44,4.89,1.27,0,2.24-.56,2.24-2.05,0-4.37-10.34-3.47-10.34-11.79,0-4.03,3.06-7.2,7.69-7.2,3.96,0,6.34,1.49,8.02,4.89l-4.93,3.25Z"/>
  </g>
</svg>