<?xml version="1.0" encoding="UTF-8"?>
<svg id="I_x2B__Logo" xmlns="http://www.w3.org/2000/svg" version="1.1" viewBox="0 0 1076 309.23">
  <!-- Generator: Adobe Illustrator 30.3.0, SVG Export Plug-In . SVG Version: 2.1.3 Build 182)  -->
  <defs>
    <style>
      .st0 {
        fill: #fff;
      }
    </style>
  </defs>
  <path class="st0" d="M112,222.04v-23.71h26.45v-85.73h-26.45v-23.71h80.26v23.71h-26.45v85.73h26.45v23.71h-80.26Z"/>
  <path class="st0" d="M215.97,222.04V88.88h31.92l34.47,103.06c-.36-4.5-.79-9.7-1.28-15.6-.49-5.9-.88-11.79-1.19-17.69-.3-5.9-.46-10.91-.46-15.05v-54.72h24.08v133.15h-31.92l-34.11-103.06c.36,3.89.73,8.51,1.09,13.86.37,5.35.7,10.76,1,16.23.3,5.47.46,10.34.46,14.59v58.37h-24.08Z"/>
  <path class="st0" d="M325.4,222.04V88.88h85.73v25.54h-58.73v29.55h53.99v25.54h-53.63v52.53h-27.36Z"/>
  <path class="st0" d="M471.32,223.86c-8.88,0-16.6-1.67-23.17-5.02-6.57-3.34-11.64-8.03-15.23-14.05-3.59-6.02-5.38-13.04-5.38-21.07v-56.54c0-8.03,1.79-15.05,5.38-21.07,3.59-6.02,8.66-10.7,15.23-14.04,6.57-3.34,14.29-5.02,23.17-5.02s16.75,1.67,23.26,5.02c6.5,3.35,11.55,8.03,15.14,14.04,3.58,6.02,5.38,13.04,5.38,21.07v56.54c0,8.03-1.8,15.05-5.38,21.07-3.59,6.02-8.64,10.7-15.14,14.05-6.51,3.34-14.26,5.02-23.26,5.02ZM471.32,200.15c5.47,0,9.58-1.43,12.31-4.29,2.74-2.85,4.1-6.9,4.1-12.13v-56.54c0-5.35-1.34-9.42-4.01-12.22-2.68-2.8-6.81-4.2-12.4-4.2s-9.73,1.4-12.4,4.2c-2.68,2.8-4.01,6.87-4.01,12.22v56.54c0,5.23,1.37,9.27,4.1,12.13,2.74,2.86,6.84,4.29,12.31,4.29Z"/>
  <path class="st0" d="M536.07,222.04V88.88h42.86c9.48,0,17.69,1.64,24.62,4.92,6.93,3.28,12.31,7.97,16.14,14.04,3.83,6.08,5.75,13.26,5.75,21.52s-2.1,16.36-6.29,23.17c-4.2,6.81-9.88,11.74-17.05,14.77l25.17,54.72h-29.73l-21.52-50.34h-12.77v50.34h-27.18ZM563.25,147.98h15.69c6.08,0,10.79-1.52,14.14-4.56,3.34-3.04,5.02-7.3,5.02-12.77s-1.67-10.15-5.02-13.31c-3.35-3.16-8.06-4.74-14.14-4.74h-15.69v35.39Z"/>
  <path class="st0" d="M646.79,222.04V88.88h30.83l12.22,41.95c1.34,4.38,2.34,8.21,3.01,11.49.67,3.28,1.06,5.6,1.19,6.93.12-1.34.52-3.65,1.18-6.93.67-3.28,1.61-7.11,2.83-11.49l12.04-41.95h30.83v133.15h-24.99v-36.48c0-6.69.15-13.71.46-21.07.3-7.36.7-14.68,1.18-21.98.49-7.3,1.03-14.14,1.64-20.52.61-6.38,1.15-11.95,1.64-16.69l-15.32,60.19h-23.17l-16.05-60.19c.61,4.5,1.21,9.88,1.82,16.14.61,6.26,1.19,13.01,1.73,20.25.55,7.24,1,14.62,1.37,22.16.36,7.54.55,14.77.55,21.71v36.48h-24.99Z"/>
  <path class="st0" d="M764.98,222.04V88.88h82.08v23.35h-55.27v29.91h48.88v23.35h-48.88v33.2h55.27v23.35h-82.08Z"/>
  <rect class="st0" x="888.84" y="142.27" width="96.27" height="23.25"/>
  <rect class="st0" x="925.35" y="105.76" width="23.25" height="96.27"/>
  <polygon class="st0" points="1076 105.76 1052.75 105.76 1052.75 23.25 23.25 23.25 23.25 105.76 0 105.76 0 0 1076 0 1076 105.76"/>
  <polygon class="st0" points="1076 203.47 1052.75 203.47 1052.75 285.98 23.25 285.98 23.25 203.47 0 203.47 0 309.23 1076 309.23 1076 203.47"/>
</svg>